<svg version="1.1" xmlns="http://www.w3.org/2000/svg" xmlns:xlink="http://www.w3.org/1999/xlink" width="151.81395" height="71.02558" viewBox="0,0,151.81395,71.02558"><g transform="translate(-259.41647,-65.49989)"><g data-paper-data="{&quot;isPaintingLayer&quot;:true}" fill-rule="nonzero" stroke-linecap="butt" stroke-linejoin="miter" stroke-miterlimit="10" stroke-dasharray="" stroke-dashoffset="0" style="mix-blend-mode: normal"><path d="M259.91647,136.02547v-63.13658l7.11576,-6.889h143.69819v62.889l-6.36486,7.13658z" id="svg_1" fill="#ffffff" stroke="#ffffff" stroke-width="1" opacity="0.7"/><path d="M281.22541,115.33407c0.63844,0.63794 0.63844,1.67272 0,2.31115c-0.63794,0.63844 -1.67322,0.63844 -2.31115,0c-0.63844,-0.63794 -0.63844,-1.67272 0,-2.31115c0.63794,-0.63794 1.67272,-0.63794 2.31115,0zM292.73625,116.48991c0,6.99578 -5.67088,12.66667 -12.66667,12.66667c-6.99578,0 -12.66667,-5.67088 -12.66667,-12.66667c0,-6.99578 5.67088,-12.66667 12.66667,-12.66667c6.99578,0 12.66667,5.67088 12.66667,12.66667zM285.17456,110.04676l-7.37221,3.36943c-0.35654,0.16297 -0.64248,0.44891 -0.80546,0.80546l-3.36994,7.37272c-0.38868,0.8504 0.48776,1.72685 1.33818,1.33818l7.37221,-3.36943c0.35654,-0.16297 0.64248,-0.44891 0.80546,-0.80546l3.36943,-7.37272c0.38868,-0.8504 -0.48726,-1.72634 -1.33766,-1.33818z" fill="#ffffff" stroke="none" stroke-width="1"/><text transform="translate(360.59466,92.40976) scale(0.49531,0.49531)" font-size="40" xml:space="preserve" fill="#494949" fill-rule="nonzero" stroke="#5c5c5c" stroke-width="2" stroke-linecap="butt" stroke-linejoin="miter" stroke-miterlimit="10" stroke-dasharray="" stroke-dashoffset="0" font-family="Serif" font-weight="normal" text-anchor="start" style="mix-blend-mode: normal"><tspan x="0" dy="0">作战</tspan></text><text transform="translate(366.47266,121.83739) scale(0.40895,0.40895)" font-size="40" xml:space="preserve" fill="#ffffff" fill-rule="nonzero" stroke="#ffffff" stroke-width="3" stroke-linecap="butt" stroke-linejoin="miter" stroke-miterlimit="10" stroke-dasharray="" stroke-dashoffset="0" font-family="Malgun Gothic" font-weight="normal" text-anchor="start" style="mix-blend-mode: normal"><tspan x="0" dy="0">fight</tspan></text></g></g></svg>