<svg version="1.1" xmlns="http://www.w3.org/2000/svg" xmlns:xlink="http://www.w3.org/1999/xlink" width="491" height="370" viewBox="0,0,491,370"><defs><linearGradient x1="358" y1="26.99888" x2="358" y2="163.00114" gradientUnits="userSpaceOnUse" id="color-1"><stop offset="0" stop-color="#9c9c9c"/><stop offset="1" stop-color="#000000"/></linearGradient><linearGradient x1="267.26972" y1="95.00001" x2="448.73028" y2="95.00001" gradientUnits="userSpaceOnUse" id="color-2"><stop offset="0" stop-color="#000000"/><stop offset="1" stop-color="#000000" stop-opacity="0"/></linearGradient><radialGradient cx="296.20083" cy="73.64238" r="16.36637" gradientUnits="userSpaceOnUse" id="color-3"><stop offset="0" stop-color="#777777"/><stop offset="1" stop-color="#4a4a4a"/></radialGradient><radialGradient cx="313.16337" cy="53.1866" r="14.67905" gradientUnits="userSpaceOnUse" id="color-4"><stop offset="0" stop-color="#777777"/><stop offset="1" stop-color="#4a4a4a"/></radialGradient><radialGradient cx="310.95275" cy="63.88173" r="15.03941" gradientUnits="userSpaceOnUse" id="color-5"><stop offset="0" stop-color="#777777"/><stop offset="1" stop-color="#4a4a4a"/></radialGradient><radialGradient cx="342.23059" cy="56.55733" r="14.70681" gradientUnits="userSpaceOnUse" id="color-6"><stop offset="0" stop-color="#777777"/><stop offset="1" stop-color="#4a4a4a"/></radialGradient><radialGradient cx="296.6438" cy="74.72775" r="16.36636" gradientUnits="userSpaceOnUse" id="color-7"><stop offset="0" stop-color="#ffffff"/><stop offset="1" stop-color="#d4d4d4"/></radialGradient><radialGradient cx="312.80271" cy="53.63139" r="14.67905" gradientUnits="userSpaceOnUse" id="color-8"><stop offset="0" stop-color="#ffffff"/><stop offset="1" stop-color="#d4d4d4"/></radialGradient><radialGradient cx="311.00728" cy="64.40401" r="15.03942" gradientUnits="userSpaceOnUse" id="color-9"><stop offset="0" stop-color="#ffffff"/><stop offset="1" stop-color="#d4d4d4"/></radialGradient><radialGradient cx="341.97853" cy="55.87569" r="14.70681" gradientUnits="userSpaceOnUse" id="color-10"><stop offset="0" stop-color="#ffffff"/><stop offset="1" stop-color="#d4d4d4"/></radialGradient></defs><g transform="translate(7.10418,3.33336)"><g data-paper-data="{&quot;isPaintingLayer&quot;:true}" fill-rule="nonzero" stroke-linejoin="miter" stroke-miterlimit="10" stroke-dasharray="" stroke-dashoffset="0" style="mix-blend-mode: normal"><path d="M-7.10418,366.66665v-370h491v370z" fill="#f0f0f0" stroke="none" stroke-width="0" stroke-linecap="butt"/><text transform="translate(23.07285,28.71037) scale(0.16468,0.16468)" font-size="40" xml:space="preserve" fill="#000000" fill-rule="nonzero" stroke="#000000" stroke-width="1" stroke-linecap="butt" stroke-linejoin="miter" stroke-miterlimit="10" stroke-dasharray="" stroke-dashoffset="0" font-family="Serif" font-weight="normal" text-anchor="start" style="mix-blend-mode: normal"><tspan x="0" dy="0">通讯组1期消息</tspan><tspan x="0" dy="46.15px"> </tspan><tspan x="0" dy="46.15px"> </tspan><tspan x="0" dy="46.15px"> </tspan><tspan x="0" dy="46.15px"> </tspan><tspan x="0" dy="46.15px"> </tspan><tspan x="0" dy="46.15px">通讯组4期消息</tspan><tspan x="0" dy="46.15px"> </tspan><tspan x="0" dy="46.15px"> </tspan><tspan x="0" dy="46.15px"> </tspan><tspan x="0" dy="46.15px"> </tspan><tspan x="0" dy="46.15px"> </tspan><tspan x="0" dy="46.15px">通讯组2期消息</tspan></text><text transform="translate(22.44566,38.82143) scale(0.19677,0.19677)" font-size="40" xml:space="preserve" fill="#000000" fill-rule="nonzero" stroke="none" stroke-width="1" stroke-linecap="butt" stroke-linejoin="miter" stroke-miterlimit="10" stroke-dasharray="" stroke-dashoffset="0" font-family="Serif" font-weight="normal" text-anchor="start" style="mix-blend-mode: normal"><tspan x="0" dy="0">突击·方舟与2021.7.22开始公测！</tspan></text><text transform="translate(193.04189,141.85338) scale(0.15987,0.15987)" font-size="40" xml:space="preserve" fill="#000000" fill-rule="nonzero" stroke="none" stroke-width="1" stroke-linecap="butt" stroke-linejoin="miter" stroke-miterlimit="10" stroke-dasharray="" stroke-dashoffset="0" font-family="Sans Serif" font-weight="normal" text-anchor="start" style="mix-blend-mode: normal"><tspan x="0" dy="0">2021.8.4</tspan></text><text transform="translate(23.21975,129.62839) scale(0.18786,0.18786)" font-size="40" xml:space="preserve" fill="#000000" fill-rule="nonzero" stroke="none" stroke-width="1" stroke-linecap="butt" stroke-linejoin="miter" stroke-miterlimit="10" stroke-dasharray="" stroke-dashoffset="0" font-family="Serif" font-weight="normal" text-anchor="start" style="mix-blend-mode: normal"><tspan x="0" dy="0">Arknights-A服官网正式上线！点击主页左上角地球或访问：</tspan><tspan x="0" dy="46.15px">https://aerfaying.com/Projects/847557</tspan></text><text transform="translate(23.21975,83.88051) scale(0.19677,0.19677)" font-size="40" xml:space="preserve" fill="#000000" fill-rule="nonzero" stroke="none" stroke-width="1" stroke-linecap="butt" stroke-linejoin="miter" stroke-miterlimit="10" stroke-dasharray="" stroke-dashoffset="0" font-family="Serif" font-weight="normal" text-anchor="start" style="mix-blend-mode: normal"><tspan x="0" dy="0">战斗系统升级！现在干员也有血量了！小心被击倒哦！</tspan></text><text transform="translate(191.61578,94.80661) scale(0.15987,0.15987)" font-size="40" xml:space="preserve" fill="#000000" fill-rule="nonzero" stroke="none" stroke-width="1" stroke-linecap="butt" stroke-linejoin="miter" stroke-miterlimit="10" stroke-dasharray="" stroke-dashoffset="0" font-family="Sans Serif" font-weight="normal" text-anchor="start" style="mix-blend-mode: normal"><tspan x="0" dy="0">2022.2.1</tspan></text><text transform="translate(20.5524,229.48314) scale(0.20599,0.20599)" font-size="40" xml:space="preserve" fill="#000000" fill-rule="nonzero" stroke="none" stroke-width="1" stroke-linecap="butt" stroke-linejoin="miter" stroke-miterlimit="10" stroke-dasharray="" stroke-dashoffset="0" font-family="Serif" font-weight="normal" text-anchor="start" style="mix-blend-mode: normal"><tspan x="0" dy="0">第1赛季已经开始！点击主界面左上角按钮开始！</tspan></text><text transform="translate(20.88069,214.95877) scale(0.17239,0.17239)" font-size="40" xml:space="preserve" fill="#000000" fill-rule="nonzero" stroke="#000000" stroke-width="1" stroke-linecap="butt" stroke-linejoin="miter" stroke-miterlimit="10" stroke-dasharray="" stroke-dashoffset="0" font-family="&quot;Microsoft YaHei&quot;, &quot;微软雅黑&quot;, STXihei, &quot;华文细黑&quot;" font-weight="normal" text-anchor="start" style="mix-blend-mode: normal"><tspan x="0" dy="0">通讯组5期消息</tspan><tspan x="0" dy="46.15px"> </tspan></text><text transform="translate(19.89582,174.00187) scale(0.20599,0.20599)" font-size="40" xml:space="preserve" fill="#000000" fill-rule="nonzero" stroke="none" stroke-width="1" stroke-linecap="butt" stroke-linejoin="miter" stroke-miterlimit="10" stroke-dasharray="" stroke-dashoffset="0" font-family="Serif" font-weight="normal" text-anchor="start" style="mix-blend-mode: normal"><tspan x="0" dy="0">"晚都之章"即将开放!敬请期待!</tspan></text><text transform="translate(20.22411,159.4775) scale(0.17239,0.17239)" font-size="40" xml:space="preserve" fill="#000000" fill-rule="nonzero" stroke="#000000" stroke-width="1" stroke-linecap="butt" stroke-linejoin="miter" stroke-miterlimit="10" stroke-dasharray="" stroke-dashoffset="0" font-family="&quot;Microsoft YaHei&quot;, &quot;微软雅黑&quot;, STXihei, &quot;华文细黑&quot;" font-weight="normal" text-anchor="start" style="mix-blend-mode: normal"><tspan x="0" dy="0">通讯组6期消息</tspan><tspan x="0" dy="46.15px"> </tspan></text><g stroke="none" stroke-width="0" stroke-linecap="butt"><path d="M267.26972,163.00114v-129.83437l6.16736,-6.1679h175.2932v129.91146l-6.21555,6.09081z" fill="url(#color-1)" opacity="0.7"/><path d="M267.26972,163.00114v-129.83437l6.16736,-6.1679h175.2932v129.91146l-6.21555,6.09081z" fill="url(#color-2)" opacity="0.7"/></g><path d="M267.26972,324.6063v-147.65448l6.16736,-7.01446h175.2932v147.74215l-6.21555,6.92679z" fill="#000000" stroke="none" stroke-width="0" stroke-linecap="butt" opacity="0.7"/><text transform="translate(284.17718,194.0539) scale(0.21831,0.21831)" font-size="40" xml:space="preserve" fill="#a0a0a0" fill-rule="nonzero" stroke="none" stroke-width="1" stroke-linecap="butt" stroke-linejoin="miter" stroke-miterlimit="10" stroke-dasharray="" stroke-dashoffset="0" font-family="Sans Serif" font-weight="normal" text-anchor="start" style="mix-blend-mode: normal"><tspan x="0" dy="0">应用程序版本</tspan><tspan x="0" dy="46.15px"> </tspan><tspan x="0" dy="46.15px">用户界面迭代版本</tspan><tspan x="0" dy="46.15px"> </tspan><tspan x="0" dy="46.15px">作战内核版本</tspan><tspan x="0" dy="46.15px"> </tspan><tspan x="0" dy="46.15px">账号系统迭代版本</tspan><tspan x="0" dy="46.15px"> </tspan><tspan x="0" dy="46.15px">识别哈希串SHA256</tspan></text><text transform="translate(362.17718,194.0539) scale(0.21831,0.21831)" font-size="40" xml:space="preserve" fill="#ffffff" fill-rule="nonzero" stroke="none" stroke-width="1" stroke-linecap="butt" stroke-linejoin="miter" stroke-miterlimit="10" stroke-dasharray="" stroke-dashoffset="0" font-family="Sans Serif" font-weight="normal" text-anchor="start" style="mix-blend-mode: normal"><tspan x="0" dy="0">66</tspan><tspan x="0" dy="46.15px"> </tspan><tspan x="0" dy="46.15px">ui2(n</tspan><tspan x="0" dy="46.15px"> </tspan><tspan x="0" dy="46.15px">verA2</tspan><tspan x="0" dy="46.15px"> </tspan><tspan x="0" dy="46.15px">NU(V2)</tspan><tspan x="0" dy="46.15px"> </tspan><tspan x="0" dy="46.15px">a7f9f97db7d120</tspan><tspan x="0" dy="46.15px">b8c753b04e6112</tspan><tspan x="0" dy="46.15px">ee17f1ec713cb5</tspan><tspan x="0" dy="46.15px">c005832bbd370e</tspan><tspan x="0" dy="46.15px">4097418b</tspan></text><text transform="translate(362.72915,321.63128) scale(0.09272,0.09272)" font-size="40" xml:space="preserve" fill="#585858" fill-rule="nonzero" stroke="none" stroke-width="1" stroke-linecap="butt" stroke-linejoin="miter" stroke-miterlimit="10" stroke-dasharray="" stroke-dashoffset="0" font-family="Sans Serif" font-weight="normal" text-anchor="start" style="mix-blend-mode: normal"><tspan x="0" dy="0">这个作品是突击方舟/作者是Ntsc</tspan></text><text transform="translate(329.75769,99.6214) scale(0.15495,0.15495)" font-size="40" xml:space="preserve" fill="#636363" fill-rule="nonzero" stroke="none" stroke-width="1" stroke-linecap="butt" stroke-linejoin="miter" stroke-miterlimit="10" stroke-dasharray="" stroke-dashoffset="0" font-family="Sans Serif" font-weight="normal" text-anchor="start" style="mix-blend-mode: normal"><tspan x="0" dy="0">work  </tspan></text><text transform="translate(347.9005,97.94314) scale(0.21632,0.21632)" font-size="40" xml:space="preserve" fill="#000000" fill-rule="nonzero" stroke="none" stroke-width="1" stroke-linecap="butt" stroke-linejoin="miter" stroke-miterlimit="10" stroke-dasharray="" stroke-dashoffset="0" font-family="&quot;ヒラギノ角ゴ Pro W3&quot;, &quot;Hiragino Kaku Gothic Pro&quot;, Osaka, &quot;メイリオ&quot;, Meiryo, &quot;ＭＳ Ｐゴシック&quot;, &quot;MS PGothic&quot;" font-weight="normal" text-anchor="start" style="mix-blend-mode: normal"><tspan x="0" dy="0">StatioN</tspan></text><text transform="translate(375.42789,86.56295) rotate(28.93148) scale(0.20633,0.20633)" font-size="40" xml:space="preserve" fill="#006760" fill-rule="nonzero" stroke="none" stroke-width="1" stroke-linecap="butt" stroke-linejoin="miter" stroke-miterlimit="10" stroke-dasharray="" stroke-dashoffset="0" font-family="&quot;ヒラギノ角ゴ Pro W3&quot;, &quot;Hiragino Kaku Gothic Pro&quot;, Osaka, &quot;メイリオ&quot;, Meiryo, &quot;ＭＳ Ｐゴシック&quot;, &quot;MS PGothic&quot;" font-weight="normal" text-anchor="start" style="mix-blend-mode: normal"><tspan x="0" dy="0">Tloik</tspan></text><g fill="none" stroke-width="10" stroke-linecap="round"><path d="M293.10344,45.09968c0,0 9.38998,-0.24186 11.94058,-0.30755c1.36085,-0.03505 2.23008,1.08338 1.75958,2.36079c-1.78177,4.83745 -12.1181,29.99065 -12.1181,29.99065" stroke="url(#color-3)"/><path d="M311.41201,50.04114c0,0 6.78095,22.55838 8.33247,27.71989c0.42118,1.40115 -0.50574,2.56981 -1.58954,1.58697c-2.50768,-2.27405 -11.24503,-10.1974 -11.24503,-10.1974" stroke="url(#color-4)"/><path d="M337.80216,48.71064c0,0 -6.52157,24.62172 -7.64756,28.87281c-0.23824,0.89946 -1.11789,0.76305 -1.40419,-0.1223c-0.79751,-2.46614 -3.83102,-11.84669 -3.83102,-11.84669l-17.84595,-0.69055" stroke="url(#color-5)"/><path d="M357.05701,49.45571c0,0 -5.46833,23.55112 -6.57467,28.20989c-0.2736,1.1521 -1.35064,1.28447 -1.70685,0.15518c-1.25846,-3.98981 -6.9829,-22.8414 -6.9829,-22.8414" stroke="url(#color-6)"/></g><g fill="none" stroke-width="4" stroke-linecap="round"><path d="M292.44509,46.32617c0,0 9.37361,-0.60475 11.91976,-0.76902c1.35847,-0.08765 2.2703,0.99634 1.84954,2.29099c-1.59339,4.90273 -10.94941,30.43679 -10.94941,30.43679" stroke="url(#color-7)"/><path d="M310.93103,50.55601c0,0 7.64812,22.27932 9.39806,27.37698c0.47504,1.38382 -0.406,2.58744 -1.52699,1.64724c-2.59373,-2.17539 -11.63092,-9.75497 -11.63092,-9.75497" stroke="url(#color-8)"/><path d="M337.25,48.2061c0,0 -5.56466,24.85548 -6.52544,29.14693c-0.20328,0.90799 -1.08755,0.8057 -1.40787,-0.06791c-0.68767,-1.87547 -2.86132,-7.8036 -3.82198,-10.42356c-0.2858,-0.77948 -1.31611,-1.26613 -2.17774,-1.26613c-2.64491,0 -16.14582,0 -16.14582,0" stroke="url(#color-9)"/><path d="M356.51926,48.2061c0,0 -4.55361,23.74495 -5.47898,28.44301c-0.22884,1.16182 -1.29996,1.33574 -1.69957,0.22106c-1.41179,-3.93816 -7.86086,-22.55432 -7.86086,-22.55432" stroke="url(#color-10)"/></g></g></g></svg>