<svg version="1.1" xmlns="http://www.w3.org/2000/svg" xmlns:xlink="http://www.w3.org/1999/xlink" width="61.49302" height="33.3407" viewBox="0,0,61.49302,33.3407"><g transform="translate(-31.69048,-273.9999)"><g data-paper-data="{&quot;isPaintingLayer&quot;:true}" fill-rule="nonzero" stroke="none" stroke-linecap="butt" stroke-linejoin="miter" stroke-miterlimit="10" stroke-dasharray="" stroke-dashoffset="0" style="mix-blend-mode: normal"><path d="M31.69048,307.3406v-33.3407h61.49302v33.3407z" id="svg_1" fill="#ffffff" stroke-width="0" opacity="0.7"/><text transform="translate(56.46862,296.58331) scale(0.375,0.375)" font-size="40" xml:space="preserve" fill="#494949" fill-rule="nonzero" stroke="none" stroke-width="1" stroke-linecap="butt" stroke-linejoin="miter" stroke-miterlimit="10" stroke-dasharray="" stroke-dashoffset="0" font-family="Sans Serif" font-weight="normal" text-anchor="start" style="mix-blend-mode: normal"><tspan x="0" dy="0">好友</tspan></text><path d="M50.6875,288.6875v1.875h0.58594c0.19336,0 0.35156,0.1582 0.35156,0.35156v1.17188c0,0.19336 -0.1582,0.35156 -0.35156,0.35156h-0.58594v1.875h0.58594c0.19336,0 0.35156,0.1582 0.35156,0.35156v1.17188c0,0.19336 -0.1582,0.35156 -0.35156,0.35156h-0.58594v1.40625c0,0.77637 -0.62988,1.40625 -1.40625,1.40625h-9.375c-0.77637,0 -1.40625,-0.62988 -1.40625,-1.40625v-12.1875c0,-0.77637 0.62988,-1.40625 1.40625,-1.40625h9.375c0.77637,0 1.40625,0.62988 1.40625,1.40625v1.40625h0.58594c0.19336,0 0.35156,0.1582 0.35156,0.35156v1.17188c0,0.19336 -0.1582,0.35156 -0.35156,0.35156zM42.71875,289.625c0,1.03418 0.84082,1.875 1.875,1.875c1.03418,0 1.875,-0.84082 1.875,-1.875c0,-1.03418 -0.84082,-1.875 -1.875,-1.875c-1.03418,0 -1.875,0.84082 -1.875,1.875zM47.875,294.125c0,-0.93164 -0.88184,-1.6875 -1.96875,-1.6875h-0.14648c-0.35742,0.14941 -0.75293,0.23437 -1.16602,0.23437c-0.41309,0 -0.80566,-0.08496 -1.16602,-0.23437h-0.14648c-1.08691,0 -1.96875,0.75586 -1.96875,1.6875v0.5625c0,0.31055 0.29297,0.5625 0.65625,0.5625h5.25c0.36328,0 0.65625,-0.25195 0.65625,-0.5625z" fill="#000000" stroke-width="1"/></g></g></svg>