<svg version="1.1" xmlns="http://www.w3.org/2000/svg" xmlns:xlink="http://www.w3.org/1999/xlink" width="137" height="255" viewBox="0,0,137,255"><defs><linearGradient x1="78.06658" y1="17.76122" x2="416.14444" y2="339.40472" gradientUnits="userSpaceOnUse" id="color-1"><stop offset="0" stop-color="#130c41"/><stop offset="0.9964" stop-color="#634da0"/></linearGradient><linearGradient x1="332.67582" y1="85.61203" x2="332.67582" y2="111.3965" gradientUnits="userSpaceOnUse" id="color-2"><stop offset="0.0077" stop-color="#ffffff" stop-opacity="0.5"/><stop offset="1" stop-color="#ffffff" stop-opacity="0.1"/></linearGradient><linearGradient x1="171.19669" y1="144.64095" x2="171.19669" y2="166.75472" gradientUnits="userSpaceOnUse" id="color-3"><stop offset="0.0077" stop-color="#ffffff" stop-opacity="0.5"/><stop offset="1" stop-color="#ffffff" stop-opacity="0.1"/></linearGradient><linearGradient x1="330.93409" y1="133.89931" x2="330.93409" y2="282.98705" gradientUnits="userSpaceOnUse" id="color-4"><stop offset="0.0015" stop-color="#6c54a3"/><stop offset="0.2053" stop-color="#68509f"/><stop offset="0.4206" stop-color="#5c4692"/><stop offset="0.6413" stop-color="#48347d"/><stop offset="0.8642" stop-color="#2c1b60"/><stop offset="0.999" stop-color="#17094a"/></linearGradient><linearGradient x1="158.06529" y1="227.34913" x2="158.06529" y2="285.09625" gradientUnits="userSpaceOnUse" id="color-5"><stop offset="0.0036" stop-color="#6c54a3"/><stop offset="0.1308" stop-color="#59438f"/><stop offset="0.3582" stop-color="#3c2a71"/><stop offset="0.5819" stop-color="#28185b"/><stop offset="0.7983" stop-color="#1b0d4e"/><stop offset="0.999" stop-color="#17094a"/></linearGradient><linearGradient x1="332.16175" y1="248.36524" x2="332.16175" y2="319.21985" gradientUnits="userSpaceOnUse" id="color-6"><stop offset="0.0036" stop-color="#6c54a3"/><stop offset="0.1308" stop-color="#59438f"/><stop offset="0.3582" stop-color="#3c2a71"/><stop offset="0.5819" stop-color="#28185b"/><stop offset="0.7983" stop-color="#1b0d4e"/><stop offset="0.999" stop-color="#17094a"/></linearGradient><linearGradient x1="365.70694" y1="266.39568" x2="365.70694" y2="367.56967" gradientUnits="userSpaceOnUse" id="color-7"><stop offset="0.0015" stop-color="#6c54a3"/><stop offset="0.2053" stop-color="#68509f"/><stop offset="0.4206" stop-color="#5c4692"/><stop offset="0.6413" stop-color="#48347d"/><stop offset="0.8642" stop-color="#2c1b60"/><stop offset="0.999" stop-color="#17094a"/></linearGradient><linearGradient x1="133.80095" y1="241.24989" x2="133.80095" y2="335.16239" gradientUnits="userSpaceOnUse" id="color-8"><stop offset="0.0015" stop-color="#6c54a3"/><stop offset="0.999" stop-color="#17094a"/></linearGradient></defs><g transform="translate(-171.71806,-52.32615)"><g data-paper-data="{&quot;isPaintingLayer&quot;:true}" fill-rule="nonzero" stroke-linecap="butt" stroke-linejoin="miter" stroke-miterlimit="10" stroke-dasharray="" stroke-dashoffset="0" style="mix-blend-mode: normal"><path d="M306.99524,303.3421c0,0.06268 0.00058,0.12523 0.00173,0.18764c0.01734,1.2026 0.15443,2.17901 0.402,2.99101c-44.23352,-0.27301 -88.46905,-0.34827 -132.70344,-0.19832c-0.61523,-0.11836 -1.25053,-0.18033 -1.90029,-0.18033c-0.02662,0 -0.05323,0.0001 -0.0798,0.00031c0.27815,-84.1297 0.22407,-168.26097 -0.11441,-252.39034c44.39807,0.13608 88.79717,0.04954 133.19421,-0.23248c0.09744,0 0.19454,-0.00139 0.29131,-0.00416c0.26989,-0.00606 0.52819,-0.01815 0.77565,-0.03618c-0.26506,83.28726 -0.20524,166.57599 0.13304,249.86285z" fill="url(#color-1)" stroke="none" stroke-width="1"/><path d="M275.00674,110.29263c1.28258,-3.08617 4.16958,-5.45035 7.44484,-6.09628c3.27526,-0.64572 6.8419,0.44555 9.19719,2.81437c4.33889,-3.87135 9.07853,-7.62948 14.72583,-9.00246c0.12505,-0.0304 0.25064,-0.05932 0.37674,-0.08675c-0.00784,4.32438 -0.01483,8.64875 -0.02096,12.97314z" fill="url(#color-2)" stroke="none" stroke-width="1"/><path d="M207.64049,167.31345l-34.76027,-0.69768c-0.00655,-7.39329 -0.01546,-14.78659 -0.0267,-22.17987c5.5112,-1.84507 11.78501,-2.32107 16.17446,1.27491c4.8367,3.96255 5.31031,11.06758 5.39708,17.32509c2.77926,-0.19554 5.20255,-2.0403 7.958,-2.45336c2.75564,-0.41306 6.52549,4.24687 5.25744,6.73091z" fill="url(#color-3)" stroke="none" stroke-width="1"/><path d="M186.92091,91.68799c-0.39047,0 -0.38986,-0.60577 0,-0.60577c0.39047,0 0.38986,0.60577 0,0.60577z" fill="#ffffff" stroke="none" stroke-width="1"/><path d="" fill="#ffffff" stroke="none" stroke-width="1"/><path d="M230.35278,126.73408c-0.39047,0 -0.38986,-0.60577 0,-0.60577c0.39047,0 0.38986,0.60577 0,0.60577z" fill="#ffffff" stroke="none" stroke-width="1"/><path d="M275.22079,95.27702c0.27605,0.27625 -0.15215,0.70486 -0.428,0.42861c-0.25507,-0.25547 -0.51033,-0.51113 -0.7654,-0.7666c-0.27605,-0.27625 0.15215,-0.70486 0.428,-0.42861c0.25507,0.25567 0.51013,0.51113 0.76539,0.7666z" fill="#ffffff" stroke="none" stroke-width="1"/><path d="M284.25392,155.59672c0,0.39067 -0.60537,0.39006 -0.60537,0c0,-0.53454 0,-1.06909 0,-1.60363c0,-0.39067 0.60537,-0.39006 0.60537,0c0,0.53454 0,1.06909 0,1.60363z" fill="#ffffff" stroke="none" stroke-width="1"/><path d="M234.30686,232.87646c-0.39047,0 -0.38986,-0.60577 0,-0.60577c0.39047,0 0.38986,0.60577 0,0.60577z" fill="#ffffff" stroke="none" stroke-width="1"/><path d="M179.76119,192.13604l64.52944,68.42943l-71.45919,1.28565c0.04199,-21.67271 0.06251,-43.34549 0.06234,-65.01826z" fill="#48337a" stroke="none" stroke-width="1"/><path d="M179.76119,192.13605l9.68532,14.80957l-6.93169,8.22496l14.84832,10.08749l-3.88043,5.06493l21.76225,22.77463l-42.39436,-2.04543c0.02764,-17.17147 0.04187,-34.34298 0.04309,-51.51449z" fill="#251258" stroke="none" stroke-width="1"/><path d="M179.14794,204.65834l-6.25639,4.72087c0.00152,-4.18646 0.00226,-8.37292 0.00222,-12.55938l6.8674,-4.68377z" fill="#170b36" stroke="none" stroke-width="1"/><path d="M245.54355,170.75014l61.23226,61.78945c0.02618,12.33987 0.05877,24.67971 0.09761,37.01952l-134.02673,-16.13315c0.01591,-9.46062 0.02774,-18.92124 0.03556,-28.38188z" fill="#48337a" stroke="none" stroke-width="1"/><path d="M245.54355,170.75014l3.4391,23.695l-14.90562,7.12198l16.50966,12.34148l-7.81452,21.11269l12.64376,16.19143l-82.55455,-7.35167c0.00873,-6.27233 0.01568,-12.54467 0.02087,-18.817z" fill="#170b36" stroke="none" stroke-width="1"/><path d="M206.99356,276.24619l99.7073,-100.83965c0.01855,37.73503 0.09915,75.47001 0.23746,113.20466z" fill="url(#color-4)" stroke="none" stroke-width="1"/><path d="M235.21617,247.70298l71.48469,-72.29646c0.01441,29.30025 0.06622,58.60049 0.15341,87.90056z" fill="#251258" stroke="none" stroke-width="1"/><path d="M302.8794,209.25391l3.86158,4.54375c0.01671,10.48224 0.03808,20.96447 0.06404,31.44668l-12.03898,24.10991l-87.77243,6.89193l99.70725,-100.83961c0.00516,10.49286 0.01512,20.98572 0.02978,31.47857z" fill="#170b36" stroke="none" stroke-width="1"/><path d="M275.71317,252.07355v3.09022h-0.78476l-0.04541,-3.09022z" fill="#080b4a" stroke="none" stroke-width="1"/><path d="M275.71317,255.16377v-3.09022h0.26515v3.09022z" fill="#6c54a3" stroke="none" stroke-width="1"/><path d="M278.03696,244.0205l-0.1015,-0.46735l0.44212,0.26838l0.31278,1.30558l-0.92158,0.31984l-0.63887,0.22156l-0.28755,-0.24739z" fill="#6c54a3" stroke="none" stroke-width="1"/><path d="M278.50311,246.85082l-1.27935,-1.10137l0.69638,0.17576l0.77024,0.19432l0.93892,1.93234h-0.76196z" fill="#6c54a3" stroke="none" stroke-width="1"/><path d="M277.41727,241.36677l-1.16312,-4.08019l0.55875,0.31964l1.09512,3.76055z" fill="#6c54a3" stroke="none" stroke-width="1"/><path d="M280.56821,252.07334h-1.25957l0.62232,-0.55412l-0.78677,-1.51726l-0.09645,-1.00431l0.43062,0.37453c0.18746,0.30935 0.38804,0.61364 0.60234,0.91229z" fill="#6c54a3" stroke="none" stroke-width="1"/><path d="M275.97831,234.65423l-0.6653,-3.17335l1.0826,3.98394h-0.56865h-0.44837z" fill="#6c54a3" stroke="none" stroke-width="1"/><path d="M276.25962,236.28812l-0.88101,-0.82331l0.5408,0.25002l0.47622,0.21995l0.4173,1.04467h-0.64613z" fill="#6c54a3" stroke="none" stroke-width="1"/><path d="M277.5999,242.00726l-0.0908,-0.31883l0.39893,0.14831l0.46957,1.25352l-0.56481,-0.10291z" fill="#6c54a3" stroke="none" stroke-width="1"/><path d="M275.25775,234.26356h-0.27322l0.01008,-0.15376l0.23832,0.09545l0.1457,0.05831z" fill="none" stroke="none" stroke-width="1"/><path d="M275.19636,231.05167l-0.20179,3.05813l-0.39813,-0.15941l0.28251,-1.36592z" fill="#170b36" stroke="none" stroke-width="1"/><path d="M279.93096,251.51943l-0.62232,0.55412h-2.40413h-1.74327l1.09289,-2.58836l-1.87039,-2.17146l1.33383,-4.22347l-1.1617,-3.08295l1.29832,-0.68064l-0.97122,-3.52427l0.10151,-1.53885h0.27322h0.12088l-0.1457,-0.05831l-0.23832,-0.09545l0.20179,-3.05813l0.11664,0.42921l0.6653,3.17335l-0.59972,0.81059l0.88101,0.82331l-0.09283,0.69133h-0.44918l0.49237,0.2817l0.04419,0.02543l1.16312,4.08019h-0.57409h-0.19997l0.2139,0.07931l0.65199,0.24235l0.0908,0.31883l0.21289,0.9801l-0.68993,-0.12552l-0.46653,-0.08495l0.51416,0.31197l0.76499,0.46432l0.1015,0.46735l-1.19459,1.40062l0.28755,0.24739l-0.09544,0.03309l0.18928,0.04782l1.27935,1.10137l0.36423,1.20105h-0.10009h-0.80696l1.08745,0.94579l0.09645,1.00451z" fill="#251258" stroke="none" stroke-width="1"/><path d="M276.25417,249.48519l-1.09289,2.58836h-4.86778l0.31278,-2.08913l3.23368,-0.5745l-2.86845,-0.62676l0.88666,-3.65604l1.72107,-0.9922l-1.30397,-0.41791l0.46956,-2.08913l1.77313,-0.46997l-1.61674,-0.52244l0.73027,-2.45477l1.19944,-0.26111l-0.99099,-0.36565l0.55936,-2.71508l0.11865,-0.57531h0.46654l-0.10151,1.53885l0.97122,3.52427l-1.29832,0.68064l1.1617,3.08295l-1.33383,4.22347z" fill="#170b36" stroke="none" stroke-width="1"/><path d="M274.81721,256.9722l-1.98541,-0.36423l1.07312,0.609l-3.00606,0.8786l-1.81793,0.01937l0.45262,0.35354l-2.1307,0.63483l-1.66114,-0.14024l0.60295,0.48087l-3.16407,0.87112l-1.25594,-0.10533l0.34769,0.34647l-4.10199,1.23818l-0.97283,0.29361l-0.44272,-0.08899l-0.25022,0.08455l0.13237,0.16688l-2.54155,0.76619l-3.19192,0.96234l0.70506,-0.32125l5.65335,-2.57626l0.52203,0.11038l0.40782,0.08617l-0.12652,-0.23166l-0.11098,-0.2028l1.1042,-0.58398l0.55593,0.12471l0.38259,0.08576l-0.04339,-0.22419l-0.00383,-0.02017l-0.04863,-0.25183l3.64272,-1.70735l0.35656,0.09181l0.41367,0.10655l0.14307,0.03692l-0.06941,-0.0678l-0.21087,-0.20623l-0.12874,-0.12592l0.96072,-0.50548l0.28453,0.13742l0.34627,0.16728l0.23327,0.1128l-0.04439,-0.19554l-0.06518,-0.28775l-0.03713,-0.16466l1.0142,-0.44677l0.86608,0.07345l0.5854,0.04964l0.08637,0.00727l-0.07547,-0.04681l-0.27786,-0.17192l-0.30793,-0.19049l1.04164,-0.66914l0.44354,0.13339l0.05791,0.01735l0.46411,0.13944l0.10433,-0.41811l0.04036,-0.16204c0.12652,-0.10352 0.24054,-0.20704 0.34184,-0.31036l1.00128,-0.46189l0.65118,0.21006l1.21477,0.39167l0.45847,0.14792l1.77393,-0.61829l0.11946,0.04036l0.35131,0.11865l-1.70936,0.632l2.16722,0.6988z" fill="#170b36" stroke="none" stroke-width="1" opacity="0.66"/><path d="M264.68818,252.54452v2.12162h-0.53878l-0.03128,-2.12162z" fill="#080b4a" stroke="none" stroke-width="1"/><path d="M264.68818,254.66614v-2.12162h0.18202v2.12162z" fill="#6c54a3" stroke="none" stroke-width="1"/><path d="M266.28371,247.01547l-0.06982,-0.32084l0.30349,0.18424l0.21491,0.89635l-0.63282,0.21955l-0.43869,0.15235l-0.19736,-0.1699z" fill="#6c54a3" stroke="none" stroke-width="1"/><path d="M266.60375,248.95872l-0.87839,-0.7561l0.47804,0.12067l0.5289,0.13338l0.64451,1.32677h-0.52304z" fill="#6c54a3" stroke="none" stroke-width="1"/><path d="M265.85814,245.1935l-0.79848,-2.80145l0.3834,0.21954l0.75207,2.58191z" fill="#6c54a3" stroke="none" stroke-width="1"/><path d="M268.02131,252.54432h-0.86467l0.42739,-0.38038l-0.54019,-1.04164l-0.06619,-0.68951l0.29562,0.25707c0.12854,0.21249 0.26637,0.42134 0.41347,0.62636z" fill="#6c54a3" stroke="none" stroke-width="1"/><path d="M264.87017,240.58484l-0.45686,-2.17873l0.7434,2.73526h-0.39047h-0.30793z" fill="#6c54a3" stroke="none" stroke-width="1"/><path d="M265.06329,241.70679l-0.60496,-0.56542l0.37129,0.17172l0.3271,0.15114l0.28634,0.71717h-0.44353z" fill="#6c54a3" stroke="none" stroke-width="1"/><path d="M265.98344,245.63321l-0.06236,-0.21895l0.27403,0.1019l0.32226,0.86064l-0.38784,-0.07063z" fill="#6c54a3" stroke="none" stroke-width="1"/><path d="M264.37541,240.31666h-0.18746l0.00686,-0.10554l0.16365,0.06538l0.09989,0.04015z" fill="none" stroke="none" stroke-width="1"/><path d="M264.33324,238.11129l-0.13842,2.09983l-0.27343,-0.10957l0.19412,-0.93772z" fill="#170b36" stroke="none" stroke-width="1"/><path d="M267.58405,252.16414l-0.42739,0.38038h-1.65064h-1.19682l0.75046,-1.77717l-1.28419,-1.49082l0.91572,-2.89973l-0.79768,-2.11677l0.89151,-0.46715l-0.66692,-2.41967l0.06982,-1.05657h0.18746h0.08294l-0.09989,-0.04015l-0.16365,-0.06538l0.13842,-2.09983l0.08011,0.29481l0.45686,2.17873l-0.41186,0.55654l0.60496,0.56542l-0.06376,0.47461h-0.30834l0.338,0.19331l0.03047,0.01736l0.79848,2.80145h-0.3943h-0.13722l0.1469,0.05448l0.44757,0.16627l0.06236,0.21895l0.1461,0.67297l-0.4736,-0.08616l-0.32024,-0.05831l0.35313,0.21409l0.52506,0.31883l0.06982,0.32084l-0.82028,0.96174l0.19736,0.1699l-0.06558,0.0226l0.13016,0.03289l0.87839,0.7561l0.25002,0.82472h-0.06881h-0.55412l0.74683,0.64936l0.06619,0.68951z" fill="#251258" stroke="none" stroke-width="1"/><path d="M265.05969,250.76736l-0.75046,1.77717h-3.34205l0.2147,-1.43433l2.2203,-0.3945l-1.96947,-0.43021l0.6086,-2.51027l1.18168,-0.68124l-0.89514,-0.28674l0.32226,-1.43453l1.2176,-0.32266l-1.11025,-0.35858l0.50145,-1.68535l0.82351,-0.17939l-0.68023,-0.25083l0.38401,-1.86414l0.08152,-0.3951h0.32024l-0.06982,1.05657l0.66692,2.41967l-0.89151,0.46715l0.79768,2.11677l-0.91572,2.89973z" fill="#170b36" stroke="none" stroke-width="1"/><path d="M264.07269,255.90676l-1.36309,-0.25002l0.73674,0.41811l-2.06391,0.60316l-1.24807,0.01331l0.31075,0.24275l-1.46277,0.43587l-1.14052,-0.09625l0.41408,0.33013l-2.17247,0.5981l-0.86225,-0.07224l0.23871,0.23771l-2.81638,0.85014l-0.66792,0.20159l-0.30389,-0.06094l-0.17172,0.05812l0.091,0.11461l-1.74508,0.52607l-2.19144,0.66066l0.48409,-0.22056l3.88143,-1.76869l0.35838,0.07587l0.27989,0.05912l-0.08697,-0.15902l-0.07628,-0.13923l0.75813,-0.40096l0.38179,0.08556l0.26273,0.05892l-0.02987,-0.15397l-0.00262,-0.01372l-0.0333,-0.17293l2.50098,-1.17219l0.24477,0.06315l0.28392,0.07326l0.09827,0.02522l-0.04762,-0.04641l-0.14488,-0.14166l-0.08839,-0.08657l0.65965,-0.34708l0.19534,0.09444l0.23771,0.11482l0.16022,0.07749l-0.03047,-0.13419l-0.0446,-0.19755l-0.02563,-0.113l0.69638,-0.30672l0.59467,0.05044l0.40197,0.03411l0.05933,0.00504l-0.05186,-0.03208l-0.19069,-0.11805l-0.21128,-0.13076l0.71514,-0.45927l0.3045,0.09161l0.03976,0.01191l0.31862,0.09585l0.07164,-0.28695l0.02784,-0.11139c0.08697,-0.07123 0.16527,-0.14206 0.23469,-0.21309l0.6873,-0.31721l0.44717,0.14428l0.83399,0.26898l0.3148,0.1015l1.2178,-0.42457l0.08193,0.02765l0.24134,0.08152l-1.17361,0.43385l1.488,0.47986z" fill="#170b36" stroke="none" stroke-width="1" opacity="0.66"/><path d="M305.73145,248.85378v2.60874h-0.66228l-0.03834,-2.60874z" fill="#080b4a" stroke="none" stroke-width="1"/><path d="M305.73145,251.46232v-2.60854h0.22379v2.60854z" fill="#6c54a3" stroke="none" stroke-width="1"/><path d="M306.68472,243.23835l0.11506,-0.13488c0.00019,0.07812 0.00038,0.15624 0.00056,0.23436z" fill="#6c54a3" stroke="none" stroke-width="1"/><path d="" fill="#6c54a3" stroke="none" stroke-width="1"/><path d="M306.1883,236.37166l0.47158,0.26979l0.12583,0.43202c0.00106,0.46829 0.00211,0.93658 0.00318,1.40487z" fill="#6c54a3" stroke="none" stroke-width="1"/><path d="" fill="#6c54a3" stroke="none" stroke-width="1"/><path d="M305.95545,234.14955l-0.56178,-2.67876l0.9139,3.36303h-0.47986h-0.37856z" fill="#6c54a3" stroke="none" stroke-width="1"/><path d="M306.19275,235.52899l-0.7436,-0.69517l0.45645,0.21108l0.40197,0.18564l0.35232,0.88182h-0.54543z" fill="#6c54a3" stroke="none" stroke-width="1"/><path d="" fill="#6c54a3" stroke="none" stroke-width="1"/><path d="M305.34704,233.81983h-0.23064l0.00867,-0.12975l0.20119,0.08051l0.12289,0.04924z" fill="none" stroke="none" stroke-width="1"/><path d="M305.29519,231.10858l-0.17011,2.5815l-0.33618,-0.13479l0.23852,-1.15283z" fill="#170b36" stroke="none" stroke-width="1"/><path d="M305.26573,248.85378l0.92259,-2.18499l-1.57901,-1.83285l1.12599,-3.56523l-0.9807,-2.60249l1.09612,-0.57449l-0.81987,-2.97479l0.08556,-1.29913h0.33275l-0.12289,-0.04924l-0.20119,-0.08051l0.17011,-2.5815l0.09848,0.36221l0.56178,2.67876l-0.50629,0.68427l0.7436,0.69517l-0.0783,0.58338h-0.37917l0.41569,0.23791l0.03733,0.02139l0.60059,2.10664c0.00102,0.44583 0.00205,0.89168 0.00309,1.33751h-0.27537l0.18061,0.06699l0.09499,0.03533c0.00088,0.37892 0.00177,0.75784 0.00266,1.13676l-0.26716,-0.04872l0.26743,0.16224c0.00153,0.64502 0.00307,1.29004 0.00463,1.93506l-0.11507,0.13488l0.11563,0.09949c0.00446,1.83865 0.00905,3.6773 0.01379,5.51595z" fill="#251258" stroke="none" stroke-width="1"/><path d="M306.1883,246.66878l-0.92259,2.18499h-4.10925l0.26414,-1.76345l2.72981,-0.4849l-2.42148,-0.52909l0.74844,-3.08618l1.45289,-0.83763l-1.10077,-0.35273l0.39632,-1.76344l1.49688,-0.39692l-1.36491,-0.44091l0.61647,-2.07198l1.01258,-0.22056l-0.83642,-0.30854l0.47219,-2.29193l0.10009,-0.4857h0.39369l-0.08556,1.29913l0.81987,2.97479l-1.09612,0.57449l0.9807,2.60249l-1.12599,3.56523z" fill="#170b36" stroke="none" stroke-width="1"/><path d="M304.97515,252.98846l-1.67606,-0.30733l0.90583,0.51396l-2.53751,0.74158l-1.53441,0.01635l0.38219,0.29845l-1.79855,0.53596l-1.40224,-0.11845l0.50892,0.406l-2.6709,0.73532l-1.0602,-0.08879l0.29361,0.29239l-3.46272,1.04528l-0.82129,0.24779l-0.37372,-0.07506l-0.21107,0.07144l0.11179,0.14085l-2.14543,0.64673l-2.6943,0.81221l0.59507,-0.2712l4.77214,-2.17469l0.44071,0.09322l0.34426,0.07285l-0.10695,-0.19574l-0.09363,-0.17132l0.93206,-0.49297l0.46936,0.10533l0.32307,0.07245l-0.03652,-0.18928l-0.00323,-0.01695l-0.04096,-0.21249l3.07488,-1.44138l0.30087,0.07748l0.34909,0.09l0.12067,0.03107l-0.05852,-0.0571l-0.17798,-0.17415l-0.10877,-0.10635l0.81099,-0.42658l0.24013,0.11603l0.29219,0.14126l0.19694,0.09524l-0.03753,-0.16506l-0.05489,-0.24296l-0.03148,-0.13903l0.8562,-0.37714l0.73109,0.06195l0.49418,0.04197l0.07285,0.00626l-0.06376,-0.03955l-0.23448,-0.14509l-0.25991,-0.16083l0.8792,-0.56481l0.37453,0.1126l0.04883,0.01473l0.39188,0.11784l0.08799,-0.35294l0.0341,-0.13681c0.10674,-0.08738 0.20321,-0.17455 0.28856,-0.26193l0.8451,-0.38986l0.54968,0.17738l1.0255,0.33073l0.38703,0.12491l1.49749,-0.52203l0.10089,0.03411l0.29663,0.10008l-1.443,0.53353l1.82943,0.58983z" fill="#170b36" stroke="none" stroke-width="1" opacity="0.66"/><path d="M284.3534,253.97481v4.9828h-1.26522l-0.07325,-4.9828z" fill="#080b4a" stroke="none" stroke-width="1"/><path d="M284.3534,258.95761v-4.9828h0.42759v4.9828z" fill="#6c54a3" stroke="none" stroke-width="1"/><path d="M288.10045,240.99002l-0.16366,-0.75349l0.71272,0.43244l0.50468,2.10528l-1.48619,0.51558l-1.03033,0.35757l-0.46352,-0.39914z" fill="#6c54a3" stroke="none" stroke-width="1"/><path d="M288.85213,245.55372l-2.0629,-1.77596l1.12256,0.28331l1.24242,0.31338l1.51362,3.11584h-1.2285z" fill="#6c54a3" stroke="none" stroke-width="1"/><path d="M287.10141,236.71087l-1.87543,-6.57896l0.90059,0.51558l1.76607,6.06338z" fill="#6c54a3" stroke="none" stroke-width="1"/><path d="M292.18165,253.97481h-2.03081l1.0035,-0.89333l-1.26846,-2.44651l-0.15558,-1.61956l0.69436,0.60375c0.30228,0.49883 0.62555,0.98917 0.97121,1.47084z" fill="#6c54a3" stroke="none" stroke-width="1"/><path d="M284.78103,225.88746l-1.07292,-5.11679l1.74569,6.42379h-0.91674h-0.72321z" fill="#6c54a3" stroke="none" stroke-width="1"/><path d="M285.23465,228.52223l-1.4208,-1.32778l0.87193,0.40318l0.76802,0.35495l0.67277,1.68434h-1.04184z" fill="#6c54a3" stroke="none" stroke-width="1"/><path d="M287.39581,237.74363l-0.1465,-0.51396l0.6433,0.23912l0.75691,2.02113l-0.91068,-0.16567z" fill="#6c54a3" stroke="none" stroke-width="1"/><path d="M283.61909,225.25767h-0.44051l0.01635,-0.248l0.38421,0.15377l0.23468,0.09423z" fill="none" stroke="none" stroke-width="1"/><path d="M283.52002,220.07853l-0.32509,4.93114l-0.64229,-0.25728l0.45585,-2.20213z" fill="#170b36" stroke="none" stroke-width="1"/><path d="M291.15434,253.08129l-1.0035,0.89353h-3.87639h-2.81094l1.76244,-4.17362l-3.01616,-3.50106l2.15068,-6.81021l-1.87322,-4.9711l2.09357,-1.09734l-1.56589,-5.6824l0.16365,-2.48141h0.44051h0.19473l-0.23468,-0.09423l-0.38421,-0.15377l0.32509,-4.93114l0.18807,0.69214l1.07292,5.11679l-0.96718,1.307l1.4208,1.32778l-0.14993,1.11469h-0.72422l0.79404,0.45423l0.07144,0.04076l1.87543,6.57896h-0.92602h-0.32226l0.34466,0.12794l1.05153,0.39087l0.1465,0.51396l0.34304,1.58062l-1.11226,-0.2026l-0.75227,-0.13701l0.82916,0.50306l1.23334,0.74884l0.16366,0.75349l-1.92629,2.25824l0.46352,0.39914l-0.15377,0.05327l0.30531,0.07709l2.0629,1.77596l0.58721,1.93658h-0.16123h-1.30135l1.75356,1.52513l0.15558,1.61937z" fill="#251258" stroke="none" stroke-width="1"/><path d="M285.22596,249.8012l-1.76244,4.17362h-7.84903l0.50468,-3.36868l5.21405,-0.92622l-4.62523,-1.01077l1.42948,-5.89489l2.77522,-1.59999l-2.10245,-0.67378l0.75692,-3.36848l2.85916,-0.75793l-2.60693,-0.84227l1.17745,-3.95811l1.93416,-0.42093l-1.59778,-0.58963l0.9018,-4.37784l0.1913,-0.92763h0.75227l-0.16365,2.48141l1.56589,5.6824l-2.09357,1.09734l1.87322,4.9711l-2.15068,6.81021z" fill="#170b36" stroke="none" stroke-width="1"/><path d="M282.90961,261.87348l-3.2014,-0.58721l1.73035,0.98191l-4.847,1.41677l-2.9312,0.03128l0.72987,0.57006l-3.43547,1.02368l-2.67836,-0.226l0.97222,0.77528l-5.10186,1.40466l-2.02496,-0.1697l0.56057,0.55855l-6.61407,1.99671l-1.56871,0.4734l-0.71394,-0.14347l-0.40338,0.13641l0.2135,0.26899l-4.09816,1.23556l-5.14665,1.55157l1.13669,-0.518l9.11546,-4.15385l0.84187,0.17798l0.65743,0.13903l-0.20421,-0.37372l-0.17899,-0.3271l1.7804,-0.94155l0.89655,0.20098l0.61687,0.13843l-0.07002,-0.36161l-0.00626,-0.03249l-0.07829,-0.406l5.8735,-2.75322l0.5749,0.14811l0.66692,0.17193l0.23064,0.05953l-0.11199,-0.10917l-0.34001,-0.33275l-0.20764,-0.2032l1.54914,-0.81483l0.45867,0.22156l0.55815,0.26959l0.37613,0.18181l-0.07143,-0.3154l-0.10493,-0.46411l-0.05993,-0.26535l1.63531,-0.72039l1.39639,0.11845l0.94397,0.08011l0.13943,0.0119l-0.12188,-0.07547l-0.44797,-0.27725l-0.49641,-0.30733l1.6795,-1.07877l0.71535,0.2149l0.09323,0.02805l0.74843,0.22499l0.16809,-0.67397l0.06518,-0.26152c0.20401,-0.16708 0.38783,-0.33376 0.55109,-0.50044l1.61433,-0.74481l1.05012,0.33861l1.95878,0.6316l0.73915,0.23832l2.86018,-0.99705l0.1925,0.06498l0.56663,0.1913l-2.75626,1.01904l3.4944,1.1268z" fill="#170b36" stroke="none" stroke-width="1" opacity="0.66"/><path d="M172.7644,290.12186c0.05626,-20.04396 0.09385,-40.08799 0.11339,-60.13205c42.34539,6.28602 87.61897,22.30644 134.03588,51.71987c0.00975,2.80406 0.01982,5.60812 0.03022,8.41218z" fill="url(#color-5)" stroke="none" stroke-width="1"/><path d="M196.78278,240.85241v1.88613h-0.47884l-0.02765,-1.88613z" fill="#080b4a" stroke="none" stroke-width="1"/><path d="M196.78278,242.73853v-1.88613h0.16184v1.88613z" fill="#6c54a3" stroke="none" stroke-width="1"/><path d="M198.20117,235.93741l-0.06195,-0.28533l0.2698,0.16385l0.19109,0.79687l-0.56259,0.19513l-0.39006,0.13541l-0.17535,-0.15115z" fill="#6c54a3" stroke="none" stroke-width="1"/><path d="M198.48568,237.66474l-0.78073,-0.67217l0.42477,0.10715l0.47037,0.11865l0.57288,1.17946h-0.46492z" fill="#6c54a3" stroke="none" stroke-width="1"/><path d="M197.82302,234.31764l-0.7099,-2.49029l0.34103,0.19513l0.66833,2.29516z" fill="#6c54a3" stroke="none" stroke-width="1"/><path d="M199.74627,240.85241h-0.76882l0.37997,-0.3382l-0.48026,-0.92602l-0.05892,-0.61304l0.26273,0.22863c0.11442,0.18887 0.2369,0.37452 0.36766,0.55674z" fill="#6c54a3" stroke="none" stroke-width="1"/><path d="M196.94462,230.2207l-0.406,-1.93698l0.66066,2.43177h-0.34688h-0.27383z" fill="#6c54a3" stroke="none" stroke-width="1"/><path d="M197.11633,231.21795l-0.53777,-0.50246l0.33013,0.15256l0.29058,0.13439l0.25486,0.63746h-0.3945z" fill="#6c54a3" stroke="none" stroke-width="1"/><path d="M197.9344,234.70851l-0.0555,-0.19453l0.24356,0.09041l0.28655,0.76519l-0.34466,-0.06276z" fill="#6c54a3" stroke="none" stroke-width="1"/><path d="M196.50492,229.98218h-0.16688l0.00625,-0.09383l0.1455,0.05832l0.08879,0.03551z" fill="none" stroke="none" stroke-width="1"/><path d="M196.4674,228.02179l-0.1231,1.86656l-0.24295,-0.09726l0.17253,-0.8336z" fill="#170b36" stroke="none" stroke-width="1"/><path d="M199.35722,240.5142l-0.37997,0.3382h-1.46722h-1.06404l0.66711,-1.57981l-1.14172,-1.32516l0.81422,-2.57787l-0.70909,-1.88169l0.79243,-0.41549l-0.59266,-2.15088l0.06175,-0.93933h0.16688h0.07366l-0.08879,-0.03551l-0.1455,-0.05832l0.1231,-1.86656l0.07123,0.26192l0.406,1.93698l-0.36605,0.49479l0.53777,0.50246l-0.0567,0.42194h-0.27403l0.30047,0.17192l0.02704,0.01554l0.7099,2.49029h-0.35051h-0.12188l0.13035,0.04843l0.39793,0.14791l0.0555,0.19453l0.12995,0.5983l-0.42113,-0.07668l-0.28473,-0.05186l0.31399,0.19049l0.46674,0.28331l0.06195,0.28533l-0.72907,0.85478l0.17535,0.15115l-0.05812,0.02017l0.11563,0.02906l0.78073,0.67217l0.22237,0.7331h-0.06114h-0.49257l0.66389,0.57732l0.05872,0.61304z" fill="#251258" stroke="none" stroke-width="1"/><path d="M197.11312,239.2726l-0.66711,1.57981h-2.97096l0.19089,-1.27511l1.97371,-0.35071l-1.75073,-0.3824l0.541,-2.23139l1.05052,-0.60577l-0.79586,-0.25486l0.28654,-1.27511l1.0824,-0.28695l-0.98695,-0.31883l0.44575,-1.49829l0.7321,-0.15921l-0.60477,-0.22318l0.34143,-1.65709l0.07244,-0.35132h0.28453l-0.06175,0.93933l0.59266,2.15088l-0.79243,0.41549l0.70909,1.88169l-0.81422,2.57787z" fill="#170b36" stroke="none" stroke-width="1"/><path d="M196.23593,243.84192l-1.21175,-0.22217l0.65501,0.37169l-1.83468,0.53616l-1.10944,0.01171l0.27625,0.21571l-1.30034,0.38744l-1.01379,-0.08557l0.36807,0.29341l-1.93113,0.53172l-0.7664,-0.06417l0.21228,0.21148l-2.50361,0.7557l-0.59387,0.17919l-0.2702,-0.05428l-0.15275,0.05166l0.08092,0.10191l-1.55137,0.46775l-1.94808,0.58741l0.43022,-0.19615l3.45041,-1.57235l0.31862,0.0674l0.24881,0.05266l-0.07728,-0.14146l-0.0678,-0.1239l0.67398,-0.35636l0.33941,0.07608l0.23347,0.05246l-0.02644,-0.13682l-0.00242,-0.0123l-0.02966,-0.15377l2.22332,-1.04204l0.21753,0.0561l0.25244,0.06517l0.08738,0.0226l-0.04238,-0.04136l-0.12874,-0.12592l-0.0787,-0.07688l0.5864,-0.30854l0.17354,0.08395l0.21128,0.10211l0.14247,0.06881l-0.02704,-0.11946l-0.03976,-0.17576l-0.0228,-0.10049l0.61909,-0.27262l0.52849,0.0448l0.35737,0.03026l0.05267,0.00444l-0.04621,-0.02845l-0.16951,-0.10493l-0.18786,-0.11623l0.63584,-0.40842l0.2708,0.08132l0.03531,0.01069l0.28331,0.08515l0.06357,-0.25507l0.02462,-0.09888c0.07728,-0.06336 0.1469,-0.12632 0.20865,-0.18948l0.61102,-0.2819l0.39753,0.12813l0.74138,0.23912l0.27988,0.0902l1.08261,-0.37734l0.07285,0.02462l0.2145,0.07244l-1.04325,0.38562l1.32273,0.42659z" fill="#170b36" stroke="none" stroke-width="1" opacity="0.66"/><path d="M190.0539,241.13996v1.29489h-0.32892l-0.01897,-1.29489z" fill="#080b4a" stroke="none" stroke-width="1"/><path d="M190.0539,242.43485v-1.29489h0.11118v1.29489z" fill="#6c54a3" stroke="none" stroke-width="1"/><path d="M191.02754,237.76542l-0.04238,-0.19594l0.18525,0.1124l0.13096,0.54725l-0.38622,0.13399l-0.26757,0.09282l-0.12047,-0.10372z" fill="#6c54a3" stroke="none" stroke-width="1"/><path d="M191.22305,238.95135l-0.53615,-0.46149l0.29158,0.07365l0.32286,0.08132l0.39349,0.80978h-0.31923z" fill="#6c54a3" stroke="none" stroke-width="1"/><path d="M190.76804,236.65336l-0.48753,-1.70977l0.23407,0.13378l0.45908,1.57598z" fill="#6c54a3" stroke="none" stroke-width="1"/><path d="M192.08835,241.14017h-0.52788l0.26091,-0.23226l-0.32972,-0.63584l-0.04036,-0.42093l0.1804,0.15699c0.0785,0.12955 0.16264,0.25708 0.25244,0.38219z" fill="#6c54a3" stroke="none" stroke-width="1"/><path d="M190.16488,233.84041l-0.27887,-1.3298l0.45382,1.66941h-0.23832h-0.18787z" fill="#6c54a3" stroke="none" stroke-width="1"/><path d="M190.28272,234.52508l-0.36908,-0.34506l0.22661,0.10473l0.19957,0.09242l0.17475,0.43768h-0.2708z" fill="#6c54a3" stroke="none" stroke-width="1"/><path d="M190.84452,236.92174l-0.03814,-0.13358l0.16728,0.06215l0.19674,0.52526l-0.2367,-0.04318z" fill="#6c54a3" stroke="none" stroke-width="1"/><path d="M189.863,233.67676h-0.11461l0.00423,-0.06457l0.09989,0.04016l0.06114,0.02442z" fill="none" stroke="none" stroke-width="1"/><path d="M189.83718,232.33082l-0.08455,1.28137l-0.16688,-0.06679l0.11845,-0.57228z" fill="#170b36" stroke="none" stroke-width="1"/><path d="M191.82137,240.9077l-0.26091,0.23226h-1.00734h-0.73068l0.45807,-1.08462l-0.78375,-0.90987l0.55895,-1.7699l-0.48692,-1.29206l0.54423,-0.28513l-0.40701,-1.4767l0.04238,-0.64492h0.11461h0.05065l-0.06114,-0.02442l-0.09989,-0.04016l0.08455,-1.28137l0.04883,0.1798l0.27887,1.3298l-0.25123,0.33961l0.36908,0.34506l-0.03894,0.28977h-0.18807l0.20623,0.11805l0.01856,0.01069l0.48753,1.70977h-0.24074h-0.08374l0.08959,0.0331l0.27323,0.1017l0.03814,0.13358l0.08919,0.41065l-0.28917,-0.05267l-0.19553,-0.03552l0.21551,0.13076l0.32064,0.19452l0.04238,0.19594l-0.50044,0.5868l0.12047,0.10372l-0.04015,0.01393l0.07951,0.01998l0.53615,0.46149l0.15256,0.50326h-0.04197h-0.33821l0.45585,0.39632l0.04036,0.42093z" fill="#251258" stroke="none" stroke-width="1"/><path d="M190.28051,240.05533l-0.45807,1.08462h-2.03969l0.13116,-0.87556l1.35502,-0.24074l-1.20206,-0.26253l0.3715,-1.53199l0.72119,-0.41589l-0.54624,-0.17515l0.19655,-0.87537l0.74319,-0.19694l-0.67761,-0.21894l0.30612,-1.02873l0.50266,-0.10937l-0.41528,-0.15316l0.23428,-1.13769l0.04984,-0.24114h0.19534l-0.04238,0.64492l0.40701,1.4767l-0.54423,0.28513l0.48692,1.29206l-0.55895,1.7699z" fill="#170b36" stroke="none" stroke-width="1"/><path d="M189.67816,243.19337l-0.83198,-0.15256l0.44959,0.25527l-1.25958,0.36807l-0.76175,0.00807l0.18968,0.14812l-0.89272,0.26596l-0.69618,-0.05872l0.25264,0.20159l-1.32596,0.36504l-0.52627,-0.0442l0.1457,0.14509l-1.71885,0.5188l-0.40761,0.1231l-0.18545,-0.03734l-0.10473,0.03552l0.05549,0.06982l-1.06505,0.32105l-1.33747,0.40317l0.29542,-0.13459l2.36901,-1.07957l0.21874,0.04621l0.17092,0.03612l-0.05307,-0.09706l-0.04662,-0.08495l0.4627,-0.24477l0.23307,0.05227l0.16022,0.03591l-0.01817,-0.09404l-0.00161,-0.00847l-0.02038,-0.10554l1.52634,-0.71554l0.14933,0.03854l0.17334,0.0446l0.05993,0.01554l-0.02905,-0.02845l-0.08838,-0.08637l-0.05388,-0.05287l0.40257,-0.21188l0.11926,0.05751l0.14508,0.07002l0.09767,0.04722l-0.01856,-0.08193l-0.02724,-0.12067l-0.01553,-0.06902l0.42497,-0.18726l0.36281,0.03087l0.24538,0.02079l0.03612,0.00302l-0.03168,-0.01958l-0.11643,-0.07203l-0.12894,-0.07991l0.43648,-0.28029l0.18585,0.0559l0.02422,0.00727l0.19452,0.05852l0.04379,-0.17516l0.01695,-0.068c0.05307,-0.04339 0.1009,-0.08657 0.14327,-0.12995l0.41952,-0.19351l0.27282,0.08798l0.50911,0.16426l0.1921,0.06195l0.7434,-0.2591l0.05004,0.01695l0.14731,0.04964l-0.71636,0.26475l0.90826,0.2928z" fill="#170b36" stroke="none" stroke-width="1" opacity="0.66"/><path d="M215.10451,238.88737v1.59212h-0.40438l-0.0234,-1.59212z" fill="#080b4a" stroke="none" stroke-width="1"/><path d="M215.10451,240.47949v-1.59212h0.13662v1.59212z" fill="#6c54a3" stroke="none" stroke-width="1"/><path d="M216.30174,234.73838l-0.05226,-0.24074l0.22762,0.13823l0.16123,0.67256l-0.47482,0.16486l-0.32912,0.11422l-0.14811,-0.12753z" fill="#6c54a3" stroke="none" stroke-width="1"/><path d="M216.54186,236.19651l-0.65904,-0.56744l0.35858,0.0906l0.39693,0.10009l0.48369,0.99563h-0.39248z" fill="#6c54a3" stroke="none" stroke-width="1"/><path d="M215.98251,233.37105l-0.59931,-2.10205l0.28775,0.16466l0.56441,1.93739z" fill="#6c54a3" stroke="none" stroke-width="1"/><path d="M217.60591,238.88737h-0.64896l0.32064,-0.28553l-0.40539,-0.78174l-0.04964,-0.51739l0.22177,0.19291c0.09665,0.15941 0.19997,0.31601 0.31035,0.46997z" fill="#6c54a3" stroke="none" stroke-width="1"/><path d="M215.24113,229.91257l-0.34284,-1.6349l0.55775,2.05261h-0.293h-0.23105z" fill="#6c54a3" stroke="none" stroke-width="1"/><path d="M215.38601,230.75443l-0.45403,-0.42416l0.27867,0.12894l0.24538,0.11321l0.2149,0.53838h-0.33275z" fill="#6c54a3" stroke="none" stroke-width="1"/><path d="M216.07655,233.70097l-0.04681,-0.16425l0.20562,0.07647l0.24174,0.64593l-0.29098,-0.05307z" fill="#6c54a3" stroke="none" stroke-width="1"/><path d="M214.86982,229.71138h-0.14085l0.00525,-0.07931l0.12289,0.04924l0.07486,0.03007z" fill="none" stroke="none" stroke-width="1"/><path d="M214.83815,228.0565l-0.10393,1.57558l-0.20522,-0.08213l0.14569,-0.70364z" fill="#170b36" stroke="none" stroke-width="1"/><path d="M217.27758,238.60185l-0.32064,0.28553h-1.23859h-0.89837l0.5632,-1.33363l-0.96375,-1.11872l0.6873,-2.17591l-0.59851,-1.58849l0.66894,-0.35071l-0.50044,-1.81571l0.05226,-0.79283h0.14085h0.06215l-0.07486,-0.03007l-0.12289,-0.04924l0.10393,-1.57558l0.06014,0.22116l0.34284,1.6349l-0.30915,0.41771l0.45403,0.42416l-0.04783,0.35637h-0.23145l0.25365,0.14508l0.0228,0.01311l0.59931,2.10205h-0.29583h-0.10312l0.11018,0.04096l0.33598,0.12471l0.04681,0.16425l0.10957,0.50508l-0.35535,-0.06477l-0.24033,-0.04379l0.26495,0.16083l0.3941,0.23932l0.05226,0.24074l-0.61545,0.7216l0.14811,0.12753l-0.04924,0.01695l0.09767,0.02462l0.65904,0.56744l0.18767,0.61889h-0.05146h-0.41589l0.56037,0.48732l0.04964,0.51739z" fill="#251258" stroke="none" stroke-width="1"/><path d="M215.3832,237.55374l-0.5632,1.33363h-2.50785l0.16123,-1.07635l1.66598,-0.29603l-1.47791,-0.32286l0.45685,-1.88371l0.88667,-0.51113l-0.67176,-0.21531l0.24195,-1.07635l0.9135,-0.24215l-0.83299,-0.26919l0.37634,-1.26462l0.61789,-0.13459l-0.51053,-0.18847l0.28816,-1.39881l0.06114,-0.29643h0.24033l-0.05226,0.79283l0.50044,1.81571l-0.66894,0.35071l0.59851,1.58849l-0.6873,2.17591z" fill="#170b36" stroke="none" stroke-width="1"/><path d="M214.64241,241.41117l-1.02287,-0.18766l0.55291,0.31378l-1.54874,0.45261l-0.93651,0.01009l0.23327,0.18222l-1.09774,0.3271l-0.8558,-0.07225l0.31076,0.2478l-1.63006,0.44878l-0.64714,-0.05428l0.17919,0.17838l-2.11335,0.63806l-0.50124,0.15134l-0.22803,-0.04581l-0.12895,0.04359l0.06821,0.08597l-1.30942,0.3947l-1.64438,0.49579l0.36322,-0.16547l2.91264,-1.32737l0.26899,0.0569l0.21006,0.0444l-0.06518,-0.11946l-0.0573,-0.10453l0.56884,-0.30086l0.28634,0.06417l0.19715,0.0442l-0.02239,-0.11562l-0.00202,-0.0103l-0.02502,-0.12975l1.87685,-0.8796l0.18363,0.04721l0.21309,0.05489l0.07366,0.01896l-0.03572,-0.03491l-0.10856,-0.10634l-0.06639,-0.06498l0.49499,-0.2603l0.1465,0.07083l0.17838,0.08616l0.12026,0.05811l-0.0228,-0.10069l-0.0335,-0.14832l-0.01916,-0.08475l0.52243,-0.23024l0.44616,0.03794l0.30168,0.02562l0.04459,0.00384l-0.03894,-0.02402l-0.14307,-0.08859l-0.15861,-0.09807l0.53656,-0.34466l0.22863,0.06861l0.02987,0.00887l0.23912,0.07184l0.05367,-0.21552l0.02079,-0.08354c0.06518,-0.05327 0.1241,-0.10654 0.17616,-0.15981l0.51578,-0.23812l0.33558,0.10816l0.62595,0.20179l0.2361,0.07628l0.91391,-0.31862l0.06155,0.02078l0.181,0.06115l-0.88061,0.32569l1.11651,0.35999z" fill="#170b36" stroke="none" stroke-width="1" opacity="0.66"/><path d="M202.05638,242.01289v3.04118h-0.77205l-0.0448,-3.04118z" fill="#080b4a" stroke="none" stroke-width="1"/><path d="M202.05638,245.05409v-3.04118h0.26091v3.04118z" fill="#6c54a3" stroke="none" stroke-width="1"/><path d="M204.34346,234.0876l-0.09989,-0.45988l0.43486,0.26415l0.30813,1.2848l-0.90704,0.31479l-0.62878,0.21814l-0.28291,-0.24357z" fill="#6c54a3" stroke="none" stroke-width="1"/><path d="M204.80212,236.87311l-1.25897,-1.08402l0.68508,0.17294l0.75832,0.19129l0.9238,1.90187h-0.74985z" fill="#6c54a3" stroke="none" stroke-width="1"/><path d="M203.73363,231.47604l-1.14476,-4.01543l0.54988,0.31459l1.07776,3.70083z" fill="#6c54a3" stroke="none" stroke-width="1"/><path d="M206.83434,242.01289h-1.2396l0.61244,-0.54523l-0.77427,-1.49325l-0.09484,-0.98836l0.42376,0.36847c0.18463,0.3045 0.38178,0.60375 0.59285,0.89776z" fill="#6c54a3" stroke="none" stroke-width="1"/><path d="M202.31728,224.87003l-0.65481,-3.12311l1.06545,3.92078h-0.55936h-0.44152z" fill="#6c54a3" stroke="none" stroke-width="1"/><path d="M202.59414,226.4781l-0.8671,-0.81039l0.53232,0.24598l0.46856,0.21652l0.41084,1.02812h-0.63604z" fill="#6c54a3" stroke="none" stroke-width="1"/><path d="M203.91323,232.10623l-0.08939,-0.31359l0.39269,0.14589l0.4619,1.23355l-0.55573,-0.1011z" fill="#6c54a3" stroke="none" stroke-width="1"/><path d="M201.60818,224.48562h-0.26879l0.00989,-0.15154l0.23448,0.09403l0.14327,0.05751z" fill="none" stroke="none" stroke-width="1"/><path d="M201.54785,221.32458l-0.19856,3.00949l-0.39187,-0.15699l0.27806,-1.34392z" fill="#170b36" stroke="none" stroke-width="1"/><path d="M206.20738,241.46767l-0.61264,0.54523h-2.36578h-1.71582l1.07574,-2.5474l-1.84072,-2.13675l1.31264,-4.15667l-1.14334,-3.03412l1.27774,-0.66974l-0.95568,-3.46816l0.09989,-1.51443h0.26879h0.11885l-0.14327,-0.05751l-0.23448,-0.09403l0.19856,-3.00949l0.11462,0.42234l0.65481,3.12311l-0.59024,0.79768l0.8671,0.81039l-0.09141,0.68023h-0.44192l0.4845,0.27726l0.04358,0.02502l1.14476,4.01543h-0.56521h-0.19674l0.21046,0.07809l0.64169,0.23852l0.08939,0.31359l0.20946,0.96475l-0.67902,-0.12369l-0.45908,-0.08354l0.50609,0.30712l0.75288,0.45685l0.09989,0.45988l-1.17563,1.37842l0.28291,0.24357l-0.09403,0.03248l0.18645,0.04702l1.25897,1.08402l0.35838,1.18209h-0.09827h-0.79445l1.07029,0.93065l0.09504,0.98857z" fill="#251258" stroke="none" stroke-width="1"/><path d="M202.58889,239.46551l-1.07574,2.5474h-4.79049l0.30793,-2.05604l3.18243,-0.56542l-2.82304,-0.61687l0.87254,-3.59792l1.69383,-0.97646l-1.28319,-0.41125l0.4621,-2.05604l1.74508,-0.4625l-1.59112,-0.51417l0.71858,-2.41563l1.18047,-0.25708l-0.97525,-0.35979l0.55048,-2.6719l0.11684,-0.56623h0.45907l-0.09989,1.51443l0.95568,3.46816l-1.27774,0.66974l1.14334,3.03412l-1.31264,4.15667z" fill="#170b36" stroke="none" stroke-width="1"/><path d="M201.17433,246.83408l-1.95393,-0.35838l1.05617,0.59931l-2.95825,0.86467l-1.78907,0.01897l0.44555,0.34789l-2.0968,0.62474l-1.6347,-0.13802l0.59347,0.4732l-3.11382,0.85741l-1.23596,-0.10352l0.34223,0.34082l-4.03681,1.21861l-0.95749,0.28896l-0.43567,-0.08757l-0.24618,0.08333l0.13036,0.16406l-2.50118,0.75409l-3.14127,0.94701l0.69375,-0.31621l5.56356,-2.53528l0.51376,0.10856l0.40136,0.08496l-0.1245,-0.22803l-0.10937,-0.19957l1.08664,-0.5747l0.54706,0.12268l0.37654,0.08435l-0.04278,-0.22076l-0.00384,-0.01977l-0.04782,-0.2478l3.585,-1.68031l0.35091,0.09041l0.40702,0.10493l0.14084,0.03632l-0.0684,-0.06659l-0.20764,-0.203l-0.12672,-0.1239l0.94559,-0.49741l0.27988,0.1352l0.34062,0.16466l0.22964,0.11099l-0.04359,-0.19251l-0.06417,-0.28332l-0.03673,-0.16204l0.99805,-0.4397l0.85216,0.07224l0.57611,0.04883l0.08516,0.00727l-0.07426,-0.04601l-0.27342,-0.1693l-0.30289,-0.18746l1.0251,-0.65844l0.43647,0.13116l0.05691,0.01716l0.45685,0.13721l0.10271,-0.41145l0.03975,-0.15961c0.1245,-0.1019 0.2367,-0.20381 0.33639,-0.30551l0.98534,-0.45463l0.64088,0.20664l1.19561,0.38562l0.4512,0.14549l1.74569,-0.6086l0.11765,0.03975l0.34587,0.11683l-1.68212,0.62192l2.13272,0.6877z" fill="#170b36" stroke="none" stroke-width="1" opacity="0.66"/><path d="M180.65513,264.31917c41.52358,-11.49737 83.9555,-18.27193 126.15696,-16.26629c0.04708,18.42981 0.1083,36.85956 0.18315,55.28922c0,0.06268 0.00058,0.12523 0.00173,0.18764c0.01734,1.2026 0.15443,2.17901 0.402,2.99101c-42.24703,-0.26076 -84.49589,-0.34111 -126.74384,-0.21716z" fill="url(#color-6)" stroke="none" stroke-width="1"/><path d="M214.9679,306.24737v-3.27429c28.26592,-15.952 59.79231,-24.93567 91.91544,-30.3027c0.03305,10.22393 0.07038,20.44784 0.1119,30.67172c0,0.06268 0.00058,0.12523 0.00173,0.18764c0.01734,1.2026 0.15443,2.17901 0.402,2.99101c-30.80974,-0.19016 -61.62045,-0.28438 -92.43107,-0.27338z" fill="url(#color-7)" stroke="none" stroke-width="1"/><path d="" fill="#170b36" stroke="none" stroke-width="1"/><path d="M303.14732,286.18576l1.46519,1.16857l-7.6886,2.11698l-3.05167,-0.25587l0.8449,0.84167l-9.96783,3.0091l-2.36417,0.71353l-1.07594,-0.21612l-0.6078,0.20562l0.32185,0.40539l-6.17598,1.86192l-7.75621,2.33835l1.713,-0.78073l13.73746,-6.26013l1.26865,0.26817l0.99099,0.20946l-0.30752,-0.5632l-0.26979,-0.49298l2.6832,-1.41899l1.35098,0.30289l0.92964,0.20845l-0.10533,-0.54484l-0.00948,-0.04883l-0.11805,-0.61203l8.85173,-4.149l0.86629,0.22338l1.00511,0.2591l0.34749,0.0896l-0.1687,-0.16466l-0.51254,-0.50145l-0.31278,-0.30612l2.33471,-1.22809l0.69113,0.33396l0.84126,0.40641l0.56703,0.27383l-0.10775,-0.47522l-0.15821,-0.6994l-0.0904,-0.39995l2.46466,-1.08563l1.33853,0.1136c0.00598,1.72424 0.01208,3.44847 0.0183,5.17271z" fill="#170b36" stroke="none" stroke-width="1" opacity="0.66"/><path d="M300.58682,270.5884v5.15573h-1.30901l-0.07608,-5.15573z" fill="#080b4a" stroke="none" stroke-width="1"/><path d="M300.58682,275.74411v-5.15573h0.44232v5.15573z" fill="#6c54a3" stroke="none" stroke-width="1"/><path d="M304.4638,257.15301l-0.1691,-0.77972l0.73714,0.44777l0.52224,2.17813l-1.53764,0.53353l-1.06606,0.36988l-0.47965,-0.41286z" fill="#6c54a3" stroke="none" stroke-width="1"/><path d="M305.24172,261.8751l-2.13454,-1.8375l1.1615,0.293l1.28541,0.32428l1.30026,2.67657c0.00054,0.18254 0.00109,0.36509 0.00163,0.54763h-1.00688z" fill="#6c54a3" stroke="none" stroke-width="1"/><path d="M303.43003,252.72553l-1.94041,-6.80719l0.93187,0.53333l1.82741,6.27385z" fill="#6c54a3" stroke="none" stroke-width="1"/><path d="M306.3112,267.13274l-0.16082,-1.67567l0.71224,0.61942c0.00217,0.71078 0.00436,1.42157 0.00657,2.13235z" fill="#6c54a3" stroke="none" stroke-width="1"/><path d="M306.58543,270.58859l0.29042,-0.25853c0.00027,0.08618 0.00055,0.17235 0.00082,0.25853z" fill="#6c54a3" stroke="none" stroke-width="1"/><path d="M301.02914,241.52658l-1.11005,-5.29457l1.80622,6.64677h-0.94861h-0.74804z" fill="#6c54a3" stroke="none" stroke-width="1"/><path d="M301.49848,244.25257l-1.46984,-1.37378l0.9022,0.4171l0.79444,0.36726l0.69618,1.74286h-1.07797z" fill="#6c54a3" stroke="none" stroke-width="1"/><path d="M303.73474,253.79401l-0.15175,-0.53172l0.66591,0.24739l0.78294,2.09136l-0.94216,-0.17153z" fill="#6c54a3" stroke="none" stroke-width="1"/><path d="M299.82687,240.87501h-0.45584l0.01695,-0.25687l0.39773,0.15921l0.24295,0.09767z" fill="none" stroke="none" stroke-width="1"/><path d="M299.72455,235.51607l-0.33658,5.10207l-0.6643,-0.26596l0.47159,-2.27862z" fill="#170b36" stroke="none" stroke-width="1"/><path d="M306.58522,270.5884h-6.91938l1.82378,-4.31851l-3.12089,-3.62254l2.22555,-7.0463l-1.9384,-5.14363l2.16621,-1.13547l-1.62037,-5.87975l0.16931,-2.56718h0.65763l-0.24295,-0.09767l-0.39773,-0.15921l0.33658,-5.10207l0.19452,0.71595l1.11005,5.29457l-1.00048,1.35219l1.46984,1.37378l-0.15497,1.15344h-0.74924l0.82128,0.46997l0.07406,0.04237l1.94041,6.80719h-1.29145l0.35656,0.13238l1.08785,0.40438l0.15175,0.53172l0.35494,1.6355l-1.15101,-0.20966l-0.7783,-0.14166l0.85801,0.52042l1.27632,0.77467l0.1691,0.77972l-1.99308,2.33673l0.47965,0.41286l-0.15921,0.0553l0.316,0.0797l2.13454,1.8375l0.60739,2.00398h-1.51322l1.8143,1.57779l0.16103,1.67567l0.55799,1.07628c0.0022,0.70695 0.00442,1.41392 0.00666,2.12087z" fill="#251258" stroke="none" stroke-width="1"/><path d="M301.48961,266.26987l-1.82378,4.31851h-8.12124l0.52224,-3.48552l5.39485,-0.95851l-4.78565,-1.04567l1.47913,-6.09951l2.87147,-1.65548l-2.1753,-0.69699l0.78315,-3.48552l2.95844,-0.78415l-2.69753,-0.87153l1.21841,-4.09533l2.00115,-0.43567l-1.65327,-0.61001l0.93328,-4.52978l0.19795,-0.95972h0.77811l-0.16931,2.56718l1.62037,5.87975l-2.16621,1.13547l1.9384,5.14363l-2.22555,7.0463z" fill="#170b36" stroke="none" stroke-width="1"/><path d="M299.09337,278.76048l-3.31259,-0.60759l1.79028,1.01601l-5.01508,1.4658l-3.0329,0.03229l0.7553,0.58983l-3.55473,1.0592l-2.77139,-0.23388l1.00592,0.80232l-5.27883,1.45349l-2.09519,-0.17556l0.58015,0.57792l-6.84371,2.06593l-1.6232,0.48994l-0.73875,-0.14831l-0.4173,0.14125l0.22096,0.27827l-4.24041,1.27834l-5.32524,1.60544l1.17604,-0.53596l9.43167,-4.29813l0.87092,0.18423l0.68023,0.14388l-0.21128,-0.38663l-0.18524,-0.3384l1.84214,-0.97424l0.92763,0.20804l0.63826,0.14307l-0.07244,-0.37412l-0.00646,-0.0335l-0.08112,-0.42012l6.07731,-2.84868l0.59488,0.15337l0.69012,0.17777l0.23872,0.06155l-0.11583,-0.113l-0.35192,-0.34426l-0.2147,-0.21006l1.60281,-0.84328l0.47462,0.22924l0.57752,0.27907l0.38925,0.18806l-0.07406,-0.32629l-0.10856,-0.48026l-0.06215,-0.27464l1.69201,-0.74541l1.44481,0.12248l0.97667,0.08294l0.14407,0.01231l-0.12591,-0.07789l-0.46351,-0.28695l-0.51376,-0.31782l1.73782,-1.11631l0.73996,0.22237l0.09645,0.02906l0.77447,0.23266l0.17395,-0.69738l0.0674,-0.2704c0.21107,-0.17273 0.40135,-0.34526 0.57025,-0.51779l1.67042,-0.77064l1.08664,0.35031l2.02678,0.65359l0.76479,0.24659l2.95945,-1.03155l0.19937,0.0672l0.5862,0.19795l-2.8519,1.05435l3.61568,1.16595z" fill="#170b36" stroke="none" stroke-width="1" opacity="0.66"/><path d="M299.26998,306.35509l-4.92065,-0.41246l0.50799,0.50604c-2.72309,-0.01449 -5.44617,-0.02823 -8.16927,-0.04119l-0.06243,-0.32279l-0.01513,-0.0787l-0.19049,-0.98675l14.27281,-6.68995l1.39679,0.35999l1.62058,0.4177l0.56037,0.14449l-0.27201,-0.26535l-0.82633,-0.80837l-0.50448,-0.49358l3.76439,-1.98016l0.53387,0.2579c0.0095,2.46007 0.01925,4.92013 0.02925,7.38019c0,0.06268 0.00058,0.12523 0.00173,0.18764c0.00345,0.23913 0.01163,0.46933 0.02447,0.69106z" fill="#170b36" stroke="none" stroke-width="1" opacity="0.66"/><path d="M283.1181,306.13857l1.14853,0.25759c-0.54055,-0.00248 -1.08111,-0.00493 -1.62166,-0.00736z" fill="#170b36" stroke="none" stroke-width="1" opacity="0.66"/><path d="M172.79524,306.1421c-0.02662,0 -0.05323,0.0001 -0.0798,0.00031c0.05638,-17.05147 0.0991,-34.10301 0.12858,-51.15459c42.51268,9.3816 79.30698,23.32201 114.97758,51.4251c-37.70822,-0.18248 -75.41756,-0.21832 -113.12607,-0.09049c-0.61523,-0.11836 -1.25053,-0.18033 -1.90029,-0.18033z" fill="url(#color-8)" stroke="none" stroke-width="1"/><path d="M174.07979,247.94108v9.77471h-1.2406c0.00591,-3.25824 0.01133,-6.51647 0.01626,-9.77471z" fill="#080b4a" stroke="none" stroke-width="1"/><path d="M174.07979,257.71579v-9.77471h0.83864v9.77471z" fill="#6c54a3" stroke="none" stroke-width="1"/><path d="M181.43019,222.46954l-0.32084,-1.47832l1.398,0.84852l0.98978,4.12984l-2.91526,1.01137l-2.02093,0.70143l-0.90946,-0.78295z" fill="#6c54a3" stroke="none" stroke-width="1"/><path d="M182.90488,231.42196l-4.04669,-3.48371l2.20213,0.55552l2.43681,0.61466l2.96934,6.11262h-2.40998z" fill="#6c54a3" stroke="none" stroke-width="1"/><path d="M179.47019,214.07527l-3.67883,-12.90569l1.76687,1.01117l3.46434,11.89452z" fill="#6c54a3" stroke="none" stroke-width="1"/><path d="M189.43622,247.94108h-3.98394l1.96866,-1.75235l-2.48847,-4.79917l-0.30511,-3.17699l1.36209,1.18451c0.59306,0.97848 1.22709,1.94041 1.9053,2.88539z" fill="#6c54a3" stroke="none" stroke-width="1"/><path d="M174.91843,192.84333l-2.02749,-9.66956c-0.00001,-0.02807 -0.00002,-0.05614 -0.00003,-0.08421l3.34743,12.31772h-3.21694z" fill="#6c54a3" stroke="none" stroke-width="1"/><path d="M175.80832,198.01178l-2.78692,-2.6045l1.71058,0.79082l1.50636,0.69617l1.31991,3.30411h-2.04372z" fill="#6c54a3" stroke="none" stroke-width="1"/><path d="M180.04773,216.10125l-0.28735,-1.00834l1.2622,0.46916l1.48477,3.96477l-1.78645,-0.32529z" fill="#6c54a3" stroke="none" stroke-width="1"/><path d="M172.89332,191.55655l0.12807,0.05141l-0.12806,0.00001" fill="none" stroke="none" stroke-width="1"/><path d="" fill="#170b36" stroke="none" stroke-width="1"/><path d="M187.42093,246.18874l-1.96866,1.75235h-12.59681c0.00063,-0.41314 0.00124,-0.82628 0.00185,-1.23942l2.93405,-6.94761l-2.92039,-3.3899c0.00505,-4.33521 0.00926,-8.67042 0.01263,-13.00563l1.2101,-3.83171l-1.20537,-3.19883c0.00149,-2.61632 0.00266,-5.23265 0.00354,-7.84897l1.63426,-0.85659l-1.63267,-5.92419c0.00045,-3.36343 0.00041,-6.72685 -0.00013,-10.09028h0.12803l-0.12804,-0.05139c-0.00045,-2.79423 -0.00125,-5.58847 -0.00239,-8.38271l2.02747,9.66946l-1.89703,2.56394l2.78692,2.6045l-0.2938,2.1866h-1.42081l1.55741,0.89111l0.14024,0.08011l3.67883,12.90569h-2.44852l0.6762,0.25103l2.06249,0.7666l0.28735,1.00834l0.67317,3.1003l-2.18215,-0.39712l-1.47549,-0.26879l1.62643,0.98696l2.41967,1.46863l0.32084,1.47832l-3.77872,4.42989l0.90946,0.78295l-0.30187,0.10473l0.59912,0.15114l4.0467,3.48371l1.15162,3.7991h-2.86905l3.43991,2.99153l0.30511,3.17699z" fill="#251258" stroke="none" stroke-width="1"/><path d="M175.79136,239.75407l-2.93405,6.94762c0.00509,-3.44584 0.00964,-6.89168 0.01366,-10.33753z" fill="#170b36" stroke="none" stroke-width="1"/><path d="M174.52615,207.62244l-1.63428,0.85661c0.00076,-2.26029 0.00129,-4.52058 0.0016,-6.78087z" fill="#170b36" stroke="none" stroke-width="1"/><path d="M174.09372,219.52684l-1.21012,3.83177c0.00182,-2.34355 0.0034,-4.68711 0.00473,-7.03066z" fill="#170b36" stroke="none" stroke-width="1"/><path d="M175.42674,262.03751l-2.59736,0.86873c0.00112,-0.56842 0.00223,-1.13684 0.00332,-1.70526z" fill="#170b36" stroke="none" stroke-width="1" opacity="0.66"/><path d="M172.86703,257.45264l1.11146,0.37533l-1.14026,0.42156c0.00049,-0.26871 0.00098,-0.53742 0.00146,-0.80613z" fill="#170b36" stroke="none" stroke-width="1" opacity="0.66"/><path d="M174.21806,304.82615v-250h132v250z" fill="#ffffff" stroke="#ffffff" stroke-width="5" opacity="0.7"/><text transform="translate(197.34263,260.38237) scale(0.49198,0.49198)" font-size="40" xml:space="preserve" fill="#000000" fill-rule="nonzero" stroke="none" stroke-width="1" stroke-linecap="butt" stroke-linejoin="miter" stroke-miterlimit="10" stroke-dasharray="" stroke-dashoffset="0" font-family="Sans Serif" font-weight="normal" text-anchor="start" style="mix-blend-mode: normal"><tspan x="0" dy="0">暗夜之章</tspan></text><text transform="translate(178.89524,73.37251) scale(0.39166,0.39166)" font-size="40" xml:space="preserve" fill="#ffffff" fill-rule="nonzero" stroke="none" stroke-width="1" stroke-linecap="butt" stroke-linejoin="miter" stroke-miterlimit="10" stroke-dasharray="" stroke-dashoffset="0" font-family="Sans Serif" font-weight="normal" text-anchor="start" style="mix-blend-mode: normal"><tspan x="0" dy="0">chapter </tspan></text></g></g></svg>