<svg version="1.1" xmlns="http://www.w3.org/2000/svg" xmlns:xlink="http://www.w3.org/1999/xlink" width="159.62057" height="153.92792" viewBox="0,0,159.62057,153.92792"><defs><radialGradient cx="240" cy="180" r="67.11538" gradientUnits="userSpaceOnUse" id="color-1"><stop offset="0" stop-color="#ffffff" stop-opacity="0.15294"/><stop offset="1" stop-color="#ffffff" stop-opacity="0"/></radialGradient><radialGradient cx="240.00001" cy="180" r="42.62853" gradientUnits="userSpaceOnUse" id="color-2"><stop offset="0" stop-color="#ffffff" stop-opacity="0"/><stop offset="1" stop-color="#ffffff"/></radialGradient><radialGradient cx="239.80082" cy="179.75742" r="43.88567" gradientUnits="userSpaceOnUse" id="color-3"><stop offset="0" stop-color="#ffffff" stop-opacity="0"/><stop offset="1" stop-color="#ffffff"/></radialGradient></defs><g transform="translate(-172.88462,-93.18746)"><g data-paper-data="{&quot;isPaintingLayer&quot;:true}" fill-rule="nonzero" stroke-linejoin="miter" stroke-miterlimit="10" stroke-dasharray="" stroke-dashoffset="0" style="mix-blend-mode: normal"><path d="M172.88462,180c0,-37.0668 30.04858,-67.11538 67.11538,-67.11538c37.0668,0 67.11538,30.04858 67.11538,67.11538c0,37.0668 -30.04858,67.11538 -67.11538,67.11538c-37.0668,0 -67.11538,-30.04858 -67.11538,-67.11538z" fill="url(#color-1)" stroke="none" stroke-width="0" stroke-linecap="butt"/><path d="M226.13302,222.06231c0,-8.18248 6.63321,-14.81569 14.81569,-14.81569c8.18248,0 14.81569,6.63321 14.81569,14.81569c0,8.18248 -6.63321,14.81569 -14.81569,14.81569c-8.18248,0 -14.81569,-6.63321 -14.81569,-14.81569z" fill-opacity="0.48235" fill="#ffffff" stroke="none" stroke-width="0" stroke-linecap="butt"/><path d="M225.78772,137.41902c-1.57576,-8.02932 3.65588,-15.81577 11.6852,-17.39153c8.02932,-1.57576 15.81577,3.65588 17.39153,11.6852c1.57576,8.02932 -3.65588,15.81577 -11.6852,17.39153c-8.02932,1.57576 -15.81577,-3.65588 -17.39153,-11.6852z" fill-opacity="0.48235" fill="#ffffff" stroke="none" stroke-width="0" stroke-linecap="butt"/><path d="M177.74692,179.73717c0,-8.18248 6.63321,-14.81569 14.81569,-14.81569c8.18248,0 14.81569,6.63321 14.81569,14.81569c0,8.18248 -6.63321,14.81569 -14.81569,14.81569c-8.18248,0 -14.81569,-6.63321 -14.81569,-14.81569z" fill-opacity="0.48235" fill="#ffffff" stroke="none" stroke-width="0" stroke-linecap="butt"/><text transform="translate(246.57474,141.48544) rotate(-91.906) scale(0.5,0.5)" font-size="40" xml:space="preserve" fill="#000000" fill-rule="nonzero" stroke="none" stroke-width="1" stroke-linecap="butt" stroke-linejoin="miter" stroke-miterlimit="10" stroke-dasharray="" stroke-dashoffset="0" font-family="Malgun Gothic" font-weight="normal" text-anchor="start" style="mix-blend-mode: normal"><tspan x="0" dy="0">&gt;</tspan></text><text transform="translate(234.64668,215.10407) rotate(88.094) scale(0.5,0.5)" font-size="40" xml:space="preserve" data-paper-data="{&quot;index&quot;:null}" fill="#000000" fill-rule="nonzero" stroke="none" stroke-width="1" stroke-linecap="butt" stroke-linejoin="miter" stroke-miterlimit="10" stroke-dasharray="" stroke-dashoffset="0" font-family="Malgun Gothic" font-weight="normal" text-anchor="start" style="mix-blend-mode: normal"><tspan x="0" dy="0">&gt;</tspan></text><text transform="translate(200.10204,174.79006) rotate(-180) scale(0.5,0.5)" font-size="40" xml:space="preserve" data-paper-data="{&quot;index&quot;:null}" fill="#000000" fill-rule="nonzero" stroke="none" stroke-width="1" stroke-linecap="butt" stroke-linejoin="miter" stroke-miterlimit="10" stroke-dasharray="" stroke-dashoffset="0" font-family="Malgun Gothic" font-weight="normal" text-anchor="start" style="mix-blend-mode: normal"><tspan x="0" dy="0">&gt;</tspan></text><path d="M281.48568,222.62852l-82.97134,-85.25705" fill="none" stroke="url(#color-2)" stroke-width="1" stroke-linecap="round"/><path d="M283.68647,135.87175l-87.77134,87.77134" fill="none" stroke="url(#color-3)" stroke-width="1" stroke-linecap="round"/><path d="M271.20273,180.93164c0,-8.18248 6.63321,-14.81569 14.81569,-14.81569c8.18248,0 14.81569,6.63321 14.81569,14.81569c0,8.18248 -6.63321,14.81569 -14.81569,14.81569c-8.18248,0 -14.81569,-6.63321 -14.81569,-14.81569z" fill-opacity="0.48235" fill="#ffffff" stroke="none" stroke-width="0" stroke-linecap="butt"/><text transform="translate(279.09903,187.86043) scale(0.5,0.5)" font-size="40" xml:space="preserve" fill="#000000" fill-rule="nonzero" stroke="none" stroke-width="1" stroke-linecap="butt" stroke-linejoin="miter" stroke-miterlimit="10" stroke-dasharray="" stroke-dashoffset="0" font-family="Malgun Gothic" font-weight="normal" text-anchor="start" style="mix-blend-mode: normal"><tspan x="0" dy="0">&gt;</tspan></text><text transform="translate(229.26511,107.04914) scale(0.32112,0.32112)" font-size="40" xml:space="preserve" fill="#000000" fill-rule="nonzero" stroke="#ffffff" stroke-width="1" stroke-linecap="butt" stroke-linejoin="miter" stroke-miterlimit="10" stroke-dasharray="" stroke-dashoffset="0" font-family="Sans Serif" font-weight="normal" text-anchor="start" style="mix-blend-mode: normal"><tspan x="0" dy="0">请用手或鼠标点按</tspan></text></g></g></svg>