<svg version="1.1" xmlns="http://www.w3.org/2000/svg" xmlns:xlink="http://www.w3.org/1999/xlink" width="491" height="370" viewBox="0,0,491,370"><g transform="translate(5.5,5)"><g data-paper-data="{&quot;isPaintingLayer&quot;:true}" fill-rule="nonzero" stroke-linejoin="miter" stroke-miterlimit="10" stroke-dasharray="" stroke-dashoffset="0" style="mix-blend-mode: normal"><path d="M-5.5,365v-370h491v370z" fill="#565656" stroke="none" stroke-width="0" stroke-linecap="butt"/><path d="M28.39582,337.16671v-301.33332l15.80209,-13.66667h406.19791v302.82518l-12.19791,12.17482z" fill="#ececec" stroke="none" stroke-width="0" stroke-linecap="butt"/><text transform="translate(329.17452,332.99356) scale(0.5,0.5)" font-size="40" xml:space="preserve" fill="#ffffff" fill-rule="nonzero" stroke="#ffffff" stroke-width="1" stroke-linecap="butt" stroke-linejoin="miter" stroke-miterlimit="10" stroke-dasharray="" stroke-dashoffset="0" font-family="'Courier New', Courier, monospace" font-weight="normal" text-anchor="start" style="mix-blend-mode: normal"><tspan x="0" dy="0">Assnights</tspan></text><path d="M249.26972,171.93961v-129.83437l6.16736,-6.1679h175.2932v129.91146l-6.21555,6.09081z" fill="#669dff" stroke="none" stroke-width="0" stroke-linecap="butt" opacity="0.7"/><path d="M249.26972,222.93961v-34.83436l6.16735,-6.16791h175.29321v34.91146l-6.21555,6.09081z" fill="#669dff" stroke="none" stroke-width="0" stroke-linecap="butt" opacity="0.7"/><path d="M249.26972,322.93956v-84.83436l6.16735,-6.16791h175.29321v84.91146l-6.21555,6.09081z" fill="#669dff" stroke="none" stroke-width="0" stroke-linecap="butt" opacity="0.7"/><g stroke="#6198ff" stroke-width="1"><path d="M387.23477,156.08434v-15.41864l14.73386,-8.42319l13.72927,8.42319v15.41864l-14.06414,8.42319z" fill="#ffffff" stroke-linecap="butt"/><path d="M402.03607,132.42307l-0.22324,31.5533" fill="none" stroke-linecap="round"/><path d="M387.49011,155.98287l28.12827,-15.28582" fill="none" stroke-linecap="round"/><path d="M387.49011,140.83729l27.99433,14.86511" fill="none" stroke-linecap="round"/></g><path d="M394.9506,151.65067l-4.05384,-7.98109l10.4084,-9.17467l11.06675,7.93142l0.17625,11.86539l-11.47013,3.35157z" fill="#669dff" stroke="none" stroke-width="0" stroke-linecap="butt" opacity="0.7"/></g></g></svg>