<svg version="1.1" xmlns="http://www.w3.org/2000/svg" xmlns:xlink="http://www.w3.org/1999/xlink" width="279.27928" height="385.88589" viewBox="0,0,279.27928,385.88589"><defs><linearGradient x1="-19.00901" y1="181.24573" x2="260.27027" y2="181.24573" gradientUnits="userSpaceOnUse" id="color-1"><stop offset="0" stop-color="#000000" stop-opacity="0.80392"/><stop offset="1" stop-color="#000000" stop-opacity="0"/></linearGradient></defs><g transform="translate(19.00901,11.69721)"><g data-paper-data="{&quot;isPaintingLayer&quot;:true}" fill-rule="nonzero" stroke-linejoin="miter" stroke-miterlimit="10" stroke-dasharray="" stroke-dashoffset="0" style="mix-blend-mode: normal"><path d="M-19.00901,374.18867v-385.88589h279.27928v385.88589z" fill="url(#color-1)" stroke="none" stroke-width="0" stroke-linecap="butt"/><text transform="translate(21.5,50.07895) scale(0.825,0.825)" font-size="40" xml:space="preserve" fill="#a7a7a7" fill-rule="nonzero" stroke="#a7a7a7" stroke-width="2" stroke-linecap="butt" stroke-linejoin="miter" stroke-miterlimit="10" stroke-dasharray="" stroke-dashoffset="0" font-family="&quot;Microsoft YaHei&quot;, &quot;微软雅黑&quot;, STXihei, &quot;华文细黑&quot;" font-weight="normal" text-anchor="start" style="mix-blend-mode: normal"><tspan x="0" dy="0">-</tspan></text><path d="M29.68251,177.58674l-5.67651,-5.33507l5.33507,-5.67651l5.67652,5.33507z" fill="none" stroke="#ffffff" stroke-width="2.5" stroke-linecap="butt"/><path d="M26.99146,172.08095c0,-1.39194 1.12839,-2.52033 2.52033,-2.52033c1.39194,0 2.52033,1.12839 2.52033,2.52033c0,1.39194 -1.12839,2.52033 -2.52033,2.52033c-1.39194,0 -2.52033,-1.12839 -2.52033,-2.52033z" fill="none" stroke="#ffffff" stroke-width="2.5" stroke-linecap="butt"/><text transform="translate(40.37595,175.20284) scale(0.24975,0.24975)" font-size="40" xml:space="preserve" fill="#fff1bf" fill-rule="nonzero" stroke="none" stroke-width="1" stroke-linecap="butt" stroke-linejoin="miter" stroke-miterlimit="10" stroke-dasharray="" stroke-dashoffset="0" font-family="Sans Serif" font-weight="normal" text-anchor="start" style="mix-blend-mode: normal"><tspan x="0" dy="0">技力</tspan></text><text transform="translate(62.6038,176.45159) scale(0.24975,0.24975)" font-size="40" xml:space="preserve" fill="#04ff00" fill-rule="nonzero" stroke="none" stroke-width="1" stroke-linecap="butt" stroke-linejoin="miter" stroke-miterlimit="10" stroke-dasharray="" stroke-dashoffset="0" font-family="Sans Serif" font-weight="normal" text-anchor="start" style="mix-blend-mode: normal"><tspan x="0" dy="0">full</tspan></text><path d="M23.27856,191.86458c0,0 128.82014,0.82887 159.7466,1.02786c12.65622,0.08143 26.7534,0.17214 26.7534,0.17214" fill="none" stroke="#989898" stroke-width="2.5" stroke-linecap="round"/><path d="M188.77856,193.06458l-166,-0.7" fill="none" stroke="#fff1bf" stroke-width="3" stroke-linecap="round"/><text transform="translate(39.56766,228.15951) scale(0.24654,0.24654)" font-size="40" xml:space="preserve" fill="#dadada" fill-rule="nonzero" stroke="none" stroke-width="1" stroke-linecap="butt" stroke-linejoin="miter" stroke-miterlimit="10" stroke-dasharray="" stroke-dashoffset="0" font-family="Sans Serif" font-weight="normal" text-anchor="start" style="mix-blend-mode: normal"><tspan x="0" dy="0">属性：</tspan><tspan x="0" dy="46.150000000000006px"> </tspan><tspan x="0" dy="46.150000000000006px">攻击力-</tspan><tspan x="0" dy="46.150000000000006px">生命上限-</tspan><tspan x="0" dy="46.150000000000006px">等级-</tspan><tspan x="0" dy="46.150000000000006px">防御力-</tspan></text><path d="M79.7498,106.89418v-23.89428h131.65334v23.89428z" fill="#000000" stroke="none" stroke-width="0" stroke-linecap="butt" opacity="0.7"/><path d="M23.75,221.59895c0,-3.31371 2.68629,-6 6,-6c3.31371,0 6,2.68629 6,6c0,3.31371 -2.68629,6 -6,6c-3.31371,0 -6,-2.68629 -6,-6z" fill="#ffffff" stroke="none" stroke-width="0" stroke-linecap="butt"/><path d="M26.8,221.03958c0,-0.93888 0.76112,-1.7 1.7,-1.7c0.93888,0 1.7,0.76112 1.7,1.7c0,0.93888 -0.76112,1.7 -1.7,1.7c-0.93888,0 -1.7,-0.76112 -1.7,-1.7z" fill="#5a5a5a" stroke="none" stroke-width="0" stroke-linecap="butt"/><path d="M31,223.33958c0,-0.44183 0.35817,-0.8 0.8,-0.8c0.44183,0 0.8,0.35817 0.8,0.8c0,0.44183 -0.35817,0.8 -0.8,0.8c-0.44183,0 -0.8,-0.35817 -0.8,-0.8z" fill="#5a5a5a" stroke="none" stroke-width="0" stroke-linecap="butt"/><path d="M21.77856,107.78568v-26.37032h61.95435v26.37032z" fill="#945c5c" stroke="none" stroke-width="0" stroke-linecap="butt"/><text transform="translate(94.5352,97.3011) scale(0.31772,0.31772)" font-size="40" xml:space="preserve" fill="#945c5c" fill-rule="nonzero" stroke="none" stroke-width="1" stroke-linecap="butt" stroke-linejoin="miter" stroke-miterlimit="10" stroke-dasharray="" stroke-dashoffset="0" font-family="Sans Serif" font-weight="normal" text-anchor="start" style="mix-blend-mode: normal"><tspan x="0" dy="0">重新部署时间：10s</tspan></text><path d="M81.91647,137.22752v-23.89428h131.65334v23.89428z" fill="#000000" stroke="none" stroke-width="0" stroke-linecap="butt" opacity="0.7"/><path d="M22.09627,137.33314v-26.37031h61.95434v26.37031z" fill="#cecece" stroke="none" stroke-width="0" stroke-linecap="butt"/><path d="M29.40371,146.86458v-26.37031h61.95435v26.37031z" fill="#fff1bf" stroke="none" stroke-width="0" stroke-linecap="butt"/><text transform="translate(98.34778,129.33808) scale(0.31772,0.31772)" font-size="40" xml:space="preserve" fill="#cec39a" fill-rule="nonzero" stroke="none" stroke-width="1" stroke-linecap="butt" stroke-linejoin="miter" stroke-miterlimit="10" stroke-dasharray="" stroke-dashoffset="0" font-family="Sans Serif" font-weight="normal" text-anchor="start" style="mix-blend-mode: normal"><tspan x="0" dy="0">准备完成！</tspan></text><text transform="translate(41.15915,99.5251) scale(0.31772,0.31772)" font-size="40" xml:space="preserve" fill="#ffffff" fill-rule="nonzero" stroke="none" stroke-width="1" stroke-linecap="butt" stroke-linejoin="miter" stroke-miterlimit="10" stroke-dasharray="" stroke-dashoffset="0" font-family="Sans Serif" font-weight="normal" text-anchor="start" style="mix-blend-mode: normal"><tspan x="0" dy="0">撤退</tspan></text><text transform="translate(40.52372,127.16627) scale(0.31772,0.31772)" font-size="40" xml:space="preserve" fill="#7b7b7b" fill-rule="nonzero" stroke="none" stroke-width="1" stroke-linecap="butt" stroke-linejoin="miter" stroke-miterlimit="10" stroke-dasharray="" stroke-dashoffset="0" font-family="Sans Serif" font-weight="normal" text-anchor="start" style="mix-blend-mode: normal"><tspan x="0" dy="0">爆发</tspan></text><text transform="translate(53.38214,196.18472) scale(0.5,0.5)" font-size="40" xml:space="preserve" fill="#9c9c9c" fill-rule="nonzero" stroke="none" stroke-width="1" stroke-linecap="butt" stroke-linejoin="miter" stroke-miterlimit="10" stroke-dasharray="" stroke-dashoffset="0" font-family="&quot;Microsoft YaHei&quot;, &quot;微软雅黑&quot;, STXihei, &quot;华文细黑&quot;" font-weight="normal" text-anchor="start" style="mix-blend-mode: normal"><tspan x="0" dy="0">以下正在开发</tspan></text></g></g></svg>