<svg version="1.1" xmlns="http://www.w3.org/2000/svg" xmlns:xlink="http://www.w3.org/1999/xlink" width="135.80388" height="132.69911" viewBox="0,0,135.80388,132.69911"><g transform="translate(-170.03981,-155.88566)"><g data-paper-data="{&quot;isPaintingLayer&quot;:true}" fill-rule="nonzero" stroke="none" stroke-linecap="butt" stroke-linejoin="miter" stroke-miterlimit="10" stroke-dasharray="" stroke-dashoffset="0" style="mix-blend-mode: normal"><path d="M170.03982,288.58477v-132.69911h135.80388v132.69911z" fill="#ffffff" stroke-width="0"/><text transform="translate(205.03867,179.29334) scale(0.30799,0.30799)" font-size="40" xml:space="preserve" fill="#bbbbbb" fill-rule="nonzero" stroke="none" stroke-width="1" stroke-linecap="butt" stroke-linejoin="miter" stroke-miterlimit="10" stroke-dasharray="" stroke-dashoffset="0" font-family="Sans Serif" font-weight="normal" text-anchor="start" style="mix-blend-mode: normal"><tspan x="0" dy="0">记忆链登录</tspan></text><text transform="translate(184.23144,204.93585) scale(0.27003,0.27003)" font-size="40" xml:space="preserve" fill="#d4d4d4" fill-rule="nonzero" stroke="none" stroke-width="1" stroke-linecap="butt" stroke-linejoin="miter" stroke-miterlimit="10" stroke-dasharray="" stroke-dashoffset="0" font-family="Sans Serif" font-weight="normal" text-anchor="start" style="mix-blend-mode: normal"><tspan x="0" dy="0">输入记忆链确认您的身</tspan><tspan x="0" dy="48px">份和数据</tspan><tspan x="0" dy="48px"> </tspan></text><path d="M250.35167,251.23333c-1.13661,5.2849 -5.74823,9.26667 -11.35167,9.26667c-5.60344,0 -10.28021,-3.98177 -11.35167,-9.26667h-9.49833c-1.27923,0 -2.31667,-1.03526 -2.31667,-2.31667c0,-1.28141 1.03743,-2.31667 2.31667,-2.31667h9.49833c1.07146,-5.35005 5.74823,-9.26667 11.35167,-9.26667c5.60344,0 10.21505,3.91661 11.35167,9.26667h9.49833c1.28141,0 2.31667,1.03526 2.31667,2.31667c0,1.28141 -1.03526,2.31667 -2.31667,2.31667zM239,254.70833c3.1999,0 5.79167,-2.59177 5.79167,-5.79167c0,-3.1999 -2.59177,-5.79167 -5.79167,-5.79167c-3.1999,0 -5.79167,2.59177 -5.79167,5.79167c0,3.1999 2.59177,5.79167 5.79167,5.79167z" fill="#000000" stroke-width="1"/></g></g></svg>