<svg version="1.1" xmlns="http://www.w3.org/2000/svg" xmlns:xlink="http://www.w3.org/1999/xlink" width="18.57075" height="9.78831" viewBox="0,0,18.57075,9.78831"><defs><linearGradient x1="166.73694" y1="153.3669" x2="166.73694" y2="162.79495" gradientUnits="userSpaceOnUse" id="color-1"><stop offset="0" stop-color="#294c62"/><stop offset="1" stop-color="#34465e"/></linearGradient><linearGradient x1="166.73694" y1="162.76825" x2="166.73694" y2="153.39359" gradientUnits="userSpaceOnUse" id="color-2"><stop offset="0" stop-color="#164f90"/><stop offset="1" stop-color="#164f90" stop-opacity="0"/></linearGradient><linearGradient x1="159.75059" y1="157.72065" x2="159.75059" y2="162.76511" gradientUnits="userSpaceOnUse" id="color-3"><stop offset="0" stop-color="#2b2b2b"/><stop offset="1" stop-color="#003131"/></linearGradient><linearGradient x1="158.50484" y1="157.19801" x2="158.50484" y2="159.09527" gradientUnits="userSpaceOnUse" id="color-4"><stop offset="0" stop-color="#0084ff"/><stop offset="1" stop-color="#0084ff" stop-opacity="0"/></linearGradient><linearGradient x1="159.05003" y1="158.35382" x2="159.05003" y2="160.25108" gradientUnits="userSpaceOnUse" id="color-5"><stop offset="0" stop-color="#0084ff"/><stop offset="1" stop-color="#0084ff" stop-opacity="0"/></linearGradient><linearGradient x1="158.24314" y1="158.09212" x2="158.24314" y2="159.98939" gradientUnits="userSpaceOnUse" id="color-6"><stop offset="0" stop-color="#0084ff"/><stop offset="1" stop-color="#0084ff" stop-opacity="0"/></linearGradient><linearGradient x1="158.78833" y1="159.24793" x2="158.78833" y2="161.14519" gradientUnits="userSpaceOnUse" id="color-7"><stop offset="0" stop-color="#0084ff"/><stop offset="1" stop-color="#0084ff" stop-opacity="0"/></linearGradient><linearGradient x1="159.98775" y1="156.84909" x2="159.98775" y2="158.74635" gradientUnits="userSpaceOnUse" id="color-8"><stop offset="0" stop-color="#0084ff"/><stop offset="1" stop-color="#0084ff" stop-opacity="0"/></linearGradient><linearGradient x1="160.53295" y1="158.00489" x2="160.53295" y2="159.90216" gradientUnits="userSpaceOnUse" id="color-9"><stop offset="0" stop-color="#0084ff"/><stop offset="1" stop-color="#0084ff" stop-opacity="0"/></linearGradient><linearGradient x1="159.72606" y1="157.7432" x2="159.72606" y2="159.64047" gradientUnits="userSpaceOnUse" id="color-10"><stop offset="0" stop-color="#0084ff"/><stop offset="1" stop-color="#0084ff" stop-opacity="0"/></linearGradient><linearGradient x1="160.27125" y1="158.89901" x2="160.27125" y2="160.79627" gradientUnits="userSpaceOnUse" id="color-11"><stop offset="0" stop-color="#0084ff"/><stop offset="1" stop-color="#0084ff" stop-opacity="0"/></linearGradient><linearGradient x1="161.12175" y1="158.55008" x2="161.12175" y2="160.44735" gradientUnits="userSpaceOnUse" id="color-12"><stop offset="0" stop-color="#0084ff"/><stop offset="1" stop-color="#0084ff" stop-opacity="0"/></linearGradient><linearGradient x1="161.66694" y1="159.70589" x2="161.66694" y2="161.60315" gradientUnits="userSpaceOnUse" id="color-13"><stop offset="0" stop-color="#0084ff"/><stop offset="1" stop-color="#0084ff" stop-opacity="0"/></linearGradient><linearGradient x1="160.86006" y1="159.4442" x2="160.86006" y2="161.34146" gradientUnits="userSpaceOnUse" id="color-14"><stop offset="0" stop-color="#0084ff"/><stop offset="1" stop-color="#0084ff" stop-opacity="0"/></linearGradient><linearGradient x1="161.22669" y1="159.30541" x2="161.22669" y2="161.20267" gradientUnits="userSpaceOnUse" id="color-15"><stop offset="0" stop-color="#0084ff"/><stop offset="1" stop-color="#0084ff" stop-opacity="0"/></linearGradient><linearGradient x1="162.60467" y1="158.20116" x2="162.60467" y2="160.09843" gradientUnits="userSpaceOnUse" id="color-16"><stop offset="0" stop-color="#0084ff"/><stop offset="1" stop-color="#0084ff" stop-opacity="0"/></linearGradient><linearGradient x1="163.14986" y1="159.35697" x2="163.14986" y2="161.25423" gradientUnits="userSpaceOnUse" id="color-17"><stop offset="0" stop-color="#0084ff"/><stop offset="1" stop-color="#0084ff" stop-opacity="0"/></linearGradient><linearGradient x1="162.34298" y1="159.09527" x2="162.34298" y2="160.99254" gradientUnits="userSpaceOnUse" id="color-18"><stop offset="0" stop-color="#0084ff"/><stop offset="1" stop-color="#0084ff" stop-opacity="0"/></linearGradient><linearGradient x1="161.50429" y1="160.1618" x2="161.50429" y2="162.05906" gradientUnits="userSpaceOnUse" id="color-19"><stop offset="0" stop-color="#0084ff"/><stop offset="1" stop-color="#0084ff" stop-opacity="0"/></linearGradient><linearGradient x1="166.71462" y1="153.39046" x2="166.71462" y2="158.34563" gradientUnits="userSpaceOnUse" id="color-20"><stop offset="0" stop-color="#1a68b2"/><stop offset="1" stop-color="#1a68b2" stop-opacity="0"/></linearGradient><linearGradient x1="165.17141" y1="159.62" x2="165.17141" y2="161.40565" gradientUnits="userSpaceOnUse" id="color-21"><stop offset="0" stop-color="#007d9b" stop-opacity="0"/><stop offset="1" stop-color="#007d9b"/></linearGradient><linearGradient x1="164.17007" y1="157.72065" x2="164.17007" y2="162.76511" gradientUnits="userSpaceOnUse" id="color-22"><stop offset="0" stop-color="#2b2b2b"/><stop offset="1" stop-color="#003131"/></linearGradient><linearGradient x1="166.01306" y1="158.00155" x2="166.01306" y2="159.89882" gradientUnits="userSpaceOnUse" id="color-23"><stop offset="0" stop-color="#0084ff"/><stop offset="1" stop-color="#0084ff" stop-opacity="0"/></linearGradient><linearGradient x1="165.46787" y1="159.15736" x2="165.46787" y2="161.05462" gradientUnits="userSpaceOnUse" id="color-24"><stop offset="0" stop-color="#0084ff"/><stop offset="1" stop-color="#0084ff" stop-opacity="0"/></linearGradient><linearGradient x1="166.27475" y1="158.89567" x2="166.27475" y2="160.79293" gradientUnits="userSpaceOnUse" id="color-25"><stop offset="0" stop-color="#0084ff"/><stop offset="1" stop-color="#0084ff" stop-opacity="0"/></linearGradient><linearGradient x1="165.72956" y1="160.05147" x2="165.72956" y2="161.94874" gradientUnits="userSpaceOnUse" id="color-26"><stop offset="0" stop-color="#0084ff"/><stop offset="1" stop-color="#0084ff" stop-opacity="0"/></linearGradient><linearGradient x1="164.53014" y1="157.65263" x2="164.53014" y2="159.5499" gradientUnits="userSpaceOnUse" id="color-27"><stop offset="0" stop-color="#0084ff"/><stop offset="1" stop-color="#0084ff" stop-opacity="0"/></linearGradient><linearGradient x1="163.98495" y1="158.80844" x2="163.98495" y2="160.7057" gradientUnits="userSpaceOnUse" id="color-28"><stop offset="0" stop-color="#0084ff"/><stop offset="1" stop-color="#0084ff" stop-opacity="0"/></linearGradient><linearGradient x1="164.79183" y1="158.54674" x2="164.79183" y2="160.44401" gradientUnits="userSpaceOnUse" id="color-29"><stop offset="0" stop-color="#0084ff"/><stop offset="1" stop-color="#0084ff" stop-opacity="0"/></linearGradient><linearGradient x1="164.24664" y1="159.70255" x2="164.24664" y2="161.59981" gradientUnits="userSpaceOnUse" id="color-30"><stop offset="0" stop-color="#0084ff"/><stop offset="1" stop-color="#0084ff" stop-opacity="0"/></linearGradient><linearGradient x1="163.39614" y1="159.35363" x2="163.39614" y2="161.25089" gradientUnits="userSpaceOnUse" id="color-31"><stop offset="0" stop-color="#0084ff"/><stop offset="1" stop-color="#0084ff" stop-opacity="0"/></linearGradient><linearGradient x1="162.85095" y1="160.50943" x2="162.85095" y2="162.4067" gradientUnits="userSpaceOnUse" id="color-32"><stop offset="0" stop-color="#0084ff"/><stop offset="1" stop-color="#0084ff" stop-opacity="0"/></linearGradient><linearGradient x1="163.65783" y1="160.24774" x2="163.65783" y2="162.145" gradientUnits="userSpaceOnUse" id="color-33"><stop offset="0" stop-color="#0084ff"/><stop offset="1" stop-color="#0084ff" stop-opacity="0"/></linearGradient><linearGradient x1="163.29121" y1="160.10895" x2="163.29121" y2="162.00621" gradientUnits="userSpaceOnUse" id="color-34"><stop offset="0" stop-color="#0084ff"/><stop offset="1" stop-color="#0084ff" stop-opacity="0"/></linearGradient><linearGradient x1="161.91322" y1="159.0047" x2="161.91322" y2="160.90197" gradientUnits="userSpaceOnUse" id="color-35"><stop offset="0" stop-color="#0084ff"/><stop offset="1" stop-color="#0084ff" stop-opacity="0"/></linearGradient><linearGradient x1="161.36803" y1="160.16051" x2="161.36803" y2="162.05777" gradientUnits="userSpaceOnUse" id="color-36"><stop offset="0" stop-color="#0084ff"/><stop offset="1" stop-color="#0084ff" stop-opacity="0"/></linearGradient><linearGradient x1="162.17491" y1="159.89882" x2="162.17491" y2="161.79608" gradientUnits="userSpaceOnUse" id="color-37"><stop offset="0" stop-color="#0084ff"/><stop offset="1" stop-color="#0084ff" stop-opacity="0"/></linearGradient><linearGradient x1="163.0136" y1="160.96534" x2="163.0136" y2="162.8626" gradientUnits="userSpaceOnUse" id="color-38"><stop offset="0" stop-color="#0084ff"/><stop offset="1" stop-color="#0084ff" stop-opacity="0"/></linearGradient><linearGradient x1="167.10214" y1="156.97272" x2="168.91459" y2="161.68033" gradientUnits="userSpaceOnUse" id="color-39"><stop offset="0" stop-color="#2b2b2b"/><stop offset="1" stop-color="#003131"/></linearGradient><linearGradient x1="168.6657" y1="156.94605" x2="168.51269" y2="161.98819" gradientUnits="userSpaceOnUse" id="color-40"><stop offset="0" stop-color="#2b2b2b"/><stop offset="1" stop-color="#003131"/></linearGradient><linearGradient x1="166.57097" y1="157.83509" x2="169.48933" y2="161.94966" gradientUnits="userSpaceOnUse" id="color-41"><stop offset="0" stop-color="#2b2b2b"/><stop offset="1" stop-color="#003131"/></linearGradient><linearGradient x1="172.55669" y1="160.8392" x2="175.22774" y2="162.54549" gradientUnits="userSpaceOnUse" id="color-42"><stop offset="0" stop-color="#1bb395"/><stop offset="1" stop-color="#1bb395" stop-opacity="0"/></linearGradient><linearGradient x1="173.53872" y1="160.53439" x2="175.91673" y2="162.62986" gradientUnits="userSpaceOnUse" id="color-43"><stop offset="0" stop-color="#1bb395"/><stop offset="1" stop-color="#1bb395" stop-opacity="0"/></linearGradient><linearGradient x1="173.87635" y1="159.72846" x2="175.51665" y2="162.44053" gradientUnits="userSpaceOnUse" id="color-44"><stop offset="0" stop-color="#1bb395"/><stop offset="1" stop-color="#1bb395" stop-opacity="0"/></linearGradient></defs><g transform="translate(-157.42925,-153.3669)"><g data-paper-data="{&quot;isPaintingLayer&quot;:true}" fill-rule="nonzero" stroke="none" stroke-width="0" stroke-linecap="butt" stroke-linejoin="miter" stroke-miterlimit="10" stroke-dasharray="" stroke-dashoffset="0" style="mix-blend-mode: normal"><g><path d="M157.49621,162.79495v-9.42805h18.48147v9.42805z" fill="url(#color-1)"/><path d="M165.55395,159.74648v-1.94933h2.94632v1.94933z" fill="#4585c6"/><path d="M176,153.39359v9.37466h-18.52611v-9.37466z" data-paper-data="{&quot;index&quot;:null}" fill="url(#color-2)"/><path d="M158.32207,162.72047c0,0 1.17063,-3.19937 1.2679,-3.09736c0.12016,0.12602 0.36348,-0.12064 0.60239,-0.1376c0.31874,-0.02262 0.62962,0.15471 0.62962,0.15471l-1.07139,3.12489z" fill="url(#color-3)"/><g><g><g><g><path d="M159.2572,158.14664c0,0.52391 -0.33684,0.94863 -0.75236,0.94863c-0.41552,0 -0.75236,-0.42472 -0.75236,-0.94863c0,-0.52391 0.33684,-0.94863 0.75236,-0.94863c0.41552,0 0.75236,0.42472 0.75236,0.94863z" fill="url(#color-4)"/><path d="M159.80239,159.30245c0,0.52391 -0.33684,0.94863 -0.75236,0.94863c-0.41552,0 -0.75236,-0.42472 -0.75236,-0.94863c0,-0.52391 0.33684,-0.94863 0.75236,-0.94863c0.41552,0 0.75236,0.42472 0.75236,0.94863z" fill="url(#color-5)"/></g><g><path d="M158.99551,159.04076c0,0.52391 -0.33684,0.94863 -0.75236,0.94863c-0.41552,0 -0.75236,-0.42472 -0.75236,-0.94863c0,-0.52391 0.33684,-0.94863 0.75236,-0.94863c0.41552,0 0.75236,0.42472 0.75236,0.94863z" fill="url(#color-6)"/><path d="M159.5407,160.19656c0,0.52391 -0.33684,0.94863 -0.75236,0.94863c-0.41552,0 -0.75236,-0.42472 -0.75236,-0.94863c0,-0.52391 0.33684,-0.94863 0.75236,-0.94863c0.41552,0 0.75236,0.42472 0.75236,0.94863z" fill="url(#color-7)"/></g></g><g><g><path d="M160.74012,157.79772c0,0.52391 -0.33684,0.94863 -0.75236,0.94863c-0.41552,0 -0.75236,-0.42472 -0.75236,-0.94863c0,-0.52391 0.33684,-0.94863 0.75236,-0.94863c0.41552,0 0.75236,0.42472 0.75236,0.94863z" fill="url(#color-8)"/><path d="M161.28531,158.95353c0,0.52391 -0.33684,0.94863 -0.75236,0.94863c-0.41552,0 -0.75236,-0.42472 -0.75236,-0.94863c0,-0.52391 0.33684,-0.94863 0.75236,-0.94863c0.41552,0 0.75236,0.42472 0.75236,0.94863z" fill="url(#color-9)"/></g><g><path d="M160.47843,158.69183c0,0.52391 -0.33684,0.94863 -0.75236,0.94863c-0.41552,0 -0.75236,-0.42472 -0.75236,-0.94863c0,-0.52391 0.33684,-0.94863 0.75236,-0.94863c0.41552,0 0.75236,0.42472 0.75236,0.94863z" fill="url(#color-10)"/><path d="M161.02362,159.84764c0,0.52391 -0.33684,0.94863 -0.75236,0.94863c-0.41552,0 -0.75236,-0.42472 -0.75236,-0.94863c0,-0.52391 0.33684,-0.94863 0.75236,-0.94863c0.41552,0 0.75236,0.42472 0.75236,0.94863z" fill="url(#color-11)"/></g></g></g><g><g><g><path d="M161.87412,159.49872c0,0.52391 -0.33684,0.94863 -0.75236,0.94863c-0.41552,0 -0.75236,-0.42472 -0.75236,-0.94863c0,-0.52391 0.33684,-0.94863 0.75236,-0.94863c0.41552,0 0.75236,0.42472 0.75236,0.94863z" fill="url(#color-12)"/><path d="M162.41931,160.65452c0,0.52391 -0.33684,0.94863 -0.75236,0.94863c-0.41552,0 -0.75236,-0.42472 -0.75236,-0.94863c0,-0.52391 0.33684,-0.94863 0.75236,-0.94863c0.41552,0 0.75236,0.42472 0.75236,0.94863z" fill="url(#color-13)"/></g><g><path d="M161.61242,160.39283c0,0.52391 -0.33684,0.94863 -0.75236,0.94863c-0.41552,0 -0.75236,-0.42472 -0.75236,-0.94863c0,-0.52391 0.33684,-0.94863 0.75236,-0.94863c0.41552,0 0.75236,0.42472 0.75236,0.94863z" fill="url(#color-14)"/><path d="M161.97905,160.25404c0,0.23533 0.73558,0.89705 0.62306,1.06286c-0.13799,0.20332 -1.14654,-0.11422 -1.37542,-0.11422c-0.16331,0 -0.98409,-0.02097 -1.10742,-0.13242c-0.19046,-0.17212 0.31042,-1.48032 0.31042,-1.79832c0,-0.52391 0.38149,0.03347 0.797,0.03347c0.41552,0 0.75236,0.42472 0.75236,0.94863z" fill="url(#color-15)"/></g></g><g><g><path d="M163.35704,159.14979c0,0.52391 -0.33684,0.94863 -0.75236,0.94863c-0.41552,0 -0.75236,-0.42472 -0.75236,-0.94863c0,-0.52391 0.33684,-0.94863 0.75236,-0.94863c0.41552,0 0.75236,0.42472 0.75236,0.94863z" fill="url(#color-16)"/><path d="M163.90223,160.3056c0,0.52391 -0.33684,0.94863 -0.75236,0.94863c-0.41552,0 -0.75236,-0.42472 -0.75236,-0.94863c0,-0.52391 0.33684,-0.94863 0.75236,-0.94863c0.41552,0 0.75236,0.42472 0.75236,0.94863z" fill="url(#color-17)"/></g><g><path d="M163.09534,160.04391c0,0.52391 -0.33684,0.94863 -0.75236,0.94863c-0.41552,0 -0.75236,-0.42472 -0.75236,-0.94863c0,-0.52391 0.33684,-0.94863 0.75236,-0.94863c0.41552,0 0.75236,0.42472 0.75236,0.94863z" fill="url(#color-18)"/><path d="M162.25666,161.11043c0,0.20313 0.26185,1.01633 0.17562,1.17067c-0.13617,0.24372 -0.67358,-0.22204 -0.92799,-0.22204c-0.1183,0 -0.23021,-0.03442 -0.3298,-0.09576c-0.25021,-0.15411 -0.42256,-0.47811 -0.42256,-0.85287c0,-0.1221 0.33078,-0.19418 0.36411,-0.30138c0.10966,-0.35279 0.06958,-0.64725 0.38825,-0.64725c0.41552,0 0.75236,0.42472 0.75236,0.94863z" fill="url(#color-19)"/></g></g></g></g><path d="M157.42925,158.34563v-4.95518h18.57075v4.95518z" fill="url(#color-20)"/><path d="M168.81276,161.38124h-6.47298c0,0 1.11458,-0.23117 0.87389,-0.48581c-0.17221,-0.1822 -1.75722,-0.37642 -1.63418,-0.50658c0.1568,-0.16588 1.75204,0.02849 1.7582,-0.08093c0.01399,-0.24838 -0.89995,-0.66605 -0.89995,-0.66605c0,0 6.03156,0.08616 6.05606,-0.04745c0.03269,-0.17826 -0.07596,-4.77341 -0.07596,-4.77341c0,0 2.05635,-0.04666 2.13592,-0.04666c0.08397,0 0.10617,4.51105 0.10617,4.51105l5.29542,-0.00228l-0.04464,2.09814z" fill="#5a93d4"/><path d="M164.75041,159.68696l0.02976,-2.99096l0.77378,1.07139l-0.01488,1.91957z" fill="#386da1"/><path d="M160.81185,161.40565v-1.78565h8.71912v1.78565z" fill="url(#color-21)"/><path d="M167.50849,157.97315l0.37464,0.60032l-0.03231,0.34459l-0.48033,-0.80263z" data-paper-data="{&quot;index&quot;:null}" fill="#e6e6e6"/><path d="M164.17007,162.76511l-1.07139,-3.12489c0,0 0.31088,-0.17733 0.62962,-0.15471c0.2389,0.01696 0.48223,0.26362 0.60239,0.1376c0.09727,-0.10202 1.2679,3.09736 1.2679,3.09736z" data-paper-data="{&quot;index&quot;:null}" fill="url(#color-22)"/><g data-paper-data="{&quot;index&quot;:null}"><g><g><g><path d="M166.01306,158.00155c0.41552,0 0.75236,0.42472 0.75236,0.94863c0,0.52391 -0.33684,0.94863 -0.75236,0.94863c-0.41552,0 -0.75236,-0.42472 -0.75236,-0.94863c0,-0.52391 0.33684,-0.94863 0.75236,-0.94863z" fill="url(#color-23)"/><path d="M165.46787,159.15736c0.41552,0 0.75236,0.42472 0.75236,0.94863c0,0.52391 -0.33684,0.94863 -0.75236,0.94863c-0.41552,0 -0.75236,-0.42472 -0.75236,-0.94863c0,-0.52391 0.33684,-0.94863 0.75236,-0.94863z" fill="url(#color-24)"/></g><g><path d="M166.27475,158.89567c0.41552,0 0.75236,0.42472 0.75236,0.94863c0,0.52391 -0.33684,0.94863 -0.75236,0.94863c-0.41552,0 -0.75236,-0.42472 -0.75236,-0.94863c0,-0.52391 0.33684,-0.94863 0.75236,-0.94863z" fill="url(#color-25)"/><path d="M165.72956,160.05147c0.41552,0 0.75236,0.42472 0.75236,0.94863c0,0.52392 -0.33684,0.94863 -0.75236,0.94863c-0.41552,0 -0.75236,-0.42472 -0.75236,-0.94863c0,-0.52391 0.33684,-0.94863 0.75236,-0.94863z" fill="url(#color-26)"/></g></g><g><g><path d="M164.53014,157.65263c0.41552,0 0.75236,0.42472 0.75236,0.94863c0,0.52391 -0.33684,0.94863 -0.75236,0.94863c-0.41552,0 -0.75236,-0.42472 -0.75236,-0.94863c0,-0.52391 0.33684,-0.94863 0.75236,-0.94863z" fill="url(#color-27)"/><path d="M163.98495,158.80844c0.41552,0 0.75236,0.42472 0.75236,0.94863c0,0.52391 -0.33684,0.94863 -0.75236,0.94863c-0.41552,0 -0.75236,-0.42472 -0.75236,-0.94863c0,-0.52391 0.33684,-0.94863 0.75236,-0.94863z" fill="url(#color-28)"/></g><g><path d="M164.79183,158.54674c0.41552,0 0.75236,0.42472 0.75236,0.94863c0,0.52391 -0.33684,0.94863 -0.75236,0.94863c-0.41552,0 -0.75236,-0.42472 -0.75236,-0.94863c0,-0.52391 0.33684,-0.94863 0.75236,-0.94863z" fill="url(#color-29)"/><path d="M164.24664,159.70255c0.41552,0 0.75236,0.42472 0.75236,0.94863c0,0.52391 -0.33684,0.94863 -0.75236,0.94863c-0.41552,0 -0.75236,-0.42472 -0.75236,-0.94863c0,-0.52391 0.33684,-0.94863 0.75236,-0.94863z" fill="url(#color-30)"/></g></g></g><g><g><g><path d="M163.39614,159.35363c0.41552,0 0.75236,0.42472 0.75236,0.94863c0,0.52391 -0.33684,0.94863 -0.75236,0.94863c-0.41552,0 -0.75236,-0.42472 -0.75236,-0.94863c0,-0.52391 0.33684,-0.94863 0.75236,-0.94863z" fill="url(#color-31)"/><path d="M162.85095,160.50943c0.41552,0 0.75236,0.42472 0.75236,0.94863c0,0.52392 -0.33684,0.94863 -0.75236,0.94863c-0.41552,0 -0.75236,-0.42472 -0.75236,-0.94863c0,-0.52391 0.33684,-0.94863 0.75236,-0.94863z" fill="url(#color-32)"/></g><g><path d="M163.65783,160.24774c0.41552,0 0.75236,0.42472 0.75236,0.94863c0,0.52391 -0.33684,0.94863 -0.75236,0.94863c-0.41552,0 -0.75236,-0.42472 -0.75236,-0.94863c0,-0.52391 0.33684,-0.94863 0.75236,-0.94863z" fill="url(#color-33)"/><path d="M163.29121,160.10895c0.41552,0 0.797,-0.55739 0.797,-0.03347c0,0.318 0.50088,1.6262 0.31042,1.79832c-0.12333,0.11145 -0.94411,0.13242 -1.10742,0.13242c-0.22888,0 -1.23743,0.31755 -1.37542,0.11422c-0.11252,-0.1658 0.62306,-0.82753 0.62306,-1.06286c0,-0.52391 0.33684,-0.94863 0.75236,-0.94863z" fill="url(#color-34)"/></g></g><g><g><path d="M161.91322,159.0047c0.41552,0 0.75236,0.42472 0.75236,0.94863c0,0.52391 -0.33684,0.94863 -0.75236,0.94863c-0.41552,0 -0.75236,-0.42472 -0.75236,-0.94863c0,-0.52391 0.33684,-0.94863 0.75236,-0.94863z" fill="url(#color-35)"/><path d="M161.36803,160.16051c0.41552,0 0.75236,0.42472 0.75236,0.94863c0,0.52392 -0.33684,0.94863 -0.75236,0.94863c-0.41552,0 -0.75236,-0.42472 -0.75236,-0.94863c0,-0.52391 0.33684,-0.94863 0.75236,-0.94863z" fill="url(#color-36)"/></g><g><path d="M162.17491,159.89882c0.41552,0 0.75236,0.42472 0.75236,0.94863c0,0.52391 -0.33684,0.94863 -0.75236,0.94863c-0.41552,0 -0.75236,-0.42472 -0.75236,-0.94863c0,-0.52391 0.33684,-0.94863 0.75236,-0.94863z" fill="url(#color-37)"/><path d="M163.0136,160.96534c0.31868,0 0.27859,0.29446 0.38825,0.64725c0.03332,0.10721 0.36411,0.17928 0.36411,0.30138c0,0.37476 -0.17235,0.69876 -0.42256,0.85287c-0.09959,0.06134 -0.2115,0.09576 -0.3298,0.09576c-0.25441,0 -0.79182,0.46576 -0.92799,0.22204c-0.08623,-0.15434 0.17562,-0.96753 0.17562,-1.17067c0,-0.52391 0.33684,-0.94863 0.75236,-0.94863z" fill="url(#color-38)"/></g></g></g></g><path d="M168.91459,161.68033l-1.40396,-2.80795c0,0 0.01788,-0.19691 0.10967,-0.208c0.0688,-0.00832 0.22129,0.19729 0.20755,0.06754c-0.01112,-0.10503 1.44565,2.7624 1.44565,2.7624z" data-paper-data="{&quot;index&quot;:null}" fill="url(#color-39)"/><path d="M168.51269,161.98819l-0.2064,-3.13259c0,0 0.09277,-0.1746 0.18169,-0.14927c0.06665,0.01899 0.12757,0.26761 0.16517,0.14268c0.03044,-0.10114 0.26248,3.10675 0.26248,3.10675z" data-paper-data="{&quot;index&quot;:null}" fill="url(#color-40)"/><path d="M169.48933,161.94966l-2.05361,-2.37453c0,0 -0.03128,-0.19523 0.05493,-0.22864c0.06462,-0.02504 0.26314,0.13656 0.2178,0.01422c-0.0367,-0.09904 2.08277,2.3201 2.08277,2.3201z" data-paper-data="{&quot;index&quot;:null}" fill="url(#color-41)"/><path d="M162.44789,156.70344v-1.97909h8.15447v1.97909z" fill="#5a93d4"/><path d="M172.70399,159.53072v-4.74685h2.0535v4.74685z" fill="#5a93d4"/><path d="M169.68327,156.89688v-2.17254h5.0891v2.17254z" fill="#5a93d4"/><path d="M172.68911,156.92665v-2.21718h2.09814v2.21718z" fill="#d45959"/><path d="M174.74261,161.45029v-2.21718h1.24995v2.21718z" fill="#4b77b3"/><path d="M174.19262,161.22209c0.73759,0.47118 1.20103,1.06368 1.03512,1.3234c-0.16591,0.25971 -0.89834,0.08829 -1.63593,-0.38289c-0.73759,-0.47118 -1.03512,-1.3234 -1.03512,-1.3234c0,0 0.89834,-0.08829 1.63593,0.38289z" fill="url(#color-42)"/><path d="M175.09665,161.16346c0.65667,0.57865 1.02383,1.23518 0.82008,1.4664c-0.20375,0.23122 -0.90126,-0.05042 -1.55792,-0.62907c-0.65667,-0.57865 -0.82008,-1.4664 -0.82008,-1.4664c0,0 0.90126,0.05042 1.55792,0.62907z" fill="url(#color-43)"/><path d="M175.17398,160.79571c0.45296,0.74892 0.60638,1.48533 0.34267,1.64482c-0.2637,0.15949 -0.84467,-0.31833 -1.29763,-1.06725c-0.45296,-0.74892 -0.34267,-1.64482 -0.34267,-1.64482c0,0 0.84467,0.31833 1.29763,1.06725z" fill="url(#color-44)"/><path d="M162.43651,156.70344v-1.97909h2.06838v1.97909z" fill="#59b0d4"/><path d="M165.55395,157.78227l-0.77378,-1.08627l3.0356,0.04464l0.65474,1.05651z" fill="#32608d"/><path d="M167.3772,158.13032l-0.48033,0.80263l-0.03231,-0.34459l0.37464,-0.60032z" fill="#e6e6e6"/><path d="M167.24718,157.8692l0.12391,-0.16448l0.12046,0.16918l-0.12391,0.16448z" fill="#e6e6e6"/></g></g></g></svg>