<svg version="1.1" xmlns="http://www.w3.org/2000/svg" xmlns:xlink="http://www.w3.org/1999/xlink" width="494" height="115.21586" viewBox="0,0,494,115.21586"><g transform="translate(7,-122.39207)"><g data-paper-data="{&quot;isPaintingLayer&quot;:true}" fill-rule="nonzero" stroke="none" stroke-linecap="butt" stroke-linejoin="miter" stroke-miterlimit="10" stroke-dasharray="" stroke-dashoffset="0" style="mix-blend-mode: normal"><path d="M-7,237.60793v-115.21586h494v115.21586z" fill="#000000" stroke-width="0" opacity="0.7"/><text transform="translate(204.16667,195.6375) scale(0.38646,0.38646)" font-size="40" xml:space="preserve" fill="#ffffff" fill-rule="nonzero" stroke="none" stroke-width="1" stroke-linecap="butt" stroke-linejoin="miter" stroke-miterlimit="10" stroke-dasharray="" stroke-dashoffset="0" font-family="Sans Serif" font-weight="normal" text-anchor="start" style="mix-blend-mode: normal"><tspan x="0" dy="0">兑换成功！</tspan></text><text transform="translate(205.29163,227.83331) scale(0.23998,0.23998)" font-size="40" xml:space="preserve" fill="#8b8b8b" fill-rule="nonzero" stroke="none" stroke-width="1" stroke-linecap="butt" stroke-linejoin="miter" stroke-miterlimit="10" stroke-dasharray="" stroke-dashoffset="0" font-family="Sans Serif" font-weight="normal" text-anchor="start" style="mix-blend-mode: normal"><tspan x="0" dy="0">点击空白处关闭</tspan></text><path d="M258,153.5c0,10.2173 -8.2827,18.5 -18.5,18.5c-10.2173,0 -18.5,-8.2827 -18.5,-18.5c0,-10.2173 8.2827,-18.5 18.5,-18.5c10.2173,0 18.5,8.2827 18.5,18.5zM237.36012,163.2956l13.72581,-13.72581c0.46608,-0.46608 0.46608,-1.22182 0,-1.6879l-1.6879,-1.6879c-0.46608,-0.46616 -1.22182,-0.46616 -1.68798,0l-11.19392,11.19384l-5.22618,-5.22618c-0.46608,-0.46608 -1.22182,-0.46608 -1.68798,0l-1.6879,1.6879c-0.46608,0.46608 -0.46608,1.22182 0,1.6879l7.75806,7.75806c0.46616,0.46616 1.22182,0.46616 1.68798,0.00007z" fill="#ffffff" stroke-width="1"/></g></g></svg>