<svg version="1.1" xmlns="http://www.w3.org/2000/svg" xmlns:xlink="http://www.w3.org/1999/xlink" width="494" height="115.21586" viewBox="0,0,494,115.21586"><g transform="translate(7,-122.39207)"><g data-paper-data="{&quot;isPaintingLayer&quot;:true}" fill-rule="nonzero" stroke="none" stroke-linecap="butt" stroke-linejoin="miter" stroke-miterlimit="10" stroke-dasharray="" stroke-dashoffset="0" style="mix-blend-mode: normal"><path d="M-7,237.60793v-115.21586h494v115.21586z" fill="#000000" stroke-width="0" opacity="0.7"/><text transform="translate(69.16667,195.6375) scale(0.38646,0.38646)" font-size="40" xml:space="preserve" fill="#ffffff" fill-rule="nonzero" stroke="none" stroke-width="1" stroke-linecap="butt" stroke-linejoin="miter" stroke-miterlimit="10" stroke-dasharray="" stroke-dashoffset="0" font-family="Sans Serif" font-weight="normal" text-anchor="start" style="mix-blend-mode: normal"><tspan x="0" dy="0">数据初始化超时！您可能无法使用快捷登录功能！</tspan></text><path d="M257.5,153c0,9.66713 -7.8357,17.5 -17.5,17.5c-9.6643,0 -17.5,-7.83287 -17.5,-17.5c0,-9.66148 7.8357,-17.5 17.5,-17.5c9.6643,0 17.5,7.83852 17.5,17.5zM237.03629,146.22581c0,1.63681 1.3269,2.96371 2.96371,2.96371c1.63681,0 2.96371,-1.3269 2.96371,-2.96371c0,-1.63681 -1.3269,-2.96371 -2.96371,-2.96371c-1.63681,0 -2.96371,1.3269 -2.96371,2.96371zM243.95161,159.49194c0,-0.46763 -0.37914,-0.84677 -0.84677,-0.84677h-0.84677v-7.05645c0,-0.46763 -0.37914,-0.84677 -0.84677,-0.84677h-4.51613c-0.46763,0 -0.84677,0.37914 -0.84677,0.84677v1.69355c0,0.46763 0.37914,0.84677 0.84677,0.84677h0.84677v4.51613h-0.84677c-0.46763,0 -0.84677,0.37914 -0.84677,0.84677v1.69355c0,0.46763 0.37914,0.84677 0.84677,0.84677h6.20968c0.46763,0 0.84677,-0.37914 0.84677,-0.84677z" fill="#ffffff" stroke-width="1"/><text transform="translate(205.29163,227.83331) scale(0.23998,0.23998)" font-size="40" xml:space="preserve" fill="#8b8b8b" fill-rule="nonzero" stroke="none" stroke-width="1" stroke-linecap="butt" stroke-linejoin="miter" stroke-miterlimit="10" stroke-dasharray="" stroke-dashoffset="0" font-family="Sans Serif" font-weight="normal" text-anchor="start" style="mix-blend-mode: normal"><tspan x="0" dy="0">点击空白处关闭</tspan></text></g></g></svg>