<svg version="1.1" xmlns="http://www.w3.org/2000/svg" xmlns:xlink="http://www.w3.org/1999/xlink" width="260.5" height="62.5" viewBox="0,0,260.5,62.5"><g transform="translate(-137.64581,-265.99997)"><g data-paper-data="{&quot;isPaintingLayer&quot;:true}" fill-rule="nonzero" stroke-linecap="butt" stroke-linejoin="miter" stroke-miterlimit="10" stroke-dasharray="" stroke-dashoffset="0" style="mix-blend-mode: normal"><path d="M138.89581,320.74996v-53.49999h251.66667l6.33333,6.83332v53.16668h-252.66667z" fill="#464646" stroke="#000000" stroke-width="2.5"/><text transform="translate(149.22915,283.29783) scale(0.27917,0.27917)" font-size="40" xml:space="preserve" fill="#f0f0f0" fill-rule="nonzero" stroke="none" stroke-width="1" stroke-linecap="butt" stroke-linejoin="miter" stroke-miterlimit="10" stroke-dasharray="" stroke-dashoffset="0" font-family="Sans Serif" font-weight="normal" text-anchor="start" style="mix-blend-mode: normal"><tspan x="0" dy="0">宿舍</tspan></text><path d="M374.21429,308.14286v-1.92857c0,-3.1954 2.59152,-5.78571 5.78571,-5.78571c3.1942,0 5.78571,2.59031 5.78571,5.78571v1.92857h0.64286c1.4183,0 2.57143,1.15313 2.57143,2.57143v7.71429c0,1.4183 -1.15313,2.57143 -2.57143,2.57143h-12.85714c-1.42031,0 -2.57143,-1.15312 -2.57143,-2.57143v-7.71429c0,-1.4183 1.15112,-2.57143 2.57143,-2.57143zM376.78571,308.14286h6.42857v-1.92857c0,-1.77509 -1.43839,-3.21429 -3.21429,-3.21429c-1.77589,0 -3.21429,1.4392 -3.21429,3.21429z" fill="#000000" stroke="none" stroke-width="1"/></g></g></svg>