<svg version="1.1" xmlns="http://www.w3.org/2000/svg" xmlns:xlink="http://www.w3.org/1999/xlink" width="75.66999" height="264.42617" viewBox="0,0,75.66999,264.42617"><g transform="translate(-396.165,-64.38596)"><g data-paper-data="{&quot;isPaintingLayer&quot;:true}" fill-rule="nonzero" stroke="none" stroke-linecap="butt" stroke-linejoin="miter" stroke-miterlimit="10" stroke-dasharray="" stroke-dashoffset="0" style="mix-blend-mode: normal"><path d="M396.165,83.84101c0,-17.94701 0,-19.45505 0,-19.45505c0,0 41.6422,0 65.58328,0c5.0727,0 8.08671,3.18652 8.08671,8.25922c0,27.59089 0,-4.41548 0,10.8916c0,4.8297 -2.64859,8.27535 -7.47829,8.27535c-20.54351,0 -21.75397,0 -58.47638,0c-4.74912,0 -7.71532,-3.10527 -7.71532,-7.97114z" fill="#ffffff" stroke-width="0"/><path d="M396.165,117.84101c0,-17.94701 0,-19.45505 0,-19.45505c0,0 41.6422,0 65.58328,0c5.0727,0 8.08671,3.18652 8.08671,8.25922c0,27.59089 0,-4.41548 0,10.8916c0,4.8297 -2.64859,8.27535 -7.47829,8.27535c-20.54351,0 -21.75397,0 -58.47638,0c-4.74912,0 -7.71532,-3.10527 -7.71532,-7.97114z" fill="#ffffff" stroke-width="0"/><path d="M397.165,151.84101c0,-17.94701 0,-19.45505 0,-19.45505c0,0 41.6422,0 65.58328,0c5.0727,0 8.08671,3.18652 8.08671,8.25922c0,27.59089 0,-4.41548 0,10.8916c0,4.8297 -2.64859,8.27535 -7.47829,8.27535c-20.54351,0 -21.75397,0 -58.47638,0c-4.74912,0 -7.71532,-3.10527 -7.71532,-7.97114z" fill="#ffffff" stroke-width="0"/><path d="M397.165,185.84101c0,-17.94701 0,-19.45505 0,-19.45505c0,0 41.6422,0 65.58328,0c5.0727,0 8.08671,3.18652 8.08671,8.25922c0,27.59089 0,-4.41548 0,10.8916c0,4.8297 -2.64859,8.27535 -7.47829,8.27535c-20.54351,0 -21.75397,0 -58.47638,0c-4.74912,0 -7.71532,-3.10527 -7.71532,-7.97114z" fill="#ffffff" stroke-width="0"/><path d="M397.165,218.84101c0,-17.94701 0,-19.45505 0,-19.45505c0,0 41.6422,0 65.58328,0c5.0727,0 8.08671,3.18652 8.08671,8.25922c0,27.59089 0,-4.41548 0,10.8916c0,4.8297 -2.64859,8.27535 -7.47829,8.27535c-20.54351,0 -21.75397,0 -58.47638,0c-4.74912,0 -7.71532,-3.10527 -7.71532,-7.97114z" fill="#ffffff" stroke-width="0"/><path d="M397.165,252.84101c0,-17.94701 0,-19.45505 0,-19.45505c0,0 41.6422,0 65.58328,0c5.0727,0 8.08671,3.18652 8.08671,8.25922c0,27.59089 0,-4.41548 0,10.8916c0,4.8297 -2.64859,8.27535 -7.47829,8.27535c-20.54351,0 -21.75397,0 -58.47638,0c-4.74912,0 -7.71532,-3.10527 -7.71532,-7.97114z" fill="#ffffff" stroke-width="0"/><path d="M398.165,286.84101c0,-17.94701 0,-19.45505 0,-19.45505c0,0 41.6422,0 65.58328,0c5.0727,0 8.08671,3.18652 8.08671,8.25922c0,27.59089 0,-4.41548 0,10.8916c0,4.8297 -2.64859,8.27535 -7.47829,8.27535c-20.54351,0 -21.75397,0 -58.47638,0c-4.74912,0 -7.71532,-3.10527 -7.71532,-7.97114z" fill="#ffffff" stroke-width="0"/><path d="M398.165,320.84101c0,-17.94701 0,-19.45505 0,-19.45505c0,0 41.6422,0 65.58328,0c5.0727,0 8.08671,3.18652 8.08671,8.25922c0,27.59089 0,-4.41548 0,10.8916c0,4.8297 -2.64859,8.27535 -7.47829,8.27535c-20.54351,0 -21.75397,0 -58.47638,0c-4.74912,0 -7.71532,-3.10527 -7.71532,-7.97114z" fill="#ffffff" stroke-width="0"/><text transform="translate(413.5,83.24005) scale(0.3375,0.3375)" font-size="40" xml:space="preserve" fill="#2b2b2b" fill-rule="nonzero" stroke="none" stroke-width="1" stroke-linecap="butt" stroke-linejoin="miter" stroke-miterlimit="10" stroke-dasharray="" stroke-dashoffset="0" font-family="Sans Serif" font-weight="normal" text-anchor="start" style="mix-blend-mode: normal"><tspan x="0" dy="0">背景</tspan></text></g></g></svg>