<svg version="1.1" xmlns="http://www.w3.org/2000/svg" xmlns:xlink="http://www.w3.org/1999/xlink" width="68.16667" height="30.31632" viewBox="0,0,68.16667,30.31632"><defs><linearGradient x1="205.91669" y1="99.9121" x2="274.08333" y2="99.9121" gradientUnits="userSpaceOnUse" id="color-1"><stop offset="0" stop-color="#930000"/><stop offset="1" stop-color="#c00000"/></linearGradient></defs><g transform="translate(-205.91669,-94.43827)"><g data-paper-data="{&quot;isPaintingLayer&quot;:true}" fill-rule="nonzero" stroke="none" stroke-linecap="butt" stroke-linejoin="miter" stroke-miterlimit="10" stroke-dasharray="" stroke-dashoffset="0" style="mix-blend-mode: normal"><path d="M205.9945,124.75459v-26.66667c0,0 50.12249,0 60.58888,0c3.66052,0 7.41112,0 7.41112,0c0,0 0,4.48185 0,7.58243c0,4.91899 0,19.08424 0,19.08424z" fill="#ffffff" stroke-width="0"/><text transform="translate(221.81264,119.16367) scale(0.40151,0.40151)" font-size="40" xml:space="preserve" fill="#2d2d2d" fill-rule="nonzero" stroke="none" stroke-width="1" stroke-linecap="butt" stroke-linejoin="miter" stroke-miterlimit="10" stroke-dasharray="" stroke-dashoffset="0" font-family="Sans Serif" font-weight="normal" text-anchor="start" style="mix-blend-mode: normal"><tspan x="0" dy="0">EX-4</tspan></text><path d="M205.91669,103.57876v-7.33333c0,0 6.42377,0 11.83333,0c11.80298,0 56.33334,0 56.33334,0v7.33333z" fill="url(#color-1)" stroke-width="0"/><text transform="translate(208.42779,102.04559) scale(0.15064,0.15064)" font-size="40" xml:space="preserve" fill="#ba7777" fill-rule="nonzero" stroke="none" stroke-width="1" stroke-linecap="butt" stroke-linejoin="miter" stroke-miterlimit="10" stroke-dasharray="" stroke-dashoffset="0" font-family="Pixel" font-weight="normal" text-anchor="start" style="mix-blend-mode: normal"><tspan x="0" dy="0">level-hard</tspan></text></g></g></svg>