<svg version="1.1" xmlns="http://www.w3.org/2000/svg" xmlns:xlink="http://www.w3.org/1999/xlink" width="137" height="255" viewBox="0,0,137,255"><defs><linearGradient x1="-5.98209" y1="-35.04964" x2="-5.98209" y2="17.31058" gradientUnits="userSpaceOnUse" id="color-1"><stop offset="0" stop-color="#af203d"/><stop offset="1" stop-color="#f9cf79"/></linearGradient></defs><g transform="translate(-171.24593,-52.92363)"><g data-paper-data="{&quot;isPaintingLayer&quot;:true}" fill-rule="nonzero" stroke-linecap="butt" stroke-linejoin="miter" stroke-miterlimit="10" stroke-dasharray="" stroke-dashoffset="0" style="mix-blend-mode: normal"><path d="M172.24593,55.06611c0,-0.06911 -0.0007,-0.13806 -0.00209,-0.20684c-0.01092,-0.68663 -0.06089,-1.29931 -0.14819,-1.84961c45.26748,0.0602 90.53496,0.12077 135.80244,0.18106c0.06336,84.50254 -0.384,169.00596 -0.00197,253.50765c0,0.06968 0.00071,0.13921 0.00213,0.20855c0.00045,0.02792 0.00097,0.05573 0.00154,0.08342c-45.20761,-0.1591 -90.4168,0.00886 -135.62496,-0.03485c0.37852,-83.96228 0.34753,-167.92711 -0.0289,-251.88937z" fill="url(#color-1)" stroke="none" stroke-width="1"/><path d="M172.83061,220.00314c0,2.73478 -0.1076,5.44429 -0.31876,8.12451c0.00816,-5.3313 0.01475,-10.66259 0.01978,-15.99389c0.1981,2.597 0.29898,5.22135 0.29898,7.86938z" fill="#fff8db" stroke="none" stroke-width="1"/><path d="M177.58792,162.12427c0.379,-0.00338 0.7568,-0.05991 1.12286,-0.16561l11.92485,-3.43227c0.36427,-0.1045 0.74207,-0.16083 1.12126,-0.16402l4.62021,-0.03981c2.22262,-0.02329 4.00335,1.69852 3.98026,3.84013l-0.57865,53.21536c-0.01473,1.40054 0.75361,2.68681 2.01003,3.3628l0.74864,0.40129c2.66472,1.43159 6.00184,-0.46738 6.03488,-3.43406l0.06589,-6.22816c0.01015,-0.78546 0.26215,-1.54923 0.72714,-2.20073l4.10228,-5.72615c0.46499,-0.64971 0.71898,-1.41527 0.72575,-2.19575l0.12361,-11.47858c0.02647,-2.143 1.84522,-3.89447 4.06625,-3.91597l7.87333,-0.07146c2.22103,-0.01831 4.00176,1.7021 3.97887,3.84172l-0.28385,26.0162c-0.00975,1.02751 0.40408,2.01043 1.14933,2.7314l5.3374,5.1475c0.74525,0.72256 1.15749,1.70369 1.14774,2.73419l-0.33302,30.65691c-0.02309,2.14121 1.75764,3.86142 3.98026,3.84152l3.47248,-0.03145c2.22262,-0.0201 4.00355,1.69872 3.98046,3.83993l-0.06111,5.60652c-0.00159,0.15924 0.00179,0.29679 0.0215,0.45404c0.21916,1.84621 2.3956,13.46035 22.44638,13.27981l-98.72832,2.95936c0.14992,-40.93281 0.20385,-81.86611 0.16919,-122.79932z" fill="#c97150" stroke="none" stroke-width="1"/><path d="M220.88749,277.71063c30.79625,1.14336 -3.67213,7.18939 61.68327,-0.07644c9.08051,-1.00904 17.40062,-1.51661 25.22051,-1.70691c0.02433,10.25705 0.05848,20.51409 0.10485,30.77109c0,0.06968 0.00071,0.13921 0.00213,0.20855c0.00045,0.02792 0.00097,0.05573 0.00154,0.08342c-45.20761,-0.1591 -90.4168,0.00886 -135.62496,-0.03485c0.04181,-9.27305 0.07862,-18.54611 0.11052,-27.81921c22.18272,-1.09058 40.25832,-1.73239 48.50215,-1.42564z" fill="#c97150" stroke="none" stroke-width="1"/><path d="M172.334,292.99712c29.88357,1.99632 48.55348,3.90479 48.55348,3.90479l-1.73391,10.04526c-15.6263,0.01322 -31.25258,0.02341 -46.87874,0.0083c0.02097,-4.65278 0.04069,-9.30556 0.05917,-13.95836z" fill="#a9373b" stroke="none" stroke-width="1"/><path d="M199.83287,153.84091l0.61647,0.75242l-0.78467,-0.58482l-0.80477,0.61965l0.6103,-0.81731l-0.64652,-0.78049l0.81452,0.61348l0.7767,-0.64812z" fill="#ffffff" stroke="none" stroke-width="1" opacity="0.93"/><path d="M284.12734,53.90109l-0.75023,0.62164l0.58203,-0.78885l-0.43808,-0.57565c0.04402,0.00006 0.08803,0.00011 0.13204,0.00017l0.50051,0.37842l0.4529,-0.37714c0.04084,0.00006 0.08167,0.0001 0.12251,0.00016l-0.40721,0.54418l0.64652,0.78208z" fill="#ffffff" stroke="none" stroke-width="1" opacity="0.93"/><path d="M210.943,75.01342l-0.75003,0.62164l0.58203,-0.78905l-0.61686,-0.81034l0.81114,0.61328l0.7783,-0.64792l-0.6099,0.81691l0.64613,0.78228z" fill="#ffffff" stroke="none" stroke-width="1" opacity="0.93"/><path d="M262.69354,58.23984l-0.75043,0.62184l0.58382,-0.78905l-0.61846,-0.81034l0.81293,0.61328l0.7783,-0.64792l-0.6099,0.81512l0.64453,0.78208z" fill="#ffffff" stroke="none" stroke-width="1" opacity="0.93"/><path d="M271.10591,143.44478l-0.75003,0.62144l0.58203,-0.78905l-0.61667,-0.81034l0.81273,0.61328l0.7767,-0.64792l-0.60831,0.81711l0.64294,0.78049z" fill="#ffffff" stroke="none" stroke-width="1" opacity="0.93"/><path d="M247.1724,110.17789l-0.75023,0.62164l0.58203,-0.78905l-0.61667,-0.81014l0.81134,0.61288l0.7781,-0.64812l-0.6099,0.81731l0.64632,0.78228z" fill="#ffffff" stroke="none" stroke-width="1" opacity="0.93"/><path d="M256.66503,103.74409l-0.75023,0.62184l0.58382,-0.79064l-0.61846,-0.80875l0.81293,0.61328l0.7783,-0.64792l-0.6101,0.81671l0.64453,0.78248z" fill="#ffffff" stroke="none" stroke-width="1" opacity="0.93"/><path d="M200.80405,142.62767l-0.75043,0.62164l0.58382,-0.78905l-0.61846,-0.81014l0.81293,0.61288l0.7785,-0.64812l-0.6101,0.81731l0.64453,0.78208z" fill="#ffffff" stroke="none" stroke-width="1" opacity="0.93"/><path d="M181.27299,133.83252l-0.74864,0.61965l0.58203,-0.78885l-0.61826,-0.81034l0.81452,0.61487l0.7765,-0.64971l-0.6101,0.81691l0.64473,0.78248z" fill="#ffffff" stroke="none" stroke-width="1" opacity="0.93"/><path d="M301.47021,99.38246l-0.61647,-0.75262l0.78487,0.58502l0.80457,-0.62144l-0.6101,0.81691l0.64632,0.78049l-0.81452,-0.61129l-0.7767,0.64792z" fill="#ffffff" stroke="none" stroke-width="1" opacity="0.93"/><path d="M210.23398,58.40904l0.74844,-0.61985l-0.58183,0.78905l0.61826,0.80875l-0.81452,-0.61328l-0.7767,0.64792l0.6101,-0.81512l-0.64473,-0.78248z" fill="#ffffff" stroke="none" stroke-width="1" opacity="0.93"/><path d="M207.13731,288.41471c0.6726,-10.63638 0.21438,-3.68088 0.31172,-8.31822c0.05255,-2.49393 1.48533,-4.14627 2.88208,-4.05689c1.39496,0.08937 2.62013,1.90732 2.46348,4.39827c-0.52928,8.37933 -1.08842,-4.56746 -0.19308,3.73562c0.18313,1.68239 2.13046,1.85955 2.37271,0.17895c2.55763,-17.62672 0.31848,-4.80115 1.44472,-22.59727c0.20283,-3.20156 2.07911,-5.84678 3.87317,-5.73073c1.79406,0.11465 3.24496,2.96987 3.04372,6.17342c-1.03886,16.434 -1.7015,3.44063 -1.65711,19.89751c0.00518,1.27135 1.90115,1.31932 2.13385,0.06967c1.63741,-8.86342 0.32804,-5.08938 0.89693,-14.11005c0.15646,-2.49274 1.67184,-4.40504 3.06681,-4.31726c1.39675,0.09117 2.50468,2.17087 2.34823,4.66182c-0.71241,11.27952 -0.78825,7.36854 -1.50046,18.64806c-0.15665,2.49075 -1.17879,4.12477 -2.57554,4.03699c-2.34623,-0.14889 -4.54935,-2.74753 -4.7703,0.00677c-0.30654,3.82978 0.13675,3.10741 -0.59855,8.92274c-0.47972,3.79176 -6.33008,3.45536 -6.43219,-0.35949c-0.09714,-3.68108 0.35292,-3.87317 0.2094,-6.16367c-0.19627,-3.17549 -2.4798,-0.49385 -5.18572,-0.66643c-1.39496,-0.08918 -2.2905,-1.92066 -2.13385,-4.40981z" fill="#8d373b" stroke="none" stroke-width="1"/><path d="M214.02633,254.35597c0.95486,0.05952 1.70827,1.42183 1.61273,2.91971c-0.34317,5.43275 -1.52037,5.51416 -0.70564,10.85076c0.20761,1.36212 1.75107,-1.04921 2.37609,0.11764c1.24985,2.33668 2.3331,3.5931 0.63478,5.57328c-1.83029,2.13484 -2.5839,-0.11446 -5.13138,-0.27688c-0.95645,-0.0629 -1.58287,-1.40671 -1.48732,-2.90816c0.42856,-6.7869 0.38576,-6.7885 0.81452,-13.57838c0.09574,-1.50026 0.93017,-2.75947 1.88622,-2.69796z" fill="#8d373b" stroke="none" stroke-width="1"/><path d="M235.0264,266.59176c-0.42856,6.7865 -0.20124,2.89662 -0.6298,9.68511c-0.09555,1.50165 -0.97615,2.64501 -1.9326,2.58351c-2.54569,-0.16243 -3.60922,2.09841 -5.15586,-0.25021c-1.43636,-2.17923 -0.07922,-3.21988 1.45249,-5.37622c0.76695,-1.08046 1.99869,1.45189 2.37629,0.12441c1.47737,-5.18732 0.03782,-1.56117 0.38079,-6.99233c0.09415,-1.49946 0.94331,-2.6267 1.89956,-2.5636c0.95326,0.05952 1.70509,1.28926 1.60914,2.78933z" fill="#8d373b" stroke="none" stroke-width="1"/><path d="M172.27483,306.95548c0.00611,-1.35559 0.01212,-2.71119 0.01802,-4.06678c5.08077,-0.62812 10.18082,-1.2883 15.30564,-1.98284c29.61905,-4.01071 40.00861,-5.39612 67.46257,-7.12489c2.83133,-0.17875 28.72033,1.06931 31.51861,0.91186c8.58077,-0.48549 12.50509,-3.59987 20.73971,-3.91278c0.17221,-0.00654 0.34361,-0.01334 0.51418,-0.0204c0.01779,5.31291 0.03854,10.62581 0.06256,15.93871c0,0.06968 0.00071,0.13921 0.00213,0.20855c0.00045,0.02792 0.00097,0.05573 0.00154,0.08342c-45.20761,-0.1591 -90.4168,0.00886 -135.62496,-0.03485z" fill="#440e1d" stroke="none" stroke-width="1"/><path d="M270.161,266.42256c0,-15.3615 0.75521,-15.3615 0.75521,-30.7232c0,-3.59947 1.49708,-6.50305 3.85505,-6.50305c2.35639,0 4.36642,2.90358 4.36642,6.50305c0,12.1034 -2.185,12.28235 0.20423,24.14351c0.48489,2.40316 4.71257,2.53912 4.94507,0.09973c2.42904,-25.5954 -0.27011,-25.74787 -0.27011,-51.45753c0,-4.62718 2.35599,-7.93484 5.38677,-7.93484c3.02899,0 5.47435,3.30766 5.47435,7.93484c0,31.37788 -1.4493,31.41073 0.37581,62.73506c0.10709,1.83487 2.73717,1.8281 2.85263,-0.00637c1.82372,-29.10052 0.51455,-29.13018 0.51455,-58.28683c0,-3.59987 1.83666,-6.94276 4.19464,-6.94276c2.35798,0 4.53601,3.34289 4.53601,6.94276c0,32.41654 -0.23409,32.41654 -0.23409,64.83308c0,3.59947 -1.94395,6.81159 -4.30193,6.81159c-3.96414,0 -7.63109,-4.26092 -7.91653,-0.29002c-0.63319,8.84849 2.70433,11.26798 -1.8482,18.05966c-3.06362,4.57563 -9.24839,3.88133 -9.26013,-1.63422c-0.03961,-19.03243 1.15769,-14.12359 -0.18791,-27.66356c-0.45503,-4.57264 -4.26072,0.2305 -8.83137,0.2305c-2.35778,0 -4.61026,-3.25193 -4.61046,-6.8514z" fill="#000000" stroke="none" stroke-width="1"/><path d="M266.01931,222.91182c1.61273,0 2.95494,1.64059 2.95494,3.80848c0,7.84427 -1.96565,8.08771 -0.02966,15.68814c0.49465,1.94415 3.20216,-1.8498 4.11223,-0.0629c1.77754,3.49358 2.50946,5.01155 -0.07902,7.94818c-2.29209,2.60202 -3.49895,-0.01652 -6.95829,-0.01652c-1.61432,0 -2.86576,-1.77834 -2.86576,-3.94423c0,-9.80633 0.00338,-9.80633 0.00338,-19.61247c-0.0004,-2.16808 1.24766,-3.80868 2.86218,-3.80868z" fill="#000000" stroke="none" stroke-width="1"/><path d="M278.68285,189.58222c1.61253,0 2.90518,1.87766 2.90518,4.04495c0,12.08688 -1.807,12.22423 0.16501,24.14848c0.32665,1.98058 2.7537,-1.65891 3.92751,-0.03483c2.35121,3.24516 4.29695,4.94049 1.64875,7.94499c-2.85243,3.2368 -4.34293,-0.19547 -8.64645,-0.19547c-1.61432,0 -2.83292,-1.59919 -2.83292,-3.76548c0,-14.04855 -0.02627,-14.04855 -0.02627,-28.09769c0,-2.16729 1.24468,-4.04495 2.85919,-4.04495z" fill="#000000" stroke="none" stroke-width="1"/><path d="M305.28586,273.3896c-2.58868,-2.93643 -1.54664,-4.38672 0.23249,-7.87851c0.46238,-0.90859 1.40368,-0.3942 2.25162,0.07049c0.00519,2.95839 0.01112,5.91677 0.01788,8.87515c-0.8091,0.16427 -1.57192,-0.01122 -2.50198,-1.06714z" fill="#000000" stroke="none" stroke-width="1"/><path d="M286.07129,300.85252c1.51081,-0.23329 3.53558,0.02369 5.40169,0.89673c4.02997,1.88759 4.63887,3.26346 5.53175,5.20879c-3.57378,-0.0087 -7.14757,-0.01562 -10.72136,-0.02104c-0.61483,-0.87684 -1.31859,-1.90184 -2.13274,-3.11662c-1.0721,-1.60019 0.01652,-2.67348 1.92066,-2.96788z" fill="#000000" stroke="none" stroke-width="1"/><path d="M228.99828,94.46327c24.9642,-3.9508 26.63286,1.64915 26.63286,1.64915c0,0 -5.30296,-19.58102 11.49769,-24.50658c16.80403,-4.92536 35.72659,2.71807 33.09332,27.23281c0,0 3.14226,-2.67929 7.67246,-4.87911c-0.00403,5.13805 -0.00915,10.27609 -0.01506,15.41413c-22.50049,0.08725 -44.34017,0.62569 -53.43556,1.85818c-18.44463,2.49931 -82.3752,-1.55102 -54.87347,-10.36965z" fill="#fff8db" stroke="none" stroke-width="1" opacity="0.7"/><path d="M301.50345,128.94c2.50943,0.22839 4.61132,0.44325 6.34946,0.64595c-0.00134,0.92327 -0.0027,1.84654 -0.00407,2.76981c-4.13419,0.37472 -9.35363,0.70441 -13.52144,1.05555c-12.66334,1.06732 -16.04047,0.20562 -30.43835,-0.01155c-14.39828,-0.21697 -44.69829,4.88396 -57.36163,4.45978c-12.66354,-0.42418 -29.54819,0 -33.34711,-4.66679c-3.79912,-4.66699 24.90488,-4.24281 24.90488,-4.24281c12.32017,-0.27171 75.55864,-2.54549 103.41826,-0.00995z" fill="#fff8db" stroke="none" stroke-width="1" opacity="0.2"/><path d="M273.74913,146.20922c-9.78125,-0.22234 -22.8206,0 -25.75564,-2.43979c-2.93483,-2.4378 19.23606,-2.21566 19.23606,-2.21566c5.26187,-0.07883 22.5581,-0.47763 40.60631,-0.59419c-0.00167,1.08805 -0.00334,2.17611 -0.00502,3.26416c-11.73423,0.69117 -26.74392,2.15069 -34.0817,1.98548z" fill="#fff8db" stroke="none" stroke-width="1" opacity="0.2"/><path d="M302.05403,65.93642c-16.41469,0.55854 -20.79245,0.10769 -39.45465,-0.00657c-18.66359,-0.11266 -57.93869,2.55225 -74.35158,2.3317c-5.01804,-0.06784 -10.54694,-0.0942 -15.94625,-0.16778c-0.00607,-1.49577 -0.01225,-2.99153 -0.01853,-4.4873c3.01761,-0.01213 5.02265,-0.00017 5.02265,-0.00017c15.4763,-0.13814 92.96921,-1.25893 130.5977,-0.12148c0.00022,0.75597 0.00039,1.51193 0.00054,2.2679c-2.03458,0.06086 -4.0204,0.12163 -5.84988,0.1837z" fill="#fff8db" stroke="none" stroke-width="1" opacity="0.2"/><path d="M259.68943,300.415h-23.92694c0.15168,-0.3147 0.28206,-0.63816 0.3991,-0.96461c0.00159,0.0215 0.00318,0.04837 0.00657,0.06628c0.93993,-0.96461 2.4587,-2.95613 4.62997,-7.06478c4.02186,-7.61198 3.68705,-20.10473 3.68705,-20.10473c0,0 2.45671,5.34138 1.78729,14.77469c-0.06589,0.91982 -0.1481,1.79008 -0.24065,2.60879c1.6818,-3.90303 5.15786,-6.9987 5.15786,-6.9987c0,0 -2.7949,4.99682 -1.67702,10.11108c0.49465,2.26562 1.16585,4.00912 1.75943,5.25181c-0.22433,-0.71759 -0.45185,-1.58764 -0.63339,-2.59863c-0.55914,-3.12234 1.56475,-8.66755 1.56475,-8.66755c0,0 0.55914,4.09989 2.34643,7.57714c0.26534,0.51515 0.56551,1.01099 0.88539,1.47976c-0.01811,-2.39122 0.93316,-5.72257 0.93316,-5.72257c0,0 0.3149,3.09268 1.3239,5.7162c0.19627,0.50858 0.42697,0.98591 0.66941,1.43199c0.25558,1.09021 0.70067,2.13106 1.32768,3.10383z" fill="#440e1d" stroke="none" stroke-width="1"/><path d="M174.17436,285.75017c0,0 -1.4921,5.61647 -0.72714,9.31885c0.44528,2.1645 2.17644,4.80275 3.54015,6.62587c0.06429,-0.16422 0.12859,-0.34794 0.19288,-0.5255c0.3776,0.98929 0.8609,1.94057 1.44771,2.83551l-6.34395,0.89687c0.02402,-5.42417 0.04634,-10.84834 0.06697,-16.27254c0.94896,-1.74556 1.82339,-2.87906 1.82339,-2.87906z" fill="#440e1d" stroke="none" stroke-width="1"/><path d="M173.74593,305.42363v-250h132v250z" fill="#ffffff" stroke="#ffffff" stroke-width="5" opacity="0.7"/><text transform="translate(203.34263,262.38237) scale(0.49198,0.49198)" font-size="40" xml:space="preserve" fill="#000000" fill-rule="nonzero" stroke-opacity="0" stroke="#000000" stroke-width="0" stroke-linecap="butt" stroke-linejoin="miter" stroke-miterlimit="10" stroke-dasharray="" stroke-dashoffset="0" font-family="Sans Serif" font-weight="normal" text-anchor="start" style="mix-blend-mode: normal"><tspan x="0" dy="0">荒漠之章</tspan></text><text transform="translate(178.89524,73.37251) scale(0.39166,0.39166)" font-size="40" xml:space="preserve" fill="#ffffff" fill-rule="nonzero" stroke="none" stroke-width="1" stroke-linecap="butt" stroke-linejoin="miter" stroke-miterlimit="10" stroke-dasharray="" stroke-dashoffset="0" font-family="Sans Serif" font-weight="normal" text-anchor="start" style="mix-blend-mode: normal"><tspan x="0" dy="0">chapter </tspan></text></g></g></svg>