<svg version="1.1" xmlns="http://www.w3.org/2000/svg" xmlns:xlink="http://www.w3.org/1999/xlink" width="105.80465" height="58.02558" viewBox="0,0,105.80465,58.02558"><g transform="translate(-235.24592,-143.85183)"><g data-paper-data="{&quot;isPaintingLayer&quot;:true}" fill-rule="nonzero" stroke-linecap="butt" stroke-linejoin="miter" stroke-miterlimit="10" stroke-dasharray="" stroke-dashoffset="0" style="mix-blend-mode: normal"><path d="M235.74592,201.37741v-49.48853l8.38601,-7.53705h96.41864v48.53705l-8.41864,8.48853z" id="svg_1" fill="#ffffff" stroke="#ffffff" stroke-width="1" opacity="0.7"/><text transform="translate(299.76997,166.8398) scale(0.43878,0.43878)" font-size="40" xml:space="preserve" fill="#494949" fill-rule="nonzero" stroke="#5c5c5c" stroke-width="2" stroke-linecap="butt" stroke-linejoin="miter" stroke-miterlimit="10" stroke-dasharray="" stroke-dashoffset="0" font-family="Serif" font-weight="normal" text-anchor="start" style="mix-blend-mode: normal"><tspan x="0" dy="0">编队</tspan></text><text transform="translate(299.97414,192.24206) scale(0.36228,0.36228)" font-size="40" xml:space="preserve" fill="#ffffff" fill-rule="nonzero" stroke="#ffffff" stroke-width="3" stroke-linecap="butt" stroke-linejoin="miter" stroke-miterlimit="10" stroke-dasharray="" stroke-dashoffset="0" font-family="Malgun Gothic" font-weight="normal" text-anchor="start" style="mix-blend-mode: normal"><tspan x="0" dy="0">team</tspan></text><path d="M261,173.73333v8.06667l-2.93333,1.46667c0,2.18717 0.07058,4.35417 0.60546,7.33333h-12.94425c0.53487,-2.97917 0.60546,-5.11821 0.60546,-7.33333l-2.93333,-1.46667v-8.06667c0,-0.40501 0.32832,-0.73333 0.73333,-0.73333h2.57125c0.40501,0 0.73333,0.32832 0.73333,0.73333v2.2h2.19542v-2.2c0,-0.40501 0.32832,-0.73333 0.73333,-0.73333h3.66667c0.40501,0 0.73333,0.32832 0.73333,0.73333v2.2h2.2v-2.2c0,-0.40501 0.32832,-0.73333 0.73333,-0.73333h2.56667c0.40501,0 0.73333,0.32832 0.73333,0.73333zM253.66667,183.26667c0,-0.81002 -0.65665,-1.46667 -1.46667,-1.46667c-0.81002,0 -1.46667,0.65665 -1.46667,1.46667v2.93333h2.93333zM261,192.8v1.46667c0,0.40501 -0.32832,0.73333 -0.73333,0.73333h-16.13333c-0.40501,0 -0.73333,-0.32832 -0.73333,-0.73333v-1.46667c0,-0.40501 0.32832,-0.73333 0.73333,-0.73333h16.13333c0.40501,0 0.73333,0.32832 0.73333,0.73333z" fill="#ffffff" stroke="none" stroke-width="1"/></g></g></svg>