<svg version="1.1" xmlns="http://www.w3.org/2000/svg" xmlns:xlink="http://www.w3.org/1999/xlink" width="191.55399" height="84.82843" viewBox="0,0,191.55399,84.82843"><g transform="translate(-146.64581,-93.99997)"><g data-paper-data="{&quot;isPaintingLayer&quot;:true}" fill-rule="nonzero" stroke-linejoin="miter" stroke-miterlimit="10" stroke-dasharray="" stroke-dashoffset="0" style="mix-blend-mode: normal"><path d="M147.89581,148.74996v-53.49999h159.66667l6.33333,6.83332v53.16668h-160.66667z" fill="#464646" stroke="#000000" stroke-width="2.5" stroke-linecap="butt"/><text transform="translate(157.22915,111.29784) scale(0.27917,0.27917)" font-size="40" xml:space="preserve" fill="#f0f0f0" fill-rule="nonzero" stroke="none" stroke-width="1" stroke-linecap="butt" stroke-linejoin="miter" stroke-miterlimit="10" stroke-dasharray="" stroke-dashoffset="0" font-family="Sans Serif" font-weight="normal" text-anchor="start" style="mix-blend-mode: normal"><tspan x="0" dy="0">控制中心</tspan></text><path d="M335.6998,125.32842h-22" fill="none" stroke="#000000" stroke-width="5" stroke-linecap="round"/><path d="M233.6998,155.3284v21" fill="none" stroke="#000000" stroke-width="5" stroke-linecap="round"/><path d="M292.21429,138.14286v-1.92857c0,-3.1954 2.59152,-5.78572 5.78571,-5.78572c3.19419,0 5.78571,2.59032 5.78571,5.78572v1.92857h0.64285c1.4183,0 2.57143,1.15313 2.57143,2.57143v7.71428c0,1.4183 -1.15313,2.57143 -2.57143,2.57143h-12.85714c-1.42031,0 -2.57143,-1.15313 -2.57143,-2.57143v-7.71428c0,-1.4183 1.15112,-2.57143 2.57143,-2.57143zM294.78572,138.14286h6.42857v-1.92857c0,-1.77509 -1.43839,-3.21429 -3.21429,-3.21429c-1.77589,0 -3.21429,1.4392 -3.21429,3.21429z" fill="#000000" stroke="none" stroke-width="1" stroke-linecap="butt"/></g></g></svg>