<svg version="1.1" xmlns="http://www.w3.org/2000/svg" xmlns:xlink="http://www.w3.org/1999/xlink" width="492.71973" height="375.81748" viewBox="0,0,492.71973,375.81748"><g transform="translate(2.53922,6.31749)"><g data-paper-data="{&quot;isPaintingLayer&quot;:true}" fill-rule="nonzero" stroke-linejoin="miter" stroke-miterlimit="10" stroke-dasharray="" stroke-dashoffset="0" style="mix-blend-mode: normal"><path d="M-2.53922,129.45584v-133h485v133z" fill="#545454" stroke="none" stroke-width="0" stroke-linecap="butt"/><path d="M-2.25894,369.49999v-375.81748c0,0 188.99859,0 275.33098,0c76.66278,0 217.10847,0 217.10847,0v375.81748z" fill-opacity="0.15294" fill="#545454" stroke="none" stroke-width="0" stroke-linecap="butt"/><text transform="translate(17.89202,25.66668) scale(0.41333,0.41333)" font-size="40" xml:space="preserve" fill="#ffffff" fill-rule="nonzero" stroke="#ffffff" stroke-width="1" stroke-linecap="butt" stroke-linejoin="miter" stroke-miterlimit="10" stroke-dasharray="" stroke-dashoffset="0" font-family="Sans Serif" font-weight="normal" text-anchor="start" style="mix-blend-mode: normal"><tspan x="0" dy="0">引索</tspan></text><path d="M48.44772,77.58322c0,-3.17564 2.57436,-5.75 5.75,-5.75c3.17564,0 5.75,2.57436 5.75,5.75c0,3.17564 -2.57436,5.75 -5.75,5.75c-3.17564,0 -5.75,-2.57436 -5.75,-5.75z" fill="#ffffff" stroke="none" stroke-width="0" stroke-linecap="butt"/><path d="M142.44771,101.58322c0,-3.45178 2.79822,-6.25 6.25,-6.25c3.45178,0 6.25,2.79822 6.25,6.25c0,3.45178 -2.79822,6.25 -6.25,6.25c-3.45178,0 -6.25,-2.79822 -6.25,-6.25z" fill="#ffffff" stroke="none" stroke-width="0" stroke-linecap="butt"/><path d="M240.94772,62.08322c0,-4.00406 3.24594,-7.25 7.25,-7.25c4.00406,0 7.25,3.24594 7.25,7.25c0,4.00406 -3.24594,7.25 -7.25,7.25c-4.00406,0 -7.25,-3.24594 -7.25,-7.25z" fill="#ffffff" stroke="none" stroke-width="0" stroke-linecap="butt"/><path d="M345.94772,33.58322c0,-3.72792 3.02208,-6.75 6.75,-6.75c3.72792,0 6.75,3.02208 6.75,6.75c0,3.72792 -3.02208,6.75 -6.75,6.75c-3.72792,0 -6.75,-3.02208 -6.75,-6.75z" fill="#ffffff" stroke="none" stroke-width="0" stroke-linecap="butt"/><path d="M443.44772,102.08322c0,-4.00406 3.24594,-7.25 7.25,-7.25c4.00406,0 7.25,3.24594 7.25,7.25c0,4.00406 -3.24594,7.25 -7.25,7.25c-4.00406,0 -7.25,-3.24594 -7.25,-7.25z" fill="#ffffff" stroke="none" stroke-width="0" stroke-linecap="butt"/><text transform="translate(65.44772,71.20822) scale(0.25081,0.25081)" font-size="40" xml:space="preserve" fill="#ffffff" fill-rule="nonzero" stroke="none" stroke-width="1" stroke-linecap="butt" stroke-linejoin="miter" stroke-miterlimit="10" stroke-dasharray="" stroke-dashoffset="0" font-family="Sans Serif" font-weight="normal" text-anchor="start" style="mix-blend-mode: normal"><tspan x="0" dy="0">主页</tspan></text><text transform="translate(139.94771,83.36182) scale(0.2375,0.2375)" font-size="40" xml:space="preserve" fill="#ffffff" fill-rule="nonzero" stroke="none" stroke-width="1" stroke-linecap="butt" stroke-linejoin="miter" stroke-miterlimit="10" stroke-dasharray="" stroke-dashoffset="0" font-family="Sans Serif" font-weight="normal" text-anchor="start" style="mix-blend-mode: normal"><tspan x="0" dy="0">作战</tspan></text><text transform="translate(242.84967,84.98221) scale(0.22623,0.21539)" font-size="40" xml:space="preserve" fill="#ffffff" fill-rule="nonzero" stroke="none" stroke-width="1" stroke-linecap="butt" stroke-linejoin="miter" stroke-miterlimit="10" stroke-dasharray="" stroke-dashoffset="0" font-family="Sans Serif" font-weight="normal" text-anchor="start" style="mix-blend-mode: normal"><tspan x="0" dy="0">队员</tspan></text><text transform="translate(342.94772,57.33322) scale(0.28332,0.28332)" font-size="40" xml:space="preserve" fill="#ffffff" fill-rule="nonzero" stroke="none" stroke-width="1" stroke-linecap="butt" stroke-linejoin="miter" stroke-miterlimit="10" stroke-dasharray="" stroke-dashoffset="0" font-family="Sans Serif" font-weight="normal" text-anchor="start" style="mix-blend-mode: normal"><tspan x="0" dy="0">招募</tspan></text><text transform="translate(439.01598,82.939) scale(0.27415,0.27415)" font-size="40" xml:space="preserve" fill="#ffffff" fill-rule="nonzero" stroke="none" stroke-width="1" stroke-linecap="butt" stroke-linejoin="miter" stroke-miterlimit="10" stroke-dasharray="" stroke-dashoffset="0" font-family="Sans Serif" font-weight="normal" text-anchor="start" style="mix-blend-mode: normal"><tspan x="0" dy="0">基地</tspan></text><g fill="none" stroke="#ffffff" stroke-width="2.5" stroke-linecap="round"><path d="M367.44772,40.83322l67,51.5"/><path d="M263.94772,58.83322l79,-19"/><path d="M236.94772,68.33322l-77.5,29.5"/><path d="M136.44771,97.83322l-69.5,-16.5"/></g></g></g></svg>