<svg version="1.1" xmlns="http://www.w3.org/2000/svg" xmlns:xlink="http://www.w3.org/1999/xlink" width="100.80465" height="58.02558" viewBox="0,0,100.80465,58.02558"><g transform="translate(-491.97565,-143.85182)"><g data-paper-data="{&quot;isPaintingLayer&quot;:true}" fill-rule="nonzero" stroke-linecap="butt" stroke-linejoin="miter" stroke-miterlimit="10" stroke-dasharray="" stroke-dashoffset="0" style="mix-blend-mode: normal"><path d="M492.47565,201.3774v-49.82185l7.99239,-7.20373h91.81226v48.8704l-8.0853,8.15518z" fill="#ffffff" stroke="#ffffff" stroke-width="1" opacity="0.7"/><text transform="translate(555.06667,166.83979) scale(0.43878,0.43878)" font-size="40" xml:space="preserve" fill="#494949" fill-rule="nonzero" stroke="#5c5c5c" stroke-width="2" stroke-linecap="butt" stroke-linejoin="miter" stroke-miterlimit="10" stroke-dasharray="" stroke-dashoffset="0" font-family="Serif" font-weight="normal" text-anchor="start" style="mix-blend-mode: normal"><tspan x="0" dy="0">干员</tspan></text><text transform="translate(550.71135,192.24205) scale(0.36228,0.36228)" font-size="40" xml:space="preserve" fill="#ffffff" fill-rule="nonzero" stroke="#ffffff" stroke-width="3" stroke-linecap="butt" stroke-linejoin="miter" stroke-miterlimit="10" stroke-dasharray="" stroke-dashoffset="0" font-family="Malgun Gothic" font-weight="normal" text-anchor="start" style="mix-blend-mode: normal"><tspan x="0" dy="0">agent</tspan></text><path d="M501.70681,178.18958c0,-2.79709 2.26749,-5.06458 5.06458,-5.06458c2.79709,0 5.06458,2.26749 5.06458,5.06458c0,1.81254 -0.95984,3.39035 -2.39107,4.28542h1.22232c0.43032,0 0.77917,0.34884 0.77917,0.77917v1.55833c0,0.43032 -0.34884,0.77917 -0.77917,0.77917h-0.77917v0.26735c0,2.14271 0.20015,4.21724 1.16875,5.96598h-8.57083c0.96714,-1.74874 1.16875,-3.82327 1.16875,-5.96598v-0.26735h-0.77917c-0.43032,0 -0.77917,-0.34884 -0.77917,-0.77917v-1.55833c0,-0.43032 0.34884,-0.77917 0.77917,-0.77917h1.22232c-1.43123,-0.89507 -2.39107,-2.47288 -2.39107,-4.28542zM514.56306,194.1625v1.55833c0,0.43032 -0.34884,0.77917 -0.77917,0.77917h-14.025c-0.43032,0 -0.77917,-0.34884 -0.77917,-0.77917v-1.55833c0,-0.43032 0.34884,-0.77917 0.77917,-0.77917h14.025c0.43032,0 0.77917,0.34884 0.77917,0.77917z" fill="#ffffff" stroke="none" stroke-width="1"/></g></g></svg>