<svg version="1.1" xmlns="http://www.w3.org/2000/svg" xmlns:xlink="http://www.w3.org/1999/xlink" width="180.48165" height="323.35651" viewBox="0,0,180.48165,323.35651"><g transform="translate(-286.26835,80.50002)"><g data-paper-data="{&quot;isPaintingLayer&quot;:true}" fill-rule="nonzero" stroke-linecap="butt" stroke-linejoin="miter" stroke-miterlimit="10" stroke-dasharray="" stroke-dashoffset="0" style="mix-blend-mode: normal"><path d="M289.75,241.40365v-34h177v34z" fill-opacity="0.38824" fill="#000000" stroke="none" stroke-width="0"/><path d="M286.26835,238.73697v-33.57798h178.14985v33.57798z" fill="#313131" stroke="#000000" stroke-width="0"/><text transform="translate(291.39832,218.9079) scale(0.25415,0.25415)" font-size="40" xml:space="preserve" fill="#ffffff" fill-rule="nonzero" stroke="none" stroke-width="1" stroke-linecap="butt" stroke-linejoin="miter" stroke-miterlimit="10" stroke-dasharray="" stroke-dashoffset="0" font-family="Sans Serif" font-weight="normal" text-anchor="start" style="mix-blend-mode: normal"><tspan x="0" dy="0">技能</tspan></text><text transform="translate(291.39832,237.02699) scale(0.46636,0.46636)" font-size="40" xml:space="preserve" fill="#b5b5b5" fill-rule="nonzero" stroke="none" stroke-width="1" stroke-linecap="butt" stroke-linejoin="miter" stroke-miterlimit="10" stroke-dasharray="" stroke-dashoffset="0" font-family="Sans Serif" font-weight="normal" text-anchor="start" style="mix-blend-mode: normal"><tspan x="0" dy="0">+</tspan></text><path d="M412.65214,222.10345v-41.97248h41.97248v41.97248z" fill="#ffffff" stroke="none" stroke-width="0"/><text transform="translate(421.97936,233.30888) scale(0.22273,0.22273)" font-size="40" xml:space="preserve" fill="#ffffff" fill-rule="nonzero" stroke="none" stroke-width="1" stroke-linecap="butt" stroke-linejoin="miter" stroke-miterlimit="10" stroke-dasharray="" stroke-dashoffset="0" font-family="Sans Serif" font-weight="normal" text-anchor="start" style="mix-blend-mode: normal"><tspan x="0" dy="0">红桃K</tspan></text><path d="M337.26835,-52.45109c0,-14.93871 12.11021,-27.04893 27.04893,-27.04893c14.93872,0 27.04893,12.11022 27.04893,27.04893c0,14.93872 -12.11022,27.04893 -27.04893,27.04893c-14.93872,0 -27.04893,-12.11021 -27.04893,-27.04893z" fill="none" stroke="#e08300" stroke-width="2"/><path d="M289.25,202.90365v-20h63v20z" fill-opacity="0.38824" fill="#000000" stroke="none" stroke-width="0"/><path d="M286.26835,200.49539v-19.58716h63.42507v19.58716z" fill="#313131" stroke="#000000" stroke-width="0"/><text transform="translate(291.86468,194.42396) scale(0.23395,0.23395)" font-size="40" xml:space="preserve" fill="#ffffff" fill-rule="nonzero" stroke="none" stroke-width="1" stroke-linecap="butt" stroke-linejoin="miter" stroke-miterlimit="10" stroke-dasharray="" stroke-dashoffset="0" font-family="Sans Serif" font-weight="normal" text-anchor="start" style="mix-blend-mode: normal"><tspan x="0" dy="0">RANK</tspan></text></g></g></svg>