<svg version="1.1" xmlns="http://www.w3.org/2000/svg" xmlns:xlink="http://www.w3.org/1999/xlink" width="104.78126" height="60.60482" viewBox="0,0,104.78126,60.60482"><g transform="translate(-186.21874,-147.02018)"><g data-paper-data="{&quot;isPaintingLayer&quot;:true}" fill-rule="nonzero" stroke="none" stroke-linecap="butt" stroke-linejoin="miter" stroke-miterlimit="10" stroke-dasharray="" stroke-dashoffset="0" style="mix-blend-mode: normal"><path d="M189,207.625v-55.25h102v55.25z" fill="#000000" stroke-width="0"/><text transform="translate(243,196.58148) scale(0.24375,0.24375)" font-size="40" xml:space="preserve" fill="#fbefef" fill-rule="nonzero" stroke="none" stroke-width="1" stroke-linecap="butt" stroke-linejoin="miter" stroke-miterlimit="10" stroke-dasharray="" stroke-dashoffset="0" font-family="&quot;Microsoft YaHei&quot;, &quot;微软雅黑&quot;, STXihei, &quot;华文细黑&quot;" font-weight="normal" text-anchor="start" style="mix-blend-mode: normal"><tspan x="0" dy="0">巧夺天工</tspan></text><g fill="#9966ff" stroke-width="0"><path d="M213.125,184.96875l7.875,-15.09375l10.5,15.09375z"/><path d="M200,185.625l9,-17.25l12,17.25z"/><path d="M226.25,168.89065c0,-2.35584 1.90978,-4.26562 4.26563,-4.26562c2.35584,0 4.26563,1.90978 4.26563,4.26563c0,2.35584 -1.90978,4.26563 -4.26562,4.26563c-2.35584,0 -4.26562,-1.90978 -4.26562,-4.26562z"/></g><g><path d="M186.21874,161.73176v-12.5h34.16667v12.5z" fill="#5d5d5d" stroke-width="0"/><text transform="translate(192.88541,158.53621) scale(0.22804,0.22804)" font-size="40" xml:space="preserve" fill="#ffffff" fill-rule="nonzero" stroke="none" stroke-width="1" stroke-linecap="butt" stroke-linejoin="miter" stroke-miterlimit="10" stroke-dasharray="" stroke-dashoffset="0" font-family="Pixel" font-weight="normal" text-anchor="start" style="mix-blend-mode: normal"><tspan x="0" dy="0">NOW</tspan></text></g></g></g></svg>