<svg version="1.1" xmlns="http://www.w3.org/2000/svg" xmlns:xlink="http://www.w3.org/1999/xlink" width="258.1667" height="221.64286" viewBox="0,0,258.1667,221.64286"><g transform="translate(-181.97915,-89.85712)"><g data-paper-data="{&quot;isPaintingLayer&quot;:true}" fill-rule="nonzero" stroke-linecap="butt" stroke-linejoin="miter" stroke-miterlimit="10" stroke-dasharray="" stroke-dashoffset="0" style="mix-blend-mode: normal"><path d="M183.22915,286.50946v-195.40234h232.53493l23.13177,24.95789v194.18497h-236.18731z" fill="#f0f0f0" stroke="#000000" stroke-width="2.5"/><text transform="translate(202.22918,124.29784) scale(0.52917,0.52917)" font-size="40" xml:space="preserve" fill="#3a3a3a" fill-rule="nonzero" stroke="none" stroke-width="1" stroke-linecap="butt" stroke-linejoin="miter" stroke-miterlimit="10" stroke-dasharray="" stroke-dashoffset="0" font-family="Sans Serif" font-weight="normal" text-anchor="start" style="mix-blend-mode: normal"><tspan x="0" dy="0">进入基建</tspan></text><path d="M307.2143,114.14286v-1.92857c0,-3.1954 2.59152,-5.78572 5.78571,-5.78572c3.19419,0 5.78571,2.59032 5.78571,5.78572v1.92857h0.64285c1.4183,0 2.57143,1.15313 2.57143,2.57143v7.71428c0,1.4183 -1.15313,2.57143 -2.57143,2.57143h-12.85714c-1.42031,0 -2.57143,-1.15313 -2.57143,-2.57143v-7.71428c0,-1.4183 1.15112,-2.57143 2.57143,-2.57143zM309.78573,114.14286h6.42857v-1.92857c0,-1.77509 -1.43839,-3.21429 -3.21429,-3.21429c-1.77589,0 -3.21429,1.4392 -3.21429,3.21429z" fill="#000000" stroke="none" stroke-width="1"/><text transform="translate(258.5,282.48958) scale(0.71668,0.71668)" font-size="40" xml:space="preserve" fill="#ffffff" fill-rule="nonzero" stroke="none" stroke-width="1" stroke-linecap="butt" stroke-linejoin="miter" stroke-miterlimit="10" stroke-dasharray="" stroke-dashoffset="0" font-family="Sans Serif" font-weight="normal" text-anchor="start" style="mix-blend-mode: normal"><tspan x="0" dy="0">New in 2022</tspan></text></g></g></svg>