<svg version="1.1" xmlns="http://www.w3.org/2000/svg" xmlns:xlink="http://www.w3.org/1999/xlink" width="103.80465" height="60.7423" viewBox="0,0,103.80465,60.7423"><g transform="translate(-400.31046,-208.01851)"><g data-paper-data="{&quot;isPaintingLayer&quot;:true}" fill-rule="nonzero" stroke-linecap="butt" stroke-linejoin="miter" stroke-miterlimit="10" stroke-dasharray="" stroke-dashoffset="0" style="mix-blend-mode: normal"><path d="M400.31046,268.76081v-52.53858l7.9924,-8.20372h95.81225v51.53705l-8.81225,9.20525z" fill="#09b0e1" stroke="none" stroke-width="0" opacity="0.7"/><text transform="translate(460.70438,226.62484) scale(0.39783,0.39783)" font-size="40" xml:space="preserve" fill="#ffffff" fill-rule="nonzero" stroke="#ffffff" stroke-width="2" stroke-linecap="butt" stroke-linejoin="miter" stroke-miterlimit="10" stroke-dasharray="" stroke-dashoffset="0" font-family="Serif" font-weight="normal" text-anchor="start" style="mix-blend-mode: normal"><tspan x="0" dy="0">招募</tspan></text><g fill="#09b0e1" stroke="none" stroke-width="0"><path d="M413.81807,237.76259c-1.72337,0 -3.12046,1.39709 -3.12046,3.12046c0,1.72337 1.39709,3.12046 3.12046,3.12046c1.72337,0 3.12046,-1.39709 3.12046,-3.12046c0,-1.72337 -1.39709,-3.12046 -3.12046,-3.12046M418.49876,247.12398v6.63098c0,0.64628 -0.5239,1.17017 -1.17017,1.17017h-0.78012v8.17587c0,0.64628 -0.5239,1.17017 -1.17017,1.17017h-3.12046c-0.64628,0 -1.17017,-0.5239 -1.17017,-1.17017v-8.17587h-0.78012c-0.64628,0 -1.17017,-0.5239 -1.17017,-1.17017v-6.63098c0,-1.29256 1.04779,-2.34035 2.34035,-2.34035h0.55388c1.15506,0.53116 2.46561,0.50917 3.57293,0h0.55388c1.29256,0 2.34035,1.04779 2.34035,2.34035z"/><text transform="translate(419.13286,248.15978) scale(0.50075,0.50075)" font-size="40" xml:space="preserve" fill="#09b0e1" fill-rule="nonzero" stroke="none" stroke-width="0" stroke-linecap="butt" stroke-linejoin="miter" stroke-miterlimit="10" stroke-dasharray="" stroke-dashoffset="0" font-family="Sans Serif" font-weight="normal" text-anchor="start" style="mix-blend-mode: normal"><tspan x="0" dy="0">+</tspan></text></g></g></g></svg>