<svg version="1.1" xmlns="http://www.w3.org/2000/svg" xmlns:xlink="http://www.w3.org/1999/xlink" width="95.61906" height="83.33316" viewBox="0,0,95.61906,83.33316"><g transform="translate(-199.7161,-140.05555)"><g data-paper-data="{&quot;isPaintingLayer&quot;:true}" fill-rule="nonzero" stroke-linejoin="miter" stroke-miterlimit="10" stroke-dasharray="" stroke-dashoffset="0" style="mix-blend-mode: normal"><path d="M200.0435,152.0293v-11.87289h11.87289v11.87289z" fill="#cacaca" stroke="none" stroke-width="0" stroke-linecap="butt"/><path d="M201.11662,151.01912v-9.20149h9.20149v9.20149z" fill="none" stroke="#86beff" stroke-width="0.5" stroke-linecap="butt"/><path d="M205.71555,149.6722l-3.25201,-3.15671l3.15671,-3.252l3.252,3.1567z" fill="none" stroke="#86beff" stroke-width="0.5" stroke-linecap="butt"/><text transform="translate(203.88696,148.9116) scale(0.17521,0.17521)" font-size="40" xml:space="preserve" fill="#ffffff" fill-rule="nonzero" stroke="none" stroke-width="1" stroke-linecap="butt" stroke-linejoin="miter" stroke-miterlimit="10" stroke-dasharray="" stroke-dashoffset="0" font-family="Sans Serif" font-weight="normal" text-anchor="start" style="mix-blend-mode: normal"><tspan x="0" dy="0">F</tspan></text><path d="M223.80974,175.61452v-11.87289h11.87289v11.87289z" fill="#13768e" stroke="#168eac" stroke-width="0.5" stroke-linecap="butt"/><path d="M226.79258,167.55806c0,0 0.42764,-0.6978 0.70996,-0.68937c0.25289,0.00755 0.70066,0.61112 1.14582,0.8094c0.40662,0.18111 0.86352,-0.55354 0.86352,-0.55354" fill="none" stroke="#1db9e0" stroke-width="0.5" stroke-linecap="round"/><path d="M230.85209,166.22192c0,0 0.42764,-0.69779 0.70996,-0.68936c0.25289,0.00755 0.70066,0.61111 1.14582,0.80939c0.40662,0.18111 0.86352,-0.55354 0.86352,-0.55354" fill="none" stroke="#1db9e0" stroke-width="0.5" stroke-linecap="round"/><path d="M229.53248,169.84131c0,0 0.42764,-0.6978 0.70996,-0.68937c0.25289,0.00755 0.70066,0.61112 1.14582,0.8094c0.40662,0.18111 0.86352,-0.55354 0.86352,-0.55354" fill="none" stroke="#1db9e0" stroke-width="0.5" stroke-linecap="round"/><path d="M232.30358,173.18584c0,0 0.42764,-0.6978 0.70996,-0.68937c0.25289,0.00755 0.70066,0.61112 1.14582,0.8094c0.40662,0.18111 0.86352,-0.55354 0.86352,-0.55354" fill="none" stroke="#1db9e0" stroke-width="0.5" stroke-linecap="round"/><path d="M226.54796,171.32542c0,0 0.42764,-0.6978 0.70996,-0.68937c0.25289,0.00755 0.70066,0.61112 1.14582,0.8094c0.40662,0.18111 0.86352,-0.55354 0.86352,-0.55354" fill="none" stroke="#1db9e0" stroke-width="0.5" stroke-linecap="round"/><path d="M227.3946,174.09914c0,0 0.42764,-0.6978 0.70996,-0.68937c0.25289,0.00755 0.70066,0.61112 1.14582,0.8094c0.40662,0.18111 0.86352,-0.55354 0.86352,-0.55354" fill="none" stroke="#1db9e0" stroke-width="0.5" stroke-linecap="round"/><path d="M235.65474,175.61452v-11.87289h11.87289v11.87289z" fill="#13768e" stroke="#168eac" stroke-width="0.5" stroke-linecap="butt"/><path d="M238.63758,167.55806c0,0 0.42764,-0.6978 0.70996,-0.68937c0.25289,0.00755 0.70066,0.61112 1.14582,0.8094c0.40662,0.18111 0.86352,-0.55354 0.86352,-0.55354" fill="none" stroke="#1db9e0" stroke-width="0.5" stroke-linecap="round"/><path d="M242.69709,166.22192c0,0 0.42764,-0.69779 0.70996,-0.68936c0.25289,0.00755 0.70066,0.61111 1.14582,0.80939c0.40662,0.18111 0.86352,-0.55354 0.86352,-0.55354" fill="none" stroke="#1db9e0" stroke-width="0.5" stroke-linecap="round"/><path d="M241.37748,169.84131c0,0 0.42764,-0.6978 0.70996,-0.68937c0.25289,0.00755 0.70066,0.61112 1.14582,0.8094c0.40662,0.18111 0.86352,-0.55354 0.86352,-0.55354" fill="none" stroke="#1db9e0" stroke-width="0.5" stroke-linecap="round"/><path d="M244.14858,173.18584c0,0 0.42764,-0.6978 0.70996,-0.68937c0.25289,0.00755 0.70066,0.61112 1.14582,0.8094c0.40662,0.18111 0.86352,-0.55354 0.86352,-0.55354" fill="none" stroke="#1db9e0" stroke-width="0.5" stroke-linecap="round"/><path d="M238.39295,171.32542c0,0 0.42764,-0.6978 0.70996,-0.68937c0.25289,0.00755 0.70066,0.61112 1.14582,0.8094c0.40662,0.18111 0.86352,-0.55354 0.86352,-0.55354" fill="none" stroke="#1db9e0" stroke-width="0.5" stroke-linecap="round"/><path d="M239.2396,174.09914c0,0 0.42764,-0.6978 0.70996,-0.68937c0.25289,0.00755 0.70066,0.61112 1.14582,0.8094c0.40662,0.18111 0.86352,-0.55354 0.86352,-0.55354" fill="none" stroke="#1db9e0" stroke-width="0.5" stroke-linecap="round"/><path d="M223.80974,187.48742v-11.87289h11.87289v11.87289z" fill="#13768e" stroke="#168eac" stroke-width="0.5" stroke-linecap="butt"/><path d="M226.79258,179.43095c0,0 0.42764,-0.6978 0.70996,-0.68937c0.25289,0.00755 0.70066,0.61112 1.14582,0.8094c0.40662,0.18111 0.86352,-0.55354 0.86352,-0.55354" fill="none" stroke="#1db9e0" stroke-width="0.5" stroke-linecap="round"/><path d="M230.85209,178.09482c0,0 0.42764,-0.69779 0.70996,-0.68936c0.25289,0.00755 0.70066,0.61111 1.14582,0.80939c0.40662,0.18111 0.86352,-0.55354 0.86352,-0.55354" fill="none" stroke="#1db9e0" stroke-width="0.5" stroke-linecap="round"/><path d="M229.53248,181.7142c0,0 0.42764,-0.6978 0.70996,-0.68937c0.25289,0.00755 0.70066,0.61112 1.14582,0.8094c0.40662,0.18111 0.86352,-0.55354 0.86352,-0.55354" fill="none" stroke="#1db9e0" stroke-width="0.5" stroke-linecap="round"/><path d="M232.30358,185.05873c0,0 0.42764,-0.6978 0.70996,-0.68937c0.25289,0.00755 0.70066,0.61112 1.14582,0.8094c0.40662,0.18111 0.86352,-0.55354 0.86352,-0.55354" fill="none" stroke="#1db9e0" stroke-width="0.5" stroke-linecap="round"/><path d="M226.54796,183.19831c0,0 0.42764,-0.6978 0.70996,-0.68937c0.25289,0.00755 0.70066,0.61112 1.14582,0.8094c0.40662,0.18111 0.86352,-0.55354 0.86352,-0.55354" fill="none" stroke="#1db9e0" stroke-width="0.5" stroke-linecap="round"/><path d="M227.3946,185.97203c0,0 0.42764,-0.6978 0.70996,-0.68937c0.25289,0.00755 0.70066,0.61112 1.14582,0.8094c0.40662,0.18111 0.86352,-0.55354 0.86352,-0.55354" fill="none" stroke="#1db9e0" stroke-width="0.5" stroke-linecap="round"/><path d="M235.65474,187.48742v-11.87289h11.87289v11.87289z" fill="#13768e" stroke="#168eac" stroke-width="0.5" stroke-linecap="butt"/><path d="M238.63758,179.43095c0,0 0.42764,-0.6978 0.70996,-0.68937c0.25289,0.00755 0.70066,0.61112 1.14582,0.8094c0.40662,0.18111 0.86352,-0.55354 0.86352,-0.55354" fill="none" stroke="#1db9e0" stroke-width="0.5" stroke-linecap="round"/><path d="M242.69709,178.09482c0,0 0.42764,-0.69779 0.70996,-0.68936c0.25289,0.00755 0.70066,0.61111 1.14582,0.80939c0.40662,0.18111 0.86352,-0.55354 0.86352,-0.55354" fill="none" stroke="#1db9e0" stroke-width="0.5" stroke-linecap="round"/><path d="M241.37748,181.7142c0,0 0.42764,-0.6978 0.70996,-0.68937c0.25289,0.00755 0.70066,0.61112 1.14582,0.8094c0.40662,0.18111 0.86352,-0.55354 0.86352,-0.55354" fill="none" stroke="#1db9e0" stroke-width="0.5" stroke-linecap="round"/><path d="M244.14858,185.05873c0,0 0.42764,-0.6978 0.70996,-0.68937c0.25289,0.00755 0.70066,0.61112 1.14582,0.8094c0.40662,0.18111 0.86352,-0.55354 0.86352,-0.55354" fill="none" stroke="#1db9e0" stroke-width="0.5" stroke-linecap="round"/><path d="M238.39295,183.19831c0,0 0.42764,-0.6978 0.70996,-0.68937c0.25289,0.00755 0.70066,0.61112 1.14582,0.8094c0.40662,0.18111 0.86352,-0.55354 0.86352,-0.55354" fill="none" stroke="#1db9e0" stroke-width="0.5" stroke-linecap="round"/><path d="M239.2396,185.97203c0,0 0.42764,-0.6978 0.70996,-0.68937c0.25289,0.00755 0.70066,0.61112 1.14582,0.8094c0.40662,0.18111 0.86352,-0.55354 0.86352,-0.55354" fill="none" stroke="#1db9e0" stroke-width="0.5" stroke-linecap="round"/><path d="M211.8111,175.64714v-11.87289h11.87289v11.87289z" fill="#13768e" stroke="#168eac" stroke-width="0.5" stroke-linecap="butt"/><path d="M214.79394,167.59068c0,0 0.42764,-0.6978 0.70996,-0.68937c0.25289,0.00755 0.70066,0.61112 1.14582,0.8094c0.40662,0.18111 0.86352,-0.55354 0.86352,-0.55354" fill="none" stroke="#1db9e0" stroke-width="0.5" stroke-linecap="round"/><path d="M218.85345,166.25454c0,0 0.42764,-0.69779 0.70996,-0.68936c0.25289,0.00755 0.70066,0.61111 1.14582,0.80939c0.40662,0.18111 0.86352,-0.55354 0.86352,-0.55354" fill="none" stroke="#1db9e0" stroke-width="0.5" stroke-linecap="round"/><path d="M217.53384,169.87393c0,0 0.42764,-0.6978 0.70996,-0.68937c0.25289,0.00755 0.70066,0.61112 1.14582,0.8094c0.40662,0.18111 0.86352,-0.55354 0.86352,-0.55354" fill="none" stroke="#1db9e0" stroke-width="0.5" stroke-linecap="round"/><path d="M220.30494,173.21846c0,0 0.42764,-0.6978 0.70996,-0.68937c0.25289,0.00755 0.70066,0.61112 1.14582,0.8094c0.40662,0.18111 0.86352,-0.55354 0.86352,-0.55354" fill="none" stroke="#1db9e0" stroke-width="0.5" stroke-linecap="round"/><path d="M214.54932,171.35804c0,0 0.42764,-0.6978 0.70996,-0.68937c0.25289,0.00755 0.70066,0.61112 1.14582,0.8094c0.40662,0.18111 0.86352,-0.55354 0.86352,-0.55354" fill="none" stroke="#1db9e0" stroke-width="0.5" stroke-linecap="round"/><path d="M215.39596,174.13176c0,0 0.42764,-0.6978 0.70996,-0.68937c0.25289,0.00755 0.70066,0.61112 1.14582,0.8094c0.40662,0.18111 0.86352,-0.55354 0.86352,-0.55354" fill="none" stroke="#1db9e0" stroke-width="0.5" stroke-linecap="round"/><path d="M199.9661,187.52004v-11.87289h11.87289v11.87289z" fill="#1ba9cc" stroke="none" stroke-width="0" stroke-linecap="butt"/><path d="M211.8111,187.52004v-11.87289h11.87289v11.87289z" fill="#13768e" stroke="#168eac" stroke-width="0.5" stroke-linecap="butt"/><path d="M214.79394,179.46357c0,0 0.42764,-0.6978 0.70996,-0.68937c0.25289,0.00755 0.70066,0.61112 1.14582,0.8094c0.40662,0.18111 0.86352,-0.55354 0.86352,-0.55354" fill="none" stroke="#1db9e0" stroke-width="0.5" stroke-linecap="round"/><path d="M218.85345,178.12744c0,0 0.42764,-0.69779 0.70996,-0.68936c0.25289,0.00755 0.70066,0.61111 1.14582,0.80939c0.40662,0.18111 0.86352,-0.55354 0.86352,-0.55354" fill="none" stroke="#1db9e0" stroke-width="0.5" stroke-linecap="round"/><path d="M217.53384,181.74682c0,0 0.42764,-0.6978 0.70996,-0.68937c0.25289,0.00755 0.70066,0.61112 1.14582,0.8094c0.40662,0.18111 0.86352,-0.55354 0.86352,-0.55354" fill="none" stroke="#1db9e0" stroke-width="0.5" stroke-linecap="round"/><path d="M220.30494,185.09135c0,0 0.42764,-0.6978 0.70996,-0.68937c0.25289,0.00755 0.70066,0.61112 1.14582,0.8094c0.40662,0.18111 0.86352,-0.55354 0.86352,-0.55354" fill="none" stroke="#1db9e0" stroke-width="0.5" stroke-linecap="round"/><path d="M214.54932,183.23093c0,0 0.42764,-0.6978 0.70996,-0.68937c0.25289,0.00755 0.70066,0.61112 1.14582,0.8094c0.40662,0.18111 0.86352,-0.55354 0.86352,-0.55354" fill="none" stroke="#1db9e0" stroke-width="0.5" stroke-linecap="round"/><path d="M215.39596,186.00465c0,0 0.42764,-0.6978 0.70996,-0.68937c0.25289,0.00755 0.70066,0.61112 1.14582,0.8094c0.40662,0.18111 0.86352,-0.55354 0.86352,-0.55354" fill="none" stroke="#1db9e0" stroke-width="0.5" stroke-linecap="round"/><path d="M223.80974,199.36031v-11.87289h11.87289v11.87289z" fill="#13768e" stroke="#168eac" stroke-width="0.5" stroke-linecap="butt"/><path d="M226.79258,191.30385c0,0 0.42764,-0.6978 0.70996,-0.68937c0.25289,0.00755 0.70066,0.61112 1.14582,0.8094c0.40662,0.18111 0.86352,-0.55354 0.86352,-0.55354" fill="none" stroke="#1db9e0" stroke-width="0.5" stroke-linecap="round"/><path d="M230.85209,189.96771c0,0 0.42764,-0.69779 0.70996,-0.68936c0.25289,0.00755 0.70066,0.61111 1.14582,0.80939c0.40662,0.18111 0.86352,-0.55354 0.86352,-0.55354" fill="none" stroke="#1db9e0" stroke-width="0.5" stroke-linecap="round"/><path d="M229.53248,193.58709c0,0 0.42764,-0.6978 0.70996,-0.68937c0.25289,0.00755 0.70066,0.61112 1.14582,0.8094c0.40662,0.18111 0.86352,-0.55354 0.86352,-0.55354" fill="none" stroke="#1db9e0" stroke-width="0.5" stroke-linecap="round"/><path d="M232.30358,196.93162c0,0 0.42764,-0.6978 0.70996,-0.68937c0.25289,0.00755 0.70066,0.61112 1.14582,0.8094c0.40662,0.18111 0.86352,-0.55354 0.86352,-0.55354" fill="none" stroke="#1db9e0" stroke-width="0.5" stroke-linecap="round"/><path d="M226.54796,195.0712c0,0 0.42764,-0.6978 0.70996,-0.68937c0.25289,0.00755 0.70066,0.61112 1.14582,0.8094c0.40662,0.18111 0.86352,-0.55354 0.86352,-0.55354" fill="none" stroke="#1db9e0" stroke-width="0.5" stroke-linecap="round"/><path d="M227.3946,197.84492c0,0 0.42764,-0.6978 0.70996,-0.68937c0.25289,0.00755 0.70066,0.61112 1.14582,0.8094c0.40662,0.18111 0.86352,-0.55354 0.86352,-0.55354" fill="none" stroke="#1db9e0" stroke-width="0.5" stroke-linecap="round"/><path d="M235.65474,199.36031v-11.87289h11.87289v11.87289z" fill="#13768e" stroke="#168eac" stroke-width="0.5" stroke-linecap="butt"/><path d="M238.63758,191.30385c0,0 0.42764,-0.6978 0.70996,-0.68937c0.25289,0.00755 0.70066,0.61112 1.14582,0.8094c0.40662,0.18111 0.86352,-0.55354 0.86352,-0.55354" fill="none" stroke="#1db9e0" stroke-width="0.5" stroke-linecap="round"/><path d="M242.69709,189.96771c0,0 0.42764,-0.69779 0.70996,-0.68936c0.25289,0.00755 0.70066,0.61111 1.14582,0.80939c0.40662,0.18111 0.86352,-0.55354 0.86352,-0.55354" fill="none" stroke="#1db9e0" stroke-width="0.5" stroke-linecap="round"/><path d="M241.37748,193.58709c0,0 0.42764,-0.6978 0.70996,-0.68937c0.25289,0.00755 0.70066,0.61112 1.14582,0.8094c0.40662,0.18111 0.86352,-0.55354 0.86352,-0.55354" fill="none" stroke="#1db9e0" stroke-width="0.5" stroke-linecap="round"/><path d="M244.14858,196.93162c0,0 0.42764,-0.6978 0.70996,-0.68937c0.25289,0.00755 0.70066,0.61112 1.14582,0.8094c0.40662,0.18111 0.86352,-0.55354 0.86352,-0.55354" fill="none" stroke="#1db9e0" stroke-width="0.5" stroke-linecap="round"/><path d="M238.39295,195.0712c0,0 0.42764,-0.6978 0.70996,-0.68937c0.25289,0.00755 0.70066,0.61112 1.14582,0.8094c0.40662,0.18111 0.86352,-0.55354 0.86352,-0.55354" fill="none" stroke="#1db9e0" stroke-width="0.5" stroke-linecap="round"/><path d="M239.2396,197.84492c0,0 0.42764,-0.6978 0.70996,-0.68937c0.25289,0.00755 0.70066,0.61112 1.14582,0.8094c0.40662,0.18111 0.86352,-0.55354 0.86352,-0.55354" fill="none" stroke="#1db9e0" stroke-width="0.5" stroke-linecap="round"/><path d="M223.80974,211.2332v-11.87289h11.87289v11.87289z" fill="#1ba9cc" stroke="none" stroke-width="0" stroke-linecap="butt"/><path d="M235.65474,211.04769v-11.87289h11.87289v11.87289z" fill="#1ba9cc" stroke="none" stroke-width="0" stroke-linecap="butt"/><path d="M199.9661,199.39293v-11.87289h11.87289v11.87289z" fill="#1ba9cc" stroke="none" stroke-width="0" stroke-linecap="butt"/><path d="M211.8111,199.39293v-11.87289h11.87289v11.87289z" fill="#13768e" stroke="#168eac" stroke-width="0.5" stroke-linecap="butt"/><path d="M214.79394,191.33647c0,0 0.42764,-0.6978 0.70996,-0.68937c0.25289,0.00755 0.70066,0.61112 1.14582,0.8094c0.40662,0.18111 0.86352,-0.55354 0.86352,-0.55354" fill="none" stroke="#1db9e0" stroke-width="0.5" stroke-linecap="round"/><path d="M218.85345,190.00033c0,0 0.42764,-0.69779 0.70996,-0.68936c0.25289,0.00755 0.70066,0.61111 1.14582,0.80939c0.40662,0.18111 0.86352,-0.55354 0.86352,-0.55354" fill="none" stroke="#1db9e0" stroke-width="0.5" stroke-linecap="round"/><path d="M217.53384,193.61971c0,0 0.42764,-0.6978 0.70996,-0.68937c0.25289,0.00755 0.70066,0.61112 1.14582,0.8094c0.40662,0.18111 0.86352,-0.55354 0.86352,-0.55354" fill="none" stroke="#1db9e0" stroke-width="0.5" stroke-linecap="round"/><path d="M220.30494,196.96424c0,0 0.42764,-0.6978 0.70996,-0.68937c0.25289,0.00755 0.70066,0.61112 1.14582,0.8094c0.40662,0.18111 0.86352,-0.55354 0.86352,-0.55354" fill="none" stroke="#1db9e0" stroke-width="0.5" stroke-linecap="round"/><path d="M214.54932,195.10382c0,0 0.42764,-0.6978 0.70996,-0.68937c0.25289,0.00755 0.70066,0.61112 1.14582,0.8094c0.40662,0.18111 0.86352,-0.55354 0.86352,-0.55354" fill="none" stroke="#1db9e0" stroke-width="0.5" stroke-linecap="round"/><path d="M215.39596,197.87754c0,0 0.42764,-0.6978 0.70996,-0.68937c0.25289,0.00755 0.70066,0.61112 1.14582,0.8094c0.40662,0.18111 0.86352,-0.55354 0.86352,-0.55354" fill="none" stroke="#1db9e0" stroke-width="0.5" stroke-linecap="round"/><path d="M199.9661,211.26582v-11.87289h11.87289v11.87289z" fill="#1ba9cc" stroke="none" stroke-width="0" stroke-linecap="butt"/><path d="M211.8111,211.08031v-11.87289h11.87289v11.87289z" fill="#1ba9cc" stroke="none" stroke-width="0" stroke-linecap="butt"/><path d="M271.36727,175.58155v-11.87289h11.87289v11.87289z" fill="#13768e" stroke="#168eac" stroke-width="0.5" stroke-linecap="butt"/><path d="M274.35011,167.52509c0,0 0.42764,-0.6978 0.70996,-0.68937c0.25289,0.00755 0.70066,0.61112 1.14582,0.8094c0.40662,0.18111 0.86352,-0.55354 0.86352,-0.55354" fill="none" stroke="#1db9e0" stroke-width="0.5" stroke-linecap="round"/><path d="M278.40962,166.18895c0,0 0.42764,-0.69779 0.70996,-0.68936c0.25289,0.00755 0.70066,0.61111 1.14582,0.80939c0.40662,0.18111 0.86352,-0.55354 0.86352,-0.55354" fill="none" stroke="#1db9e0" stroke-width="0.5" stroke-linecap="round"/><path d="M277.09001,169.80833c0,0 0.42764,-0.6978 0.70996,-0.68937c0.25289,0.00755 0.70066,0.61112 1.14582,0.8094c0.40662,0.18111 0.86352,-0.55354 0.86352,-0.55354" fill="none" stroke="#1db9e0" stroke-width="0.5" stroke-linecap="round"/><path d="M279.86111,173.15286c0,0 0.42764,-0.6978 0.70996,-0.68937c0.25289,0.00755 0.70066,0.61112 1.14582,0.8094c0.40662,0.18111 0.86352,-0.55354 0.86352,-0.55354" fill="none" stroke="#1db9e0" stroke-width="0.5" stroke-linecap="round"/><path d="M274.10548,171.29244c0,0 0.42764,-0.6978 0.70996,-0.68937c0.25289,0.00755 0.70066,0.61112 1.14582,0.8094c0.40662,0.18111 0.86352,-0.55354 0.86352,-0.55354" fill="none" stroke="#1db9e0" stroke-width="0.5" stroke-linecap="round"/><path d="M274.95213,174.06616c0,0 0.42764,-0.6978 0.70996,-0.68937c0.25289,0.00755 0.70066,0.61112 1.14582,0.8094c0.40662,0.18111 0.86352,-0.55354 0.86352,-0.55354" fill="none" stroke="#1db9e0" stroke-width="0.5" stroke-linecap="round"/><path d="M283.21227,175.58155v-11.87289h11.87289v11.87289z" fill="#13768e" stroke="#168eac" stroke-width="0.5" stroke-linecap="butt"/><path d="M286.19511,167.52509c0,0 0.42764,-0.6978 0.70996,-0.68937c0.25289,0.00755 0.70066,0.61112 1.14582,0.8094c0.40662,0.18111 0.86352,-0.55354 0.86352,-0.55354" fill="none" stroke="#1db9e0" stroke-width="0.5" stroke-linecap="round"/><path d="M290.25461,166.18895c0,0 0.42764,-0.69779 0.70996,-0.68936c0.25289,0.00755 0.70066,0.61111 1.14582,0.80939c0.40662,0.18111 0.86352,-0.55354 0.86352,-0.55354" fill="none" stroke="#1db9e0" stroke-width="0.5" stroke-linecap="round"/><path d="M288.93501,169.80833c0,0 0.42764,-0.6978 0.70996,-0.68937c0.25289,0.00755 0.70066,0.61112 1.14582,0.8094c0.40662,0.18111 0.86352,-0.55354 0.86352,-0.55354" fill="none" stroke="#1db9e0" stroke-width="0.5" stroke-linecap="round"/><path d="M291.7061,173.15286c0,0 0.42764,-0.6978 0.70996,-0.68937c0.25289,0.00755 0.70066,0.61112 1.14582,0.8094c0.40662,0.18111 0.86352,-0.55354 0.86352,-0.55354" fill="none" stroke="#1db9e0" stroke-width="0.5" stroke-linecap="round"/><path d="M285.95048,171.29244c0,0 0.42764,-0.6978 0.70996,-0.68937c0.25289,0.00755 0.70066,0.61112 1.14582,0.8094c0.40662,0.18111 0.86352,-0.55354 0.86352,-0.55354" fill="none" stroke="#1db9e0" stroke-width="0.5" stroke-linecap="round"/><path d="M286.79712,174.06616c0,0 0.42764,-0.6978 0.70996,-0.68937c0.25289,0.00755 0.70066,0.61112 1.14582,0.8094c0.40662,0.18111 0.86352,-0.55354 0.86352,-0.55354" fill="none" stroke="#1db9e0" stroke-width="0.5" stroke-linecap="round"/><path d="M271.36727,187.45444v-11.87289h11.87289v11.87289z" fill="#1ba9cc" stroke="none" stroke-width="0" stroke-linecap="butt"/><path d="M247.52363,175.61417v-11.87289h11.87289v11.87289z" fill="#13768e" stroke="#168eac" stroke-width="0.5" stroke-linecap="butt"/><path d="M250.50647,167.55771c0,0 0.42764,-0.6978 0.70996,-0.68937c0.25289,0.00755 0.70066,0.61112 1.14582,0.8094c0.40662,0.18111 0.86352,-0.55354 0.86352,-0.55354" fill="none" stroke="#1db9e0" stroke-width="0.5" stroke-linecap="round"/><path d="M254.56598,166.22157c0,0 0.42764,-0.69779 0.70996,-0.68936c0.25289,0.00755 0.70066,0.61111 1.14582,0.80939c0.40662,0.18111 0.86352,-0.55354 0.86352,-0.55354" fill="none" stroke="#1db9e0" stroke-width="0.5" stroke-linecap="round"/><path d="M253.24637,169.84095c0,0 0.42764,-0.6978 0.70996,-0.68937c0.25289,0.00755 0.70066,0.61112 1.14582,0.8094c0.40662,0.18111 0.86352,-0.55354 0.86352,-0.55354" fill="none" stroke="#1db9e0" stroke-width="0.5" stroke-linecap="round"/><path d="M256.01747,173.18548c0,0 0.42764,-0.6978 0.70996,-0.68937c0.25289,0.00755 0.70066,0.61112 1.14582,0.8094c0.40662,0.18111 0.86352,-0.55354 0.86352,-0.55354" fill="none" stroke="#1db9e0" stroke-width="0.5" stroke-linecap="round"/><path d="M250.26185,171.32506c0,0 0.42764,-0.6978 0.70996,-0.68937c0.25289,0.00755 0.70066,0.61112 1.14582,0.8094c0.40662,0.18111 0.86352,-0.55354 0.86352,-0.55354" fill="none" stroke="#1db9e0" stroke-width="0.5" stroke-linecap="round"/><path d="M251.10849,174.09878c0,0 0.42764,-0.6978 0.70996,-0.68937c0.25289,0.00755 0.70066,0.61112 1.14582,0.8094c0.40662,0.18111 0.86352,-0.55354 0.86352,-0.55354" fill="none" stroke="#1db9e0" stroke-width="0.5" stroke-linecap="round"/><path d="M259.36863,175.61417v-11.87289h11.87289v11.87289z" fill="#13768e" stroke="#168eac" stroke-width="0.5" stroke-linecap="butt"/><path d="M262.35147,167.55771c0,0 0.42764,-0.6978 0.70996,-0.68937c0.25289,0.00755 0.70066,0.61112 1.14582,0.8094c0.40662,0.18111 0.86352,-0.55354 0.86352,-0.55354" fill="none" stroke="#1db9e0" stroke-width="0.5" stroke-linecap="round"/><path d="M266.41098,166.22157c0,0 0.42764,-0.69779 0.70996,-0.68936c0.25289,0.00755 0.70066,0.61111 1.14582,0.80939c0.40662,0.18111 0.86352,-0.55354 0.86352,-0.55354" fill="none" stroke="#1db9e0" stroke-width="0.5" stroke-linecap="round"/><path d="M265.09137,169.84095c0,0 0.42764,-0.6978 0.70996,-0.68937c0.25289,0.00755 0.70066,0.61112 1.14582,0.8094c0.40662,0.18111 0.86352,-0.55354 0.86352,-0.55354" fill="none" stroke="#1db9e0" stroke-width="0.5" stroke-linecap="round"/><path d="M267.86247,173.18548c0,0 0.42764,-0.6978 0.70996,-0.68937c0.25289,0.00755 0.70066,0.61112 1.14582,0.8094c0.40662,0.18111 0.86352,-0.55354 0.86352,-0.55354" fill="none" stroke="#1db9e0" stroke-width="0.5" stroke-linecap="round"/><path d="M262.10684,171.32506c0,0 0.42764,-0.6978 0.70996,-0.68937c0.25289,0.00755 0.70066,0.61112 1.14582,0.8094c0.40662,0.18111 0.86352,-0.55354 0.86352,-0.55354" fill="none" stroke="#1db9e0" stroke-width="0.5" stroke-linecap="round"/><path d="M262.95349,174.09878c0,0 0.42764,-0.6978 0.70996,-0.68937c0.25289,0.00755 0.70066,0.61112 1.14582,0.8094c0.40662,0.18111 0.86352,-0.55354 0.86352,-0.55354" fill="none" stroke="#1db9e0" stroke-width="0.5" stroke-linecap="round"/><path d="M247.52363,187.48706v-11.87289h11.87289v11.87289z" fill="#13768e" stroke="#168eac" stroke-width="0.5" stroke-linecap="butt"/><path d="M250.50647,179.4306c0,0 0.42764,-0.6978 0.70996,-0.68937c0.25289,0.00755 0.70066,0.61112 1.14582,0.8094c0.40662,0.18111 0.86352,-0.55354 0.86352,-0.55354" fill="none" stroke="#1db9e0" stroke-width="0.5" stroke-linecap="round"/><path d="M254.56598,178.09446c0,0 0.42764,-0.69779 0.70996,-0.68936c0.25289,0.00755 0.70066,0.61111 1.14582,0.80939c0.40662,0.18111 0.86352,-0.55354 0.86352,-0.55354" fill="none" stroke="#1db9e0" stroke-width="0.5" stroke-linecap="round"/><path d="M253.24637,181.71384c0,0 0.42764,-0.6978 0.70996,-0.68937c0.25289,0.00755 0.70066,0.61112 1.14582,0.8094c0.40662,0.18111 0.86352,-0.55354 0.86352,-0.55354" fill="none" stroke="#1db9e0" stroke-width="0.5" stroke-linecap="round"/><path d="M256.01747,185.05837c0,0 0.42764,-0.6978 0.70996,-0.68937c0.25289,0.00755 0.70066,0.61112 1.14582,0.8094c0.40662,0.18111 0.86352,-0.55354 0.86352,-0.55354" fill="none" stroke="#1db9e0" stroke-width="0.5" stroke-linecap="round"/><path d="M250.26185,183.19796c0,0 0.42764,-0.6978 0.70996,-0.68937c0.25289,0.00755 0.70066,0.61112 1.14582,0.8094c0.40662,0.18111 0.86352,-0.55354 0.86352,-0.55354" fill="none" stroke="#1db9e0" stroke-width="0.5" stroke-linecap="round"/><path d="M251.10849,185.97167c0,0 0.42764,-0.6978 0.70996,-0.68937c0.25289,0.00755 0.70066,0.61112 1.14582,0.8094c0.40662,0.18111 0.86352,-0.55354 0.86352,-0.55354" fill="none" stroke="#1db9e0" stroke-width="0.5" stroke-linecap="round"/><path d="M259.36863,187.48706v-11.87289h11.87289v11.87289z" fill="#1ba9cc" stroke="none" stroke-width="0" stroke-linecap="butt"/><path d="M271.36727,199.32733v-11.87289h11.87289v11.87289z" fill="#13768e" stroke="#168eac" stroke-width="0.5" stroke-linecap="butt"/><path d="M274.35011,191.27087c0,0 0.42764,-0.6978 0.70996,-0.68937c0.25289,0.00755 0.70066,0.61112 1.14582,0.8094c0.40662,0.18111 0.86352,-0.55354 0.86352,-0.55354" fill="none" stroke="#1db9e0" stroke-width="0.5" stroke-linecap="round"/><path d="M278.40962,189.93473c0,0 0.42764,-0.69779 0.70996,-0.68936c0.25289,0.00755 0.70066,0.61111 1.14582,0.80939c0.40662,0.18111 0.86352,-0.55354 0.86352,-0.55354" fill="none" stroke="#1db9e0" stroke-width="0.5" stroke-linecap="round"/><path d="M277.09001,193.55411c0,0 0.42764,-0.6978 0.70996,-0.68937c0.25289,0.00755 0.70066,0.61112 1.14582,0.8094c0.40662,0.18111 0.86352,-0.55354 0.86352,-0.55354" fill="none" stroke="#1db9e0" stroke-width="0.5" stroke-linecap="round"/><path d="M279.86111,196.89864c0,0 0.42764,-0.6978 0.70996,-0.68937c0.25289,0.00755 0.70066,0.61112 1.14582,0.8094c0.40662,0.18111 0.86352,-0.55354 0.86352,-0.55354" fill="none" stroke="#1db9e0" stroke-width="0.5" stroke-linecap="round"/><path d="M274.10548,195.03823c0,0 0.42764,-0.6978 0.70996,-0.68937c0.25289,0.00755 0.70066,0.61112 1.14582,0.8094c0.40662,0.18111 0.86352,-0.55354 0.86352,-0.55354" fill="none" stroke="#1db9e0" stroke-width="0.5" stroke-linecap="round"/><path d="M274.95213,197.81194c0,0 0.42764,-0.6978 0.70996,-0.68937c0.25289,0.00755 0.70066,0.61112 1.14582,0.8094c0.40662,0.18111 0.86352,-0.55354 0.86352,-0.55354" fill="none" stroke="#1db9e0" stroke-width="0.5" stroke-linecap="round"/><path d="M283.21227,199.32733v-11.87289h11.87289v11.87289z" fill="#13768e" stroke="#168eac" stroke-width="0.5" stroke-linecap="butt"/><path d="M286.19511,191.27087c0,0 0.42764,-0.6978 0.70996,-0.68937c0.25289,0.00755 0.70066,0.61112 1.14582,0.8094c0.40662,0.18111 0.86352,-0.55354 0.86352,-0.55354" fill="none" stroke="#1db9e0" stroke-width="0.5" stroke-linecap="round"/><path d="M290.25461,189.93473c0,0 0.42764,-0.69779 0.70996,-0.68936c0.25289,0.00755 0.70066,0.61111 1.14582,0.80939c0.40662,0.18111 0.86352,-0.55354 0.86352,-0.55354" fill="none" stroke="#1db9e0" stroke-width="0.5" stroke-linecap="round"/><path d="M288.93501,193.55411c0,0 0.42764,-0.6978 0.70996,-0.68937c0.25289,0.00755 0.70066,0.61112 1.14582,0.8094c0.40662,0.18111 0.86352,-0.55354 0.86352,-0.55354" fill="none" stroke="#1db9e0" stroke-width="0.5" stroke-linecap="round"/><path d="M291.7061,196.89864c0,0 0.42764,-0.6978 0.70996,-0.68937c0.25289,0.00755 0.70066,0.61112 1.14582,0.8094c0.40662,0.18111 0.86352,-0.55354 0.86352,-0.55354" fill="none" stroke="#1db9e0" stroke-width="0.5" stroke-linecap="round"/><path d="M285.95048,195.03823c0,0 0.42764,-0.6978 0.70996,-0.68937c0.25289,0.00755 0.70066,0.61112 1.14582,0.8094c0.40662,0.18111 0.86352,-0.55354 0.86352,-0.55354" fill="none" stroke="#1db9e0" stroke-width="0.5" stroke-linecap="round"/><path d="M286.79712,197.81194c0,0 0.42764,-0.6978 0.70996,-0.68937c0.25289,0.00755 0.70066,0.61112 1.14582,0.8094c0.40662,0.18111 0.86352,-0.55354 0.86352,-0.55354" fill="none" stroke="#1db9e0" stroke-width="0.5" stroke-linecap="round"/><path d="M271.36727,211.20022v-11.87289h11.87289v11.87289z" fill="#13768e" stroke="#168eac" stroke-width="0.5" stroke-linecap="butt"/><path d="M274.35011,203.14376c0,0 0.42764,-0.6978 0.70996,-0.68937c0.25289,0.00755 0.70066,0.61112 1.14582,0.8094c0.40662,0.18111 0.86352,-0.55354 0.86352,-0.55354" fill="none" stroke="#1db9e0" stroke-width="0.5" stroke-linecap="round"/><path d="M278.40962,201.80762c0,0 0.42764,-0.69779 0.70996,-0.68936c0.25289,0.00755 0.70066,0.61111 1.14582,0.80939c0.40662,0.18111 0.86352,-0.55354 0.86352,-0.55354" fill="none" stroke="#1db9e0" stroke-width="0.5" stroke-linecap="round"/><path d="M277.09001,205.42701c0,0 0.42764,-0.6978 0.70996,-0.68937c0.25289,0.00755 0.70066,0.61112 1.14582,0.8094c0.40662,0.18111 0.86352,-0.55354 0.86352,-0.55354" fill="none" stroke="#1db9e0" stroke-width="0.5" stroke-linecap="round"/><path d="M279.86111,208.77153c0,0 0.42764,-0.6978 0.70996,-0.68937c0.25289,0.00755 0.70066,0.61112 1.14582,0.8094c0.40662,0.18111 0.86352,-0.55354 0.86352,-0.55354" fill="none" stroke="#1db9e0" stroke-width="0.5" stroke-linecap="round"/><path d="M274.10548,206.91112c0,0 0.42764,-0.6978 0.70996,-0.68937c0.25289,0.00755 0.70066,0.61112 1.14582,0.8094c0.40662,0.18111 0.86352,-0.55354 0.86352,-0.55354" fill="none" stroke="#1db9e0" stroke-width="0.5" stroke-linecap="round"/><path d="M274.95213,209.68483c0,0 0.42764,-0.6978 0.70996,-0.68937c0.25289,0.00755 0.70066,0.61112 1.14582,0.8094c0.40662,0.18111 0.86352,-0.55354 0.86352,-0.55354" fill="none" stroke="#1db9e0" stroke-width="0.5" stroke-linecap="round"/><path d="M283.21227,211.20022v-11.87289h11.87289v11.87289z" fill="#13768e" stroke="#168eac" stroke-width="0.5" stroke-linecap="butt"/><path d="M286.19511,203.14376c0,0 0.42764,-0.6978 0.70996,-0.68937c0.25289,0.00755 0.70066,0.61112 1.14582,0.8094c0.40662,0.18111 0.86352,-0.55354 0.86352,-0.55354" fill="none" stroke="#1db9e0" stroke-width="0.5" stroke-linecap="round"/><path d="M290.25461,201.80762c0,0 0.42764,-0.69779 0.70996,-0.68936c0.25289,0.00755 0.70066,0.61111 1.14582,0.80939c0.40662,0.18111 0.86352,-0.55354 0.86352,-0.55354" fill="none" stroke="#1db9e0" stroke-width="0.5" stroke-linecap="round"/><path d="M288.93501,205.42701c0,0 0.42764,-0.6978 0.70996,-0.68937c0.25289,0.00755 0.70066,0.61112 1.14582,0.8094c0.40662,0.18111 0.86352,-0.55354 0.86352,-0.55354" fill="none" stroke="#1db9e0" stroke-width="0.5" stroke-linecap="round"/><path d="M291.7061,208.77153c0,0 0.42764,-0.6978 0.70996,-0.68937c0.25289,0.00755 0.70066,0.61112 1.14582,0.8094c0.40662,0.18111 0.86352,-0.55354 0.86352,-0.55354" fill="none" stroke="#1db9e0" stroke-width="0.5" stroke-linecap="round"/><path d="M285.95048,206.91112c0,0 0.42764,-0.6978 0.70996,-0.68937c0.25289,0.00755 0.70066,0.61112 1.14582,0.8094c0.40662,0.18111 0.86352,-0.55354 0.86352,-0.55354" fill="none" stroke="#1db9e0" stroke-width="0.5" stroke-linecap="round"/><path d="M286.79712,209.68483c0,0 0.42764,-0.6978 0.70996,-0.68937c0.25289,0.00755 0.70066,0.61112 1.14582,0.8094c0.40662,0.18111 0.86352,-0.55354 0.86352,-0.55354" fill="none" stroke="#1db9e0" stroke-width="0.5" stroke-linecap="round"/><path d="M247.52363,199.35995v-11.87289h11.87289v11.87289z" fill="#13768e" stroke="#168eac" stroke-width="0.5" stroke-linecap="butt"/><path d="M250.50647,191.30349c0,0 0.42764,-0.6978 0.70996,-0.68937c0.25289,0.00755 0.70066,0.61112 1.14582,0.8094c0.40662,0.18111 0.86352,-0.55354 0.86352,-0.55354" fill="none" stroke="#1db9e0" stroke-width="0.5" stroke-linecap="round"/><path d="M254.56598,189.96735c0,0 0.42764,-0.69779 0.70996,-0.68936c0.25289,0.00755 0.70066,0.61111 1.14582,0.80939c0.40662,0.18111 0.86352,-0.55354 0.86352,-0.55354" fill="none" stroke="#1db9e0" stroke-width="0.5" stroke-linecap="round"/><path d="M253.24637,193.58674c0,0 0.42764,-0.6978 0.70996,-0.68937c0.25289,0.00755 0.70066,0.61112 1.14582,0.8094c0.40662,0.18111 0.86352,-0.55354 0.86352,-0.55354" fill="none" stroke="#1db9e0" stroke-width="0.5" stroke-linecap="round"/><path d="M256.01747,196.93126c0,0 0.42764,-0.6978 0.70996,-0.68937c0.25289,0.00755 0.70066,0.61112 1.14582,0.8094c0.40662,0.18111 0.86352,-0.55354 0.86352,-0.55354" fill="none" stroke="#1db9e0" stroke-width="0.5" stroke-linecap="round"/><path d="M250.26185,195.07085c0,0 0.42764,-0.6978 0.70996,-0.68937c0.25289,0.00755 0.70066,0.61112 1.14582,0.8094c0.40662,0.18111 0.86352,-0.55354 0.86352,-0.55354" fill="none" stroke="#1db9e0" stroke-width="0.5" stroke-linecap="round"/><path d="M251.10849,197.84456c0,0 0.42764,-0.6978 0.70996,-0.68937c0.25289,0.00755 0.70066,0.61112 1.14582,0.8094c0.40662,0.18111 0.86352,-0.55354 0.86352,-0.55354" fill="none" stroke="#1db9e0" stroke-width="0.5" stroke-linecap="round"/><path d="M259.73966,199.35995v-11.87289h11.87289v11.87289z" fill="#1ba9cc" stroke="none" stroke-width="0" stroke-linecap="butt"/><path d="M247.52363,211.23284v-11.87289h11.87289v11.87289z" fill="#13768e" stroke="#168eac" stroke-width="0.5" stroke-linecap="butt"/><path d="M250.50647,203.17638c0,0 0.42764,-0.6978 0.70996,-0.68937c0.25289,0.00755 0.70066,0.61112 1.14582,0.8094c0.40662,0.18111 0.86352,-0.55354 0.86352,-0.55354" fill="none" stroke="#1db9e0" stroke-width="0.5" stroke-linecap="round"/><path d="M254.56598,201.84024c0,0 0.42764,-0.69779 0.70996,-0.68936c0.25289,0.00755 0.70066,0.61111 1.14582,0.80939c0.40662,0.18111 0.86352,-0.55354 0.86352,-0.55354" fill="none" stroke="#1db9e0" stroke-width="0.5" stroke-linecap="round"/><path d="M253.24637,205.45963c0,0 0.42764,-0.6978 0.70996,-0.68937c0.25289,0.00755 0.70066,0.61112 1.14582,0.8094c0.40662,0.18111 0.86352,-0.55354 0.86352,-0.55354" fill="none" stroke="#1db9e0" stroke-width="0.5" stroke-linecap="round"/><path d="M256.01747,208.80415c0,0 0.42764,-0.6978 0.70996,-0.68937c0.25289,0.00755 0.70066,0.61112 1.14582,0.8094c0.40662,0.18111 0.86352,-0.55354 0.86352,-0.55354" fill="none" stroke="#1db9e0" stroke-width="0.5" stroke-linecap="round"/><path d="M250.26185,206.94374c0,0 0.42764,-0.6978 0.70996,-0.68937c0.25289,0.00755 0.70066,0.61112 1.14582,0.8094c0.40662,0.18111 0.86352,-0.55354 0.86352,-0.55354" fill="none" stroke="#1db9e0" stroke-width="0.5" stroke-linecap="round"/><path d="M251.10849,209.71745c0,0 0.42764,-0.6978 0.70996,-0.68937c0.25289,0.00755 0.70066,0.61112 1.14582,0.8094c0.40662,0.18111 0.86352,-0.55354 0.86352,-0.55354" fill="none" stroke="#1db9e0" stroke-width="0.5" stroke-linecap="round"/><path d="M259.73966,211.23284v-11.87289h11.87289v11.87289z" fill="#1ba9cc" stroke="none" stroke-width="0" stroke-linecap="butt"/><path d="M223.80974,223.10609v-11.87289h11.87289v11.87289z" fill="#13768e" stroke="#168eac" stroke-width="0.5" stroke-linecap="butt"/><path d="M226.79258,215.21453c0,0 0.42764,-0.6978 0.70996,-0.68937c0.25289,0.00755 0.70066,0.61112 1.14582,0.8094c0.40662,0.18111 0.86352,-0.55354 0.86352,-0.55354" fill="none" stroke="#1db9e0" stroke-width="0.5" stroke-linecap="round"/><path d="M229.53248,217.33288c0,0 0.42764,-0.6978 0.70996,-0.68937c0.25289,0.00755 0.70066,0.61112 1.14582,0.8094c0.40662,0.18111 0.86352,-0.55354 0.86352,-0.55354" fill="none" stroke="#1db9e0" stroke-width="0.5" stroke-linecap="round"/><path d="M232.30358,220.6774c0,0 0.42764,-0.6978 0.70996,-0.68937c0.25289,0.00755 0.70066,0.61112 1.14582,0.8094c0.40662,0.18111 0.86352,-0.55354 0.86352,-0.55354" fill="none" stroke="#1db9e0" stroke-width="0.5" stroke-linecap="round"/><path d="M226.54796,218.81699c0,0 0.42764,-0.6978 0.70996,-0.68937c0.25289,0.00755 0.70066,0.61112 1.14582,0.8094c0.40662,0.18111 0.86352,-0.55354 0.86352,-0.55354" fill="none" stroke="#1db9e0" stroke-width="0.5" stroke-linecap="round"/><path d="M227.3946,221.5907c0,0 0.42764,-0.6978 0.70996,-0.68937c0.25289,0.00755 0.70066,0.61112 1.14582,0.8094c0.40662,0.18111 0.86352,-0.55354 0.86352,-0.55354" fill="none" stroke="#1db9e0" stroke-width="0.5" stroke-linecap="round"/><path d="M235.65474,222.92058v-11.87289h11.87289v11.87289z" fill="#1ba9cc" stroke="none" stroke-width="0" stroke-linecap="butt"/><path d="M199.9661,223.13871v-11.87289h11.87289v11.87289z" fill="#13768e" stroke="#168eac" stroke-width="0.5" stroke-linecap="butt"/><path d="M202.94894,215.24715c0,0 0.42764,-0.6978 0.70996,-0.68937c0.25289,0.00755 0.70066,0.61112 1.14582,0.8094c0.40662,0.18111 0.86352,-0.55354 0.86352,-0.55354" fill="none" stroke="#1db9e0" stroke-width="0.5" stroke-linecap="round"/><path d="M205.68884,217.3655c0,0 0.42764,-0.6978 0.70996,-0.68937c0.25289,0.00755 0.70066,0.61112 1.14582,0.8094c0.40662,0.18111 0.86352,-0.55354 0.86352,-0.55354" fill="none" stroke="#1db9e0" stroke-width="0.5" stroke-linecap="round"/><path d="M208.45994,220.71002c0,0 0.42764,-0.6978 0.70996,-0.68937c0.25289,0.00755 0.70066,0.61112 1.14582,0.8094c0.40662,0.18111 0.86352,-0.55354 0.86352,-0.55354" fill="none" stroke="#1db9e0" stroke-width="0.5" stroke-linecap="round"/><path d="M202.70432,218.84961c0,0 0.42764,-0.6978 0.70996,-0.68937c0.25289,0.00755 0.70066,0.61112 1.14582,0.8094c0.40662,0.18111 0.86352,-0.55354 0.86352,-0.55354" fill="none" stroke="#1db9e0" stroke-width="0.5" stroke-linecap="round"/><path d="M203.55096,221.62332c0,0 0.42764,-0.6978 0.70996,-0.68937c0.25289,0.00755 0.70066,0.61112 1.14582,0.8094c0.40662,0.18111 0.86352,-0.55354 0.86352,-0.55354" fill="none" stroke="#1db9e0" stroke-width="0.5" stroke-linecap="round"/><path d="M211.8111,223.13871v-11.87289h11.87289v11.87289z" fill="#13768e" stroke="#168eac" stroke-width="0.5" stroke-linecap="butt"/><path d="M214.79394,215.24715c0,0 0.42764,-0.6978 0.70996,-0.68937c0.25289,0.00755 0.70066,0.61112 1.14582,0.8094c0.40662,0.18111 0.86352,-0.55354 0.86352,-0.55354" fill="none" stroke="#1db9e0" stroke-width="0.5" stroke-linecap="round"/><path d="M217.53384,217.3655c0,0 0.42764,-0.6978 0.70996,-0.68937c0.25289,0.00755 0.70066,0.61112 1.14582,0.8094c0.40662,0.18111 0.86352,-0.55354 0.86352,-0.55354" fill="none" stroke="#1db9e0" stroke-width="0.5" stroke-linecap="round"/><path d="M220.30494,220.71002c0,0 0.42764,-0.6978 0.70996,-0.68937c0.25289,0.00755 0.70066,0.61112 1.14582,0.8094c0.40662,0.18111 0.86352,-0.55354 0.86352,-0.55354" fill="none" stroke="#1db9e0" stroke-width="0.5" stroke-linecap="round"/><path d="M214.54932,218.84961c0,0 0.42764,-0.6978 0.70996,-0.68937c0.25289,0.00755 0.70066,0.61112 1.14582,0.8094c0.40662,0.18111 0.86352,-0.55354 0.86352,-0.55354" fill="none" stroke="#1db9e0" stroke-width="0.5" stroke-linecap="round"/><path d="M215.39596,221.62332c0,0 0.42764,-0.6978 0.70996,-0.68937c0.25289,0.00755 0.70066,0.61112 1.14582,0.8094c0.40662,0.18111 0.86352,-0.55354 0.86352,-0.55354" fill="none" stroke="#1db9e0" stroke-width="0.5" stroke-linecap="round"/><path d="M271.36727,223.07311v-11.87289h11.87289v11.87289z" fill="#13768e" stroke="#168eac" stroke-width="0.5" stroke-linecap="butt"/><path d="M274.35011,215.18155c0,0 0.42764,-0.6978 0.70996,-0.68937c0.25289,0.00755 0.70066,0.61112 1.14582,0.8094c0.40662,0.18111 0.86352,-0.55354 0.86352,-0.55354" fill="none" stroke="#1db9e0" stroke-width="0.5" stroke-linecap="round"/><path d="M277.09001,217.2999c0,0 0.42764,-0.6978 0.70996,-0.68937c0.25289,0.00755 0.70066,0.61112 1.14582,0.8094c0.40662,0.18111 0.86352,-0.55354 0.86352,-0.55354" fill="none" stroke="#1db9e0" stroke-width="0.5" stroke-linecap="round"/><path d="M279.86111,220.64442c0,0 0.42764,-0.6978 0.70996,-0.68937c0.25289,0.00755 0.70066,0.61112 1.14582,0.8094c0.40662,0.18111 0.86352,-0.55354 0.86352,-0.55354" fill="none" stroke="#1db9e0" stroke-width="0.5" stroke-linecap="round"/><path d="M274.10548,218.78401c0,0 0.42764,-0.6978 0.70996,-0.68937c0.25289,0.00755 0.70066,0.61112 1.14582,0.8094c0.40662,0.18111 0.86352,-0.55354 0.86352,-0.55354" fill="none" stroke="#1db9e0" stroke-width="0.5" stroke-linecap="round"/><path d="M274.95213,221.55772c0,0 0.42764,-0.6978 0.70996,-0.68937c0.25289,0.00755 0.70066,0.61112 1.14582,0.8094c0.40662,0.18111 0.86352,-0.55354 0.86352,-0.55354" fill="none" stroke="#1db9e0" stroke-width="0.5" stroke-linecap="round"/><path d="M283.21227,223.07311v-11.87289h11.87289v11.87289z" fill="#13768e" stroke="#168eac" stroke-width="0.5" stroke-linecap="butt"/><path d="M286.19511,215.18155c0,0 0.42764,-0.6978 0.70996,-0.68937c0.25289,0.00755 0.70066,0.61112 1.14582,0.8094c0.40662,0.18111 0.86352,-0.55354 0.86352,-0.55354" fill="none" stroke="#1db9e0" stroke-width="0.5" stroke-linecap="round"/><path d="M288.93501,217.2999c0,0 0.42764,-0.6978 0.70996,-0.68937c0.25289,0.00755 0.70066,0.61112 1.14582,0.8094c0.40662,0.18111 0.86352,-0.55354 0.86352,-0.55354" fill="none" stroke="#1db9e0" stroke-width="0.5" stroke-linecap="round"/><path d="M291.7061,220.64442c0,0 0.42764,-0.6978 0.70996,-0.68937c0.25289,0.00755 0.70066,0.61112 1.14582,0.8094c0.40662,0.18111 0.86352,-0.55354 0.86352,-0.55354" fill="none" stroke="#1db9e0" stroke-width="0.5" stroke-linecap="round"/><path d="M285.95048,218.78401c0,0 0.42764,-0.6978 0.70996,-0.68937c0.25289,0.00755 0.70066,0.61112 1.14582,0.8094c0.40662,0.18111 0.86352,-0.55354 0.86352,-0.55354" fill="none" stroke="#1db9e0" stroke-width="0.5" stroke-linecap="round"/><path d="M286.79712,221.55772c0,0 0.42764,-0.6978 0.70996,-0.68937c0.25289,0.00755 0.70066,0.61112 1.14582,0.8094c0.40662,0.18111 0.86352,-0.55354 0.86352,-0.55354" fill="none" stroke="#1db9e0" stroke-width="0.5" stroke-linecap="round"/><path d="M247.70914,222.92022v-11.87289h11.87289v11.87289z" fill="#1ba9cc" stroke="none" stroke-width="0" stroke-linecap="butt"/><path d="M259.73966,222.92022v-11.87289h11.87289v11.87289z" fill="#1ba9cc" stroke="none" stroke-width="0" stroke-linecap="butt"/><g stroke-linecap="butt"><path d="M199.85799,175.58957v-11.87289h11.87289v11.87289z" fill="#1ba9cc" stroke="none" stroke-width="0"/><path d="M200.93111,174.57939v-9.20149h9.20149v9.20149z" fill="none" stroke="#86beff" stroke-width="0.5"/><path d="M205.53004,173.23247l-3.25201,-3.15671l3.15671,-3.252l3.252,3.1567z" fill="none" stroke="#86beff" stroke-width="0.5"/><text transform="translate(203.70145,172.47187) scale(0.17521,0.17521)" font-size="40" xml:space="preserve" fill="#ffffff" fill-rule="nonzero" stroke="none" stroke-width="1" stroke-linecap="butt" stroke-linejoin="miter" stroke-miterlimit="10" stroke-dasharray="" stroke-dashoffset="0" font-family="Sans Serif" font-weight="normal" text-anchor="start" style="mix-blend-mode: normal"><tspan x="0" dy="0">F</tspan></text></g><g stroke-linecap="butt"><path d="M211.86821,152.0109v-11.87289h11.87289v11.87289z" fill="#cacaca" stroke="none" stroke-width="0"/><path d="M212.97539,150.98614v-9.20149h9.20149v9.20149z" fill="none" stroke="#ff9c9c" stroke-width="0.5"/><path d="M214.85526,146.63275c0,-1.58466 1.28462,-2.86928 2.86928,-2.86928c1.58466,0 2.86928,1.28462 2.86928,2.86928c0,1.58466 -1.28462,2.86928 -2.86928,2.86928c-1.58466,0 -2.86928,-1.28462 -2.86928,-2.86928z" fill="none" stroke="#ff9c9c" stroke-width="0.5"/><text transform="translate(216.83407,148.97757) scale(0.17521,0.17521)" font-size="40" xml:space="preserve" fill="#ffffff" fill-rule="nonzero" stroke="none" stroke-width="1" stroke-linecap="butt" stroke-linejoin="miter" stroke-miterlimit="10" stroke-dasharray="" stroke-dashoffset="0" font-family="Sans Serif" font-weight="normal" text-anchor="start" style="mix-blend-mode: normal"><tspan x="0" dy="0">!</tspan></text></g><g><path d="M223.85996,151.94685v-11.87289h11.87289v11.87289z" fill="#13768e" stroke="none" stroke-width="0" stroke-linecap="butt"/><path d="M226.8428,143.89039c0,0 0.42764,-0.6978 0.70996,-0.68937c0.25289,0.00755 0.70066,0.61112 1.14582,0.8094c0.40662,0.18111 0.86352,-0.55354 0.86352,-0.55354" fill="none" stroke="#1db9e0" stroke-width="0.5" stroke-linecap="round"/><path d="M230.9023,142.55425c0,0 0.42764,-0.69779 0.70996,-0.68936c0.25289,0.00755 0.70066,0.61111 1.14582,0.80939c0.40662,0.18111 0.86352,-0.55354 0.86352,-0.55354" fill="none" stroke="#1db9e0" stroke-width="0.5" stroke-linecap="round"/><path d="M229.5827,146.17363c0,0 0.42764,-0.6978 0.70996,-0.68937c0.25289,0.00755 0.70066,0.61112 1.14582,0.8094c0.40662,0.18111 0.86352,-0.55354 0.86352,-0.55354" fill="none" stroke="#1db9e0" stroke-width="0.5" stroke-linecap="round"/><path d="M232.35379,149.51816c0,0 0.42764,-0.6978 0.70996,-0.68937c0.25289,0.00755 0.70066,0.61112 1.14582,0.8094c0.40662,0.18111 0.86352,-0.55354 0.86352,-0.55354" fill="none" stroke="#1db9e0" stroke-width="0.5" stroke-linecap="round"/><path d="M226.59817,147.65775c0,0 0.42764,-0.6978 0.70996,-0.68937c0.25289,0.00755 0.70066,0.61112 1.14582,0.8094c0.40662,0.18111 0.86352,-0.55354 0.86352,-0.55354" fill="none" stroke="#1db9e0" stroke-width="0.5" stroke-linecap="round"/><path d="M227.44481,150.43146c0,0 0.42764,-0.6978 0.70996,-0.68937c0.25289,0.00755 0.70066,0.61112 1.14582,0.8094c0.40662,0.18111 0.86352,-0.55354 0.86352,-0.55354" fill="none" stroke="#1db9e0" stroke-width="0.5" stroke-linecap="round"/></g><g><path d="M235.68467,151.92845v-11.87289h11.87289v11.87289z" fill="#1ba9cc" stroke="none" stroke-width="0" stroke-linecap="butt"/><g fill="none" stroke="#2fc4e9" stroke-width="0.5" stroke-linecap="round"><path d="M238.11213,142.42429v7.25566"/><path d="M241.57506,144.89781v3.13313"/><path d="M244.54328,142.42429v6.92585"/></g></g><g stroke-linecap="butt"><path d="M283.29107,187.44406v-11.87289h11.87289v11.87289z" fill="#1ba9cc" stroke="none" stroke-width="0"/><path d="M284.39825,186.4193v-9.20149h9.20149v9.20149z" fill="#1ba9cc" stroke="#ff9c9c" stroke-width="0.5"/><path d="M286.27812,182.06591c0,-1.58466 1.28462,-2.86928 2.86928,-2.86928c1.58466,0 2.86928,1.28462 2.86928,2.86928c0,1.58466 -1.28462,2.86928 -2.86928,2.86928c-1.58466,0 -2.86928,-1.28462 -2.86928,-2.86928z" fill="#1ba9cc" stroke="#ff9c9c" stroke-width="0.5"/><text transform="translate(288.25693,184.41073) scale(0.17521,0.17521)" font-size="40" xml:space="preserve" fill="#ffffff" fill-rule="nonzero" stroke="none" stroke-width="1" stroke-linecap="butt" stroke-linejoin="miter" stroke-miterlimit="10" stroke-dasharray="" stroke-dashoffset="0" font-family="Sans Serif" font-weight="normal" text-anchor="start" style="mix-blend-mode: normal"><tspan x="0" dy="0">!</tspan></text></g></g></g></svg>