<svg version="1.1" xmlns="http://www.w3.org/2000/svg" xmlns:xlink="http://www.w3.org/1999/xlink" width="75.55932" height="60.72421" viewBox="0,0,75.55932,60.72421"><g transform="translate(-518.24754,-275.11642)"><g data-paper-data="{&quot;isPaintingLayer&quot;:true}" fill-rule="nonzero" stroke-linecap="butt" stroke-linejoin="miter" stroke-miterlimit="10" stroke-dasharray="" stroke-dashoffset="0" style="mix-blend-mode: normal"><path d="M518.74754,335.34063v-52.45175l8.10812,-7.27246h66.4512v50.93913l-6.78453,8.78508z" fill="#ffffff" stroke="#ffffff" stroke-width="1" opacity="0.7"/><text transform="translate(553.47544,293.62694) scale(0.36438,0.36438)" font-size="40" xml:space="preserve" fill="#494949" fill-rule="nonzero" stroke="#5c5c5c" stroke-width="2" stroke-linecap="butt" stroke-linejoin="miter" stroke-miterlimit="10" stroke-dasharray="" stroke-dashoffset="0" font-family="Serif" font-weight="normal" text-anchor="start" style="mix-blend-mode: normal"><tspan x="0" dy="0">仓库</tspan></text><text transform="translate(548.90555,314.9586) scale(0.30086,0.30086)" font-size="40" xml:space="preserve" fill="#ffffff" fill-rule="nonzero" stroke="#ffffff" stroke-width="3" stroke-linecap="butt" stroke-linejoin="miter" stroke-miterlimit="10" stroke-dasharray="" stroke-dashoffset="0" font-family="Malgun Gothic" font-weight="normal" text-anchor="start" style="mix-blend-mode: normal"><tspan x="0" dy="0">goods</tspan></text><path d="M523.8651,317.91964h18.3125v11.77232c0,0.72351 -0.58453,1.30804 -1.30804,1.30804h-15.69643c-0.72351,0 -1.30804,-0.58453 -1.30804,-1.30804zM530.40527,321.35324c0,0.26978 0.22073,0.49051 0.49051,0.49051h4.25112c0.26978,0 0.49051,-0.22073 0.49051,-0.49051v-0.32701c0,-0.26978 -0.22073,-0.49051 -0.49051,-0.49051h-4.25112c-0.26978,0 -0.49051,0.22073 -0.49051,0.49051zM543.48563,313.99554v1.96205c0,0.35971 -0.29431,0.65402 -0.65402,0.65402h-19.62054c-0.35971,0 -0.65402,-0.29431 -0.65402,-0.65402v-1.96205c0,-0.72351 0.58453,-1.30804 1.30804,-1.30804h18.3125c0.72351,0 1.30804,0.58453 1.30804,1.30804z" fill="#ffffff" stroke="none" stroke-width="1"/></g></g></svg>