<svg version="1.1" xmlns="http://www.w3.org/2000/svg" xmlns:xlink="http://www.w3.org/1999/xlink" width="133.66668" height="40" viewBox="0,0,133.66668,40"><g transform="translate(-173.16666,-160)"><g data-paper-data="{&quot;isPaintingLayer&quot;:true}" fill-rule="nonzero" stroke="#ffffff" stroke-width="0" stroke-linecap="butt" stroke-linejoin="miter" stroke-miterlimit="10" stroke-dasharray="" stroke-dashoffset="0" style="mix-blend-mode: normal"><g><path d="M173.16666,200v-40c0,0 38.95258,0 47,0c0.51656,0 1.07334,1.16666 1.66667,1.16666c7.3687,0 24.37547,0 36,0c0.44662,0 0.89119,-1.16666 1.33333,-1.16666c9.08175,0 42.13466,0 45.70834,0c1.25566,0 1.95834,0.82496 1.95834,2.125c0,3.74879 0,11.44794 0,14.70833c0,0.13121 -0.625,0.52567 -0.625,1.04167c0,0.72443 0,1.68844 0,2.5c0,0.44098 0.625,0.83694 0.625,1.125c0,5.46943 0,12.3681 0,16c0,1.54594 -1.0119,2.5 -2.33334,2.5c-7.45845,0 -131.33334,0 -131.33334,0z" fill="#303030"/><text transform="translate(179.12556,173.76659) scale(0.23854,0.23854)" font-size="40" xml:space="preserve" fill="#e8e8e8" fill-rule="nonzero" stroke="#ffffff" stroke-width="0" stroke-linecap="butt" stroke-linejoin="miter" stroke-miterlimit="10" stroke-dasharray="" stroke-dashoffset="0" font-family="Sans Serif" font-weight="normal" text-anchor="start" style="mix-blend-mode: normal"><tspan x="0" dy="0">可建造</tspan></text><text transform="translate(180.45002,182.23765) scale(0.1125,0.1125)" font-size="40" xml:space="preserve" fill="#9c9c9c" fill-rule="nonzero" stroke="#ffffff" stroke-width="0" stroke-linecap="butt" stroke-linejoin="miter" stroke-miterlimit="10" stroke-dasharray="" stroke-dashoffset="0" font-family="Sans Serif" font-weight="normal" text-anchor="start" style="mix-blend-mode: normal"><tspan x="0" dy="0">自定义设施</tspan></text></g></g></g></svg>