<svg version="1.1" xmlns="http://www.w3.org/2000/svg" xmlns:xlink="http://www.w3.org/1999/xlink" width="667" height="378" viewBox="0,0,667,378"><defs><linearGradient x1="347.25" y1="269.49998" x2="347.25" y2="335.49998" gradientUnits="userSpaceOnUse" id="color-1"><stop offset="0" stop-color="#5a5a5a"/><stop offset="1" stop-color="#868686"/></linearGradient></defs><g transform="translate(11,11.83334)"><g data-paper-data="{&quot;isPaintingLayer&quot;:true}" fill-rule="nonzero" stroke-linecap="butt" stroke-linejoin="miter" stroke-miterlimit="10" stroke-dasharray="" stroke-dashoffset="0" style="mix-blend-mode: normal"><path d="M-10,365.16667v-376h665v376z" fill="#c5c5c5" stroke="#000000" stroke-width="2"/><path d="M117.5,340.66667v-268h141v268z" fill-opacity="0.48235" fill="#000000" stroke="#000000" stroke-width="0"/><path d="M114.5,334.66666v-268h137v268z" fill="#2d2d2d" stroke="#000000" stroke-width="0"/><path d="M114.5,334.49998v-37h137.5v37z" fill="#868686" stroke="none" stroke-width="0"/><text transform="translate(156,325.18496) scale(0.63535,0.63535)" font-size="40" xml:space="preserve" fill="#c5c5c5" fill-rule="nonzero" stroke="none" stroke-width="1" stroke-linecap="butt" stroke-linejoin="miter" stroke-miterlimit="10" stroke-dasharray="" stroke-dashoffset="0" font-family="Sans Serif" font-weight="normal" text-anchor="start" style="mix-blend-mode: normal"><tspan x="0" dy="0">edit</tspan></text><path d="M108.5,80.49998v-20.5h57.77273v20.5z" fill="#505050" stroke="none" stroke-width="0"/><text transform="translate(124,74.02381) scale(0.28125,0.28125)" font-size="40" xml:space="preserve" fill="#dadada" fill-rule="nonzero" stroke="none" stroke-width="1" stroke-linecap="butt" stroke-linejoin="miter" stroke-miterlimit="10" stroke-dasharray="" stroke-dashoffset="0" font-family="Sans Serif" font-weight="normal" text-anchor="start" style="mix-blend-mode: normal"><tspan x="0" dy="0">编队</tspan></text><path d="M281.5,341.66667v-268h141v268z" fill-opacity="0.48235" fill="#000000" stroke="#000000" stroke-width="0"/><path d="M278.5,335.66667v-268h137v268z" fill="#2d2d2d" stroke="#000000" stroke-width="0"/><path d="M278.5,335.49998v-66h137.5v66z" fill="url(#color-1)" stroke="none" stroke-width="0"/><text transform="translate(290,308.43496) scale(0.31033,0.31033)" font-size="40" xml:space="preserve" fill="#c5c5c5" fill-rule="nonzero" stroke="none" stroke-width="1" stroke-linecap="butt" stroke-linejoin="miter" stroke-miterlimit="10" stroke-dasharray="" stroke-dashoffset="0" font-family="Sans Serif" font-weight="normal" text-anchor="start" style="mix-blend-mode: normal"><tspan x="0" dy="0">选择帮助战斗将不会</tspan><tspan x="0" dy="46.150000000000006px">解锁代理作战</tspan></text><path d="M272.5,81.49998v-20.5h57.77272v20.5z" fill="#505050" stroke="none" stroke-width="0"/><text transform="translate(288,75.02382) scale(0.28125,0.28125)" font-size="40" xml:space="preserve" fill="#dadada" fill-rule="nonzero" stroke="none" stroke-width="1" stroke-linecap="butt" stroke-linejoin="miter" stroke-miterlimit="10" stroke-dasharray="" stroke-dashoffset="0" font-family="Sans Serif" font-weight="normal" text-anchor="start" style="mix-blend-mode: normal"><tspan x="0" dy="0">助战</tspan></text><path d="M438.5,306.66666v-56.33095h141v56.33095z" fill-opacity="0.48235" fill="#000000" stroke="#000000" stroke-width="0"/><path d="M435.5,301.55821v-59.64454h137.5v59.64454z" fill="#868686" stroke="none" stroke-width="0"/><path d="M437.5,236.25298v-56.33095h141v56.33095z" fill-opacity="0.48235" fill="#000000" stroke="#000000" stroke-width="0"/><path d="M434.5,231.14452v-59.64454h137.5v59.64454z" fill="#868686" stroke="none" stroke-width="0"/><path d="M289.25,284.99998c0,-4.97057 4.02944,-9 9,-9c4.97056,0 9,4.02943 9,9c0,4.97057 -4.02944,9 -9,9c-4.97056,0 -9,-4.02943 -9,-9z" fill-opacity="0.48235" fill="#2e2e2e" stroke="none" stroke-width="0"/><text transform="translate(448.5,185.80961) scale(0.22545,0.22545)" font-size="40" xml:space="preserve" fill="#c5c5c5" fill-rule="nonzero" stroke="none" stroke-width="1" stroke-linecap="butt" stroke-linejoin="miter" stroke-miterlimit="10" stroke-dasharray="" stroke-dashoffset="0" font-family="Sans Serif" font-weight="normal" text-anchor="start" style="mix-blend-mode: normal"><tspan x="0" dy="0">消耗演习券x1</tspan></text><text transform="translate(477.5,215.33332) scale(0.5,0.5)" font-size="40" xml:space="preserve" fill="#c5c5c5" fill-rule="nonzero" stroke="none" stroke-width="1" stroke-linecap="butt" stroke-linejoin="miter" stroke-miterlimit="10" stroke-dasharray="" stroke-dashoffset="0" font-family="Pixel" font-weight="normal" text-anchor="start" style="mix-blend-mode: normal"><tspan x="0" dy="0">演习</tspan></text><text transform="translate(447,98.79614) scale(0.84992,0.84992)" font-size="40" xml:space="preserve" fill="#000000" fill-rule="nonzero" stroke="#000000" stroke-width="2" stroke-linecap="butt" stroke-linejoin="miter" stroke-miterlimit="10" stroke-dasharray="" stroke-dashoffset="0" font-family="Malgun Gothic" font-weight="normal" text-anchor="start" style="mix-blend-mode: normal"><tspan x="0" dy="0">EX 5-1</tspan></text><text transform="translate(448,128.9455) scale(0.41657,0.41657)" font-size="40" xml:space="preserve" fill="#000000" fill-rule="nonzero" stroke="none" stroke-width="1" stroke-linecap="butt" stroke-linejoin="miter" stroke-miterlimit="10" stroke-dasharray="" stroke-dashoffset="0" font-family="Malgun Gothic" font-weight="normal" text-anchor="start" style="mix-blend-mode: normal"><tspan x="0" dy="0">难度:</tspan><tspan x="0" dy="46.150000000000006px">体力消耗:10</tspan></text><path d="M287.75,283.99998c0,-4.97056 4.02944,-9 9,-9c4.97056,0 9,4.02944 9,9c0,4.97056 -4.02944,9 -9,9c-4.97056,0 -9,-4.02944 -9,-9z" fill="#2d2d2d" stroke="none" stroke-width="0"/><text transform="translate(291.945,288.49998) scale(0.875,0.36999)" font-size="40" xml:space="preserve" fill="#c5c5c5" fill-rule="nonzero" stroke="none" stroke-width="1" stroke-linecap="butt" stroke-linejoin="miter" stroke-miterlimit="10" stroke-dasharray="" stroke-dashoffset="0" font-family="Sans Serif" font-weight="normal" text-anchor="start" style="mix-blend-mode: normal"><tspan x="0" dy="0">!</tspan></text><text transform="translate(496,127.23687) scale(0.30834,0.30834)" font-size="40" xml:space="preserve" fill="#000000" fill-rule="nonzero" stroke="none" stroke-width="1" stroke-linecap="butt" stroke-linejoin="miter" stroke-miterlimit="10" stroke-dasharray="" stroke-dashoffset="0" font-family="Malgun Gothic" font-weight="normal" text-anchor="start" style="mix-blend-mode: normal"><tspan x="0" dy="0">▲△△</tspan></text><text transform="translate(478,280.83331) scale(0.5,0.5)" font-size="40" xml:space="preserve" fill="#c5c5c5" fill-rule="nonzero" stroke="none" stroke-width="1" stroke-linecap="butt" stroke-linejoin="miter" stroke-miterlimit="10" stroke-dasharray="" stroke-dashoffset="0" font-family="Pixel" font-weight="normal" text-anchor="start" style="mix-blend-mode: normal"><tspan x="0" dy="0">行动  &gt;</tspan></text></g></g></svg>