<svg version="1.1" xmlns="http://www.w3.org/2000/svg" xmlns:xlink="http://www.w3.org/1999/xlink" width="141" height="27.83095" viewBox="0,0,141,27.83095"><g transform="translate(-358.5,-313.33573)"><g data-paper-data="{&quot;isPaintingLayer&quot;:true}" fill-rule="nonzero" stroke-linecap="butt" stroke-linejoin="miter" stroke-miterlimit="10" stroke-dasharray="" stroke-dashoffset="0" style="mix-blend-mode: normal"><path d="M358.5,341.16668v-27.83095h141v27.83095z" fill-opacity="0.48235" fill="#000000" stroke="#000000" stroke-width="0"/><text transform="translate(397.5,331.69297) scale(0.30357,0.30357)" font-size="40" xml:space="preserve" fill="#b9b9b9" fill-rule="nonzero" stroke="none" stroke-width="1" stroke-linecap="butt" stroke-linejoin="miter" stroke-miterlimit="10" stroke-dasharray="" stroke-dashoffset="0" font-family="Sans Serif" font-weight="normal" text-anchor="start" style="mix-blend-mode: normal"><tspan x="0" dy="0">使用PRTS代理</tspan></text><path d="M368.5,333.99183v-14h14v14z" fill="#b9b9b9" stroke="none" stroke-width="0"/><path d="M380.3631,324.13417l-6.33719,6.3719c-0.33904,0.34095 -0.85276,0.40137 -1.25468,0.182c-0.01759,-0.00942 -0.03453,-0.02005 -0.05173,-0.03038c-0.00888,-0.0056 -0.01777,-0.01063 -0.02647,-0.0163c-0.06572,-0.04275 -0.12817,-0.09274 -0.18503,-0.15161l-2.00104,-2.07162c-0.40531,-0.41969 -0.39379,-1.08851 0.026,-1.49391c0.41952,-0.40522 1.08823,-0.3936 1.49364,0.02609l1.25936,1.30366l5.57939,-5.60979c0.41145,-0.41374 1.08026,-0.41558 1.49373,-0.00421c0.41383,0.41154 0.41558,1.08036 0.00402,1.49419z" fill="#3cf300" stroke="none" stroke-width="0.59874"/></g></g></svg>