<svg version="1.1" xmlns="http://www.w3.org/2000/svg" xmlns:xlink="http://www.w3.org/1999/xlink" width="183.98165" height="176.81056" viewBox="0,0,183.98165,176.81056"><g transform="translate(-285.26835,80.50002)"><g data-paper-data="{&quot;isPaintingLayer&quot;:true}" fill-rule="nonzero" stroke-linecap="butt" stroke-linejoin="miter" stroke-miterlimit="10" stroke-dasharray="" stroke-dashoffset="0" style="mix-blend-mode: normal"><path d="M327.25,86.90365v-28.5h142v28.5z" fill-opacity="0.38824" fill="#000000" stroke="none" stroke-width="0"/><path d="M336.16896,83.43882v-27.98166h130.58104v27.98166z" fill="#313131" stroke="#000000" stroke-width="0"/><path d="M286.26835,68.04891c0,-14.93872 12.11021,-27.04893 27.04893,-27.04893c14.93872,0 27.04893,12.11022 27.04893,27.04893c0,14.93872 -12.11022,27.04893 -27.04893,27.04893c-14.93872,0 -27.04893,-12.11021 -27.04893,-27.04893z" fill="#313131" stroke="#e0e0e0" stroke-width="2"/><text transform="translate(444.09831,81.44658) scale(0.69176,0.69176)" font-size="40" xml:space="preserve" fill="#b5b5b5" fill-rule="nonzero" stroke="none" stroke-width="1" stroke-linecap="butt" stroke-linejoin="miter" stroke-miterlimit="10" stroke-dasharray="" stroke-dashoffset="0" font-family="Sans Serif" font-weight="normal" text-anchor="start" style="mix-blend-mode: normal"><tspan x="0" dy="0">+</tspan></text><text transform="translate(348.29435,66.94969) scale(0.19111,0.19111)" font-size="40" xml:space="preserve" fill="#b5b5b5" fill-rule="nonzero" stroke="none" stroke-width="1" stroke-linecap="butt" stroke-linejoin="miter" stroke-miterlimit="10" stroke-dasharray="" stroke-dashoffset="0" font-family="Sans Serif" font-weight="normal" text-anchor="start" style="mix-blend-mode: normal"><tspan x="0" dy="0">EXP</tspan></text><path d="M337.26835,-52.45109c0,-14.93871 12.11021,-27.04893 27.04893,-27.04893c14.93872,0 27.04893,12.11022 27.04893,27.04893c0,14.93872 -12.11022,27.04893 -27.04893,27.04893c-14.93872,0 -27.04893,-12.11021 -27.04893,-27.04893z" fill="none" stroke="#e08300" stroke-width="2"/><path d="M314.28446,95.29696c-12.5765,0.39992 -24.12222,-8.06533 -27.14674,-20.78348c-3.45621,-14.5334 5.52363,-29.11686 20.05704,-32.57306c13.77347,-3.27548 27.59188,4.61854 31.94123,17.82376" fill="none" stroke="#e08300" stroke-width="2"/></g></g></svg>