<svg version="1.1" xmlns="http://www.w3.org/2000/svg" xmlns:xlink="http://www.w3.org/1999/xlink" width="579" height="474" viewBox="0,0,579,474"><defs><linearGradient x1="52.23699" y1="311.6599" x2="163.57226" y2="311.6599" gradientUnits="userSpaceOnUse" id="color-1"><stop offset="0" stop-color="#4a4a4a"/><stop offset="1" stop-color="#744134"/></linearGradient></defs><g transform="translate(67,59.66669)"><g data-paper-data="{&quot;isPaintingLayer&quot;:true}" fill-rule="nonzero" stroke-linecap="butt" stroke-linejoin="miter" stroke-miterlimit="10" stroke-dasharray="" stroke-dashoffset="0" style="mix-blend-mode: normal"><path d="M-26,414.33331v-474h525v474z" fill="#dedede" stroke="none" stroke-width="0"/><path d="M51,255.89401c0,-18.2423 0,-124.1132 0,-153.01734c0,-6.17897 5.0222,-11.6474 13.43931,-11.6474c39.55871,0 154.10468,0 174.71099,0c6.21788,0 11.6474,6.09932 11.6474,12.54336c0,17.85819 0,126.58549 0,155.7052c0,6.18007 -2.86333,9.85549 -10.75144,9.85549c-23.35179,0 -143.709,0 -179.19075,0c-6.24048,0 -9.85549,-6.59525 -9.85549,-13.43931z" fill="#dedede" stroke="#000000" stroke-width="2"/><path d="M264.23699,131.54719c0,-18.2423 0,-0.66233 0,-29.56647c0,-6.17897 5.02219,-11.6474 13.43931,-11.6474c39.55872,0 123.64225,0 144.24855,0c6.21789,0 11.6474,6.09932 11.6474,12.54336c0,17.85819 0,3.13463 0,32.25433c0,6.18007 -2.86332,9.85549 -10.75144,9.85549c-23.35179,0 -113.24657,0 -148.72832,0c-6.24048,0 -9.85549,-6.59525 -9.85549,-13.4393z" fill="#4a4a4a" stroke="none" stroke-width="0"/><path d="M265.23699,194.54719c0,-18.2423 0,-0.66233 0,-29.56647c0,-6.17897 5.02219,-11.6474 13.43931,-11.6474c39.55872,0 123.64225,0 144.24855,0c6.21789,0 11.6474,6.09932 11.6474,12.54335c0,17.85819 0,3.13463 0,32.25433c0,6.18007 -2.86332,9.85549 -10.75144,9.85549c-23.35179,0 -113.24657,0 -148.72832,0c-6.24048,0 -9.85549,-6.59525 -9.85549,-13.4393z" fill="#4a4a4a" stroke="none" stroke-width="0"/><path d="M264.23699,257.54719c0,-18.2423 0,-0.66233 0,-29.56647c0,-6.17897 5.02219,-11.6474 13.43931,-11.6474c39.55872,0 123.64225,0 144.24855,0c6.21789,0 11.6474,6.09932 11.6474,12.54335c0,17.85819 0,3.13463 0,32.25433c0,6.18007 -2.86332,9.85549 -10.75144,9.85549c-23.35179,0 -113.24657,0 -148.72832,0c-6.24048,0 -9.85549,-6.59525 -9.85549,-13.4393z" fill="#4a4a4a" stroke="none" stroke-width="0"/><path d="M52.23699,325.54719c0,-18.2423 0,-0.66233 0,-29.56647c0,-6.17897 5.02219,-11.6474 13.43931,-11.6474c39.55872,0 65.64225,0 86.24855,0c6.21789,0 11.6474,6.09932 11.6474,12.54336c0,17.8582 0,3.13463 0,32.25433c0,6.18007 -2.86333,9.85549 -10.75144,9.85549c-23.35179,0 -55.24657,0 -90.72833,0c-6.24048,0 -9.85549,-6.59525 -9.85549,-13.4393z" fill="url(#color-1)" stroke="#000000" stroke-width="2"/><path d="M175,385.33331v-94h71v94z" fill-opacity="0.27451" fill="#000000" stroke="none" stroke-width="0"/><path d="M266,391.33331v-101h166v101z" fill-opacity="0.27451" fill="#000000" stroke="none" stroke-width="0"/><path d="M455,373.33331v-106h57v106z" fill-opacity="0.27451" fill="#000000" stroke="none" stroke-width="0"/><path d="M456,241.33331v-266h54v266z" fill-opacity="0.27451" fill="#000000" stroke="none" stroke-width="0"/><path d="M262,70.33331v-79h168v79z" fill-opacity="0.27451" fill="#000000" stroke="none" stroke-width="0"/><path d="M-28,67.33331v-90h155v90z" fill-opacity="0.27451" fill="#000000" stroke="none" stroke-width="0"/><path d="M140,67.33331v-92h106v92z" fill-opacity="0.27451" fill="#000000" stroke="none" stroke-width="0"/><path d="M-67,215.33331v-125h97v125z" fill-opacity="0.27451" fill="#000000" stroke="none" stroke-width="0"/><path d="M-66,367.33331v-132h94v132z" fill-opacity="0.27451" fill="#000000" stroke="none" stroke-width="0"/><path d="M51,386.33331v-33h115v33z" fill-opacity="0.27451" fill="#000000" stroke="none" stroke-width="0"/><path d="M50,252.33331v-38h199v38z" fill-opacity="0.27451" fill="#000000" stroke="none" stroke-width="0"/><text transform="translate(86,236.33331) scale(0.5,0.5)" font-size="40" xml:space="preserve" fill="#ffffff" fill-rule="nonzero" stroke="none" stroke-width="1" stroke-linecap="butt" stroke-linejoin="miter" stroke-miterlimit="10" stroke-dasharray="" stroke-dashoffset="0" font-family="Sans Serif" font-weight="normal" text-anchor="start" style="mix-blend-mode: normal"><tspan x="0" dy="0">关系网</tspan></text><text transform="translate(285,127.33331) scale(0.5,0.5)" font-size="40" xml:space="preserve" fill="#ffffff" fill-rule="nonzero" stroke="none" stroke-width="1" stroke-linecap="butt" stroke-linejoin="miter" stroke-miterlimit="10" stroke-dasharray="" stroke-dashoffset="0" font-family="Sans Serif" font-weight="normal" text-anchor="start" style="mix-blend-mode: normal"><tspan x="0" dy="0">时装回廊</tspan></text><text transform="translate(284,192.33331) scale(0.5,0.5)" font-size="40" xml:space="preserve" fill="#ffffff" fill-rule="nonzero" stroke="none" stroke-width="1" stroke-linecap="butt" stroke-linejoin="miter" stroke-miterlimit="10" stroke-dasharray="" stroke-dashoffset="0" font-family="Sans Serif" font-weight="normal" text-anchor="start" style="mix-blend-mode: normal"><tspan x="0" dy="0">情报科</tspan></text><text transform="translate(284,253.33331) scale(0.5,0.5)" font-size="40" xml:space="preserve" fill="#ffffff" fill-rule="nonzero" stroke="none" stroke-width="1" stroke-linecap="butt" stroke-linejoin="miter" stroke-miterlimit="10" stroke-dasharray="" stroke-dashoffset="0" font-family="Sans Serif" font-weight="normal" text-anchor="start" style="mix-blend-mode: normal"><tspan x="0" dy="0">光荣之路</tspan></text><text transform="translate(66,315.33331) scale(0.5,0.5)" font-size="40" xml:space="preserve" fill="#ffffff" fill-rule="nonzero" stroke="none" stroke-width="1" stroke-linecap="butt" stroke-linejoin="miter" stroke-miterlimit="10" stroke-dasharray="" stroke-dashoffset="0" font-family="Sans Serif" font-weight="normal" text-anchor="start" style="mix-blend-mode: normal"><tspan x="0" dy="0">敌方档案</tspan></text></g></g></svg>