<svg version="1.1" xmlns="http://www.w3.org/2000/svg" xmlns:xlink="http://www.w3.org/1999/xlink" width="21.14775" height="22.0911" viewBox="0,0,21.14775,22.0911"><g transform="translate(-12.43034,-12.00984)"><g data-paper-data="{&quot;isPaintingLayer&quot;:true}" fill="#ffffff" fill-rule="nonzero" stroke="none" stroke-width="1" stroke-linecap="butt" stroke-linejoin="miter" stroke-miterlimit="10" stroke-dasharray="" stroke-dashoffset="0" style="mix-blend-mode: normal"><path d="M33.55739,26.33787c-0.49438,1.59002 -1.33615,3.02415 -2.43625,4.21333c-0.16925,0.18706 -0.44092,0.22714 -0.65917,0.10243l-1.89733,-1.09565c-0.80169,0.68144 -1.71918,1.21144 -2.70794,1.5633v2.19129c0,0.24942 -0.1737,0.46765 -0.41867,0.5211c-1.55439,0.3474 -3.22902,0.36521 -4.86359,0c-0.24496,-0.05345 -0.41867,-0.27168 -0.41867,-0.5211v-2.19129c-0.9932,-0.3474 -1.9107,-0.8774 -2.70794,-1.5633l-1.89733,1.09565c-0.21378,0.12471 -0.48992,0.08017 -0.65917,-0.10243c-1.1001,-1.19362 -1.94187,-2.62776 -2.43625,-4.21333c-0.07126,-0.2405 0.02672,-0.49883 0.24496,-0.62354l1.89733,-1.09565c-0.19152,-1.03329 -0.19152,-2.0933 0,-3.12659l-1.89733,-1.09565c-0.21824,-0.12471 -0.32068,-0.38303 -0.24496,-0.62354c0.49438,-1.59002 1.33615,-3.02415 2.43625,-4.21333c0.16925,-0.18706 0.44092,-0.22714 0.65917,-0.10243l1.89288,1.09565c0.80169,-0.68144 1.71918,-1.21144 2.70794,-1.5633v-2.19129c0,-0.24942 0.1737,-0.46765 0.41867,-0.5211c1.55439,-0.3474 3.22902,-0.36521 4.86359,0c0.24496,0.05345 0.41867,0.27168 0.41867,0.5211v2.18684c0.9932,0.3474 1.9107,0.8774 2.70794,1.5633l1.89733,-1.09565c0.21378,-0.12471 0.48992,-0.08017 0.65917,0.10243c1.1001,1.19362 1.94187,2.62776 2.43625,4.21333c0.07126,0.2405 -0.02672,0.49883 -0.24496,0.62354l-1.89733,1.09565c0.19152,1.03329 0.19152,2.0933 0,3.12659l1.89733,1.09565c0.21824,0.12471 0.31622,0.38303 0.24942,0.62798zM26.56487,23.05094c0,-1.96414 -1.59892,-3.56306 -3.56306,-3.56306c-1.96414,0 -3.56306,1.59892 -3.56306,3.56306c0,1.96414 1.59892,3.56306 3.56306,3.56306c1.96414,0 3.56306,-1.59892 3.56306,-3.56306z"/></g></g></svg>