<svg version="1.1" xmlns="http://www.w3.org/2000/svg" xmlns:xlink="http://www.w3.org/1999/xlink" width="24.25012" height="21.55565" viewBox="0,0,24.25012,21.55565"><g transform="translate(-77.99971,-12.44434)"><g data-paper-data="{&quot;isPaintingLayer&quot;:true}" fill="#ffffff" fill-rule="nonzero" stroke="none" stroke-width="1" stroke-linecap="butt" stroke-linejoin="miter" stroke-miterlimit="10" stroke-dasharray="" stroke-dashoffset="0" style="mix-blend-mode: normal"><path d="M101.97689,30.96927c0.7771,1.34698 -0.19834,3.03072 -1.75043,3.03072h-20.20362c-1.55508,0 -2.52601,-1.68635 -1.75043,-3.03072l10.10194,-17.51514c0.77748,-1.34761 2.72477,-1.34516 3.50085,0zM90.12478,27.34805c-1.06957,0 -1.93664,0.86707 -1.93664,1.93664c0,1.06957 0.86707,1.93664 1.93664,1.93664c1.06957,0 1.93664,-0.86707 1.93664,-1.93664c0,-1.06957 -0.86707,-1.93664 -1.93664,-1.93664zM88.28611,20.38684l0.31231,5.72572c0.01461,0.26793 0.23615,0.47768 0.50445,0.47768h2.04383c0.26831,0 0.48984,-0.20975 0.50445,-0.47768l0.31231,-5.72572c0.01579,-0.2894 -0.21463,-0.53274 -0.50445,-0.53274h-2.66848c-0.28982,0 -0.5202,0.24334 -0.50441,0.53274z"/></g></g></svg>