<svg version="1.1" xmlns="http://www.w3.org/2000/svg" xmlns:xlink="http://www.w3.org/1999/xlink" width="435.125" height="263.99337" viewBox="0,0,435.125,263.99337"><g transform="translate(-12.25,-63.50007)"><g data-paper-data="{&quot;isPaintingLayer&quot;:true}" fill-rule="nonzero" stroke="none" stroke-linecap="butt" stroke-linejoin="miter" stroke-miterlimit="10" stroke-dasharray="" stroke-dashoffset="0" style="mix-blend-mode: normal"><path d="M40.375,327.49345v-227.62887h115v227.62887z" fill="#313131" stroke-width="0"/><path d="M167.375,221.49345v-121.62886h280v121.62886z" fill="#313131" stroke-width="0"/><path d="M447.375,230.49345v94.37114h-280v-94.37114z" fill="#313131" stroke-width="0"/><path d="M12.25,106.50008v-43h105v43z" fill-opacity="0.4902" fill="#3d3d3d" stroke-width="0"/><text transform="translate(33.75,89.19757) scale(0.34876,0.34876)" font-size="40" xml:space="preserve" fill="#ffffff" fill-rule="nonzero" stroke="none" stroke-width="1" stroke-linecap="butt" stroke-linejoin="miter" stroke-miterlimit="10" stroke-dasharray="" stroke-dashoffset="0" font-family="Pixel" font-weight="normal" text-anchor="start" style="mix-blend-mode: normal"><tspan x="0" dy="0">发电站</tspan></text><path d="M15.80419,105.06254c0,0 0,-10.34837 0,-18.125c0,-0.33856 0.5,-0.67225 0.5,-1c0,-1.07671 0,-2.08931 0,-3c0,-0.39522 -0.5,-0.77125 -0.5,-1.125c0,-6.04001 0,-16.75 0,-16.75h7.66667c0,0 0,9.10118 0,16.375c0,0.46682 -0.5,0.92612 -0.5,1.375c0,0.92803 0,1.81154 0,2.625c0,0.48504 0.5,0.94518 0.5,1.375c0,6.34999 0,18.25 0,18.25z" fill="#cdff62" stroke-width="0"/><text transform="translate(65.375,153.86459) scale(0.5,0.5)" font-size="40" xml:space="preserve" fill="#f1f1f1" fill-rule="nonzero" stroke="none" stroke-width="1" stroke-linecap="butt" stroke-linejoin="miter" stroke-miterlimit="10" stroke-dasharray="" stroke-dashoffset="0" font-family="Pixel" font-weight="normal" text-anchor="start" style="mix-blend-mode: normal"><tspan x="0" dy="0">发电量</tspan></text><text transform="translate(73.375,236.11459) scale(0.9117,0.9117)" font-size="40" xml:space="preserve" fill="#f1f1f1" fill-rule="nonzero" stroke="none" stroke-width="1" stroke-linecap="butt" stroke-linejoin="miter" stroke-miterlimit="10" stroke-dasharray="" stroke-dashoffset="0" font-family="Pixel" font-weight="normal" text-anchor="start" style="mix-blend-mode: normal"><tspan x="0" dy="0">50</tspan></text><text transform="translate(119.375,259.86459) scale(0.5,0.5)" font-size="40" xml:space="preserve" fill="#a9a9a9" fill-rule="nonzero" stroke="none" stroke-width="1" stroke-linecap="butt" stroke-linejoin="miter" stroke-miterlimit="10" stroke-dasharray="" stroke-dashoffset="0" font-family="Pixel" font-weight="normal" text-anchor="start" style="mix-blend-mode: normal"><tspan x="0" dy="0">EN</tspan></text><text transform="translate(68.12332,238.76513) scale(2.81041,2.81041)" font-size="40" xml:space="preserve" fill="#777777" fill-rule="nonzero" stroke="none" stroke-width="1" stroke-linecap="butt" stroke-linejoin="miter" stroke-miterlimit="10" stroke-dasharray="" stroke-dashoffset="0" font-family="Sans Serif" font-weight="normal" text-anchor="start" style="mix-blend-mode: normal"><tspan x="0" dy="0">DEMO</tspan></text></g></g></svg>