<svg version="1.1" xmlns="http://www.w3.org/2000/svg" xmlns:xlink="http://www.w3.org/1999/xlink" width="527" height="426.66666" viewBox="0,0,527,426.66666"><g transform="translate(17.5,11.83332)"><g data-paper-data="{&quot;isPaintingLayer&quot;:true}" fill-rule="nonzero" stroke-linejoin="miter" stroke-miterlimit="10" stroke-dasharray="" stroke-dashoffset="0" style="mix-blend-mode: normal"><path d="M-7.5,365.16669v-376h497v376z" fill="#c5c5c5" stroke="#111111" stroke-width="2" stroke-linecap="butt"/><path d="M53.5,271.83334v-190h355v190z" fill="#9966ff" stroke="none" stroke-width="none" stroke-linecap="butt"/><path d="M-17.5,414.83334v-136h527v136z" fill="#ffffff" stroke="none" stroke-width="0" stroke-linecap="butt"/><text transform="translate(156.5,177.83334) scale(0.5,0.5)" font-size="40" xml:space="preserve" fill="#ffffff" fill-rule="nonzero" stroke="none" stroke-width="1" stroke-linecap="butt" stroke-linejoin="miter" stroke-miterlimit="10" stroke-dasharray="" stroke-dashoffset="0" font-family="Sans Serif" font-weight="normal" text-anchor="start" style="mix-blend-mode: normal"><tspan x="0" dy="0">MAP</tspan></text><path d="M249.5,348.83334v-54h210v54z" fill-opacity="0.48235" fill="#000000" stroke="none" stroke-width="0" stroke-linecap="butt"/><text transform="translate(317.5,326.83334) scale(0.5,0.5)" font-size="40" xml:space="preserve" fill-opacity="0.50196" fill="#000000" fill-rule="nonzero" stroke="none" stroke-width="1" stroke-linecap="butt" stroke-linejoin="miter" stroke-miterlimit="10" stroke-dasharray="" stroke-dashoffset="0" font-family="Sans Serif" font-weight="normal" text-anchor="start" style="mix-blend-mode: normal"><tspan x="0" dy="0">我的编队</tspan></text><path d="M10.5,312.36388v-27.59281h135v27.59281z" fill-opacity="0.48235" fill="#000000" stroke="none" stroke-width="0" stroke-linecap="butt"/><text transform="translate(49.81138,303.93873) scale(0.40419,0.40419)" font-size="40" xml:space="preserve" fill-opacity="0.48235" fill="#000000" fill-rule="nonzero" stroke="none" stroke-width="1" stroke-linecap="butt" stroke-linejoin="miter" stroke-miterlimit="10" stroke-dasharray="" stroke-dashoffset="0" font-family="Sans Serif" font-weight="normal" text-anchor="start" style="mix-blend-mode: normal"><tspan x="0" dy="0">对方编队</tspan></text><path d="M10,320.00002c0,0 183.52551,0 205.5,0c4.19801,0 7.55702,3.10052 7.63256,7.48911c0.14813,8.60657 0.36744,36.01089 0.36744,36.01089l-213.5,-1z" fill-opacity="0.4902" fill="#000000" stroke="none" stroke-width="0" stroke-linecap="butt"/><text transform="translate(24,347.65265) scale(0.21795,0.21795)" font-size="40" xml:space="preserve" fill="#ffffff" fill-rule="nonzero" stroke="none" stroke-width="1" stroke-linecap="butt" stroke-linejoin="miter" stroke-miterlimit="10" stroke-dasharray="" stroke-dashoffset="0" font-family="Sans Serif" font-weight="normal" text-anchor="start" style="mix-blend-mode: normal"><tspan x="0" dy="0">对方: 内部资料,请勿外传</tspan></text><path d="M7,329.64288c0,-2.64416 0,-12.14286 0,-12.14286c0,0 30.54482,0 38.39286,0c1.49929,0 2.69894,1.10733 2.72591,2.67468c0.0529,3.07378 0.13123,7.91681 0.13123,9.64675c0,1.21788 -1.0112,2.67857 -2.5,2.67857c-11.72053,0 -29.10793,0 -36.07143,0c-1.49929,0 -2.67857,-1.57454 -2.67857,-2.85714z" fill-opacity="0.4902" fill="#000000" stroke="none" stroke-width="0" stroke-linecap="butt"/><text transform="translate(14.5,328.75002) scale(0.26165,0.26165)" font-size="40" xml:space="preserve" fill-opacity="0.4902" fill="#eaeaea" fill-rule="nonzero" stroke="none" stroke-width="1" stroke-linecap="butt" stroke-linejoin="miter" stroke-miterlimit="10" stroke-dasharray="" stroke-dashoffset="0" font-family="Sans Serif" font-weight="normal" text-anchor="start" style="mix-blend-mode: normal"><tspan x="0" dy="0">chat</tspan></text><text transform="translate(174.5,353.33335) scale(0.23998,0.23998)" font-size="40" xml:space="preserve" fill-opacity="0.55686" fill="#000000" fill-rule="nonzero" stroke="none" stroke-width="1" stroke-linecap="butt" stroke-linejoin="miter" stroke-miterlimit="10" stroke-dasharray="" stroke-dashoffset="0" font-family="Sans Serif" font-weight="normal" text-anchor="start" style="mix-blend-mode: normal"><tspan x="0" dy="0">点击回复</tspan></text><path d="M213,356.83335h-37.5" fill="none" stroke-opacity="0.62745" stroke="#000000" stroke-width="0.5" stroke-linecap="round"/></g></g></svg>