<svg version="1.1" xmlns="http://www.w3.org/2000/svg" xmlns:xlink="http://www.w3.org/1999/xlink" width="44.84177" height="45.18221" viewBox="0,0,44.84177,45.18221"><g transform="translate(-10.79908,-9.05166)"><g data-paper-data="{&quot;isPaintingLayer&quot;:true}" fill-rule="nonzero" stroke="none" stroke-linecap="butt" stroke-linejoin="miter" stroke-miterlimit="10" stroke-dasharray="" stroke-dashoffset="0" style="mix-blend-mode: normal"><path d="M10.79908,54.23387v-45.18221h44.84177v45.18221z" fill="#000000" stroke-width="0" opacity="0.7"/><path d="M42.6862,34.63329c-0.47605,1.53106 -1.2866,2.91201 -2.34591,4.0571c-0.16297,0.18012 -0.42457,0.21872 -0.63473,0.09863l-1.82698,-1.05502c-0.77196,0.65617 -1.65543,1.16652 -2.60753,1.50533v2.11003c0,0.24017 -0.16726,0.45031 -0.40315,0.50178c-1.49675,0.33452 -3.10928,0.35167 -4.68324,0c-0.23588,-0.05147 -0.40315,-0.26161 -0.40315,-0.50178v-2.11003c-0.95637,-0.33452 -1.83985,-0.84487 -2.60753,-1.50533l-1.82698,1.05502c-0.20585,0.12009 -0.47175,0.0772 -0.63473,-0.09863c-1.05931,-1.14936 -1.86986,-2.53032 -2.34591,-4.0571c-0.06862,-0.23158 0.02573,-0.48033 0.23588,-0.60042l1.82698,-1.05502c-0.18442,-0.99497 -0.18442,-2.01568 0,-3.01065l-1.82698,-1.05502c-0.21015,-0.12009 -0.30879,-0.36883 -0.23588,-0.60042c0.47605,-1.53106 1.2866,-2.91201 2.34591,-4.0571c0.16297,-0.18012 0.42457,-0.21872 0.63473,-0.09863l1.82269,1.05502c0.77196,-0.65617 1.65543,-1.16652 2.60753,-1.50533v-2.11003c0,-0.24017 0.16726,-0.45031 0.40315,-0.50178c1.49675,-0.33452 3.10928,-0.35167 4.68324,0c0.23588,0.05147 0.40315,0.26161 0.40315,0.50178v2.10575c0.95637,0.33452 1.83985,0.84487 2.60753,1.50533l1.82698,-1.05502c0.20585,-0.12009 0.47175,-0.0772 0.63473,0.09863c1.05931,1.14936 1.86986,2.53032 2.34591,4.0571c0.06862,0.23158 -0.02573,0.48033 -0.23588,0.60042l-1.82698,1.05502c0.18442,0.99497 0.18442,2.01568 0,3.01065l1.82698,1.05502c0.21015,0.12009 0.30449,0.36883 0.24017,0.60469zM35.95297,31.46824c0,-1.89131 -1.53963,-3.43094 -3.43094,-3.43094c-1.89131,0 -3.43094,1.53963 -3.43094,3.43094c0,1.89131 1.53963,3.43094 3.43094,3.43094c1.89131,0 3.43094,-1.53963 3.43094,-3.43094z" fill="#ffffff" stroke-width="1"/></g></g></svg>