<svg version="1.1" xmlns="http://www.w3.org/2000/svg" xmlns:xlink="http://www.w3.org/1999/xlink" width="510" height="378" viewBox="0,0,510,378"><defs><linearGradient x1="234.75" y1="282.49998" x2="234.75" y2="335.49998" gradientUnits="userSpaceOnUse" id="color-1"><stop offset="0" stop-color="#5a5a5a"/><stop offset="1" stop-color="#468487"/></linearGradient></defs><g transform="translate(8.5,11.83332)"><g data-paper-data="{&quot;isPaintingLayer&quot;:true}" fill-rule="nonzero" stroke-linejoin="miter" stroke-miterlimit="10" stroke-dasharray="" stroke-dashoffset="0" style="mix-blend-mode: normal"><path d="M-7.5,365.16668v-376h497v376z" fill="#c5c5c5" stroke="#111111" stroke-width="2" stroke-linecap="butt"/><path d="M37.08117,340.66668v-268h121.31494v268z" fill-opacity="0.48235" fill="#000000" stroke="#000000" stroke-width="0" stroke-linecap="butt"/><path d="M34.5,334.66666v-268h117.87338v268z" fill="#2d2d2d" stroke="#000000" stroke-width="0" stroke-linecap="butt"/><path d="M178.18506,341.66668v-268h121.31494v268z" fill-opacity="0.48235" fill="#000000" stroke="#000000" stroke-width="0" stroke-linecap="butt"/><path d="M175.6039,335.66668v-268h117.87338v268z" fill="#2d2d2d" stroke="#000000" stroke-width="0" stroke-linecap="butt"/><path d="M358.5,340.66668v-41.74464h141v41.74464z" fill-opacity="0.48235" fill="#000000" stroke="#000000" stroke-width="0" stroke-linecap="butt"/><path d="M355.5,336.881v-44.20021h137.5v44.20021z" fill="#874444" stroke="none" stroke-width="0" stroke-linecap="butt"/><path d="M357.5,288.48587v-41.74464h141v41.74464z" fill-opacity="0.48235" fill="#000000" stroke="#000000" stroke-width="0" stroke-linecap="butt"/><path d="M354.5,284.70021v-44.20021h137.5v44.20021z" fill="#418784" stroke="none" stroke-width="0" stroke-linecap="butt"/><path d="M34.5,334.49998v-37h117.5v37z" fill="#868686" stroke="none" stroke-width="0" stroke-linecap="butt"/><text transform="translate(76,325.18496) scale(0.63535,0.63535)" font-size="40" xml:space="preserve" fill="#c5c5c5" fill-rule="nonzero" stroke="none" stroke-width="1" stroke-linecap="butt" stroke-linejoin="miter" stroke-miterlimit="10" stroke-dasharray="" stroke-dashoffset="0" font-family="Sans Serif" font-weight="normal" text-anchor="start" style="mix-blend-mode: normal"><tspan x="0" dy="0">edit</tspan></text><path d="M28.5,80.49998v-20.5h57.77273v20.5z" fill="#505050" stroke="none" stroke-width="0" stroke-linecap="butt"/><text transform="translate(44,74.02381) scale(0.28125,0.28125)" font-size="40" xml:space="preserve" fill="#dadada" fill-rule="nonzero" stroke="none" stroke-width="1" stroke-linecap="butt" stroke-linejoin="miter" stroke-miterlimit="10" stroke-dasharray="" stroke-dashoffset="0" font-family="Sans Serif" font-weight="normal" text-anchor="start" style="mix-blend-mode: normal"><tspan x="0" dy="0">我方</tspan></text><path d="M192.5,81.49998v-20.5h57.77272v20.5z" fill="#505050" stroke="none" stroke-width="0" stroke-linecap="butt"/><text transform="translate(208,75.02382) scale(0.28125,0.28125)" font-size="40" xml:space="preserve" fill="#dadada" fill-rule="nonzero" stroke="none" stroke-width="1" stroke-linecap="butt" stroke-linejoin="miter" stroke-miterlimit="10" stroke-dasharray="" stroke-dashoffset="0" font-family="Sans Serif" font-weight="normal" text-anchor="start" style="mix-blend-mode: normal"><tspan x="0" dy="0">对方</tspan></text><text transform="translate(366.75944,315.55559) scale(0.27366,0.27366)" font-size="40" xml:space="preserve" fill="#c5c5c5" fill-rule="nonzero" stroke="none" stroke-width="1" stroke-linecap="butt" stroke-linejoin="miter" stroke-miterlimit="10" stroke-dasharray="" stroke-dashoffset="0" font-family="Sans Serif" font-weight="normal" text-anchor="start" style="mix-blend-mode: normal"><tspan x="0" dy="0">退出</tspan></text><text transform="translate(394.85876,323.27667) scale(0.37972,0.37972)" font-size="40" xml:space="preserve" fill="#c5c5c5" fill-rule="nonzero" stroke="none" stroke-width="1" stroke-linecap="butt" stroke-linejoin="miter" stroke-miterlimit="10" stroke-dasharray="" stroke-dashoffset="0" font-family="Pixel" font-weight="normal" text-anchor="start" style="mix-blend-mode: normal"><tspan x="0" dy="0">Exit</tspan></text><text transform="translate(366,257.54578) scale(0.27367,0.27367)" font-size="40" xml:space="preserve" fill="#c5c5c5" fill-rule="nonzero" stroke="none" stroke-width="1" stroke-linecap="butt" stroke-linejoin="miter" stroke-miterlimit="10" stroke-dasharray="" stroke-dashoffset="0" font-family="Sans Serif" font-weight="normal" text-anchor="start" style="mix-blend-mode: normal"><tspan x="0" dy="0">准备</tspan></text><text transform="translate(394.85876,265.26686) scale(0.37972,0.37972)" font-size="40" xml:space="preserve" fill="#c5c5c5" fill-rule="nonzero" stroke="none" stroke-width="1" stroke-linecap="butt" stroke-linejoin="miter" stroke-miterlimit="10" stroke-dasharray="" stroke-dashoffset="0" font-family="Pixel" font-weight="normal" text-anchor="start" style="mix-blend-mode: normal"><tspan x="0" dy="0">Ready</tspan></text><path d="M176,335.49998v-53h117.5v53z" fill="url(#color-1)" stroke="none" stroke-width="0" stroke-linecap="butt"/><text transform="translate(187.5,324.93496) scale(0.31033,0.31033)" font-size="40" xml:space="preserve" fill="#c5c5c5" fill-rule="nonzero" stroke="none" stroke-width="1" stroke-linecap="butt" stroke-linejoin="miter" stroke-miterlimit="10" stroke-dasharray="" stroke-dashoffset="0" font-family="Sans Serif" font-weight="normal" text-anchor="start" style="mix-blend-mode: normal"><tspan x="0" dy="0">对方已经Ready!</tspan></text><g stroke="none" stroke-linecap="butt"><path d="M186.75,301.49998c0,-4.97057 4.02944,-9 9,-9c4.97056,0 9,4.02943 9,9c0,4.97057 -4.02944,9 -9,9c-4.97056,0 -9,-4.02943 -9,-9z" fill-opacity="0.48235" fill="#2e2e2e" stroke-width="0"/><path d="M185.25,300.49998c0,-4.97056 4.02944,-9 9,-9c4.97056,0 9,4.02944 9,9c0,4.97056 -4.02944,9 -9,9c-4.97056,0 -9,-4.02944 -9,-9z" fill="#2d2d2d" stroke-width="0"/><text transform="translate(188.445,306.10994) scale(0.44744,0.31916)" font-size="40" xml:space="preserve" fill="#c5c5c5" fill-rule="nonzero" stroke="none" stroke-width="1" stroke-linecap="butt" stroke-linejoin="miter" stroke-miterlimit="10" stroke-dasharray="" stroke-dashoffset="0" font-family="Sans Serif" font-weight="normal" text-anchor="start" style="mix-blend-mode: normal"><tspan x="0" dy="0">√</tspan></text></g><path d="M322.41423,228.66667v-155.51825h179.08577v155.51825z" fill-opacity="0.48235" fill="#000000" stroke="#000000" stroke-width="0" stroke-linecap="butt"/><path d="M318.6039,223.18491v-155.51825h174.00533v155.51825z" fill="#757575" stroke="#000000" stroke-width="0" stroke-linecap="butt"/><text transform="translate(333.5,106.37092) scale(0.28332,0.28332)" font-size="40" xml:space="preserve" fill="#ffffff" fill-rule="nonzero" stroke="none" stroke-width="1" stroke-linecap="butt" stroke-linejoin="miter" stroke-miterlimit="10" stroke-dasharray="" stroke-dashoffset="0" font-family="Malgun Gothic" font-weight="normal" text-anchor="start" style="mix-blend-mode: normal"><tspan x="0" dy="0">模式</tspan><tspan x="0" dy="46.150000000000006px"> </tspan><tspan x="0" dy="46.150000000000006px">难度</tspan><tspan x="0" dy="46.150000000000006px"> </tspan><tspan x="0" dy="46.150000000000006px">同步速率设置:</tspan><tspan x="0" dy="46.150000000000006px"> </tspan><tspan x="0" dy="46.150000000000006px">对方的同步速率:</tspan></text><path d="M310.5,82.99998v-20.5h57.77272v20.5z" fill="#505050" stroke="none" stroke-width="0" stroke-linecap="butt"/><text transform="translate(318.5,76.52383) scale(0.28125,0.28125)" font-size="40" xml:space="preserve" fill="#dadada" fill-rule="nonzero" stroke="none" stroke-width="1" stroke-linecap="butt" stroke-linejoin="miter" stroke-miterlimit="10" stroke-dasharray="" stroke-dashoffset="0" font-family="Sans Serif" font-weight="normal" text-anchor="start" style="mix-blend-mode: normal"><tspan x="0" dy="0">联合作战</tspan></text><text transform="translate(368,110.87092) scale(0.5,0.5)" font-size="40" xml:space="preserve" fill="#ffffff" fill-rule="nonzero" stroke="none" stroke-width="1" stroke-linecap="butt" stroke-linejoin="miter" stroke-miterlimit="10" stroke-dasharray="" stroke-dashoffset="0" font-family="Sans Serif" font-weight="normal" text-anchor="start" style="mix-blend-mode: normal"><tspan x="0" dy="0">共同防御</tspan></text><text transform="translate(371.5,133.73686) scale(0.30833,0.30833)" font-size="40" xml:space="preserve" fill="#ffffff" fill-rule="nonzero" stroke="none" stroke-width="1" stroke-linecap="butt" stroke-linejoin="miter" stroke-miterlimit="10" stroke-dasharray="" stroke-dashoffset="0" font-family="Malgun Gothic" font-weight="normal" text-anchor="start" style="mix-blend-mode: normal"><tspan x="0" dy="0">▲△△</tspan></text><path d="M418.5,165.87092v-19.5h55.5v19.5z" fill="#000000" stroke="none" stroke-width="0" stroke-linecap="butt"/><text transform="translate(333,202.88299) scale(0.20064,0.20064)" font-size="40" xml:space="preserve" fill="#ffffff" fill-rule="nonzero" stroke="none" stroke-width="1" stroke-linecap="butt" stroke-linejoin="miter" stroke-miterlimit="10" stroke-dasharray="" stroke-dashoffset="0" font-family="Sans Serif" font-weight="normal" text-anchor="start" style="mix-blend-mode: normal"><tspan x="0" dy="0">同步速率(秒/次)指客户端与服务器之间的</tspan><tspan x="0" dy="46.150000000000006px">同步间隔, 最终同步速率以较慢的为准</tspan></text><path d="M418.44076,214.42648h47.33333" fill="none" stroke="#ffffff" stroke-width="0.5" stroke-linecap="round"/><path d="M387.10743,204.42648h-19.66667" fill="none" stroke="#ffffff" stroke-width="0.5" stroke-linecap="round"/><path d="M472.62838,320.90806c0.99757,1.03307 0.96911,2.68522 -0.06396,3.68279c-0.48793,0.4715 -1.13077,0.73116 -1.80912,0.73116v0c-0.71297,0 -1.37782,-0.28225 -1.87308,-0.79512l-4.26138,-4.41218l-4.32563,4.3491c-0.49204,0.49497 -1.14838,0.76783 -1.84638,0.76783c-0.69302,0 -1.34525,-0.26934 -1.83641,-0.75786c-1.01811,-1.01282 -1.02251,-2.66468 -0.00968,-3.68279l4.39898,-4.42333l-4.33385,-4.4873c-0.99757,-1.03278 -0.96881,-2.68492 0.06396,-3.68249c0.48822,-0.4712 1.13048,-0.73087 1.80883,-0.73087c0.71297,0 1.3784,0.28225 1.87367,0.79512l4.26108,4.4116l4.32563,-4.34881c0.49233,-0.49526 1.14838,-0.76783 1.84667,-0.76783c0.69272,0 1.34496,0.26876 1.83582,0.75756c1.0184,1.01253 1.0228,2.66497 0.01027,3.68308l-4.39927,4.42333z" fill="#4d0d0f" stroke="#4d0d0f" stroke-width="1" stroke-linecap="butt"/><path d="M474.23175,259.82703l-11.97887,12.04448c-0.47508,0.47782 -1.10777,0.74088 -1.78186,0.74088c0,0 0,0 -0.00017,0c-0.42126,0 -0.8385,-0.10608 -1.2066,-0.3072c-0.03376,-0.01781 -0.07113,-0.0405 -0.10851,-0.06316l-0.0239,-0.01454c-0.01867,-0.01107 -0.03737,-0.02266 -0.0557,-0.0348c-0.15663,-0.10157 -0.30494,-0.22306 -0.43423,-0.35686l-3.78264,-3.91623c-0.96377,-0.99788 -0.93608,-2.59385 0.06197,-3.55799c0.47141,-0.45534 1.09202,-0.70611 1.7474,-0.70611c0.68897,0 1.33155,0.27295 1.81024,0.76823l2.0122,2.08316l10.17282,-10.22817c0.47574,-0.47852 1.10951,-0.74192 1.78428,-0.74192c0.66923,0 1.29935,0.25977 1.77371,0.73189c0.98368,0.97831 0.98802,2.57483 0.00986,3.55834z" fill="#284a00" stroke="none" stroke-width="0.59874" stroke-linecap="butt"/><path d="M244,43.50001c0,-7.40365 0,-34 0,-34c0,0 183.52551,0 205.5,0c4.19801,0 7.55702,3.10052 7.63256,7.48911c0.14813,8.60657 0.36744,22.16706 0.36744,27.01089c0,3.41005 -2.83135,7.5 -7,7.5c-32.81749,0 -179.50221,0 -199,0c-4.19801,0 -7.5,-4.4087 -7.5,-8z" fill-opacity="0.4902" fill="#000000" stroke="none" stroke-width="0" stroke-linecap="butt"/><text transform="translate(258,37.15264) scale(0.21795,0.21795)" font-size="40" xml:space="preserve" fill="#ffffff" fill-rule="nonzero" stroke="none" stroke-width="1" stroke-linecap="butt" stroke-linejoin="miter" stroke-miterlimit="10" stroke-dasharray="" stroke-dashoffset="0" font-family="Sans Serif" font-weight="normal" text-anchor="start" style="mix-blend-mode: normal"><tspan x="0" dy="0">对方: 内部资料,请勿外传</tspan></text><path d="M241,19.14287c0,-2.64416 0,-12.14286 0,-12.14286c0,0 30.54482,0 38.39286,0c1.49929,0 2.69894,1.10733 2.72591,2.67468c0.0529,3.07378 0.13123,7.91681 0.13123,9.64675c0,1.21788 -1.0112,2.67857 -2.5,2.67857c-11.72053,0 -29.10793,0 -36.07143,0c-1.49929,0 -2.67857,-1.57454 -2.67857,-2.85714z" fill-opacity="0.4902" fill="#000000" stroke="none" stroke-width="0" stroke-linecap="butt"/><text transform="translate(248.5,18.25001) scale(0.26165,0.26165)" font-size="40" xml:space="preserve" fill-opacity="0.4902" fill="#eaeaea" fill-rule="nonzero" stroke="none" stroke-width="1" stroke-linecap="butt" stroke-linejoin="miter" stroke-miterlimit="10" stroke-dasharray="" stroke-dashoffset="0" font-family="Sans Serif" font-weight="normal" text-anchor="start" style="mix-blend-mode: normal"><tspan x="0" dy="0">chat</tspan></text><text transform="translate(408.5,42.83334) scale(0.23998,0.23998)" font-size="40" xml:space="preserve" fill-opacity="0.55686" fill="#000000" fill-rule="nonzero" stroke="none" stroke-width="1" stroke-linecap="butt" stroke-linejoin="miter" stroke-miterlimit="10" stroke-dasharray="" stroke-dashoffset="0" font-family="Sans Serif" font-weight="normal" text-anchor="start" style="mix-blend-mode: normal"><tspan x="0" dy="0">点击回复</tspan></text><path d="M409.5,46.33334h37.5" fill="none" stroke-opacity="0.62745" stroke="#000000" stroke-width="0.5" stroke-linecap="round"/></g></g></svg>