<svg version="1.1" xmlns="http://www.w3.org/2000/svg" xmlns:xlink="http://www.w3.org/1999/xlink" width="700" height="477.21553" viewBox="0,0,700,477.21553"><defs><radialGradient cx="326.97697" cy="379.58017" r="350" gradientUnits="userSpaceOnUse" id="color-1"><stop offset="0" stop-color="#191919"/><stop offset="1" stop-color="#020002"/></radialGradient><linearGradient x1="221.5" y1="375.25003" x2="221.5" y2="328.25001" gradientUnits="userSpaceOnUse" id="color-2"><stop offset="0" stop-color="#848484" stop-opacity="0"/><stop offset="1" stop-color="#848484"/></linearGradient><linearGradient x1="418.50002" y1="373.75003" x2="418.50002" y2="326.75001" gradientUnits="userSpaceOnUse" id="color-3"><stop offset="0" stop-color="#848484" stop-opacity="0"/><stop offset="1" stop-color="#848484"/></linearGradient></defs><g transform="translate(35.49957,96.46869)"><g data-paper-data="{&quot;isPaintingLayer&quot;:true}" fill-rule="nonzero" stroke-linecap="butt" stroke-linejoin="miter" stroke-miterlimit="10" stroke-dasharray="" stroke-dashoffset="0" style="mix-blend-mode: normal"><g fill="#9966ff" stroke="none" stroke-width="0"><path d="M162.89584,-65.46869l12,-23l16,23z"/><path d="M142.89585,-64.46868l13.71429,-26.28571l18.28571,26.28571z"/><path d="M182.89585,-89.96869c0,-3.58985 2.91015,-6.5 6.5,-6.5c3.58985,0 6.5,2.91015 6.5,6.5c0,3.58985 -2.91015,6.5 -6.5,6.5c-3.58985,0 -6.5,-2.91015 -6.5,-6.5z"/></g><path d="M-35.49957,380.74684v-59.33333h700v59.33333z" fill="url(#color-1)" stroke="none" stroke-width="0"/><path d="M270.93497,328.25001h0.31505v47h-99.5v-47h0.51228" data-paper-data="{&quot;index&quot;:null}" fill="none" stroke="url(#color-2)" stroke-width="1"/><path d="M467.93498,326.75001h0.31505v47h-99.5v-47h0.51228" data-paper-data="{&quot;index&quot;:null}" fill="none" stroke="url(#color-3)" stroke-width="1"/></g></g></svg>