<svg version="1.1" xmlns="http://www.w3.org/2000/svg" xmlns:xlink="http://www.w3.org/1999/xlink" width="494" height="194.21586" viewBox="0,0,494,194.21586"><g transform="translate(7,-82.89207)"><g data-paper-data="{&quot;isPaintingLayer&quot;:true}" fill-rule="nonzero" stroke-linecap="butt" stroke-linejoin="miter" stroke-miterlimit="10" stroke-dasharray="" stroke-dashoffset="0" style="mix-blend-mode: normal"><path d="M-7,277.10793v-194.21586h494v194.21586z" id="svg_1" fill="#000000" stroke="none" stroke-width="0" opacity="0.7"/><text transform="translate(16.581,172.38819) scale(0.29612,0.29612)" font-size="40" xml:space="preserve" fill="#ffffff" fill-rule="nonzero" stroke="none" stroke-width="1" stroke-linecap="butt" stroke-linejoin="miter" stroke-miterlimit="10" stroke-dasharray="" stroke-dashoffset="0" font-family="Sans Serif" font-weight="normal" text-anchor="start" style="mix-blend-mode: normal"><tspan x="0" dy="0">阿米娅：博士，你现在还不能休息，这是我们今天的任务清单。</tspan></text><text transform="translate(205.29163,267.83331) scale(0.23998,0.23998)" font-size="40" xml:space="preserve" fill="#8b8b8b" fill-rule="nonzero" stroke="none" stroke-width="1" stroke-linecap="butt" stroke-linejoin="miter" stroke-miterlimit="10" stroke-dasharray="" stroke-dashoffset="0" font-family="Sans Serif" font-weight="normal" text-anchor="start" style="mix-blend-mode: normal"><tspan x="0" dy="0">点击空白处关闭</tspan></text><text transform="translate(13.31014,194.79501) scale(0.30139,0.30139)" font-size="40" xml:space="preserve" fill="#aaaaaa" fill-rule="nonzero" stroke="none" stroke-width="1" stroke-linecap="butt" stroke-linejoin="miter" stroke-miterlimit="10" stroke-dasharray="" stroke-dashoffset="0" font-family="&quot;Microsoft YaHei&quot;, &quot;微软雅黑&quot;, STXihei, &quot;华文细黑&quot;" font-weight="normal" text-anchor="start" style="mix-blend-mode: normal"><tspan x="0" dy="0">“任务，博士在完成之后可用领取一定的奖励”</tspan></text><text transform="translate(61.89581,124.66666) scale(0.5,0.5)" font-size="40" xml:space="preserve" fill="#ffffff" fill-rule="nonzero" stroke="#ffffff" stroke-width="2" stroke-linecap="butt" stroke-linejoin="miter" stroke-miterlimit="10" stroke-dasharray="" stroke-dashoffset="0" font-family="&quot;Microsoft YaHei&quot;, &quot;微软雅黑&quot;, STXihei, &quot;华文细黑&quot;" font-weight="normal" text-anchor="start" style="mix-blend-mode: normal"><tspan x="0" dy="0">任务</tspan></text><path d="M51.5,119c0,9.66713 -7.8357,17.5 -17.5,17.5c-9.6643,0 -17.5,-7.83287 -17.5,-17.5c0,-9.66148 7.8357,-17.5 17.5,-17.5c9.6643,0 17.5,7.83852 17.5,17.5zM31.03629,112.22581c0,1.63681 1.3269,2.96371 2.96371,2.96371c1.63681,0 2.96371,-1.3269 2.96371,-2.96371c0,-1.63681 -1.3269,-2.96371 -2.96371,-2.96371c-1.63681,0 -2.96371,1.3269 -2.96371,2.96371zM37.95161,125.49194c0,-0.46763 -0.37914,-0.84677 -0.84677,-0.84677h-0.84677v-7.05645c0,-0.46763 -0.37914,-0.84677 -0.84677,-0.84677h-4.51613c-0.46763,0 -0.84677,0.37914 -0.84677,0.84677v1.69355c0,0.46763 0.37914,0.84677 0.84677,0.84677h0.84677v4.51613h-0.84677c-0.46763,0 -0.84677,0.37914 -0.84677,0.84677v1.69355c0,0.46763 0.37914,0.84677 0.84677,0.84677h6.20968c0.46763,0 0.84677,-0.37914 0.84677,-0.84677z" fill="#ffffff" stroke="none" stroke-width="1"/></g></g></svg>