<svg version="1.1" xmlns="http://www.w3.org/2000/svg" xmlns:xlink="http://www.w3.org/1999/xlink" width="141" height="27.83095" viewBox="0,0,141,27.83095"><g transform="translate(-358.5,-313.33571)"><g data-paper-data="{&quot;isPaintingLayer&quot;:true}" fill-rule="nonzero" stroke-linecap="butt" stroke-linejoin="miter" stroke-miterlimit="10" stroke-dasharray="" stroke-dashoffset="0" style="mix-blend-mode: normal"><path d="M358.5,341.16667v-27.83095h141v27.83095z" fill-opacity="0.48235" fill="#000000" stroke="#000000" stroke-width="0"/><text transform="translate(397.5,331.69296) scale(0.30357,0.30357)" font-size="40" xml:space="preserve" fill="#b9b9b9" fill-rule="nonzero" stroke="none" stroke-width="1" stroke-linecap="butt" stroke-linejoin="miter" stroke-miterlimit="10" stroke-dasharray="" stroke-dashoffset="0" font-family="Sans Serif" font-weight="normal" text-anchor="start" style="mix-blend-mode: normal"><tspan x="0" dy="0">使用PRTS代理</tspan></text><path d="M368.5,333.99183v-14h14v14z" fill="#b9b9b9" stroke="none" stroke-width="0"/><path d="M378.97454,329.34997c0.37141,0.38446 0.36083,0.99701 -0.02363,1.36869c-0.38446,0.37113 -0.99729,0.36055 -1.36869,-0.02391l-2.17403,-2.25097l-2.20673,2.21882c-0.3769,0.37896 -0.98959,0.38061 -1.36883,0.00357c-0.37883,-0.3769 -0.38061,-0.98959 -0.00357,-1.36883l2.23407,-2.24644l-2.20109,-2.27887c-0.37127,-0.38446 -0.36069,-0.99715 0.02391,-1.36869c0.38432,-0.37127 0.99715,-0.36055 1.36856,0.02391l2.17389,2.25083l2.20686,-2.21868c0.37704,-0.37896 0.98987,-0.38075 1.36883,-0.00385c0.3791,0.37704 0.38061,0.98987 0.00371,1.36897l-2.23435,2.2463z" fill="#dd2726" stroke="#bc192d" stroke-width="0"/></g></g></svg>