<svg version="1.1" xmlns="http://www.w3.org/2000/svg" xmlns:xlink="http://www.w3.org/1999/xlink" width="423.6042" height="348.69787" viewBox="0,0,423.6042,348.69787"><g transform="translate(-62.89588,49.46867)"><g data-paper-data="{&quot;isPaintingLayer&quot;:true}" fill-rule="nonzero" stroke="none" stroke-linecap="butt" stroke-linejoin="miter" stroke-miterlimit="10" stroke-dasharray="" stroke-dashoffset="0" style="mix-blend-mode: normal"><g fill="#9966ff" stroke-width="0"><path d="M82.89587,-18.46867l12,-23l16,23z"/><path d="M62.89588,-17.46866l13.71429,-26.28571l18.28571,26.28571z"/><path d="M102.89587,-42.96867c0,-3.58985 2.91015,-6.5 6.5,-6.5c3.58985,0 6.5,2.91015 6.5,6.5c0,3.58985 -2.91015,6.5 -6.5,6.5c-3.58985,0 -6.5,-2.91015 -6.5,-6.5z"/></g><path d="M363.50009,299.2292v-52h123v52z" fill="#dcdcdc" stroke-width="0"/><text transform="translate(407.00009,281.3292) scale(0.26667,0.26667)" font-size="40" xml:space="preserve" fill="#292929" fill-rule="nonzero" stroke="none" stroke-width="1" stroke-linecap="butt" stroke-linejoin="miter" stroke-miterlimit="10" stroke-dasharray="" stroke-dashoffset="0" font-family="Sans Serif" font-weight="normal" text-anchor="start" style="mix-blend-mode: normal"><tspan x="0" dy="0">无记录</tspan></text><path d="M356.8491,254.63746v-13h52v13z" fill="#292929" stroke-width="0"/><text transform="translate(374.00003,250.5792) scale(0.20417,0.20417)" font-size="40" xml:space="preserve" fill="#dadada" fill-rule="nonzero" stroke="none" stroke-width="1" stroke-linecap="butt" stroke-linejoin="miter" stroke-miterlimit="10" stroke-dasharray="" stroke-dashoffset="0" font-family="Sans Serif" font-weight="normal" text-anchor="start" style="mix-blend-mode: normal"><tspan x="0" dy="0">最近</tspan></text></g></g></svg>