<svg version="1.1" xmlns="http://www.w3.org/2000/svg" xmlns:xlink="http://www.w3.org/1999/xlink" width="144.55932" height="60.72421" viewBox="0,0,144.55932,60.72421"><g transform="translate(-367.24754,-275.11642)"><g data-paper-data="{&quot;isPaintingLayer&quot;:true}" fill-rule="nonzero" stroke-linecap="butt" stroke-linejoin="miter" stroke-miterlimit="10" stroke-dasharray="" stroke-dashoffset="0" style="mix-blend-mode: normal"><path d="M367.74754,335.34063v-52.45175l7.44146,-7.27246h136.11786v50.93913l-8.11786,8.78508z" fill="#ffffff" stroke="#ffffff" stroke-width="1" opacity="0.7"/><path d="M400.23153,325.04353c-0.02503,0.20225 -0.14371,0.39359 -0.35201,0.49773l-2.22631,0.79404v1.93768c0,0.35685 -0.28903,0.64589 -0.64589,0.64589h-1.29179c-0.35685,0 -0.64589,-0.28904 -0.64589,-0.64589v-1.93768h-6.45891v1.93768c0,0.35685 -0.28904,0.64589 -0.64589,0.64589h-1.29179c-0.35685,0 -0.64589,-0.28904 -0.64589,-0.64589v-1.93768h-6.45891v1.93768c0,0.35685 -0.28903,0.64589 -0.64589,0.64589h-1.29178c-0.35685,0 -0.64589,-0.28904 -0.64589,-0.64589v-1.93768l-2.22671,-0.79404c-0.2079,-0.10415 -0.32698,-0.29549 -0.35201,-0.49773c-0.02826,-0.22848 0.06378,-0.47109 0.28258,-0.61723l3.58793,-1.96634v-2.58356l-2.22671,-0.71411c-0.47594,-0.23817 -0.47594,-0.91717 0,-1.15534l4.81027,-2.0059v-2.58356l-1.10245,-0.6584c-0.31164,-0.31164 -0.22647,-0.83724 0.16793,-1.03423l7.39343,-3.47449l7.39344,3.47489c0.39439,0.197 0.47957,0.72259 0.16793,1.03423l-1.10246,0.658v2.58356l4.81027,2.0059c0.47594,0.23817 0.47594,0.91717 0,1.15534l-2.2267,0.71411v2.58356l3.58792,1.96634c0.2188,0.14573 0.31083,0.38834 0.28217,0.61723zM383.44361,316.00104h7.75069v-2.58356h-7.75069zM393.77787,322.45995v-2.58356h-12.91782v2.58356z" fill="#ffffff" stroke="none" stroke-width="1"/><text transform="translate(473.5744,293.97362) scale(0.39114,0.39114)" font-size="40" xml:space="preserve" fill="#494949" fill-rule="nonzero" stroke="#5c5c5c" stroke-width="2" stroke-linecap="butt" stroke-linejoin="miter" stroke-miterlimit="10" stroke-dasharray="" stroke-dashoffset="0" font-family="Serif" font-weight="normal" text-anchor="start" style="mix-blend-mode: normal"><tspan x="0" dy="0">基建</tspan></text><text transform="translate(478.19327,322.21227) scale(0.32295,0.32295)" font-size="40" xml:space="preserve" fill="#ffffff" fill-rule="nonzero" stroke="#ffffff" stroke-width="3" stroke-linecap="butt" stroke-linejoin="miter" stroke-miterlimit="10" stroke-dasharray="" stroke-dashoffset="0" font-family="Malgun Gothic" font-weight="normal" text-anchor="start" style="mix-blend-mode: normal"><tspan x="0" dy="0">base</tspan></text></g></g></svg>