<svg version="1.1" xmlns="http://www.w3.org/2000/svg" xmlns:xlink="http://www.w3.org/1999/xlink" width="435.125" height="395.8059" viewBox="0,0,435.125,395.8059"><defs><linearGradient x1="306.875" y1="275.08336" x2="306.875" y2="323.08336" gradientUnits="userSpaceOnUse" id="color-1"><stop offset="0" stop-color="#505050" stop-opacity="0"/><stop offset="1" stop-color="#505050"/></linearGradient></defs><g transform="translate(-12.25,68.31245)"><g data-paper-data="{&quot;isPaintingLayer&quot;:true}" fill-rule="nonzero" stroke-linecap="butt" stroke-linejoin="miter" stroke-miterlimit="10" stroke-dasharray="" stroke-dashoffset="0" style="mix-blend-mode: normal"><path d="M278.80421,-26.93747c0,0 0,-10.34837 0,-18.125c0,-0.33856 0.5,-0.67225 0.5,-1c0,-1.07671 0,-2.08931 0,-3c0,-0.39522 -0.5,-0.77125 -0.5,-1.125c0,-6.04001 0,-16.75 0,-16.75h7.66667c0,0 0,9.10118 0,16.375c0,0.46682 -0.5,0.92612 -0.5,1.375c0,0.92803 0,1.81154 0,2.625c0,0.48504 0.5,0.94518 0.5,1.375c0,6.34999 0,18.25 0,18.25z" fill="#31cfff" stroke="none" stroke-width="0"/><g stroke="#ffffff"><path d="M288.52915,-27.06244v-40c0,0 10.95258,0 19,0c0.51656,0 1.07334,1.16666 1.66667,1.16666c7.3687,0 20.37547,0 32,0c0.44662,0 0.89119,-1.16666 1.33333,-1.16666c9.08175,0 17.13466,0 20.70834,0c1.25566,0 1.95834,0.82496 1.95834,2.125c0,3.74879 0,11.44794 0,14.70833c0,0.13121 -0.625,0.52567 -0.625,1.04167c0,0.72443 0,1.68844 0,2.5c0,0.44098 0.625,0.83694 0.625,1.125c0,5.46943 0,12.3681 0,16c0,1.54594 -1.0119,2.5 -2.33334,2.5c-7.45845,0 -74.33334,0 -74.33334,0z" fill="#303030" stroke-width="2.5"/><text transform="translate(294.48805,-53.29587) scale(0.23854,0.23854)" font-size="40" xml:space="preserve" fill="#e8e8e8" fill-rule="nonzero" stroke="#ffffff" stroke-width="5" stroke-linecap="butt" stroke-linejoin="miter" stroke-miterlimit="10" stroke-dasharray="" stroke-dashoffset="0" font-family="Sans Serif" font-weight="normal" text-anchor="start" style="mix-blend-mode: normal"><tspan x="0" dy="0">贸易站</tspan></text><text transform="translate(295.81253,-44.8248) scale(0.1125,0.1125)" font-size="40" xml:space="preserve" fill="#9c9c9c" fill-rule="nonzero" stroke="#ffffff" stroke-width="5" stroke-linecap="butt" stroke-linejoin="miter" stroke-miterlimit="10" stroke-dasharray="" stroke-dashoffset="0" font-family="Sans Serif" font-weight="normal" text-anchor="start" style="mix-blend-mode: normal"><tspan x="0" dy="0">基础设施</tspan></text></g><path d="M40.375,327.49346v-227.62887h115v227.62887z" fill="#313131" stroke="none" stroke-width="0"/><path d="M167.375,324.49345v-224.62886h280v224.62886z" fill="#313131" stroke="none" stroke-width="0"/><path d="M12.25,106.50007v-43h105v43z" fill-opacity="0.4902" fill="#3d3d3d" stroke="none" stroke-width="0"/><text transform="translate(33.75,89.19757) scale(0.34876,0.34876)" font-size="40" xml:space="preserve" fill="#ffffff" fill-rule="nonzero" stroke="none" stroke-width="1" stroke-linecap="butt" stroke-linejoin="miter" stroke-miterlimit="10" stroke-dasharray="" stroke-dashoffset="0" font-family="Pixel" font-weight="normal" text-anchor="start" style="mix-blend-mode: normal"><tspan x="0" dy="0">制造站</tspan></text><path d="M15.8042,105.06255c0,0 0,-10.34837 0,-18.125c0,-0.33856 0.5,-0.67225 0.5,-1c0,-1.07671 0,-2.08931 0,-3c0,-0.39522 -0.5,-0.77125 -0.5,-1.125c0,-6.04001 0,-16.75 0,-16.75h7.66667c0,0 0,9.10118 0,16.375c0,0.46682 -0.5,0.92612 -0.5,1.375c0,0.92803 0,1.81154 0,2.625c0,0.48504 0.5,0.94518 0.5,1.375c0,6.34999 0,18.25 0,18.25z" fill="#ffcf00" stroke="none" stroke-width="0"/><text transform="translate(65.375,146.36458) scale(0.28332,0.28332)" font-size="40" xml:space="preserve" fill="#f1f1f1" fill-rule="nonzero" stroke="none" stroke-width="1" stroke-linecap="butt" stroke-linejoin="miter" stroke-miterlimit="10" stroke-dasharray="" stroke-dashoffset="0" font-family="Pixel" font-weight="normal" text-anchor="start" style="mix-blend-mode: normal"><tspan x="0" dy="0">切换订单类型</tspan></text><text transform="translate(68.375,223.65409) scale(0.5517,0.5517)" font-size="40" xml:space="preserve" fill="#f1f1f1" fill-rule="nonzero" stroke="none" stroke-width="1" stroke-linecap="butt" stroke-linejoin="miter" stroke-miterlimit="10" stroke-dasharray="" stroke-dashoffset="0" font-family="Serif" font-weight="normal" text-anchor="start" style="mix-blend-mode: normal"><tspan x="0" dy="0">EXP卡</tspan></text><text transform="translate(185.375,130.86458) scale(0.5,0.5)" font-size="40" xml:space="preserve" fill="#f1f1f1" fill-rule="nonzero" stroke="none" stroke-width="1" stroke-linecap="butt" stroke-linejoin="miter" stroke-miterlimit="10" stroke-dasharray="" stroke-dashoffset="0" font-family="Serif" font-weight="normal" text-anchor="start" style="mix-blend-mode: normal"><tspan x="0" dy="0">所有订单</tspan></text><path d="M167.375,323.08336v-48h279v48z" fill="url(#color-1)" stroke="none" stroke-width="0"/><text transform="translate(277.375,303.08336) scale(0.5,0.5)" font-size="40" xml:space="preserve" fill="#ffffff" fill-rule="nonzero" stroke="none" stroke-width="1" stroke-linecap="butt" stroke-linejoin="miter" stroke-miterlimit="10" stroke-dasharray="" stroke-dashoffset="0" font-family="Sans Serif" font-weight="normal" text-anchor="start" style="mix-blend-mode: normal"><tspan x="0" dy="0">交付</tspan></text><text transform="translate(68.12331,238.76513) scale(2.81041,2.81041)" font-size="40" xml:space="preserve" fill="#777777" fill-rule="nonzero" stroke="none" stroke-width="1" stroke-linecap="butt" stroke-linejoin="miter" stroke-miterlimit="10" stroke-dasharray="" stroke-dashoffset="0" font-family="Sans Serif" font-weight="normal" text-anchor="start" style="mix-blend-mode: normal"><tspan x="0" dy="0">DEMO</tspan></text></g></g></svg>