<svg version="1.1" xmlns="http://www.w3.org/2000/svg" xmlns:xlink="http://www.w3.org/1999/xlink" width="151.81395" height="191.00161" viewBox="0,0,151.81395,191.00161"><g transform="translate(-26.41647,-32.52385)"><g data-paper-data="{&quot;isPaintingLayer&quot;:true}" fill-rule="nonzero" stroke-linecap="butt" stroke-linejoin="miter" stroke-miterlimit="10" stroke-dasharray="" stroke-dashoffset="0" style="mix-blend-mode: normal"><path d="M26.91647,223.02547v-140.13658l7.11576,-6.889h143.69819v139.889l-6.36486,7.13658z" fill="#ffffff" stroke="#ffffff" stroke-width="1" opacity="0.7"/><path d="M47.64094,103.11249l-11.19607,-1.18649c-0.31342,-0.03441 -0.48437,-0.38385 -0.3188,-0.65265l5.67438,-8.38065zM36.06156,98.17624v-8.75267c0,-0.1672 0.18225,-0.27041 0.32579,-0.18439l4.12017,2.47189l-4.0476,6.57754c-0.11397,0.18494 -0.39836,0.1043 -0.39836,-0.11235zM37.16095,103.69686l10.94286,1.19885v3.53043c0,0.31342 -0.32525,0.52201 -0.61018,0.3903l-10.45095,-4.71261c-0.21665,-0.10645 -0.12096,-0.43384 0.11827,-0.40696zM37.02602,87.62798c-0.13548,-0.08171 -0.13978,-0.2774 -0.00698,-0.36449l8.10756,-5.30128c0.38654,-0.22095 0.81285,0.21934 0.57953,0.59889l-4.29704,7.68446zM43.09286,90.79283l5.13838,-9.05212c0.16827,-0.2731 0.45051,-0.40965 0.73275,-0.40965c0.28224,0 0.56448,0.13655 0.73275,0.40965l5.13838,9.05212h-5.87114zM61.8664,89.42356v8.75267c0,0.21719 -0.28493,0.29783 -0.39836,0.1129l-4.0476,-6.57754l4.12017,-2.47242c0.14354,-0.08601 0.32579,0.0172 0.32579,0.18439zM52.22184,82.56109c-0.23332,-0.37954 0.193,-0.81984 0.57953,-0.59889l8.10756,5.30074c0.13279,0.08709 0.12902,0.28278 -0.00698,0.36449l-4.38306,2.61811zM60.88527,104.10327l-10.45095,4.71261c-0.28493,0.13171 -0.61018,-0.07634 -0.61018,-0.3903v-3.53043l10.94286,-1.19831c0.23923,-0.02688 0.33492,0.30052 0.11827,0.40643zM61.80243,101.27335c0.16558,0.2688 -0.00538,0.6177 -0.3188,0.65265l-11.19607,1.18649l5.83996,-10.21978zM54.3631,92.51315l-5.39912,9.44833l-5.39912,-9.44833h5.39912z" fill="#ffffff" stroke="none" stroke-width="1"/><text transform="translate(62.07106,102.33861) scale(0.458,0.458)" font-size="40" xml:space="preserve" fill="#ffffff" fill-rule="nonzero" stroke="#ffffff" stroke-width="2" stroke-linecap="butt" stroke-linejoin="miter" stroke-miterlimit="10" stroke-dasharray="" stroke-dashoffset="0" font-family="Serif" font-weight="normal" text-anchor="start" style="mix-blend-mode: normal"><tspan x="0" dy="0">「荧海之章」</tspan></text><text transform="translate(36.9374,212.54166) scale(0.34375,0.34375)" font-size="40" xml:space="preserve" fill="#8d8d8d" fill-rule="nonzero" stroke="none" stroke-width="1" stroke-linecap="butt" stroke-linejoin="miter" stroke-miterlimit="10" stroke-dasharray="" stroke-dashoffset="0" font-family="Sans Serif" font-weight="normal" text-anchor="start" style="mix-blend-mode: normal"><tspan x="0" dy="0">开放</tspan></text><text transform="translate(31.39581,126.06666) scale(0.1793,0.1793)" font-size="40" xml:space="preserve" fill="#669dff" fill-rule="nonzero" stroke="none" stroke-width="1" stroke-linecap="butt" stroke-linejoin="miter" stroke-miterlimit="10" stroke-dasharray="" stroke-dashoffset="0" font-family="&quot;Microsoft YaHei&quot;, &quot;微软雅黑&quot;, STXihei, &quot;华文细黑&quot;" font-weight="normal" text-anchor="start" style="mix-blend-mode: normal"><tspan x="0" dy="0">bancha的海底出现了某种超自然现象</tspan><tspan x="0" dy="46.150000000000006px">你自愿前去调查，不知道前方...</tspan><tspan x="0" dy="46.150000000000006px">是危险，还是机遇？</tspan></text><text transform="translate(102.69791,54.10719) scale(0.5,0.5)" font-size="40" xml:space="preserve" fill="#8d8d8d" fill-rule="nonzero" stroke="none" stroke-width="1" stroke-linecap="butt" stroke-linejoin="miter" stroke-miterlimit="10" stroke-dasharray="" stroke-dashoffset="0" font-family="Sans Serif" font-weight="normal" text-anchor="start" style="mix-blend-mode: normal"><tspan x="0" dy="0"> </tspan></text></g></g></svg>