<svg version="1.1" xmlns="http://www.w3.org/2000/svg" xmlns:xlink="http://www.w3.org/1999/xlink" width="179" height="105" viewBox="0,0,179,105"><g transform="translate(-165.5,-194.2292)"><g data-paper-data="{&quot;isPaintingLayer&quot;:true}" fill-rule="nonzero" stroke-linejoin="miter" stroke-miterlimit="10" stroke-dasharray="" stroke-dashoffset="0" style="mix-blend-mode: normal"><path d="M165.5,299.2292v-105h179v105z" fill="#dcdcdc" stroke="none" stroke-width="0" stroke-linecap="butt"/><text transform="translate(183.50005,226.2292) scale(0.5,0.5)" font-size="40" xml:space="preserve" fill="#292929" fill-rule="nonzero" stroke="none" stroke-width="1" stroke-linecap="butt" stroke-linejoin="miter" stroke-miterlimit="10" stroke-dasharray="" stroke-dashoffset="0" font-family="Sans Serif" font-weight="normal" text-anchor="start" style="mix-blend-mode: normal"><tspan x="0" dy="0">资讯</tspan></text><g fill="none" stroke-width="2"><g stroke="#ffd6d6"><path d="M229.65862,258.37469c0,-14.73001 11.94104,-26.67105 26.67105,-26.67105c14.73001,0 26.67105,11.94104 26.67105,26.67105c0,14.73001 -11.94104,26.67105 -26.67105,26.67105c-14.73001,0 -26.67105,-11.94104 -26.67105,-26.67105z" stroke-linecap="butt"/><path d="M236.01211,241.74833l39.78798,33.2295" stroke-linecap="round"/></g><g stroke="#ff6666"><path d="M225.99931,259.52491c0,-14.73001 11.94104,-26.67105 26.67105,-26.67105c14.73001,0 26.67105,11.94104 26.67105,26.67105c0,14.73001 -11.94104,26.67105 -26.67105,26.67105c-14.73001,0 -26.67105,-11.94104 -26.67105,-26.67105z" stroke-linecap="butt"/><path d="M232.3528,242.89857l39.78798,33.22952" stroke-linecap="round"/></g></g></g></g></svg>