<svg version="1.1" xmlns="http://www.w3.org/2000/svg" xmlns:xlink="http://www.w3.org/1999/xlink" width="253.90363" height="255" viewBox="0,0,253.90363,255"><g transform="translate(-113.04818,-52.5)"><g data-paper-data="{&quot;isPaintingLayer&quot;:true}" fill-rule="nonzero" stroke-linejoin="miter" stroke-miterlimit="10" stroke-dasharray="" stroke-dashoffset="0" style="mix-blend-mode: normal"><path d="M115.54818,305v-250h248.90363v250z" fill="#ffffff" stroke="#ffffff" stroke-width="5" stroke-linecap="butt" opacity="0.7"/><path d="" fill="#ffffff" stroke="none" stroke-width="1" stroke-linecap="butt"/><path d="" fill="#6c54a3" stroke="none" stroke-width="1" stroke-linecap="butt"/><path d="" fill="#6c54a3" stroke="none" stroke-width="1" stroke-linecap="butt"/><path d="" fill="#6c54a3" stroke="none" stroke-width="1" stroke-linecap="butt"/><path d="" fill="#170b36" stroke="none" stroke-width="1" stroke-linecap="butt"/><path d="" fill="#170b36" stroke="none" stroke-width="1" stroke-linecap="butt"/><text transform="translate(209.91446,278.35401) scale(0.49198,0.49198)" font-size="40" xml:space="preserve" fill="#000000" fill-rule="nonzero" stroke-opacity="0" stroke="#000000" stroke-width="0" stroke-linecap="butt" stroke-linejoin="miter" stroke-miterlimit="10" stroke-dasharray="" stroke-dashoffset="0" font-family="Sans Serif" font-weight="normal" text-anchor="start" style="mix-blend-mode: normal"><tspan x="0" dy="0">无活动</tspan></text><text transform="translate(124.9647,75.91603) scale(0.39166,0.39166)" font-size="40" xml:space="preserve" fill="#ffffff" fill-rule="nonzero" stroke="none" stroke-width="1" stroke-linecap="butt" stroke-linejoin="miter" stroke-miterlimit="10" stroke-dasharray="" stroke-dashoffset="0" font-family="Sans Serif" font-weight="normal" text-anchor="start" style="mix-blend-mode: normal"><tspan x="0" dy="0">activity</tspan></text><g fill="none" stroke="#ffd6d6" stroke-width="2"><path d="M188.68126,178.8119c0,-30.43008 24.66846,-55.09854 55.09854,-55.09854c30.43008,0 55.09854,24.66846 55.09854,55.09854c0,30.43008 -24.66846,55.09854 -55.09854,55.09854c-30.43008,0 -55.09854,-24.66846 -55.09854,-55.09854z" stroke-linecap="butt"/><path d="M201.80665,144.46424l82.19621,68.64736" stroke-linecap="round"/></g><g fill="none" stroke="#ff6666" stroke-width="2"><path d="M181.12165,181.1881c0,-30.43008 24.66846,-55.09854 55.09854,-55.09854c30.43008,0 55.09854,24.66846 55.09854,55.09854c0,30.43008 -24.66846,55.09854 -55.09854,55.09854c-30.43008,0 -55.09854,-24.66846 -55.09854,-55.09854z" stroke-linecap="butt"/><path d="M194.24703,146.84045l82.19621,68.64739" stroke-linecap="round"/></g></g></g></svg>