<svg version="1.1" xmlns="http://www.w3.org/2000/svg" xmlns:xlink="http://www.w3.org/1999/xlink" width="517.34739" height="227.70572" viewBox="0,0,517.34739,227.70572"><g transform="translate(18.6737,-66.14714)"><g data-paper-data="{&quot;isPaintingLayer&quot;:true}" fill="#ffffff" fill-rule="nonzero" stroke="none" stroke-width="0" stroke-linecap="butt" stroke-linejoin="miter" stroke-miterlimit="10" stroke-dasharray="" stroke-dashoffset="0" style="mix-blend-mode: normal"><path d="M177.37937,277.98203c-1.0181,-9.01355 0,-83.90132 0,-123.98775c0,-9.68779 6.10959,-16.27056 15.79738,-16.27056c18.08204,0 256.56671,0 289.42857,0c9.91867,0 16.06836,5.81437 16.06836,15.73304c0,32.67493 0,106.35843 0,124.52527c0,9.85899 -6.38853,15.87083 -16.24753,15.87083c-32.94842,0 -271.20015,0 -289.2494,0c-7.88577,0 -14.77928,-6.85728 -15.79738,-15.87083z"/><path d="M176.37337,96.79584c-1.0181,-9.01355 0,25.70829 0,-14.37814c0,-9.68779 6.10959,-16.27056 15.79738,-16.27056c18.08204,0 256.56671,0 289.42857,0c9.91867,0 16.06836,5.81437 16.06836,15.73304c0,32.67493 0,-3.25118 0,14.91566c0,9.85899 -6.38853,15.87083 -16.24753,15.87083c-32.94842,0 -271.20015,0 -289.2494,0c-7.88577,0 -14.77928,-6.85728 -15.79738,-15.87083z"/><path d="M-18.22122,210.43549c-1.0181,-9.01355 0,-83.90132 0,-123.98775c0,-9.68779 6.10959,-16.27056 15.79738,-16.27056c18.08204,0 91.40154,0 124.2634,0c9.91867,0 16.06836,5.81437 16.06836,15.73304c0,32.67493 0,106.35843 0,124.52527c0,9.85899 -6.38853,15.87083 -16.24753,15.87083c-32.94842,0 -106.03498,0 -124.08423,0c-7.88577,0 -14.77928,-6.85728 -15.79738,-15.87083z"/></g></g></svg>