<svg version="1.1" xmlns="http://www.w3.org/2000/svg" xmlns:xlink="http://www.w3.org/1999/xlink" width="499" height="403" viewBox="0,0,499,403"><defs><linearGradient x1="-10.75" y1="186.33331" x2="487.25" y2="186.33331" gradientUnits="userSpaceOnUse" id="color-1"><stop offset="0" stop-color="#dedede"/><stop offset="1" stop-color="#313131"/></linearGradient><linearGradient x1="204.95873" y1="186.33331" x2="488.25" y2="186.33331" gradientUnits="userSpaceOnUse" id="color-2"><stop offset="0" stop-color="#313131" stop-opacity="0"/><stop offset="1" stop-color="#313131"/></linearGradient><linearGradient x1="373" y1="57.67717" x2="373" y2="99.67717" gradientUnits="userSpaceOnUse" id="color-3"><stop offset="0" stop-color="#383838"/><stop offset="1" stop-color="#383838" stop-opacity="0"/></linearGradient><linearGradient x1="371" y1="239.17717" x2="371" y2="197.17717" gradientUnits="userSpaceOnUse" id="color-4"><stop offset="0" stop-color="#666666"/><stop offset="1" stop-color="#666666" stop-opacity="0"/></linearGradient></defs><g transform="translate(10.75,15.16669)"><g data-paper-data="{&quot;isPaintingLayer&quot;:true}" fill-rule="nonzero" stroke="none" stroke-linecap="butt" stroke-linejoin="miter" stroke-miterlimit="10" stroke-dasharray="" stroke-dashoffset="0" style="mix-blend-mode: normal"><path d="M-10.75,379.83331v-387h498v387z" fill="url(#color-1)" stroke-width="0"/><path d="M205.17124,387.83331l-0.21251,-96.24134l34.69356,-51.57546l-0.19059,-90.1832l27.72421,-1v-164h221.06409v403z" fill="url(#color-2)" stroke-width="0"/><path d="M41.25,241.83331v-162h162v162z" fill-opacity="0.44314" fill="#828282" stroke-width="0"/><path d="M211.25,347.83331v-46h46v46z" fill-opacity="0.44314" fill="#ffffff" stroke-width="0"/><path d="M161.25,338.83331v-31h31v31z" fill-opacity="0.44314" fill="#ffffff" stroke-width="0"/><path d="M281.25,339.83331v-30h30v30z" fill-opacity="0.44314" fill="#ffffff" stroke-width="0"/><text transform="translate(306.28772,63.98484) scale(0.26362,0.26362)" font-size="40" xml:space="preserve" fill-opacity="0.44314" fill="#ffffff" fill-rule="nonzero" stroke="none" stroke-width="1" stroke-linecap="butt" stroke-linejoin="miter" stroke-miterlimit="10" stroke-dasharray="" stroke-dashoffset="0" font-family="Sans Serif" font-weight="normal" text-anchor="start" style="mix-blend-mode: normal"><tspan x="0" dy="0">我放逐自己残缺的魂魄</tspan><tspan x="0" dy="46.15px"> </tspan><tspan x="0" dy="46.15px">在镜子背面那一搏</tspan><tspan x="0" dy="46.15px"> </tspan><tspan x="0" dy="46.15px">一路上从没有挽留过</tspan><tspan x="0" dy="46.15px"> </tspan><tspan x="0" dy="46.15px">那些徒劳奔波</tspan><tspan x="0" dy="46.15px"> </tspan><tspan x="0" dy="46.15px">却不曾完整的我</tspan><tspan x="0" dy="46.15px"> </tspan><tspan x="0" dy="46.15px">谁能解开我缠结的冷漠</tspan><tspan x="0" dy="46.15px"> </tspan><tspan x="0" dy="46.15px">连同这结局的枷锁</tspan><tspan x="0" dy="46.15px"> </tspan><tspan x="0" dy="46.15px">而再度相拥时的此刻</tspan><tspan x="0" dy="46.15px"> </tspan></text><path d="M293.25,99.67717v-59.5h159.5v59.5z" fill="url(#color-3)" stroke-width="0"/><path d="M450.75,197.17717v59.5h-159.5v-59.5z" data-paper-data="{&quot;index&quot;:null}" fill="url(#color-4)" stroke-width="0"/></g></g></svg>