<svg version="1.1" xmlns="http://www.w3.org/2000/svg" xmlns:xlink="http://www.w3.org/1999/xlink" width="21.99406" height="21.99849" viewBox="0,0,21.99406,21.99849"><g transform="translate(-25.33032,-12.5002)"><g data-paper-data="{&quot;isPaintingLayer&quot;:true}" fill="#ffffff" fill-rule="nonzero" stroke="none" stroke-width="1" stroke-linecap="butt" stroke-linejoin="miter" stroke-miterlimit="10" stroke-dasharray="" stroke-dashoffset="0" style="mix-blend-mode: normal"><path d="M32.40444,19.24167c0.6431,-3.96061 2.15993,-6.74147 3.92513,-6.74147c1.7652,0 3.28203,2.78086 3.92513,6.74147zM32.21816,20.66093h8.21839c0.09314,0.90921 0.14636,1.8539 0.14636,2.83851c0,0.98461 -0.05322,1.9293 -0.14636,2.83851h-8.21839c-0.09314,-0.90921 -0.14636,-1.8539 -0.14636,-2.83851c0,-0.98461 0.05322,-1.9293 0.14636,-2.83851zM41.68283,19.24167c-0.3903,-2.52362 -1.13541,-4.78112 -2.21759,-6.28021c3.17115,0.94026 5.73912,3.26873 7.00758,6.28021zM30.97631,19.24167h-4.78999c1.26403,-3.01149 3.83643,-5.33996 7.00315,-6.28021c-1.08218,1.49909 -1.82729,3.7566 -2.21315,6.28021zM47.32438,23.49945c0,0.98461 -0.13749,1.9293 -0.38143,2.83851h-5.08272c0.09314,-0.93139 0.14636,-1.88495 0.14636,-2.83851c0,-0.95356 -0.05322,-1.90713 -0.14636,-2.83851h5.08715c0.2395,0.90921 0.37699,1.8539 0.37699,2.83851zM30.79447,26.33796h-5.08272c-0.2395,-0.90921 -0.38143,-1.8539 -0.38143,-2.83851c0,-0.98461 0.14193,-1.9293 0.38143,-2.83851h5.08715c-0.09314,0.93139 -0.14636,1.88495 -0.14636,2.83851c0,0.95356 0.05322,1.90713 0.14193,2.83851zM40.25471,27.75722c-0.6431,3.96061 -2.15993,6.74147 -3.92513,6.74147c-1.7652,0 -3.28203,-2.78086 -3.92513,-6.74147zM41.68727,27.75722h4.78999c-1.26846,3.01149 -3.84086,5.33996 -7.00758,6.28021c1.08218,-1.49909 1.82729,-3.7566 2.21759,-6.28021zM30.97631,27.75722c0.3903,2.52362 1.13541,4.78112 2.21759,6.28021c-3.17115,-0.94026 -5.73912,-3.26873 -7.00758,-6.28021z"/></g></g></svg>