<svg version="1.1" xmlns="http://www.w3.org/2000/svg" xmlns:xlink="http://www.w3.org/1999/xlink" width="365.66999" height="360.59375" viewBox="0,0,365.66999,360.59375"><g transform="translate(-17.165,-63.38596)"><g data-paper-data="{&quot;isPaintingLayer&quot;:true}" fill-rule="nonzero" stroke-linejoin="miter" stroke-miterlimit="10" stroke-dasharray="" stroke-dashoffset="0" style="mix-blend-mode: normal"><path d="M17.165,411.5057c0,-28.08526 0,-348.11974 0,-348.11974c0,0 315.54972,0 353.0151,0c7.93827,0 12.65489,4.98658 12.65489,12.92485c0,43.17696 0,310.76476 0,334.71881c0,7.558 -4.14477,12.95009 -11.70277,12.95009c-32.14852,0 -284.42665,0 -341.89352,0c-7.4319,0 -12.0737,-4.85943 -12.0737,-12.47403z" fill="#ffffff" stroke="none" stroke-width="0" stroke-linecap="butt"/><path d="M34.45758,95.09055v-20.90646h44.27249v20.90646z" fill="#ffffff" stroke="#e0ebff" stroke-width="0.5" stroke-linecap="butt"/><text transform="translate(42.16953,89.298) scale(0.33702,0.33702)" font-size="40" xml:space="preserve" fill="#679dff" fill-rule="nonzero" stroke="#679dff" stroke-width="1" stroke-linecap="butt" stroke-linejoin="miter" stroke-miterlimit="10" stroke-dasharray="" stroke-dashoffset="0" font-family="Sans Serif" font-weight="normal" text-anchor="start" style="mix-blend-mode: normal"><tspan x="0" dy="0">教程</tspan></text><path d="M40.59053,119.86025v-16.86448h124.47589v16.86448z" fill="#fbfbfb" stroke="none" stroke-width="0" stroke-linecap="butt"/><path d="M206.38766,128.61479v-12.76989h53.12278v12.76989z" fill="#fbfbfb" stroke="none" stroke-width="0" stroke-linecap="butt"/><path d="M199.19691,90.43944l1.60614,330.1746" fill="none" stroke="#c3d8ff" stroke-width="0.5" stroke-linecap="round"/><text transform="translate(40.66749,119.40443) scale(0.24865,0.24865)" font-size="40" xml:space="preserve" fill="#000000" fill-rule="nonzero" stroke="none" stroke-width="1" stroke-linecap="butt" stroke-linejoin="miter" stroke-miterlimit="10" stroke-dasharray="" stroke-dashoffset="0" font-family="Sans Serif" font-weight="normal" text-anchor="start" style="mix-blend-mode: normal"><tspan x="0" dy="0">你好Doctor,</tspan><tspan x="0" dy="46.150000000000006px"> </tspan><tspan x="0" dy="46.150000000000006px">本手册会告诉你你</tspan><tspan x="0" dy="46.150000000000006px">想知道的一切</tspan><tspan x="0" dy="46.150000000000006px">--可露希尔</tspan><tspan x="0" dy="46.150000000000006px"> </tspan><tspan x="0" dy="46.150000000000006px">点击右边切换吧!</tspan></text><text transform="translate(218.66749,120.85443) scale(0.26165,0.26165)" font-size="40" xml:space="preserve" fill="#000000" fill-rule="nonzero" stroke="none" stroke-width="1" stroke-linecap="butt" stroke-linejoin="miter" stroke-miterlimit="10" stroke-dasharray="" stroke-dashoffset="0" font-family="Sans Serif" font-weight="normal" text-anchor="start" style="mix-blend-mode: normal"><tspan x="0" dy="0">信息:</tspan><tspan x="0" dy="46.150000000000006px"> </tspan><tspan x="0" dy="46.150000000000006px">本教程著作权归:</tspan><tspan x="0" dy="46.150000000000006px">Ntsc，anl</tspan></text><text transform="translate(211.5,350.8548) scale(0.3275,0.3275)" font-size="40" xml:space="preserve" fill="#000000" fill-rule="nonzero" stroke="none" stroke-width="1" stroke-linecap="butt" stroke-linejoin="miter" stroke-miterlimit="10" stroke-dasharray="" stroke-dashoffset="0" font-family="Sans Serif" font-weight="normal" text-anchor="start" style="mix-blend-mode: normal"><tspan x="0" dy="0">欢迎反应本教程问题！</tspan></text></g></g></svg>