<svg version="1.1" xmlns="http://www.w3.org/2000/svg" xmlns:xlink="http://www.w3.org/1999/xlink" width="116.4412" height="236.54323" viewBox="0,0,116.4412,236.54323"><defs><radialGradient cx="271.57831" cy="242.27672" r="113.18293" gradientUnits="userSpaceOnUse" id="color-1"><stop offset="0" stop-color="#def9ff"/><stop offset="1" stop-color="#ffffff"/></radialGradient></defs><g transform="translate(-178.48135,-56.6397)"><g data-paper-data="{&quot;isPaintingLayer&quot;:true}" fill-rule="nonzero" stroke-linecap="butt" stroke-linejoin="miter" stroke-miterlimit="10" stroke-dasharray="" stroke-dashoffset="0" style="mix-blend-mode: normal"><path d="M196.24342,67.13542c6.34151,-0.71629 59.02901,0 87.23193,0c6.81587,0 11.4472,4.29842 11.4472,11.11429c0,12.72167 0,180.50823 0,203.62828c0,6.97831 -4.09072,11.30494 -11.06902,11.30494c-22.98854,0 -74.82877,0 -87.6101,0c-6.93632,0 -11.16597,-4.49467 -11.16597,-11.431c0,-23.18095 0,-190.80362 0,-203.50222c0,-5.54806 4.82446,-10.398 11.16597,-11.11429z" fill="url(#color-1)" stroke="none" stroke-width="0"/><path d="" fill="#ffffff" stroke="none" stroke-width="1"/><path d="" fill="#6c54a3" stroke="none" stroke-width="1"/><path d="" fill="#6c54a3" stroke="none" stroke-width="1"/><path d="" fill="#6c54a3" stroke="none" stroke-width="1"/><path d="" fill="#170b36" stroke="none" stroke-width="1"/><path d="" fill="#170b36" stroke="none" stroke-width="1"/><text transform="translate(197.00394,101.42988) scale(0.44191,0.44191)" font-size="40" xml:space="preserve" fill="#000000" fill-rule="nonzero" stroke-opacity="0" stroke="#000000" stroke-width="0" stroke-linecap="butt" stroke-linejoin="miter" stroke-miterlimit="10" stroke-dasharray="" stroke-dashoffset="0" font-family="Sans Serif" font-weight="normal" text-anchor="start" style="mix-blend-mode: normal"><tspan x="0" dy="0">时装回廊</tspan></text><text transform="translate(178.67718,73.54636) scale(0.39166,0.39166)" font-size="40" xml:space="preserve" fill="#ffffff" fill-rule="nonzero" stroke="none" stroke-width="1" stroke-linecap="butt" stroke-linejoin="miter" stroke-miterlimit="10" stroke-dasharray="" stroke-dashoffset="0" font-family="Sans Serif" font-weight="normal" text-anchor="start" style="mix-blend-mode: normal"><tspan x="0" dy="0">activity</tspan></text></g></g></svg>