<svg version="1.1" xmlns="http://www.w3.org/2000/svg" xmlns:xlink="http://www.w3.org/1999/xlink" width="518.28586" height="390.1304" viewBox="0,0,518.28586,390.1304"><g transform="translate(34.39004,3.33337)"><g data-paper-data="{&quot;isPaintingLayer&quot;:true}" fill-rule="nonzero" stroke-linecap="butt" stroke-linejoin="miter" stroke-miterlimit="10" stroke-dasharray="" stroke-dashoffset="0" style="mix-blend-mode: normal"><path d="M-7.10418,366.66663v-370h491v370z" fill="#f0f0f0" stroke="none" stroke-width="0"/><text transform="translate(26.3703,266.05449) scale(1.47833,1.47833)" font-size="40" xml:space="preserve" fill="#d8d8d8" fill-rule="nonzero" stroke="none" stroke-width="1" stroke-linecap="butt" stroke-linejoin="miter" stroke-miterlimit="10" stroke-dasharray="" stroke-dashoffset="0" font-family="Sans Serif" font-weight="normal" text-anchor="start" style="mix-blend-mode: normal"><tspan x="0" dy="0">R.P.</tspan><tspan x="0" dy="46.150000000000006px">T.S.</tspan></text><path d="M-32.28785,275.92604l105.59396,-103.40974l102.73436,108.73083l-105.59396,103.40974z" fill="none" stroke="#dddddd" stroke-width="3"/><text transform="translate(365.30398,349.73768) scale(0.30833,0.30833)" font-size="40" xml:space="preserve" fill="#46aeff" fill-rule="nonzero" stroke="none" stroke-width="1" stroke-linecap="butt" stroke-linejoin="miter" stroke-miterlimit="10" stroke-dasharray="" stroke-dashoffset="0" font-family="&quot;Microsoft YaHei&quot;, &quot;微软雅黑&quot;, STXihei, &quot;华文细黑&quot;" font-weight="normal" text-anchor="start" style="mix-blend-mode: normal"><tspan x="0" dy="0">点击干员查看详情</tspan></text><path d="M427.25,122.91664v-35h36.5v35z" fill-opacity="0.38039" fill="#000000" stroke="none" stroke-width="0"/><path d="M423.5,119.66664v-37h37v37z" fill="#2d2d2d" stroke="none" stroke-width="0"/><path d="M427.25,166.41664v-35h36.5v35z" fill-opacity="0.38039" fill="#000000" stroke="none" stroke-width="0"/><path d="M423.5,163.16664v-37h37v37z" fill="#2d2d2d" stroke="none" stroke-width="0"/><path d="M428.25,342.91664v-161.47826h36.5v161.47826z" fill-opacity="0.38039" fill="#000000" stroke="none" stroke-width="0"/><path d="M424.5,338.2008v-167.53416h37v167.53416z" fill="#2d2d2d" stroke="none" stroke-width="0"/><path d="M432.60295,102.05326l9.67712,-10.11699l10.11699,9.67712l-9.67712,10.11699z" fill="#c5c5c5" stroke="#111111" stroke-width="2"/><path d="M436.9,152.13332c0,0 0,-5.83759 0,-9.7c0,-2.76045 -4.4,-7.1 -4.4,-7.1h20c0,0 -4.4,4.67961 -4.4,7.1c0,3.87211 -0.4,13.5 -0.4,13.5z" fill="#c5c5c5" stroke="#111111" stroke-width="2"/><path d="M435.5,193.41502c0,-3.86599 3.13401,-7 7,-7c3.86599,0 7,3.13401 7,7c0,3.86599 -3.13401,7 -7,7c-3.86599,0 -7,-3.13401 -7,-7z" fill="#c5c5c5" stroke="#111111" stroke-width="2"/><path d="M436,222.91502c0,-3.86599 3.13401,-7 7,-7c3.86599,0 7,3.13401 7,7c0,3.86599 -3.13401,7 -7,7c-3.86599,0 -7,-3.13401 -7,-7z" fill="#c5c5c5" stroke="#111111" stroke-width="2"/><path d="M436.5,253.91502c0,-3.86599 3.13401,-7 7,-7c3.86599,0 7,3.13401 7,7c0,3.86599 -3.13401,7 -7,7c-3.86599,0 -7,-3.13401 -7,-7z" fill="#c5c5c5" stroke="#111111" stroke-width="2"/><path d="M435.5,286.41502c0,-3.86599 3.13401,-7 7,-7c3.86599,0 7,3.13401 7,7c0,3.86599 -3.13401,7 -7,7c-3.86599,0 -7,-3.13401 -7,-7z" fill="#c5c5c5" stroke="#111111" stroke-width="2"/><path d="M436.5,315.41502c0,-3.86599 3.13401,-7 7,-7c3.86599,0 7,3.13401 7,7c0,3.86599 -3.13401,7 -7,7c-3.86599,0 -7,-3.13401 -7,-7z" fill="#c5c5c5" stroke="#111111" stroke-width="2"/><path d="M298.5,245.66664v-161h117c0,0 0,29.95348 0,52.85215c0,3.16766 5.5,6.20031 5.5,9c0,1.84592 -5.5,7.35528 -5.5,9.5c0,31.7455 0,89.64785 0,89.64785z" fill="#2d2d2d" stroke="none" stroke-width="0"/></g></g></svg>