<svg version="1.1" xmlns="http://www.w3.org/2000/svg" xmlns:xlink="http://www.w3.org/1999/xlink" width="494" height="194.21586" viewBox="0,0,494,194.21586"><g transform="translate(7,-82.89207)"><g data-paper-data="{&quot;isPaintingLayer&quot;:true}" fill-rule="nonzero" stroke-linecap="butt" stroke-linejoin="miter" stroke-miterlimit="10" stroke-dasharray="" stroke-dashoffset="0" style="mix-blend-mode: normal"><path d="M255,242.10793v-146.21586h227v146.21586z" fill="#000000" stroke="none" stroke-width="0" opacity="0.7"/><path d="M-7,277.10793v-194.21586h494v194.21586z" fill="#000000" stroke="none" stroke-width="0" opacity="0.7"/><text transform="translate(16.581,172.38819) scale(0.29612,0.29612)" font-size="40" xml:space="preserve" fill="#ffffff" fill-rule="nonzero" stroke="none" stroke-width="1" stroke-linecap="butt" stroke-linejoin="miter" stroke-miterlimit="10" stroke-dasharray="" stroke-dashoffset="0" font-family="Sans Serif" font-weight="normal" text-anchor="start" style="mix-blend-mode: normal"><tspan x="0" dy="0">凯尔希：博士，人事部的效率太低</tspan><tspan x="0" dy="48px">了，连个资深干员都招不到。</tspan></text><text transform="translate(205.29163,267.83331) scale(0.23998,0.23998)" font-size="40" xml:space="preserve" fill="#8b8b8b" fill-rule="nonzero" stroke="none" stroke-width="1" stroke-linecap="butt" stroke-linejoin="miter" stroke-miterlimit="10" stroke-dasharray="" stroke-dashoffset="0" font-family="Sans Serif" font-weight="normal" text-anchor="start" style="mix-blend-mode: normal"><tspan x="0" dy="0">点击空白处关闭</tspan></text><text transform="translate(13.31014,206.79501) scale(0.30139,0.30139)" font-size="40" xml:space="preserve" fill="#aaaaaa" fill-rule="nonzero" stroke="none" stroke-width="1" stroke-linecap="butt" stroke-linejoin="miter" stroke-miterlimit="10" stroke-dasharray="" stroke-dashoffset="0" font-family="&quot;Microsoft YaHei&quot;, &quot;微软雅黑&quot;, STXihei, &quot;华文细黑&quot;" font-weight="normal" text-anchor="start" style="mix-blend-mode: normal"><tspan x="0" dy="0">“招募是博士重要的干员来源之一，</tspan><tspan x="0" dy="48px">效率超高，几乎一秒钟就可用招到干员”</tspan></text><text transform="translate(61.89581,124.66666) scale(0.5,0.5)" font-size="40" xml:space="preserve" fill="#ffffff" fill-rule="nonzero" stroke="#ffffff" stroke-width="2" stroke-linecap="butt" stroke-linejoin="miter" stroke-miterlimit="10" stroke-dasharray="" stroke-dashoffset="0" font-family="&quot;Microsoft YaHei&quot;, &quot;微软雅黑&quot;, STXihei, &quot;华文细黑&quot;" font-weight="normal" text-anchor="start" style="mix-blend-mode: normal"><tspan x="0" dy="0">招募</tspan></text><path d="M51.5,119c0,9.66713 -7.8357,17.5 -17.5,17.5c-9.6643,0 -17.5,-7.83287 -17.5,-17.5c0,-9.66148 7.8357,-17.5 17.5,-17.5c9.6643,0 17.5,7.83852 17.5,17.5zM31.03629,112.22581c0,1.63681 1.3269,2.96371 2.96371,2.96371c1.63681,0 2.96371,-1.3269 2.96371,-2.96371c0,-1.63681 -1.3269,-2.96371 -2.96371,-2.96371c-1.63681,0 -2.96371,1.3269 -2.96371,2.96371zM37.95161,125.49194c0,-0.46763 -0.37914,-0.84677 -0.84677,-0.84677h-0.84677v-7.05645c0,-0.46763 -0.37914,-0.84677 -0.84677,-0.84677h-4.51613c-0.46763,0 -0.84677,0.37914 -0.84677,0.84677v1.69355c0,0.46763 0.37914,0.84677 0.84677,0.84677h0.84677v4.51613h-0.84677c-0.46763,0 -0.84677,0.37914 -0.84677,0.84677v1.69355c0,0.46763 0.37914,0.84677 0.84677,0.84677h6.20968c0.46763,0 0.84677,-0.37914 0.84677,-0.84677z" fill="#ffffff" stroke="none" stroke-width="1"/><text transform="translate(271.5,114.96002) scale(0.21384,0.21384)" font-size="40" xml:space="preserve" fill="#ffffff" fill-rule="nonzero" stroke="none" stroke-width="1" stroke-linecap="butt" stroke-linejoin="miter" stroke-miterlimit="10" stroke-dasharray="" stroke-dashoffset="0" font-family="Sans Serif" font-weight="normal" text-anchor="start" style="mix-blend-mode: normal"><tspan x="0" dy="0">招募概率说明：</tspan><tspan x="0" dy="46.15px">空卷  60%</tspan><tspan x="0" dy="46.15px">通用干员信物 20%</tspan><tspan x="0" dy="46.15px">干员 20%</tspan><tspan x="0" dy="46.15px"> </tspan><tspan x="0" dy="46.15px">在“干员”中各项目的出现概率：</tspan><tspan x="0" dy="46.15px">80% 资深干员</tspan><tspan x="0" dy="46.15px">20% 高级资深干员</tspan><tspan x="0" dy="46.15px"> </tspan><tspan x="0" dy="46.15px">保底规则：</tspan><tspan x="0" dy="46.15px">不存在保底</tspan></text></g></g></svg>