<svg version="1.1" xmlns="http://www.w3.org/2000/svg" xmlns:xlink="http://www.w3.org/1999/xlink" width="22.66666" height="16.99999" viewBox="0,0,22.66666,16.99999"><g transform="translate(-60.66367,-16)"><g data-paper-data="{&quot;isPaintingLayer&quot;:true}" fill="#ffffff" fill-rule="nonzero" stroke="none" stroke-width="1" stroke-linecap="butt" stroke-linejoin="miter" stroke-miterlimit="10" stroke-dasharray="" stroke-dashoffset="0" style="mix-blend-mode: normal"><path d="M81.20533,16c1.17318,0 2.125,0.95138 2.125,2.125c0,0.66849 -0.31432,1.29714 -0.85,1.7l-9.63333,7.225c-0.50469,0.3763 -1.19531,0.3763 -1.7,0l-9.63333,-7.225c-0.5351,-0.40286 -0.85,-1.03151 -0.85,-1.7c0,-1.17362 0.95138,-2.125 2.125,-2.125zM70.297,28.18333c1.00938,0.75703 2.39063,0.75703 3.4,0l9.63333,-7.225v9.20833c0,1.56276 -1.27057,2.83333 -2.83333,2.83333h-17c-1.56497,0 -2.83333,-1.27058 -2.83333,-2.83333v-9.20833z"/></g></g></svg>