<svg version="1.1" xmlns="http://www.w3.org/2000/svg" xmlns:xlink="http://www.w3.org/1999/xlink" width="494" height="194.21586" viewBox="0,0,494,194.21586"><g transform="translate(6.99999,-82.89208)"><g data-paper-data="{&quot;isPaintingLayer&quot;:true}" fill-rule="nonzero" stroke-linecap="butt" stroke-linejoin="miter" stroke-miterlimit="10" stroke-dasharray="" stroke-dashoffset="0" style="mix-blend-mode: normal"><path d="M-6.99999,277.10794v-194.21586h494v194.21586z" fill="#000000" stroke="none" stroke-width="0" opacity="0.7"/><path d="M96.33077,264.31559v-19.31821l4.92654,-4.78618h58.50027v19.14795l-5.74518,4.95645z" fill="#669dff" stroke="none" stroke-width="0"/><text transform="translate(112.29732,260.7197) scale(0.5,0.5)" font-size="40" xml:space="preserve" fill="#80a6ff" fill-rule="nonzero" stroke="none" stroke-width="1" stroke-linecap="butt" stroke-linejoin="miter" stroke-miterlimit="10" stroke-dasharray="" stroke-dashoffset="0" font-family="Sans Serif" font-weight="normal" text-anchor="start" style="mix-blend-mode: normal"><tspan x="0" dy="0">CON</tspan></text><text transform="translate(113.79731,256.234) scale(0.28208,0.28208)" font-size="40" xml:space="preserve" fill="#f5f8ff" fill-rule="nonzero" stroke="none" stroke-width="1" stroke-linecap="butt" stroke-linejoin="miter" stroke-miterlimit="10" stroke-dasharray="" stroke-dashoffset="0" font-family="Sans Serif" font-weight="normal" text-anchor="start" style="mix-blend-mode: normal"><tspan x="0" dy="0">继续</tspan></text><g stroke="none"><path d="M20.33075,264.31557v-19.31821l4.92654,-4.78618h58.50027v19.14795l-5.74518,4.95645z" fill="#ff9999" stroke-width="0"/><text transform="translate(26.29731,260.4697) scale(0.34832,0.34832)" font-size="40" xml:space="preserve" fill="#ffb0b0" fill-rule="nonzero" stroke="none" stroke-width="1" stroke-linecap="butt" stroke-linejoin="miter" stroke-miterlimit="10" stroke-dasharray="" stroke-dashoffset="0" font-family="Sans Serif" font-weight="normal" text-anchor="start" style="mix-blend-mode: normal"><tspan x="0" dy="0">CANCEL</tspan></text><text transform="translate(37.79731,256.23398) scale(0.28208,0.28208)" font-size="40" xml:space="preserve" fill="#f5f8ff" fill-rule="nonzero" stroke="none" stroke-width="1" stroke-linecap="butt" stroke-linejoin="miter" stroke-miterlimit="10" stroke-dasharray="" stroke-dashoffset="0" font-family="Sans Serif" font-weight="normal" text-anchor="start" style="mix-blend-mode: normal"><tspan x="0" dy="0">放弃</tspan></text></g><text transform="translate(16.58101,172.38823) scale(0.29612,0.29612)" font-size="40" xml:space="preserve" fill="#ffffff" fill-rule="nonzero" stroke="none" stroke-width="1" stroke-linecap="butt" stroke-linejoin="miter" stroke-miterlimit="10" stroke-dasharray="" stroke-dashoffset="0" font-family="Sans Serif" font-weight="normal" text-anchor="start" style="mix-blend-mode: normal"><tspan x="0" dy="0">再坚持一下吧！</tspan></text><text transform="translate(17.31014,194.79505) scale(0.30139,0.30139)" font-size="40" xml:space="preserve" fill="#aaaaaa" fill-rule="nonzero" stroke="none" stroke-width="1" stroke-linecap="butt" stroke-linejoin="miter" stroke-miterlimit="10" stroke-dasharray="" stroke-dashoffset="0" font-family="&quot;Microsoft YaHei&quot;, &quot;微软雅黑&quot;, STXihei, &quot;华文细黑&quot;" font-weight="normal" text-anchor="start" style="mix-blend-mode: normal"><tspan x="0" dy="0">坚持不住就放弃吧！</tspan></text><text transform="translate(61.89582,124.6667) scale(0.5,0.5)" font-size="40" xml:space="preserve" fill="#ffffff" fill-rule="nonzero" stroke="#ffffff" stroke-width="2" stroke-linecap="butt" stroke-linejoin="miter" stroke-miterlimit="10" stroke-dasharray="" stroke-dashoffset="0" font-family="&quot;Microsoft YaHei&quot;, &quot;微软雅黑&quot;, STXihei, &quot;华文细黑&quot;" font-weight="normal" text-anchor="start" style="mix-blend-mode: normal"><tspan x="0" dy="0">放弃？</tspan></text><path d="M22.33334,124.32443v-13.35714c0,-2.76639 2.24254,-5.00893 5.00893,-5.00893h3.33929c0.92352,0 1.66964,0.74769 1.66964,1.66964c0,0.92196 -0.74612,1.66964 -1.66964,1.66964h-3.33929c-0.92196,0 -1.66964,0.74769 -1.66964,1.66964v13.35714c0,0.92196 0.74769,1.66964 1.66964,1.66964h3.33929c0.92352,0 1.66964,0.74612 1.66964,1.66964c0,0.92352 -0.74612,1.66964 -1.66964,1.66964h-3.33929c-2.76639,0 -5.00893,-2.24358 -5.00893,-5.00893zM48.67196,118.5074l-7.51861,7.09598c-0.36367,0.34322 -0.89728,0.43698 -1.35658,0.2397c-0.45931,-0.19827 -0.75708,-0.65074 -0.75708,-1.15049l-0.00479,-3.70974l-6.67857,-0.00005c-0.92248,0 -1.67069,-0.74769 -1.67069,-1.66964v-3.33929c0,-0.92196 0.74769,-1.66964 1.67069,-1.66964l6.67857,0.00005l0.00479,-3.7567c0,-0.49985 0.29777,-0.95237 0.75708,-1.15049c0.45915,-0.19728 0.99265,-0.10352 1.35658,0.2397l7.51861,7.09598c0.50089,0.4748 0.50089,1.35137 0,1.77462z" fill="#ffffff" stroke="none" stroke-width="1"/></g></g></svg>