<svg version="1.1" xmlns="http://www.w3.org/2000/svg" xmlns:xlink="http://www.w3.org/1999/xlink" width="86.39165" height="40.12499" viewBox="0,0,86.39165,40.12499"><g transform="translate(-196.80418,-159.93752)"><g data-paper-data="{&quot;isPaintingLayer&quot;:true}" fill-rule="nonzero" stroke-width="0" stroke-linecap="butt" stroke-linejoin="miter" stroke-miterlimit="10" stroke-dasharray="" stroke-dashoffset="0" style="mix-blend-mode: normal"><path d="M196.80419,200.06252c0,0 0,-10.34837 0,-18.125c0,-0.33856 0.5,-0.67225 0.5,-1c0,-1.07671 0,-2.08931 0,-3c0,-0.39522 -0.5,-0.77125 -0.5,-1.125c0,-6.04001 0,-16.75 0,-16.75h7.66667c0,0 0,9.10118 0,16.375c0,0.46682 -0.5,0.92612 -0.5,1.375c0,0.92803 0,1.81154 0,2.625c0,0.48504 0.5,0.94518 0.5,1.375c0,6.34999 0,18.25 0,18.25z" fill="#cdff62" stroke="none"/><g stroke="#ffffff"><path d="M206.52915,199.93753v-40c0,0 10.95258,0 19,0c0.51656,0 1.07334,1.16666 1.66667,1.16666c7.3687,0 20.37547,0 32,0c0.44662,0 0.89119,-1.16666 1.33333,-1.16666c9.08175,0 17.13466,0 20.70834,0c1.25566,0 1.95834,0.82496 1.95834,2.125c0,3.74879 0,11.44794 0,14.70833c0,0.13121 -0.625,0.52567 -0.625,1.04167c0,0.72443 0,1.68844 0,2.5c0,0.44098 0.625,0.83694 0.625,1.125c0,5.46943 0,12.3681 0,16c0,1.54594 -1.0119,2.5 -2.33334,2.5c-7.45845,0 -74.33334,0 -74.33334,0z" fill="#303030"/><text transform="translate(212.48805,173.70412) scale(0.23854,0.23854)" font-size="40" xml:space="preserve" fill="#e8e8e8" fill-rule="nonzero" stroke="#ffffff" stroke-width="0" stroke-linecap="butt" stroke-linejoin="miter" stroke-miterlimit="10" stroke-dasharray="" stroke-dashoffset="0" font-family="Sans Serif" font-weight="normal" text-anchor="start" style="mix-blend-mode: normal"><tspan x="0" dy="0">发电站</tspan></text><text transform="translate(213.81251,182.17518) scale(0.1125,0.1125)" font-size="40" xml:space="preserve" fill="#9c9c9c" fill-rule="nonzero" stroke="#ffffff" stroke-width="0" stroke-linecap="butt" stroke-linejoin="miter" stroke-miterlimit="10" stroke-dasharray="" stroke-dashoffset="0" font-family="Sans Serif" font-weight="normal" text-anchor="start" style="mix-blend-mode: normal"><tspan x="0" dy="0">基础设施</tspan></text></g></g></g></svg>