<svg version="1.1" xmlns="http://www.w3.org/2000/svg" xmlns:xlink="http://www.w3.org/1999/xlink" width="477" height="357.69787" viewBox="0,0,477,357.69787"><defs><linearGradient x1="85.50003" y1="54.22918" x2="85.50003" y2="300.22918" gradientUnits="userSpaceOnUse" id="color-1"><stop offset="0" stop-color="#dcdcdc"/><stop offset="1" stop-color="#dcdcdc" stop-opacity="0"/></linearGradient><linearGradient x1="254.50003" y1="55.22918" x2="254.50003" y2="178.22918" gradientUnits="userSpaceOnUse" id="color-2"><stop offset="0" stop-color="#dcdcdc"/><stop offset="1" stop-color="#dcdcdc" stop-opacity="0"/></linearGradient><linearGradient x1="255.00003" y1="197.22918" x2="255.00003" y2="296.22918" gradientUnits="userSpaceOnUse" id="color-3"><stop offset="0" stop-color="#dcdcdc"/><stop offset="1" stop-color="#dcdcdc" stop-opacity="0"/></linearGradient><linearGradient x1="425.00003" y1="247.22918" x2="425.00003" y2="308.22918" gradientUnits="userSpaceOnUse" id="color-4"><stop offset="0" stop-color="#dcdcdc"/><stop offset="1" stop-color="#dcdcdc" stop-opacity="0"/></linearGradient><linearGradient x1="428.00003" y1="57.22918" x2="428.00003" y2="107.22918" gradientUnits="userSpaceOnUse" id="color-5"><stop offset="0" stop-color="#dcdcdc"/><stop offset="1" stop-color="#dcdcdc" stop-opacity="0"/></linearGradient><linearGradient x1="430.00003" y1="122.22918" x2="430.00003" y2="176.22918" gradientUnits="userSpaceOnUse" id="color-6"><stop offset="0" stop-color="#dcdcdc"/><stop offset="1" stop-color="#dcdcdc" stop-opacity="0"/></linearGradient></defs><g transform="translate(-21.50002,49.4687)"><g data-paper-data="{&quot;isPaintingLayer&quot;:true}" fill-rule="nonzero" stroke-linejoin="miter" stroke-miterlimit="10" stroke-dasharray="" stroke-dashoffset="0" style="mix-blend-mode: normal"><g fill="#9966ff" stroke="none" stroke-width="0" stroke-linecap="butt"><path d="M82.89587,-18.46869l12,-23l16,23z"/><path d="M62.89587,-17.46868l13.71429,-26.28571l18.28571,26.28571z"/><path d="M102.89587,-42.96869c0,-3.58985 2.91015,-6.5 6.5,-6.5c3.58985,0 6.5,2.91015 6.5,6.5c0,3.58985 -2.91015,6.5 -6.5,6.5c-3.58985,0 -6.5,-2.91015 -6.5,-6.5z"/></g><path d="M21.50003,300.22918v-246h128v246z" fill="url(#color-1)" stroke="none" stroke-width="0" stroke-linecap="butt"/><path d="M165.5,178.22918v-123h178v123z" fill="url(#color-2)" stroke="none" stroke-width="0" stroke-linecap="butt"/><path d="M165.5,296.22918v-99h179v99z" fill="url(#color-3)" stroke="none" stroke-width="0" stroke-linecap="butt"/><path d="M363.50003,308.22918v-61h123v61z" fill="url(#color-4)" stroke="none" stroke-width="0" stroke-linecap="butt"/><path d="M363.50003,107.22918v-50h129v50z" fill="url(#color-5)" stroke="none" stroke-width="0" stroke-linecap="butt"/><path d="M361.50003,176.22918v-54h137v54z" fill="url(#color-6)" stroke="none" stroke-width="0" stroke-linecap="butt"/><text transform="translate(37.50001,90.22918) scale(0.5,0.5)" font-size="40" xml:space="preserve" fill="#292929" fill-rule="nonzero" stroke="none" stroke-width="1" stroke-linecap="butt" stroke-linejoin="miter" stroke-miterlimit="10" stroke-dasharray="" stroke-dashoffset="0" font-family="Sans Serif" font-weight="normal" text-anchor="start" style="mix-blend-mode: normal"><tspan x="0" dy="0">主题曲</tspan></text><text transform="translate(181.50003,88.22918) scale(0.5,0.5)" font-size="40" xml:space="preserve" fill="#292929" fill-rule="nonzero" stroke="none" stroke-width="1" stroke-linecap="butt" stroke-linejoin="miter" stroke-miterlimit="10" stroke-dasharray="" stroke-dashoffset="0" font-family="Sans Serif" font-weight="normal" text-anchor="start" style="mix-blend-mode: normal"><tspan x="0" dy="0">活动</tspan></text><text transform="translate(382.50003,76.22916) scale(0.5,0.5)" font-size="40" xml:space="preserve" fill="#292929" fill-rule="nonzero" stroke="none" stroke-width="1" stroke-linecap="butt" stroke-linejoin="miter" stroke-miterlimit="10" stroke-dasharray="" stroke-dashoffset="0" font-family="Sans Serif" font-weight="normal" text-anchor="start" style="mix-blend-mode: normal"><tspan x="0" dy="0">剿灭</tspan></text><text transform="translate(389.50003,148.22918) scale(0.5,0.5)" font-size="40" xml:space="preserve" fill="#292929" fill-rule="nonzero" stroke="none" stroke-width="1" stroke-linecap="butt" stroke-linejoin="miter" stroke-miterlimit="10" stroke-dasharray="" stroke-dashoffset="0" font-family="Sans Serif" font-weight="normal" text-anchor="start" style="mix-blend-mode: normal"><tspan x="0" dy="0">行动</tspan></text><text transform="translate(390.50003,276.22918) scale(0.5,0.5)" font-size="40" xml:space="preserve" fill="#292929" fill-rule="nonzero" stroke="none" stroke-width="1" stroke-linecap="butt" stroke-linejoin="miter" stroke-miterlimit="10" stroke-dasharray="" stroke-dashoffset="0" font-family="Sans Serif" font-weight="normal" text-anchor="start" style="mix-blend-mode: normal"><tspan x="0" dy="0">最近</tspan></text><text transform="translate(183.50003,226.22918) scale(0.5,0.5)" font-size="40" xml:space="preserve" fill="#292929" fill-rule="nonzero" stroke="none" stroke-width="1" stroke-linecap="butt" stroke-linejoin="miter" stroke-miterlimit="10" stroke-dasharray="" stroke-dashoffset="0" font-family="Sans Serif" font-weight="normal" text-anchor="start" style="mix-blend-mode: normal"><tspan x="0" dy="0">资讯</tspan></text><g fill="none" stroke-width="2"><g stroke="#ffd6d6"><path d="M53.6586,175.37467c0,-14.73001 11.94104,-26.67105 26.67105,-26.67105c14.73001,0 26.67105,11.94104 26.67105,26.67105c0,14.73001 -11.94104,26.67105 -26.67105,26.67105c-14.73001,0 -26.67105,-11.94104 -26.67105,-26.67105z" stroke-linecap="butt"/><path d="M60.01209,158.7483l39.78797,33.2295" stroke-linecap="round"/></g><g stroke="#ff6666"><path d="M49.99929,176.52489c0,-14.73001 11.94104,-26.67105 26.67105,-26.67105c14.73001,0 26.67105,11.94104 26.67105,26.67105c0,14.73001 -11.94104,26.67105 -26.67105,26.67105c-14.73001,0 -26.67105,-11.94104 -26.67105,-26.67105z" stroke-linecap="butt"/><path d="M56.35278,159.89854l39.78797,33.22952" stroke-linecap="round"/></g></g><g fill="none" stroke-width="2"><g stroke="#ffd6d6"><path d="M225.6586,116.37467c0,-14.73001 11.94104,-26.67105 26.67105,-26.67105c14.73001,0 26.67105,11.94104 26.67105,26.67105c0,14.73001 -11.94104,26.67105 -26.67105,26.67105c-14.73001,0 -26.67105,-11.94104 -26.67105,-26.67105z" stroke-linecap="butt"/><path d="M232.01209,99.7483l39.78798,33.2295" stroke-linecap="round"/></g><g stroke="#ff6666"><path d="M221.99929,117.52489c0,-14.73001 11.94104,-26.67105 26.67105,-26.67105c14.73001,0 26.67105,11.94104 26.67105,26.67105c0,14.73001 -11.94104,26.67105 -26.67105,26.67105c-14.73001,0 -26.67105,-11.94104 -26.67105,-26.67105z" stroke-linecap="butt"/><path d="M228.35278,100.89854l39.78797,33.22952" stroke-linecap="round"/></g></g><g fill="none" stroke-width="2"><g stroke="#ffd6d6"><path d="M229.6586,258.37467c0,-14.73001 11.94104,-26.67105 26.67105,-26.67105c14.73001,0 26.67105,11.94104 26.67105,26.67105c0,14.73001 -11.94104,26.67105 -26.67105,26.67105c-14.73001,0 -26.67105,-11.94104 -26.67105,-26.67105z" stroke-linecap="butt"/><path d="M236.01209,241.74831l39.78798,33.2295" stroke-linecap="round"/></g><g stroke="#ff6666"><path d="M225.99929,259.52489c0,-14.73001 11.94104,-26.67105 26.67105,-26.67105c14.73001,0 26.67105,11.94104 26.67105,26.67105c0,14.73001 -11.94104,26.67105 -26.67105,26.67105c-14.73001,0 -26.67105,-11.94104 -26.67105,-26.67105z" stroke-linecap="butt"/><path d="M232.35278,242.89854l39.78798,33.22952" stroke-linecap="round"/></g></g></g></g></svg>