<svg version="1.1" xmlns="http://www.w3.org/2000/svg" xmlns:xlink="http://www.w3.org/1999/xlink" width="137" height="255" viewBox="0,0,137,255"><g transform="translate(-171.5,-52.5)"><g data-paper-data="{&quot;isPaintingLayer&quot;:true}" fill-rule="nonzero" stroke-linejoin="miter" stroke-miterlimit="10" stroke-dasharray="" stroke-dashoffset="0" style="mix-blend-mode: normal"><path d="" fill="#ffffff" stroke="none" stroke-width="1" stroke-linecap="butt"/><path d="" fill="#6c54a3" stroke="none" stroke-width="1" stroke-linecap="butt"/><path d="" fill="#6c54a3" stroke="none" stroke-width="1" stroke-linecap="butt"/><path d="" fill="#6c54a3" stroke="none" stroke-width="1" stroke-linecap="butt"/><path d="" fill="#170b36" stroke="none" stroke-width="1" stroke-linecap="butt"/><path d="" fill="#170b36" stroke="none" stroke-width="1" stroke-linecap="butt"/><path d="M174,305v-250h132v250z" fill="#ffffff" stroke="#ffffff" stroke-width="5" stroke-linecap="butt" opacity="0.7"/><text transform="translate(209.12457,262.55622) scale(0.49198,0.49198)" font-size="40" xml:space="preserve" fill="#000000" fill-rule="nonzero" stroke-opacity="0" stroke="#000000" stroke-width="0" stroke-linecap="butt" stroke-linejoin="miter" stroke-miterlimit="10" stroke-dasharray="" stroke-dashoffset="0" font-family="Sans Serif" font-weight="normal" text-anchor="start" style="mix-blend-mode: normal"><tspan x="0" dy="0">无活动</tspan></text><text transform="translate(178.67718,73.54636) scale(0.39166,0.39166)" font-size="40" xml:space="preserve" fill="#ffffff" fill-rule="nonzero" stroke="none" stroke-width="1" stroke-linecap="butt" stroke-linejoin="miter" stroke-miterlimit="10" stroke-dasharray="" stroke-dashoffset="0" font-family="Sans Serif" font-weight="normal" text-anchor="start" style="mix-blend-mode: normal"><tspan x="0" dy="0">activity</tspan></text><g fill="none" stroke="#ffd6d6" stroke-width="2"><path d="M210.44629,164.60487c0,-16.54998 13.41641,-29.96639 29.96639,-29.96639c16.54998,0 29.96639,13.41641 29.96639,29.96639c0,16.54998 -13.41641,29.96639 -29.96639,29.96639c-16.54998,0 -29.96639,-13.41641 -29.96639,-29.96639z" stroke-linecap="butt"/><path d="M217.58478,145.92424l44.70397,37.33517" stroke-linecap="round"/></g><g fill="none" stroke="#ff6666" stroke-width="2"><path d="M206.33485,165.89721c0,-16.54998 13.41641,-29.96639 29.96639,-29.96639c16.54998,0 29.96639,13.41641 29.96639,29.96639c0,16.54998 -13.41641,29.96639 -29.96639,29.96639c-16.54998,0 -29.96639,-13.41641 -29.96639,-29.96639z" stroke-linecap="butt"/><path d="M213.47334,147.21659l44.70397,37.33519" stroke-linecap="round"/></g></g></g></svg>