<svg version="1.1" xmlns="http://www.w3.org/2000/svg" xmlns:xlink="http://www.w3.org/1999/xlink" width="364.625" height="256.06248" viewBox="0,0,364.625,256.06248"><g transform="translate(-12.25,-63.50006)"><g data-paper-data="{&quot;isPaintingLayer&quot;:true}" fill-rule="nonzero" stroke-linecap="butt" stroke-linejoin="miter" stroke-miterlimit="10" stroke-dasharray="" stroke-dashoffset="0" style="mix-blend-mode: normal"><path d="M12.25,106.50007v-43h105v43z" fill-opacity="0.4902" fill="#3d3d3d" stroke="none" stroke-width="0"/><text transform="translate(29.75,89.19756) scale(0.34876,0.34876)" font-size="40" xml:space="preserve" fill="#ffffff" fill-rule="nonzero" stroke="none" stroke-width="1" stroke-linecap="butt" stroke-linejoin="miter" stroke-miterlimit="10" stroke-dasharray="" stroke-dashoffset="0" font-family="Pixel" font-weight="normal" text-anchor="start" style="mix-blend-mode: normal"><tspan x="0" dy="0">可建造房间</tspan></text><path d="M74.3042,319.56255c0,0 0,-14.73273 0,-25.80413c0,-0.482 0.71184,-0.95706 0.71184,-1.42368c0,-1.53289 0,-2.9745 0,-4.27103c0,-0.56266 -0.71184,-1.09801 -0.71184,-1.60164c0,-8.59902 0,-23.84657 0,-23.84657h10.91485c0,0 0,12.95713 0,23.3127c0,0.6646 -0.71184,1.31849 -0.71184,1.95755c0,1.32122 0,2.57905 0,3.73715c0,0.69054 0.71184,1.34563 0.71184,1.95755c0,9.04033 0,25.98209 0,25.98209z" fill="#525252" stroke="none" stroke-width="0"/><g stroke="#ffffff" stroke-width="0"><path d="M88.14939,319.3846v-56.94705c0,0 15.59293,0 27.04985,0c0.73542,0 1.52809,1.66095 2.3728,1.66095c10.49064,0 29.00807,0 45.55764,0c0.63584,0 1.26876,-1.66095 1.89823,-1.66095c12.92947,0 149.6777,0 154.76547,0c1.78765,0 2.78805,1.17448 2.78805,3.02531c0,5.33707 0,16.29816 0,20.9399c0,0.1868 -0.8898,0.74838 -0.8898,1.483c0,1.03135 0,2.40379 0,3.55919c0,0.62781 0.8898,1.19153 0.8898,1.60164c0,7.7867 0,17.60817 0,22.77882c0,2.20092 -1.44061,3.55919 -3.32192,3.55919c-10.61842,0 -231.1101,0 -231.1101,0z" fill="#303030"/><text transform="translate(96.63293,282.03672) scale(0.33961,0.33961)" font-size="40" xml:space="preserve" fill="#e8e8e8" fill-rule="nonzero" stroke="#ffffff" stroke-width="0" stroke-linecap="butt" stroke-linejoin="miter" stroke-miterlimit="10" stroke-dasharray="" stroke-dashoffset="0" font-family="Sans Serif" font-weight="normal" text-anchor="start" style="mix-blend-mode: normal"><tspan x="0" dy="0">训练室</tspan></text><text transform="translate(98.51854,294.09676) scale(0.16017,0.16017)" font-size="40" xml:space="preserve" fill="#9c9c9c" fill-rule="nonzero" stroke="#ffffff" stroke-width="0" stroke-linecap="butt" stroke-linejoin="miter" stroke-miterlimit="10" stroke-dasharray="" stroke-dashoffset="0" font-family="Sans Serif" font-weight="normal" text-anchor="start" style="mix-blend-mode: normal"><tspan x="0" dy="0">空房间</tspan></text></g><path d="M332.875,316.86459v-54h44v54z" fill="#5a5a5a" stroke="none" stroke-width="0"/><text transform="translate(342.875,291.23959) scale(0.33749,0.33749)" font-size="40" xml:space="preserve" fill="#dedede" fill-rule="nonzero" stroke="none" stroke-width="1" stroke-linecap="butt" stroke-linejoin="miter" stroke-miterlimit="10" stroke-dasharray="" stroke-dashoffset="0" font-family="Sans Serif" font-weight="normal" text-anchor="start" style="mix-blend-mode: normal"><tspan x="0" dy="0">选择</tspan></text></g></g></svg>