<svg version="1.1" xmlns="http://www.w3.org/2000/svg" xmlns:xlink="http://www.w3.org/1999/xlink" width="50.37907" height="70.02558" viewBox="0,0,50.37907,70.02558"><g transform="translate(-564.21587,-65.99989)"><g data-paper-data="{&quot;isPaintingLayer&quot;:true}" fill-rule="nonzero" stroke-linecap="butt" stroke-linejoin="miter" stroke-miterlimit="10" stroke-dasharray="" stroke-dashoffset="0" style="mix-blend-mode: normal"><path d="M564.21587,136.02547v-61.80325l7.54909,-8.22233h42.82998v61.55567l-6.49665,8.46991z" fill="#09b0e1" stroke="none" stroke-width="0" opacity="0.7"/><text transform="translate(573.91764,88.19991) scale(0.37837,0.37837)" font-size="40" xml:space="preserve" fill="#ffffff" fill-rule="nonzero" stroke="#ffffff" stroke-width="2" stroke-linecap="butt" stroke-linejoin="miter" stroke-miterlimit="10" stroke-dasharray="" stroke-dashoffset="0" font-family="Serif" font-weight="normal" text-anchor="start" style="mix-blend-mode: normal"><tspan x="0" dy="0">任务</tspan></text><path d="M585.06607,114.97222v15.27778c0,1.15017 -0.93316,2.08333 -2.08333,2.08333h-12.5c-1.15017,0 -2.08333,-0.93316 -2.08333,-2.08333v-15.27778c0,-1.15017 0.93316,-2.08333 2.08333,-2.08333h3.47222c0,-1.53212 1.24566,-2.77778 2.77778,-2.77778c1.53212,0 2.77778,1.24566 2.77778,2.77778h3.47222c1.15017,0 2.08333,0.93316 2.08333,2.08333zM573.60774,127.47222c0,-0.57726 -0.46441,-1.04167 -1.04167,-1.04167c-0.57726,0 -1.04167,0.46441 -1.04167,1.04167c0,0.57726 0.46441,1.04167 1.04167,1.04167c0.57726,0 1.04167,-0.46441 1.04167,-1.04167zM573.60774,123.30556c0,-0.57726 -0.46441,-1.04167 -1.04167,-1.04167c-0.57726,0 -1.04167,0.46441 -1.04167,1.04167c0,0.57726 0.46441,1.04167 1.04167,1.04167c0.57726,0 1.04167,-0.46441 1.04167,-1.04167zM573.60774,119.13889c0,-0.57726 -0.46441,-1.04167 -1.04167,-1.04167c-0.57726,0 -1.04167,0.46441 -1.04167,1.04167c0,0.57726 0.46441,1.04167 1.04167,1.04167c0.57726,0 1.04167,-0.46441 1.04167,-1.04167zM575.69107,112.88889c0,0.57726 0.46441,1.04167 1.04167,1.04167c0.57726,0 1.04167,-0.46441 1.04167,-1.04167c0,-0.57726 -0.46441,-1.04167 -1.04167,-1.04167c-0.57726,0 -1.04167,0.46441 -1.04167,1.04167zM582.28829,127.125c0,-0.19097 -0.15625,-0.34722 -0.34722,-0.34722h-6.25c-0.19097,0 -0.34722,0.15625 -0.34722,0.34722v0.69444c0,0.19097 0.15625,0.34722 0.34722,0.34722h6.25c0.19097,0 0.34722,-0.15625 0.34722,-0.34722zM582.28829,122.95833c0,-0.19097 -0.15625,-0.34722 -0.34722,-0.34722h-6.25c-0.19097,0 -0.34722,0.15625 -0.34722,0.34722v0.69444c0,0.19097 0.15625,0.34722 0.34722,0.34722h6.25c0.19097,0 0.34722,-0.15625 0.34722,-0.34722zM582.28829,118.79167c0,-0.19097 -0.15625,-0.34722 -0.34722,-0.34722h-6.25c-0.19097,0 -0.34722,0.15625 -0.34722,0.34722v0.69444c0,0.19097 0.15625,0.34722 0.34722,0.34722h6.25c0.19097,0 0.34722,-0.15625 0.34722,-0.34722z" fill="#09b0e1" stroke="none" stroke-width="1"/></g></g></svg>