<svg version="1.1" xmlns="http://www.w3.org/2000/svg" xmlns:xlink="http://www.w3.org/1999/xlink" width="541.00043" height="477.21553" viewBox="0,0,541.00043,477.21553"><defs><linearGradient x1="46.5" y1="326.86458" x2="46.5" y2="233.86458" gradientUnits="userSpaceOnUse" id="color-1"><stop offset="0" stop-color="#2d2828"/><stop offset="1" stop-color="#2d2828" stop-opacity="0"/></linearGradient><radialGradient cx="249.50042" cy="379.5802" r="266.5" gradientUnits="userSpaceOnUse" id="color-2"><stop offset="0" stop-color="#191919"/><stop offset="1" stop-color="#020002"/></radialGradient><linearGradient x1="141.5" y1="375.25006" x2="141.5" y2="328.25003" gradientUnits="userSpaceOnUse" id="color-3"><stop offset="0" stop-color="#848484" stop-opacity="0"/><stop offset="1" stop-color="#848484"/></linearGradient><linearGradient x1="338.50002" y1="373.75006" x2="338.50002" y2="326.75003" gradientUnits="userSpaceOnUse" id="color-4"><stop offset="0" stop-color="#848484" stop-opacity="0"/><stop offset="1" stop-color="#848484"/></linearGradient><linearGradient x1="46.5" y1="-13.13542" x2="46.5" y2="86.86458" gradientUnits="userSpaceOnUse" id="color-5"><stop offset="0" stop-color="#2d2828"/><stop offset="1" stop-color="#2d2828" stop-opacity="0"/></linearGradient></defs><g transform="translate(34.5,96.46867)"><g data-paper-data="{&quot;isPaintingLayer&quot;:true}" fill-rule="nonzero" stroke-linecap="butt" stroke-linejoin="miter" stroke-miterlimit="10" stroke-dasharray="" stroke-dashoffset="0" style="mix-blend-mode: normal"><path d="M-21,361.96244v-386h494v386z" fill="#0b0303" stroke="#000000" stroke-width="2"/><path d="M-30.5,375.00001v-404h156v404z" fill="#3d3636" stroke="none" stroke-width="0"/><path d="M124.5,233.86458v93h-156v-93z" data-paper-data="{&quot;index&quot;:null}" fill="url(#color-1)" stroke="none" stroke-width="0"/><text transform="translate(212.5,31.65) scale(0.3625,0.3625)" font-size="40" xml:space="preserve" fill="#565656" fill-rule="nonzero" stroke="none" stroke-width="1" stroke-linecap="butt" stroke-linejoin="miter" stroke-miterlimit="10" stroke-dasharray="" stroke-dashoffset="0" font-family="Sans Serif" font-weight="normal" text-anchor="start" style="mix-blend-mode: normal"><tspan x="0" dy="0">点击封面进入</tspan></text><g fill="#9966ff" stroke="none" stroke-width="0"><path d="M82.89584,-65.46867l12,-23l16,23z"/><path d="M62.89585,-64.46866l13.71429,-26.28571l18.28571,26.28571z"/><path d="M102.89585,-89.96867c0,-3.58985 2.91015,-6.5 6.5,-6.5c3.58985,0 6.5,2.91015 6.5,6.5c0,3.58985 -2.91015,6.5 -6.5,6.5c-3.58985,0 -6.5,-2.91015 -6.5,-6.5z"/></g><path d="M-26.49957,380.74687v-59.33333h533v59.33333z" fill="url(#color-2)" stroke="none" stroke-width="0"/><path d="M190.93497,328.25003h0.31505v47h-99.5v-47h0.51228" data-paper-data="{&quot;index&quot;:null}" fill="none" stroke="url(#color-3)" stroke-width="1"/><path d="M387.93498,326.75003h0.31505v47h-99.5v-47h0.51228" data-paper-data="{&quot;index&quot;:null}" fill="none" stroke="url(#color-4)" stroke-width="1"/><path d="M-34.5,86.86458v-100h162v100z" fill="url(#color-5)" stroke="none" stroke-width="0"/></g></g></svg>