<svg version="1.1" xmlns="http://www.w3.org/2000/svg" xmlns:xlink="http://www.w3.org/1999/xlink" width="670.28223" height="143.81748" viewBox="0,0,670.28223,143.81748"><g transform="translate(8.82792,6.31749)"><g data-paper-data="{&quot;isPaintingLayer&quot;:true}" fill-rule="nonzero" stroke-linejoin="miter" stroke-miterlimit="10" stroke-dasharray="" stroke-dashoffset="0" style="mix-blend-mode: normal"><path d="M-8.13544,130.9999v-135h657.41561v135z" fill="#000000" stroke="none" stroke-width="0" stroke-linecap="butt" opacity="0.7"/><path d="M-8.82792,137.49999v-143.81748c0,0 257.25477,0 374.7658,0c104.34927,0 295.51643,0 295.51643,0v143.81748z" fill-opacity="0.15294" fill="#545454" stroke="none" stroke-width="0" stroke-linecap="butt"/><text transform="translate(97.89202,25.66668) scale(0.41333,0.41333)" font-size="40" xml:space="preserve" fill="#ffffff" fill-rule="nonzero" stroke="#ffffff" stroke-width="1" stroke-linecap="butt" stroke-linejoin="miter" stroke-miterlimit="10" stroke-dasharray="" stroke-dashoffset="0" font-family="Sans Serif" font-weight="normal" text-anchor="start" style="mix-blend-mode: normal"><tspan x="0" dy="0">引索</tspan></text><path d="M128.44772,77.58322c0,-3.17564 2.57436,-5.75 5.75,-5.75c3.17564,0 5.75,2.57436 5.75,5.75c0,3.17564 -2.57436,5.75 -5.75,5.75c-3.17564,0 -5.75,-2.57436 -5.75,-5.75z" fill="#ffffff" stroke="none" stroke-width="0" stroke-linecap="butt"/><path d="M222.44771,101.58322c0,-3.45178 2.79822,-6.25 6.25,-6.25c3.45178,0 6.25,2.79822 6.25,6.25c0,3.45178 -2.79822,6.25 -6.25,6.25c-3.45178,0 -6.25,-2.79822 -6.25,-6.25z" fill="#ffffff" stroke="none" stroke-width="0" stroke-linecap="butt"/><path d="M320.94772,62.08322c0,-4.00406 3.24594,-7.25 7.25,-7.25c4.00406,0 7.25,3.24594 7.25,7.25c0,4.00406 -3.24594,7.25 -7.25,7.25c-4.00406,0 -7.25,-3.24594 -7.25,-7.25z" fill="#ffffff" stroke="none" stroke-width="0" stroke-linecap="butt"/><path d="M425.94772,33.58322c0,-3.72792 3.02208,-6.75 6.75,-6.75c3.72792,0 6.75,3.02208 6.75,6.75c0,3.72792 -3.02208,6.75 -6.75,6.75c-3.72792,0 -6.75,-3.02208 -6.75,-6.75z" fill="#ffffff" stroke="none" stroke-width="0" stroke-linecap="butt"/><path d="M523.44772,102.08322c0,-4.00406 3.24594,-7.25 7.25,-7.25c4.00406,0 7.25,3.24594 7.25,7.25c0,4.00406 -3.24594,7.25 -7.25,7.25c-4.00406,0 -7.25,-3.24594 -7.25,-7.25z" fill="#ffffff" stroke="none" stroke-width="0" stroke-linecap="butt"/><text transform="translate(145.44772,71.20822) scale(0.25081,0.25081)" font-size="40" xml:space="preserve" fill="#ffffff" fill-rule="nonzero" stroke="none" stroke-width="1" stroke-linecap="butt" stroke-linejoin="miter" stroke-miterlimit="10" stroke-dasharray="" stroke-dashoffset="0" font-family="Sans Serif" font-weight="normal" text-anchor="start" style="mix-blend-mode: normal"><tspan x="0" dy="0">主页</tspan></text><text transform="translate(219.94771,83.36182) scale(0.2375,0.2375)" font-size="40" xml:space="preserve" fill="#ffffff" fill-rule="nonzero" stroke="none" stroke-width="1" stroke-linecap="butt" stroke-linejoin="miter" stroke-miterlimit="10" stroke-dasharray="" stroke-dashoffset="0" font-family="Sans Serif" font-weight="normal" text-anchor="start" style="mix-blend-mode: normal"><tspan x="0" dy="0">作战</tspan></text><text transform="translate(322.84967,84.98221) scale(0.22623,0.21539)" font-size="40" xml:space="preserve" fill="#ffffff" fill-rule="nonzero" stroke="none" stroke-width="1" stroke-linecap="butt" stroke-linejoin="miter" stroke-miterlimit="10" stroke-dasharray="" stroke-dashoffset="0" font-family="Sans Serif" font-weight="normal" text-anchor="start" style="mix-blend-mode: normal"><tspan x="0" dy="0">队员</tspan></text><text transform="translate(422.94772,57.33322) scale(0.28332,0.28332)" font-size="40" xml:space="preserve" fill="#ffffff" fill-rule="nonzero" stroke="none" stroke-width="1" stroke-linecap="butt" stroke-linejoin="miter" stroke-miterlimit="10" stroke-dasharray="" stroke-dashoffset="0" font-family="Sans Serif" font-weight="normal" text-anchor="start" style="mix-blend-mode: normal"><tspan x="0" dy="0">招募</tspan></text><text transform="translate(519.01598,82.939) scale(0.27415,0.27415)" font-size="40" xml:space="preserve" fill="#ffffff" fill-rule="nonzero" stroke="none" stroke-width="1" stroke-linecap="butt" stroke-linejoin="miter" stroke-miterlimit="10" stroke-dasharray="" stroke-dashoffset="0" font-family="Sans Serif" font-weight="normal" text-anchor="start" style="mix-blend-mode: normal"><tspan x="0" dy="0">基地</tspan></text><g fill="none" stroke="#ffffff" stroke-width="2.5" stroke-linecap="round"><path d="M447.44772,40.83322l67,51.5"/><path d="M343.94772,58.83322l79,-19"/><path d="M316.94772,68.33322l-77.5,29.5"/><path d="M216.44771,97.83322l-69.5,-16.5"/></g></g></g></svg>