<svg version="1.1" xmlns="http://www.w3.org/2000/svg" xmlns:xlink="http://www.w3.org/1999/xlink" width="645" height="405" viewBox="0,0,645,405"><defs><linearGradient x1="420.78939" y1="274.32889" x2="436.12994" y2="274.32889" gradientUnits="userSpaceOnUse" id="color-1"><stop offset="0" stop-color="#6d6e71"/><stop offset="1" stop-color="#414042"/></linearGradient><linearGradient x1="428.45964" y1="268.41722" x2="428.45964" y2="280.24072" gradientUnits="userSpaceOnUse" id="color-2"><stop offset="0" stop-color="#58595b"/><stop offset="1" stop-color="#000000"/></linearGradient></defs><g transform="translate(2.5,22.5)"><g data-paper-data="{&quot;isPaintingLayer&quot;:true}" fill-rule="nonzero" stroke="none" stroke-linecap="butt" stroke-linejoin="miter" stroke-miterlimit="10" stroke-dasharray="" stroke-dashoffset="0" style="mix-blend-mode: normal"><path d="M-2.5,382.5v-405h645v405z" fill-opacity="0.70196" fill="#000000" stroke-width="0"/><path d="M117.5,296.83331v-222h415v222z" fill-opacity="0.38039" fill="#000000" stroke-width="0"/><path d="M112,290.53552v-221.63934h416v221.63934z" fill="#fab300" stroke-width="0"/><path d="M370.57923,254.16393v-159.69399h84.10929v159.69399z" fill-opacity="0.38039" fill="#000000" stroke-width="0"/><path d="M112.06831,291.10383v-215.45355h261.42077v215.45355z" fill="#343434" stroke-width="0"/><path d="M365.46448,251.3224v-163.67213h86.38251v163.67213z" fill="#4d3700" stroke-width="0"/><text transform="translate(121.95628,91.47268) scale(0.26044,0.26044)" font-size="40" xml:space="preserve" fill="#ffffff" fill-rule="nonzero" stroke="none" stroke-width="1" stroke-linecap="butt" stroke-linejoin="miter" stroke-miterlimit="10" stroke-dasharray="" stroke-dashoffset="0" font-family="Sans Serif" font-weight="normal" text-anchor="start" style="mix-blend-mode: normal"><tspan x="0" dy="0">每日签到</tspan></text><path d="M433.6612,138.79781v-15.91257h80.69945v15.91257z" fill="#7e5a00" stroke-width="0"/><text transform="translate(460.93989,116.384) scale(0.19591,0.19591)" font-size="40" xml:space="preserve" fill="#000000" fill-rule="nonzero" stroke="none" stroke-width="1" stroke-linecap="butt" stroke-linejoin="miter" stroke-miterlimit="10" stroke-dasharray="" stroke-dashoffset="0" font-family="Sans Serif" font-weight="normal" text-anchor="start" style="mix-blend-mode: normal"><tspan x="0" dy="0">龙门币 x1000</tspan></text><text transform="translate(438.77596,277.03825) scale(0.26044,0.26044)" font-size="40" xml:space="preserve" fill="#000000" fill-rule="nonzero" stroke="none" stroke-width="1" stroke-linecap="butt" stroke-linejoin="miter" stroke-miterlimit="10" stroke-dasharray="" stroke-dashoffset="0" font-family="Sans Serif" font-weight="normal" text-anchor="start" style="mix-blend-mode: normal"><tspan x="0" dy="0">已签到</tspan></text><path d="M435.59118,271.19746l-8.83119,8.87957c-0.35024,0.35227 -0.81668,0.5462 -1.31364,0.5462c0,0 0,0 -0.00013,0c-0.31056,0 -0.61816,-0.07821 -0.88954,-0.22648c-0.02489,-0.01313 -0.05244,-0.02985 -0.08,-0.04656l-0.01762,-0.01072c-0.01377,-0.00816 -0.02755,-0.01671 -0.04106,-0.02566c-0.11548,-0.07488 -0.22481,-0.16444 -0.32013,-0.26309l-2.78868,-2.88717c-0.71052,-0.73566 -0.69011,-1.91226 0.04569,-2.62306c0.34754,-0.33569 0.80507,-0.52057 1.28824,-0.52057c0.50793,0 0.98166,0.20122 1.33457,0.56636l1.48345,1.53577l7.49972,-7.54053c0.35073,-0.35278 0.81796,-0.54697 1.31543,-0.54697c0.49338,0 0.95792,0.19151 1.30763,0.53958c0.7252,0.72124 0.7284,1.89824 0.00727,2.62332z" fill="url(#color-1)" stroke-width="0.59874"/><path d="M435.31955,270.92774l-8.83119,8.87957c-0.47247,0.47514 -1.18836,0.55933 -1.74846,0.25362c-0.02451,-0.01313 -0.04812,-0.02794 -0.07209,-0.04234c-0.01238,-0.0078 -0.02476,-0.01481 -0.03689,-0.02272c-0.09159,-0.05958 -0.17862,-0.12924 -0.25784,-0.21128l-2.78855,-2.88691c-0.56483,-0.58486 -0.54876,-1.51689 0.03623,-2.08184c0.58462,-0.5647 1.51651,-0.5485 2.08146,0.03635l1.75498,1.81671l7.77516,-7.81753c0.57337,-0.57657 1.5054,-0.57913 2.08159,-0.00586c0.5767,0.5735 0.57913,1.50553 0.0056,2.08223z" fill="url(#color-2)" stroke-width="0.59874"/><text transform="translate(279.5,309.55103) scale(0.25,0.25)" font-size="40" xml:space="preserve" fill="#ffffff" fill-rule="nonzero" stroke="none" stroke-width="1" stroke-linecap="butt" stroke-linejoin="miter" stroke-miterlimit="10" stroke-dasharray="" stroke-dashoffset="0" font-family="Sans Serif" font-weight="normal" text-anchor="start" style="mix-blend-mode: normal"><tspan x="0" dy="0">点击空白处关闭</tspan></text><path d="M365.55747,94.49998v-12h83.88506v12z" fill-opacity="0.38039" fill="#000000" stroke-width="0"/><path d="M363,91.49998v-16.5h89v16.5z" fill="#4d3700" stroke-width="0"/><text transform="translate(371,85.87498) scale(0.16414,0.16414)" font-size="40" xml:space="preserve" fill="#ffffff" fill-rule="nonzero" stroke="none" stroke-width="1" stroke-linecap="butt" stroke-linejoin="miter" stroke-miterlimit="10" stroke-dasharray="" stroke-dashoffset="0" font-family="Sans Serif" font-weight="normal" text-anchor="start" style="mix-blend-mode: normal"><tspan x="0" dy="0">刷新时间</tspan></text></g></g></svg>