<svg version="1.1" xmlns="http://www.w3.org/2000/svg" xmlns:xlink="http://www.w3.org/1999/xlink" width="137.07255" height="255" viewBox="0,0,137.07255,255"><g transform="translate(-171.42745,-52.5)"><g data-paper-data="{&quot;isPaintingLayer&quot;:true}" fill-rule="nonzero" stroke-linecap="butt" stroke-linejoin="miter" stroke-miterlimit="10" stroke-dasharray="" stroke-dashoffset="0" style="mix-blend-mode: normal"><path d="" fill="#487836" stroke="none" stroke-width="1"/><path d="" fill="#75b449" stroke="none" stroke-width="1"/><path d="M180.17512,306.43051c0,0 0.2601,0.02279 0.6353,0.1741c-0.58886,0.0025 -1.17773,0.00502 -1.76659,0.00754c0.32801,-0.17356 0.70322,-0.24058 1.1313,-0.18164z" fill="#75b449" stroke="none" stroke-width="1"/><path d="" fill="#487836" stroke="none" stroke-width="1"/><path d="" fill="#487836" stroke="none" stroke-width="1"/><path d="" fill="#487836" stroke="none" stroke-width="1"/><path d="" fill="#75b449" stroke="none" stroke-width="1"/><path d="M171.44151,303.25724c0.37654,1.17834 0.70932,2.33603 0.99163,3.3838c-0.33523,0.00149 -0.67046,0.00299 -1.00569,0.00449c0.00476,-1.12943 0.00944,-2.25886 0.01406,-3.38828z" fill="#75b449" stroke="none" stroke-width="1"/><path d="" fill="#75b449" stroke="none" stroke-width="1"/><path d="" fill="#75b449" stroke="none" stroke-width="1"/><path d="" fill="#75b449" stroke="none" stroke-width="1"/><path d="" fill="#487836" stroke="none" stroke-width="1"/><path d="M298.30651,305.56161c0,0 -0.13907,0.24148 -0.39418,0.7141c-0.17989,0.00024 -0.35978,0.00048 -0.53967,0.00072c0.30809,-0.24076 0.61937,-0.47905 0.93385,-0.71482z" fill="#75b449" stroke="none" stroke-width="1"/><path d="M187.52131,306.47001c0,0 -0.00677,0.03588 -0.01956,0.10672c-0.01653,0.00007 -0.03307,0.00014 -0.0496,0.0002c0.02299,-0.03575 0.04605,-0.07139 0.06917,-0.10692z" fill="#75b449" stroke="none" stroke-width="1"/><path d="" fill="#75b449" stroke="none" stroke-width="1"/><path d="" fill="#ffffff" stroke="none" stroke-width="1"/><path d="M274.45116,57.09467c0,-0.71983 0.58353,-1.30336 1.30335,-1.30336c0.71982,0 1.30336,0.58353 1.30336,1.30336c0,0.71983 -0.58353,1.30336 -1.30336,1.30336c-0.71982,0 -1.30335,-0.58353 -1.30335,-1.30336z" fill="#ffffff" stroke="none" stroke-width="1"/><path d="" fill="#ffffff" stroke="none" stroke-width="1"/><path d="" fill="#6c54a3" stroke="none" stroke-width="1"/><path d="" fill="#6c54a3" stroke="none" stroke-width="1"/><path d="" fill="#6c54a3" stroke="none" stroke-width="1"/><path d="" fill="#170b36" stroke="none" stroke-width="1"/><path d="" fill="#170b36" stroke="none" stroke-width="1"/><path d="M174,305v-250h132v250z" fill="#ffffff" stroke="#ffffff" stroke-width="5" opacity="0.7"/><text transform="translate(178.89524,71.37251) scale(0.39166,0.39166)" font-size="40" xml:space="preserve" fill="#ffffff" fill-rule="nonzero" stroke="none" stroke-width="1" stroke-linecap="butt" stroke-linejoin="miter" stroke-miterlimit="10" stroke-dasharray="" stroke-dashoffset="0" font-family="Sans Serif" font-weight="normal" text-anchor="start" style="mix-blend-mode: normal"><tspan x="0" dy="0">chapter</tspan></text><text transform="translate(200,185.76875) scale(0.5,0.5)" font-size="40" xml:space="preserve" fill="#909090" fill-rule="nonzero" stroke="none" stroke-width="1" stroke-linecap="butt" stroke-linejoin="miter" stroke-miterlimit="10" stroke-dasharray="" stroke-dashoffset="0" font-family="Sans Serif" font-weight="normal" text-anchor="start" style="mix-blend-mode: normal"><tspan x="0" dy="0">未待完续</tspan></text></g></g></svg>