<svg version="1.1" xmlns="http://www.w3.org/2000/svg" xmlns:xlink="http://www.w3.org/1999/xlink" width="499" height="422.66667" viewBox="0,0,499,422.66667"><g transform="translate(8,56.49998)"><g data-paper-data="{&quot;isPaintingLayer&quot;:true}" fill-rule="nonzero" stroke-linecap="butt" stroke-linejoin="miter" stroke-miterlimit="10" stroke-dasharray="" stroke-dashoffset="0" style="mix-blend-mode: normal"><path d="M-7,365.16669v-376h497v376z" fill="#c5c5c5" stroke="#111111" stroke-width="2"/><path d="M16.25,72.00001v-55.5h141.5v55.5z" fill-opacity="0.4902" fill="#3d3d3d" stroke="none" stroke-width="0"/><path d="M24.75,-36.17933c0,-6.51023 8.83559,-19.32065 17.60326,-19.32065c13.12605,0 49.29363,0 74.27717,0c13.25347,0 19.75,13.16667 19.75,19.75c0,6.58333 -6.11816,19.75 -18.8913,19.75c-23.96198,0 -60.7676,0 -74.27717,0c-9.88238,0 -18.46196,-13.52602 -18.46196,-20.17935z" fill="#3c3c3c" stroke="#111111" stroke-width="2"/><path d="M14.25,68.50001v-54h140v54z" fill="#3c3c3c" stroke="#111111" stroke-width="2"/><path d="M7.25,22.50001v-16h54v16z" fill="#000000" stroke="none" stroke-width="0"/><text transform="translate(12.75,17.51251) scale(0.24062,0.24062)" font-size="40" xml:space="preserve" fill="#c5c5c5" fill-rule="nonzero" stroke="none" stroke-width="1" stroke-linecap="butt" stroke-linejoin="miter" stroke-miterlimit="10" stroke-dasharray="" stroke-dashoffset="0" font-family="Sans Serif" font-weight="normal" text-anchor="start" style="mix-blend-mode: normal"><tspan x="0" dy="0">联合作战</tspan></text><text transform="translate(96.58333,28.33335) scale(0.23998,0.23998)" font-size="40" xml:space="preserve" fill="#c5c5c5" fill-rule="nonzero" stroke="none" stroke-width="1" stroke-linecap="butt" stroke-linejoin="miter" stroke-miterlimit="10" stroke-dasharray="" stroke-dashoffset="0" font-family="Sans Serif" font-weight="normal" text-anchor="start" style="mix-blend-mode: normal"><tspan x="0" dy="0">有新chat</tspan></text><path d="M141.91667,21.00001c0,-1.38071 1.11929,-2.5 2.5,-2.5c1.38071,0 2.5,1.11929 2.5,2.5c0,1.38071 -1.11929,2.5 -2.5,2.5c-1.38071,0 -2.5,-1.11929 -2.5,-2.5z" fill="#c40000" stroke="none" stroke-width="0"/><text transform="translate(26,58.55558) scale(0.5,0.5)" font-size="40" xml:space="preserve" fill="#686868" fill-rule="nonzero" stroke="#686868" stroke-width="2" stroke-linecap="butt" stroke-linejoin="miter" stroke-miterlimit="10" stroke-dasharray="" stroke-dashoffset="0" font-family="Sans Serif" font-weight="normal" text-anchor="start" style="mix-blend-mode: normal"><tspan x="0" dy="0">等待</tspan></text><text transform="translate(52.66667,60.13891) scale(0.30498,0.30498)" font-size="40" xml:space="preserve" fill="#c5c5c5" fill-rule="nonzero" stroke="none" stroke-width="1" stroke-linecap="butt" stroke-linejoin="miter" stroke-miterlimit="10" stroke-dasharray="" stroke-dashoffset="0" font-family="Sans Serif" font-weight="normal" text-anchor="start" style="mix-blend-mode: normal"><tspan x="0" dy="0">正在准备...</tspan></text><path d="M19.25,151.00002v-55.5h141.5v55.5z" fill-opacity="0.4902" fill="#3d3d3d" stroke="none" stroke-width="0"/><path d="M17.25,147.50002v-54h140v54z" fill="#3c3c3c" stroke="#111111" stroke-width="2"/><path d="M10.25,101.50002v-16h54v16z" fill="#000000" stroke="none" stroke-width="0"/><text transform="translate(15.75,96.51252) scale(0.24063,0.24063)" font-size="40" xml:space="preserve" fill="#c5c5c5" fill-rule="nonzero" stroke="none" stroke-width="1" stroke-linecap="butt" stroke-linejoin="miter" stroke-miterlimit="10" stroke-dasharray="" stroke-dashoffset="0" font-family="Sans Serif" font-weight="normal" text-anchor="start" style="mix-blend-mode: normal"><tspan x="0" dy="0">联合作战</tspan></text><text transform="translate(29,137.55558) scale(0.5,0.5)" font-size="40" xml:space="preserve" fill="#686868" fill-rule="nonzero" stroke="#686868" stroke-width="2" stroke-linecap="butt" stroke-linejoin="miter" stroke-miterlimit="10" stroke-dasharray="" stroke-dashoffset="0" font-family="Sans Serif" font-weight="normal" text-anchor="start" style="mix-blend-mode: normal"><tspan x="0" dy="0">完成!</tspan></text><text transform="translate(55.66667,139.13891) scale(0.30499,0.30499)" font-size="40" xml:space="preserve" fill="#c5c5c5" fill-rule="nonzero" stroke="none" stroke-width="1" stroke-linecap="butt" stroke-linejoin="miter" stroke-miterlimit="10" stroke-dasharray="" stroke-dashoffset="0" font-family="Sans Serif" font-weight="normal" text-anchor="start" style="mix-blend-mode: normal"><tspan x="0" dy="0">已经Ready!</tspan></text></g></g></svg>