<svg version="1.1" xmlns="http://www.w3.org/2000/svg" xmlns:xlink="http://www.w3.org/1999/xlink" width="111.15246" height="210.20394" viewBox="0,0,111.15246,210.20394"><defs><radialGradient cx="271.57831" cy="234.19576" r="113.18293" gradientUnits="userSpaceOnUse" id="color-1"><stop offset="0" stop-color="#def9ff"/><stop offset="1" stop-color="#ffffff"/></radialGradient></defs><g transform="translate(-185.07748,-74.89803)"><g data-paper-data="{&quot;isPaintingLayer&quot;:true}" fill-rule="nonzero" stroke-linecap="butt" stroke-linejoin="miter" stroke-miterlimit="10" stroke-dasharray="" stroke-dashoffset="0" style="mix-blend-mode: normal"><path d="M196.24344,75.21638c6.34151,-0.71629 59.02901,0 87.23193,0c6.81587,0 11.4472,4.29842 11.4472,11.11429c0,12.72167 0,164.34631 0,187.46636c0,6.97831 -4.09072,11.30494 -11.06902,11.30494c-22.98854,0 -74.82877,0 -87.6101,0c-6.93632,0 -11.16597,-4.49467 -11.16597,-11.431c0,-23.18095 0,-174.6417 0,-187.3403c0,-5.54806 4.82446,-10.398 11.16597,-11.11429z" fill="url(#color-1)" stroke="none" stroke-width="0"/><path d="" fill="#ffffff" stroke="none" stroke-width="1"/><path d="" fill="#6c54a3" stroke="none" stroke-width="1"/><path d="" fill="#6c54a3" stroke="none" stroke-width="1"/><path d="" fill="#6c54a3" stroke="none" stroke-width="1"/><path d="" fill="#170b36" stroke="none" stroke-width="1"/><path d="" fill="#170b36" stroke="none" stroke-width="1"/><text transform="translate(197.00397,95.4925) scale(0.26328,0.26328)" font-size="40" xml:space="preserve" fill="#000000" fill-rule="nonzero" stroke="#000000" stroke-width="2" stroke-linecap="butt" stroke-linejoin="miter" stroke-miterlimit="10" stroke-dasharray="" stroke-dashoffset="0" font-family="Sans Serif" font-weight="normal" text-anchor="start" style="mix-blend-mode: normal"><tspan x="0" dy="0">一周年庆典补给</tspan></text><path d="M185.60868,276.06054c0,-3.07284 0,-9.46094 0,-9.46094h110.62126c0,0 0,6.3881 0,9.46094c0,2.91929 -4.27894,8.53906 -8.82324,8.53906c-12.23926,0 -69.07251,0 -92.08506,0c-6.00977,0 -9.71295,-5.61977 -9.71295,-8.53906z" fill="#58575c" stroke="none" stroke-width="0"/><text transform="translate(189.31104,182.38092) scale(0.21987,0.21987)" font-size="40" xml:space="preserve" fill="#000000" fill-rule="nonzero" stroke="#000000" stroke-width="1" stroke-linecap="butt" stroke-linejoin="miter" stroke-miterlimit="10" stroke-dasharray="" stroke-dashoffset="0" font-family="Sans Serif" font-weight="normal" text-anchor="start" style="mix-blend-mode: normal"><tspan x="0" dy="0">包含：</tspan><tspan x="0" dy="48px">龙门币x20000</tspan><tspan x="0" dy="48px">源石x24</tspan><tspan x="0" dy="48px">合成玉x6000</tspan></text><text transform="translate(188.00459,277.64619) scale(0.18758,0.18758)" font-size="40" xml:space="preserve" fill="#bbbbbb" fill-rule="nonzero" stroke="none" stroke-width="1" stroke-linecap="butt" stroke-linejoin="miter" stroke-miterlimit="10" stroke-dasharray="" stroke-dashoffset="0" font-family="Sans Serif" font-weight="normal" text-anchor="start" style="mix-blend-mode: normal"><tspan x="0" dy="0">88金币 | 48源石</tspan></text><text transform="translate(189.23908,261.44633) scale(0.20748,0.20748)" font-size="40" xml:space="preserve" fill="#000000" fill-rule="nonzero" stroke="none" stroke-width="1" stroke-linecap="butt" stroke-linejoin="miter" stroke-miterlimit="10" stroke-dasharray="" stroke-dashoffset="0" font-family="Sans Serif" font-weight="normal" text-anchor="start" style="mix-blend-mode: normal"><tspan x="0" dy="0">价格：</tspan></text><text transform="translate(205.15617,147.59656) rotate(48.75593) scale(0.70687,0.70687)" font-size="40" xml:space="preserve" fill="#9966ff" fill-rule="nonzero" stroke="none" stroke-width="1" stroke-linecap="butt" stroke-linejoin="miter" stroke-miterlimit="10" stroke-dasharray="" stroke-dashoffset="0" font-family="Malgun Gothic" font-weight="normal" text-anchor="start" style="mix-blend-mode: normal"><tspan x="0" dy="0">未开放</tspan></text></g></g></svg>