<svg version="1.1" xmlns="http://www.w3.org/2000/svg" xmlns:xlink="http://www.w3.org/1999/xlink" width="34.00142" height="32.59278" viewBox="0,0,34.00142,32.59278"><g transform="translate(-224.02649,-163.38073)"><g data-paper-data="{&quot;isPaintingLayer&quot;:true}" fill="none" fill-rule="nonzero" stroke-width="2" stroke-linejoin="miter" stroke-miterlimit="10" stroke-dasharray="" stroke-dashoffset="0" style="mix-blend-mode: normal"><g stroke="#ffd6d6"><path d="M227.08088,179.35425c0,-8.26964 6.70387,-14.97351 14.97351,-14.97351c8.26964,0 14.97351,6.70387 14.97351,14.97351c0,8.26964 -6.70387,14.97351 -14.97351,14.97351c-8.26964,0 -14.97351,-6.70387 -14.97351,-14.97351z" stroke-linecap="butt"/><path d="M230.64782,170.01997l22.33754,18.65552" stroke-linecap="round"/></g><g stroke="#ff6666"><path d="M225.02649,180c0,-8.26964 6.70387,-14.97351 14.97351,-14.97351c8.26964,0 14.97351,6.70387 14.97351,14.97351c0,8.26964 -6.70387,14.97351 -14.97351,14.97351c-8.26964,0 -14.97351,-6.70387 -14.97351,-14.97351z" stroke-linecap="butt"/><path d="M228.59343,170.66573l22.33754,18.65553" stroke-linecap="round"/></g></g></g></svg>