<svg version="1.1" xmlns="http://www.w3.org/2000/svg" xmlns:xlink="http://www.w3.org/1999/xlink" width="61.49302" height="33.3407" viewBox="0,0,61.49302,33.3407"><g transform="translate(-105.26405,-273.9999)"><g data-paper-data="{&quot;isPaintingLayer&quot;:true}" fill-rule="nonzero" stroke="none" stroke-linecap="butt" stroke-linejoin="miter" stroke-miterlimit="10" stroke-dasharray="" stroke-dashoffset="0" style="mix-blend-mode: normal"><path d="M105.26405,307.3406v-33.3407h61.49302v33.3407z" id="svg_1" fill="#ffffff" stroke-width="0" opacity="0.7"/><text transform="translate(132.04219,296.08331) scale(0.375,0.375)" font-size="40" xml:space="preserve" fill="#494949" fill-rule="nonzero" stroke="none" stroke-width="1" stroke-linecap="butt" stroke-linejoin="miter" stroke-miterlimit="10" stroke-dasharray="" stroke-dashoffset="0" font-family="Sans Serif" font-weight="normal" text-anchor="start" style="mix-blend-mode: normal"><tspan x="0" dy="0">退出</tspan></text><path d="M125.30683,293.38129l-0.00788,3.37721c-0.00163,0.69944 -0.56997,1.26513 -1.26941,1.2635l-9.28734,-0.02166c-0.69944,-0.00163 -1.26513,-0.56997 -1.2635,-1.26941l0.02166,-9.28734c0.00163,-0.69944 0.56997,-1.26513 1.26941,-1.2635l4.22152,0.00985c0.23315,0.00054 0.42171,0.18999 0.42117,0.42314l-0.00197,0.8443c-0.00054,0.23315 -0.18999,0.42171 -0.42314,0.42117l-3.79937,-0.00886l-0.01969,8.44303l8.44303,0.01969l0.00689,-2.95506c0.00054,-0.23315 0.18999,-0.42171 0.42314,-0.42117l0.8443,0.00197c0.23315,0.00054 0.42171,0.18999 0.42117,0.42314zM127.01464,285.15327l-0.00788,3.37721c-0.00132,0.56727 -0.68797,0.8427 -1.08281,0.44601l-0.94026,-0.9436l-6.44252,6.41438c-0.11909,0.11895 -0.28065,0.18559 -0.44897,0.1852c-0.16832,-0.00039 -0.32956,-0.06779 -0.4481,-0.18729l-0.59674,-0.59848c-0.11895,-0.11909 -0.18559,-0.28065 -0.1852,-0.44897c0.00039,-0.16832 0.06779,-0.32956 0.18729,-0.4481l6.44568,-6.41332l-0.94052,-0.94492c-0.39616,-0.39907 -0.11278,-1.08203 0.45106,-1.08072l3.37721,0.00788c0.34972,0.00082 0.63257,0.28498 0.63175,0.6347z" fill="#000000" stroke-width="1"/></g></g></svg>