<svg version="1.1" xmlns="http://www.w3.org/2000/svg" xmlns:xlink="http://www.w3.org/1999/xlink" width="256" height="358.07324" viewBox="0,0,256,358.07324"><defs><linearGradient x1="638.9" y1="309.86458" x2="24.5" y2="309.86458" gradientUnits="userSpaceOnUse" id="color-1"><stop offset="0" stop-color="#000000"/><stop offset="1" stop-color="#000000" stop-opacity="0"/></linearGradient><linearGradient x1="133.33334" y1="180.33334" x2="265.33334" y2="180.33334" gradientUnits="userSpaceOnUse" id="color-2"><stop offset="0" stop-color="#66a2ff"/><stop offset="1" stop-color="#66d7ff"/></linearGradient></defs><g transform="translate(-24.5,-123.79134)"><g data-paper-data="{&quot;isPaintingLayer&quot;:true}" fill-rule="nonzero" stroke-linecap="butt" stroke-linejoin="miter" stroke-miterlimit="10" stroke-dasharray="" stroke-dashoffset="0" style="mix-blend-mode: normal"><path d="M24.5,481.86458v-344h256v344z" data-paper-data="{&quot;index&quot;:null}" fill="url(#color-1)" stroke="#ffffff" stroke-width="0"/><path d="M133.25,200.37153c0,-3.66801 0,-13 0,-13h20v20c0,0 -10.98848,0 -14.66667,0c-2.21803,0 -5.33333,-4.30842 -5.33333,-7z" fill="#afafaf" stroke="#ffffff" stroke-width="1"/><path d="M133.33334,193.66666v-40.33332h132v54h-118.76584c0,0 -1.31633,-6.46616 -4.40123,-9.62423c-2.9902,-3.06113 -8.83293,-4.04245 -8.83293,-4.04245z" fill="url(#color-2)" stroke="#ffffff" stroke-width="1"/><text transform="translate(244.50001,132.15488) scale(0.19375,0.19375)" font-size="40" xml:space="preserve" fill="#8db5ff" fill-rule="nonzero" stroke="none" stroke-width="1" stroke-linecap="butt" stroke-linejoin="miter" stroke-miterlimit="10" stroke-dasharray="" stroke-dashoffset="0" font-family="Sans Serif" font-weight="normal" text-anchor="start" style="mix-blend-mode: normal"><tspan x="0" dy="0">普通成就</tspan></text><text transform="translate(156.5,167.87153) scale(0.27609,0.27609)" font-size="40" xml:space="preserve" fill="#8cdbff" fill-rule="nonzero" stroke="none" stroke-width="1" stroke-linecap="butt" stroke-linejoin="miter" stroke-miterlimit="10" stroke-dasharray="" stroke-dashoffset="0" font-family="Sans Serif" font-weight="normal" text-anchor="start" style="mix-blend-mode: normal"><tspan x="0" dy="0">获得成就！</tspan></text><text transform="translate(157.83334,189.12153) scale(0.36999,0.36999)" font-size="40" xml:space="preserve" fill="#f5f9ff" fill-rule="nonzero" stroke="none" stroke-width="1" stroke-linecap="butt" stroke-linejoin="miter" stroke-miterlimit="10" stroke-dasharray="" stroke-dashoffset="0" font-family="Sans Serif" font-weight="normal" text-anchor="start" style="mix-blend-mode: normal"><tspan x="0" dy="0">泰拉通行证</tspan></text><g stroke="none" stroke-width="1"><path d="M138.66667,162.44095c0,0 1.70636,-3.05968 4.1188,-3.94228c0,0 4.64836,-1.05912 6.1782,-0.41188c0,0 3.05968,2.11824 3.8246,3.29504c0,0 -4.1188,7.6492 -6.06052,8.826c0,0.05884 -7.29616,-4.58952 -8.06108,-7.76688z" fill="#7fccef"/><path d="M146.72775,170.26667l-0.52956,-4.05996l2.82432,-3.41272l3.2362,-2.00056c0.23536,0.17652 0.41188,0.41188 0.52956,0.5884c0,0 -4.05996,7.6492 -6.06052,8.88484z" fill="#678fe4"/><path d="M145.02139,160.91111l4.00112,1.88288c-0.11768,1.88288 -2.29476,7.47268 -2.29476,7.47268c-1.70636,-1.7652 -3.17736,-6.88428 -3.17736,-6.88428z" fill="#73b5e4"/><path d="M152.78827,161.38183c-1.471,0.82376 -2.3536,1.00028 -3.76576,1.41216c-2.11824,0.64724 -5.47212,0.5884 -5.47212,0.5884c-1.05912,0 -4.88372,-0.94144 -4.88372,-0.94144c0,0 1.7652,-3.00084 4.1188,-3.94228c0,0 4.58952,-1.05912 6.1782,-0.41188c0,0 3.05968,2.11824 3.8246,3.29504z" fill="#92d7ef"/><path d="M147.49267,159.26359l1.58868,3.58924c-2.11824,0.64724 -5.47212,0.5884 -5.47212,0.5884l0.23536,-3.8246l0.70608,-1.41216c0.76492,-0.17652 1.64752,-0.23536 2.47128,-0.2942z" fill="#7fccef"/><path d="M148.49295,160.38155c0.2942,0 2.76548,0.52956 4.17764,0.82376c0.05884,0.05884 0.05884,0.11768 0.11768,0.17652c-1.471,0.82376 -2.3536,1.00028 -3.76576,1.41216c-2.11824,0.64724 -5.47212,0.5884 -5.47212,0.5884c-1.05912,0 -4.88372,-0.94144 -4.88372,-0.94144c0,0 0.05884,-0.11768 0.17652,-0.2942c1.70636,-0.52956 4.17764,-1.29448 4.64836,-1.29448c0.70608,0 4.58952,-0.41188 5.0014,-0.47072z" fill="#83cdef"/><path d="M142.78547,158.49867c0,0 4.58952,-1.05912 6.23704,-0.35304c-0.41188,1.05912 -1.471,1.1768 -1.471,1.1768l-3.70692,0.23536c-0.70608,-0.52956 -1.05912,-1.05912 -1.05912,-1.05912z" fill="#bee6f1"/><path d="M152.78827,161.32299c-1.471,0.82376 -2.3536,1.00028 -3.76576,1.41216l-1.52984,-3.47156l1.00028,-1.29448c0.17652,0 0.35304,0.05884 0.47072,0.11768c0,0 3.05968,2.11824 3.8246,3.2362z" fill="#73b5e4"/><path d="M152.78827,161.38183c0,0 -0.05884,0.17652 -0.17652,0.41188c-0.11768,0.2942 -0.2942,0.64724 -0.47072,1.11796c-0.11768,0.23536 -0.23536,0.47072 -0.35304,0.70608c-0.11768,0.23536 -0.2942,0.52956 -0.47072,0.82376c-0.2942,0.52956 -0.70608,1.11796 -1.05912,1.70636c-0.41188,0.52956 -0.82376,1.11796 -1.1768,1.58868c-0.41188,0.47072 -0.76492,0.94144 -1.11796,1.29448c-0.70608,0.76492 -1.1768,1.1768 -1.1768,1.1768c0,0 0.47072,-0.52956 1.05912,-1.29448c0.2942,-0.41188 0.64724,-0.8826 1.05912,-1.35332c0.35304,-0.52956 0.76492,-1.05912 1.1768,-1.58868c0.41188,-0.52956 0.76492,-1.11796 1.05912,-1.64752c0.35304,-0.52956 0.64724,-1.05912 0.8826,-1.471c0.23536,-0.41188 0.47072,-0.82376 0.5884,-1.05912c0.11768,-0.23536 0.17652,-0.41188 0.17652,-0.41188z" fill="#3b73e4"/><path d="M138.66667,162.44095c0,0 0.2942,0 0.70608,0.05884c0.41188,0.05884 0.94144,0.11768 1.471,0.23536c0.52956,0.11768 1.05912,0.23536 1.471,0.35304c0.41188,0.11768 0.64724,0.17652 0.64724,0.17652c0,0 -0.2942,0.05884 -0.70608,0c-0.41188,-0.05884 -0.94144,-0.11768 -1.471,-0.23536c-0.52956,-0.11768 -1.05912,-0.23536 -1.471,-0.35304c-0.41188,-0.11768 -0.64724,-0.23536 -0.64724,-0.23536z" fill="#bee6f1"/><path d="M143.66807,163.97079c0,0 0.17652,0.35304 0.35304,0.82376c0.23536,0.52956 0.47072,1.1768 0.76492,1.82404c0.23536,0.64724 0.52956,1.35332 0.70608,1.82404c0.11768,0.23536 0.17652,0.47072 0.2942,0.5884c0.11768,0.11768 0.11768,0.17652 0.11768,0.17652c0,0 -0.05884,-0.05884 -0.17652,-0.17652c-0.11768,-0.11768 -0.23536,-0.2942 -0.41188,-0.52956c-0.2942,-0.47072 -0.5884,-1.11796 -0.8826,-1.82404c-0.2942,-0.70608 -0.47072,-1.35332 -0.64724,-1.88288c0,-0.47072 -0.11768,-0.82376 -0.11768,-0.82376z" fill="#bee6f1"/><path d="M148.49295,160.38155c0.2942,0 2.76548,0.52956 4.17764,0.82376c0.05884,0.05884 0.05884,0.11768 0.11768,0.17652c-1.471,0.82376 -2.3536,1.00028 -3.76576,1.41216l-1.00028,-2.3536c0.23536,0 0.41188,0 0.47072,-0.05884z" fill="#679fe4"/><path d="M148.02223,160.44039l1.00028,2.3536c-2.11824,0.64724 -5.47212,0.5884 -5.47212,0.5884l0.17652,-2.53012c0.94144,-0.05884 3.29504,-0.2942 4.29532,-0.41188z" fill="#7cbfef"/></g></g></g></svg>