<svg version="1.1" xmlns="http://www.w3.org/2000/svg" xmlns:xlink="http://www.w3.org/1999/xlink" width="567.30038" height="399.13225" viewBox="0,0,567.30038,399.13225"><defs><clipPath id="clip-1"><path d="M-30.65019,379.56612v-399.13225h567.30038v399.13225z" fill="none"/></clipPath><linearGradient x1="60.77198" y1="-2.96574" x2="60.77198" y2="49.39448" gradientUnits="userSpaceOnUse" id="color-1"><stop offset="0" stop-color="#af203d"/><stop offset="1" stop-color="#f9cf79"/></linearGradient><clipPath id="clip-2"><path d="M-30.65019,379.56612v-399.13225h567.30038v399.13225z" fill="none"/></clipPath><clipPath id="clip-3"><path d="M-30.65019,379.56612v-399.13225h567.30038v399.13225z" fill="none"/></clipPath><clipPath id="clip-4"><path d="M-30.65019,379.56612v-399.13225h567.30038v399.13225z" fill="none"/></clipPath><clipPath id="clip-5"><path d="M-30.65019,379.56612v-399.13225h567.30038v399.13225z" fill="none"/></clipPath><clipPath id="clip-6"><path d="M-30.65019,379.56612v-399.13225h567.30038v399.13225z" fill="none"/></clipPath><clipPath id="clip-7"><path d="M-30.65019,379.56612v-399.13225h567.30038v399.13225z" fill="none"/></clipPath><clipPath id="clip-8"><path d="M-30.65019,379.56612v-399.13225h567.30038v399.13225z" fill="none"/></clipPath><clipPath id="clip-9"><path d="M-30.65019,379.56612v-399.13225h567.30038v399.13225z" fill="none"/></clipPath><clipPath id="clip-10"><path d="M-30.65019,379.56612v-399.13225h567.30038v399.13225z" fill="none"/></clipPath><clipPath id="clip-11"><path d="M-30.65019,379.56612v-399.13225h567.30038v399.13225z" fill="none"/></clipPath><clipPath id="clip-12"><path d="M-30.65019,379.56612v-399.13225h567.30038v399.13225z" fill="none"/></clipPath><clipPath id="clip-13"><path d="M-30.65019,379.56612v-399.13225h567.30038v399.13225z" fill="none"/></clipPath><clipPath id="clip-14"><path d="M-30.65019,379.56612v-399.13225h567.30038v399.13225z" fill="none"/></clipPath><clipPath id="clip-15"><path d="M-30.65019,379.56612v-399.13225h567.30038v399.13225z" fill="none"/></clipPath><clipPath id="clip-16"><path d="M11.8625,403.21956l19.79918,-55.82276l45.50764,6.77217l-19.79918,55.82295z" fill="none"/></clipPath><clipPath id="clip-17"><path d="M-30.65019,379.56612v-399.13225h567.30038v399.13225z" fill="none"/></clipPath><clipPath id="clip-18"><path d="M-30.65019,379.56612v-399.13225h567.30038v399.13225z" fill="none"/></clipPath><clipPath id="clip-19"><path d="M372.25828,396.41614l-40.5789,-60.21048l44.27431,-6.84463l40.5791,60.21028z" fill="none"/></clipPath><clipPath id="clip-20"><path d="M-30.65019,379.56612v-399.13225h567.30038v399.13225z" fill="none"/></clipPath><clipPath id="clip-21"><path d="M-30.65019,379.56612v-399.13225h567.30038v399.13225z" fill="none"/></clipPath><clipPath id="clip-22"><path d="M-30.65019,379.56612v-399.13225h567.30038v399.13225z" fill="none"/></clipPath><clipPath id="clip-23"><path d="M-30.65019,379.56612v-399.13225h567.30038v399.13225z" fill="none"/></clipPath><clipPath id="clip-24"><path d="M-30.65019,379.56612v-399.13225h567.30038v399.13225z" fill="none"/></clipPath><clipPath id="clip-25"><path d="M-30.65019,379.56612v-399.13225h567.30038v399.13225z" fill="none"/></clipPath><clipPath id="clip-26"><path d="M-30.65019,379.56612v-399.13225h567.30038v399.13225z" fill="none"/></clipPath><clipPath id="clip-27"><path d="M-30.65019,379.56612v-399.13225h567.30038v399.13225z" fill="none"/></clipPath><clipPath id="clip-28"><path d="M-30.65019,379.56612v-399.13225h567.30038v399.13225z" fill="none"/></clipPath><clipPath id="clip-29"><path d="M-30.65019,379.56612v-399.13225h567.30038v399.13225z" fill="none"/></clipPath><clipPath id="clip-30"><path d="M-30.65019,379.56612v-399.13225h567.30038v399.13225z" fill="none"/></clipPath><clipPath id="clip-31"><path d="M-30.65019,379.56612v-399.13225h567.30038v399.13225z" fill="none"/></clipPath><clipPath id="clip-32"><path d="M-30.65019,379.56612v-399.13225h567.30038v399.13225z" fill="none"/></clipPath><clipPath id="clip-33"><path d="M-30.65019,379.56612v-399.13225h567.30038v399.13225z" fill="none"/></clipPath><clipPath id="clip-34"><path d="M-30.65019,379.56612v-399.13225h567.30038v399.13225z" fill="none"/></clipPath><clipPath id="clip-35"><path d="M-30.65019,379.56612v-399.13225h567.30038v399.13225z" fill="none"/></clipPath><clipPath id="clip-36"><path d="M-30.65019,379.56612v-399.13225h567.30038v399.13225z" fill="none"/></clipPath><clipPath id="clip-37"><path d="M-30.65019,379.56612v-399.13225h567.30038v399.13225z" fill="none"/></clipPath></defs><g transform="translate(30.65019,19.56613)"><g data-paper-data="{&quot;isPaintingLayer&quot;:true}" fill-rule="nonzero" stroke="none" stroke-width="1" stroke-linecap="butt" stroke-linejoin="miter" stroke-miterlimit="10" stroke-dasharray="" stroke-dashoffset="0" style="mix-blend-mode: normal"><g clip-path="url(#clip-1)"><path d="M-30.64959,379.56085v-399.1267h567.2925v399.1267z" fill="url(#color-1)"/></g><g clip-path="url(#clip-2)"><path d="M37.58874,252.08704c0,-56.06381 45.21833,-101.51251 100.99797,-101.51251c55.77964,0 100.99797,45.4487 100.99797,101.51251c0,56.06381 -45.21833,101.51251 -100.99797,101.51251c-55.77964,0 -100.99797,-45.4487 -100.99797,-101.51251z" fill="#fff8db"/></g><g clip-path="url(#clip-3)"><path d="M209.23845,239.31593c0.01652,-1.46642 0.89375,-2.81739 2.26243,-3.48541l4.7916,-2.34305c1.37187,-0.66782 2.24571,-2.02019 2.26223,-3.48721l0.21438,-19.72991c0.01811,-1.52474 0.96282,-2.91851 2.41073,-3.55648l4.33497,-1.9125c1.08006,-0.47574 1.89797,-1.37545 2.23755,-2.46945l1.62586,-5.19707c0.51774,-1.65891 2.10399,-2.81043 3.89148,-2.82735l11.07231,-0.09933c0.379,-0.00338 0.7568,-0.05991 1.12286,-0.16561l11.92485,-3.43227c0.36427,-0.1045 0.74207,-0.16083 1.12126,-0.16402l4.62021,-0.03981c2.22262,-0.02329 4.00335,1.69852 3.98026,3.84013l-0.57865,53.21536c-0.01473,1.40054 0.75361,2.68681 2.01003,3.3628l0.74864,0.40129c2.66472,1.43159 6.00184,-0.46738 6.03488,-3.43406l0.06589,-6.22816c0.01015,-0.78546 0.26215,-1.54923 0.72714,-2.20073l4.10228,-5.72615c0.46499,-0.64971 0.71898,-1.41527 0.72575,-2.19575l0.12361,-11.47858c0.02647,-2.143 1.84522,-3.89447 4.06625,-3.91597l7.87333,-0.07146c2.22103,-0.01831 4.00176,1.7021 3.97887,3.84172l-0.28385,26.0162c-0.00975,1.02751 0.40408,2.01043 1.14933,2.7314l5.3374,5.1475c0.74525,0.72256 1.15749,1.70369 1.14774,2.73419l-0.33302,30.65691c-0.02309,2.14121 1.75764,3.86142 3.98026,3.84152l3.47248,-0.03145c2.22262,-0.0201 4.00355,1.69872 3.98046,3.83993l-0.06111,5.60652c-0.00159,0.15924 0.00179,0.29679 0.0215,0.45404c0.21916,1.84621 2.3956,13.46035 22.44638,13.27981l-130.16359,3.90163l-25.69134,0.23369c0,0 21.26102,-3.59469 21.50646,-26.20669l0.25738,-23.68947l6.20308,-5.4427z" fill="#c97150"/></g><g clip-path="url(#clip-4)"><path d="M-45.84807,339.19344l4.76692,-16.10397c0.91186,0.10092 20.56673,-4.6238 36.607,-4.6238c43.77469,0 51.49157,-11.53352 97.92441,-9.31766c0,0 49.99091,8.46213 52.02244,8.35604c13.79456,-0.7142 28.89848,-1.53928 44.32527,-2.42944c2.46169,-0.14272 12.74276,-1.88941 15.18295,-2.02855c36.71747,-2.08149 70.45871,-3.70557 82.66064,-3.25153c30.79625,1.14336 -3.67213,7.18939 61.68327,-0.07644c31.91572,-3.54652 54.43795,-0.89813 78.86291,-0.05315c3.46272,0.11903 16.28112,-2.47602 19.4176,-2.32514c20.03386,0.95605 32.92472,2.37808 32.92472,2.37808l67.27486,-2.78594l13.77166,59.03646" fill="#c97150"/></g><g clip-path="url(#clip-5)"><path d="M285.00948,344.23446l-319.46058,12.53057v-27.77921c15.85595,-2.17784 32.37434,-0.47594 50.65395,-1.64238c8.238,-0.5253 20.29303,-3.16554 25.11588,-3.46551c41.85403,-2.60859 73.29003,-2.31717 78.72477,0.21199c6.68777,3.11259 42.19501,-2.72782 50.24152,-2.4593c67.33915,2.24233 117.35653,7.3552 117.35653,7.3552" fill="#a9373b"/></g><g clip-path="url(#clip-6)"><path d="M180.41421,314.47428" fill="#bd6d4d"/></g><g clip-path="url(#clip-7)"><path d="M-60.99459,326.01555c2.42884,-0.61965 22.24355,-1.7648 24.06548,-1.8707c0.10391,-0.00478 0.17974,-0.01174 0.28206,-0.02827c1.89458,-0.30176 21.49491,-3.79355 20.36708,-18.48563l-1.38362,-18.0294c-0.15347,-1.98714 0.93336,-3.78857 2.5855,-4.29078l2.74215,-0.82866c1.65214,-0.50062 2.73698,-2.30205 2.5853,-4.29098l-1.04861,-13.65442c-0.14849,-1.93579 0.8822,-3.70716 2.48,-4.25595l1.74947,-0.59298c2.17804,-0.74923 4.44047,1.05558 4.6433,3.70059v0c0.14352,1.87587 1.35535,3.43227 2.95295,3.79693l4.44704,1.00422c1.5978,0.3579 2.80983,1.91588 2.95315,3.79355l0.27211,3.53995c0.13675,1.78172 1.24328,3.28975 2.74534,3.73722l4.1817,1.24289c1.50205,0.44767 2.60839,1.9539 2.74534,3.73881l1.31076,17.0851c0.07584,0.98591 0.4419,1.90394 1.04881,2.61157c1.98854,2.32016 7.16928,8.18724 15.59658,16.57791" fill="#c97150"/></g><g clip-path="url(#clip-8)"><path d="M484.57819,82.1584l0.3577,0.75899l-0.45165,-0.59139l-0.45464,0.61129l0.34078,-0.80875l-0.37581,-0.78885l0.46996,0.62164l0.43851,-0.64155z" fill="#ffffff" opacity="0.93"/><path d="M266.58694,185.92481l0.61647,0.75242l-0.78467,-0.58482l-0.80477,0.61965l0.6103,-0.81731l-0.64652,-0.78049l0.81452,0.61348l0.7767,-0.64812z" fill="#ffffff" opacity="0.93"/><path d="M430.02977,184.22947l1.18536,1.44512l-1.50683,-1.12206l-1.54525,1.18994l1.17083,-1.56794l-1.23851,-1.49807l1.55998,1.1766l1.49071,-1.24448z" fill="#ffffff" opacity="0.93"/><path d="M377.75493,195.01355l0.61846,0.75222l-0.78487,-0.58502l-0.80636,0.62164l0.6101,-0.81731l-0.64473,-0.78188l0.81293,0.61288l0.7783,-0.64772z" fill="#ffffff" opacity="0.93"/><path d="M435.06063,108.36509l0.61627,0.75421l-0.78447,-0.58502l-0.80477,0.61965l0.6101,-0.81671l-0.64652,-0.78068l0.81293,0.61308l0.7767,-0.64812z" fill="#ffffff" opacity="0.93"/><path d="M128.01417,153.43362l0.61667,0.75421l-0.78487,-0.58701l-0.80457,0.62164l0.6101,-0.81711l-0.64632,-0.78208l0.81273,0.61328l0.7783,-0.64812z" fill="#ffffff" opacity="0.93"/><path d="M303.47918,76.1062l0.61647,0.75222l-0.78467,-0.58502l-0.80477,0.62164l0.6101,-0.81711l-0.64632,-0.78248l0.81293,0.61328l0.7783,-0.64792z" fill="#ffffff" opacity="0.93"/><path d="M350.88141,85.98499l-0.75023,0.62164l0.58203,-0.78885l-0.61667,-0.81034l0.81114,0.61328l0.7783,-0.64812l-0.6101,0.81532l0.64652,0.78208z" fill="#ffffff" opacity="0.93"/><path d="M-4.13099,154.41953l-0.75023,0.61985l0.58203,-0.78865l-0.61667,-0.80875l0.81114,0.61328l0.7783,-0.64991l-0.6099,0.81711l0.64613,0.78208z" fill="#ffffff" opacity="0.93"/><path d="M1.93355,201.42027l-0.75023,0.62005l0.58203,-0.78865l-0.61686,-0.80895l0.81313,0.61328l0.7765,-0.64812l-0.6101,0.81711l0.64632,0.78049z" fill="#ffffff" opacity="0.93"/><path d="M45.30098,151.37343l-0.75023,0.62005l0.58362,-0.78885l-0.61826,-0.80875l0.81293,0.61328l0.7783,-0.64991l-0.6101,0.81711l0.64473,0.78208z" fill="#ffffff" opacity="0.93"/><path d="M56.89262,157.24031l-0.75023,0.61985l0.58382,-0.78885l-0.61846,-0.80875l0.81293,0.61328l0.7783,-0.64971l-0.6101,0.8187l0.64473,0.78068z" fill="#ffffff" opacity="0.93"/><path d="M99.45866,122.53685l-0.74864,0.62124l0.58223,-0.78885l-0.61846,-0.81034l0.81313,0.61328l0.7781,-0.64812l-0.6101,0.81731l0.64473,0.78049z" fill="#ffffff" opacity="0.93"/><path d="M476.83683,208.52347l-0.74884,0.62005l0.58223,-0.78885l-0.61866,-0.80875l0.81472,0.61328l0.7769,-0.64991l-0.61049,0.81711l0.64493,0.78228z" fill="#ffffff" opacity="0.93"/><path d="M507.97107,113.932l-0.75182,0.62164l0.58342,-0.79064l-0.61647,-0.80875l0.81134,0.61328l0.7779,-0.64792l-0.6099,0.81671l0.64632,0.78088z" fill="#ffffff" opacity="0.93"/><path d="M520.80937,120.01605l-0.74864,0.61985l0.58223,-0.78885l-0.61846,-0.80895l0.81432,0.61328l0.7771,-0.64792l-0.61069,0.81532l0.64493,0.78228z" fill="#ffffff" opacity="0.93"/><path d="M474.43426,137.67282l-0.75023,0.61985l0.58362,-0.78905l-0.61826,-0.80875l0.81313,0.61328l0.7779,-0.64792l-0.6099,0.81512l0.64493,0.78248z" fill="#ffffff" opacity="0.93"/><path d="M420.51385,64.24803l-0.75023,0.62164l0.58203,-0.78885l-0.61647,-0.81074l0.81114,0.61328l0.7783,-0.64792l-0.6101,0.81711l0.64632,0.78049z" fill="#ffffff" opacity="0.93"/><path d="M500.12719,43.70598l-0.75023,0.61965l0.58362,-0.78865l-0.61826,-0.80875l0.81293,0.61308l0.7781,-0.64951l-0.6099,0.8187l0.64493,0.78049z" fill="#ffffff" opacity="0.93"/><path d="M174.10723,201.29964l0.92341,1.12843l-1.17401,-0.87663l-1.20526,0.92818l0.91186,-1.22159l-0.96461,-1.17003l1.21522,0.91803l1.16406,-0.97118z" fill="#ffffff" opacity="0.93"/><path d="M405.23516,140.95262l0.9236,1.12704l-1.17401,-0.87524l-1.20387,0.92818l0.91186,-1.22159l-0.96441,-1.16844l1.21522,0.91644l1.16267,-0.96919z" fill="#ffffff" opacity="0.93"/><path d="M238.21118,49.35072l0.61667,0.75242l-0.78506,-0.58342l-0.80596,0.62005l0.6099,-0.81731l-0.64473,-0.78049l0.81293,0.61328l0.7783,-0.64971z" fill="#ffffff" opacity="0.93"/><path d="M172.11212,54.89773l0.35949,0.75899l-0.45344,-0.59178l-0.45344,0.61149l0.33958,-0.81014l-0.37422,-0.78725l0.46976,0.62144l0.43712,-0.64135z" fill="#ffffff" opacity="0.93"/><path d="M221.03631,3.93106l0.61826,0.75222l-0.78487,-0.58502l-0.80636,0.62144l0.6103,-0.81691l-0.64493,-0.78068l0.81154,0.61169l0.7781,-0.64812z" fill="#ffffff" opacity="0.93"/><path d="M117.5635,156.9686l1.18556,1.44532l-1.50544,-1.12385l-1.54664,1.19173l1.17063,-1.56774l-1.23652,-1.50006l1.55799,1.1768l1.4923,-1.24289z" fill="#ffffff" opacity="0.93"/><path d="M65.29046,167.75268l0.61667,0.75242l-0.78487,-0.58502l-0.80457,0.61965l0.6101,-0.81512l-0.64632,-0.78248l0.81432,0.61328l0.7769,-0.64812z" fill="#ffffff" opacity="0.93"/><path d="M122.59436,81.10442l0.61826,0.75421l-0.78487,-0.58502l-0.80636,0.61965l0.6101,-0.81711l-0.64453,-0.78049l0.81114,0.61328l0.7781,-0.64971z" fill="#ffffff" opacity="0.93"/><path d="M215.62127,135.67413l0.92341,1.12704l-1.17401,-0.87524l-1.20526,0.92818l0.91345,-1.22159l-0.9662,-1.17003l1.21681,0.91843l1.16247,-0.97138z" fill="#ffffff" opacity="0.93"/><path d="M277.69707,107.09732l-0.75003,0.62164l0.58203,-0.78905l-0.61686,-0.81034l0.81114,0.61328l0.7783,-0.64792l-0.6099,0.81691l0.64613,0.78228z" fill="#ffffff" opacity="0.93"/><path d="M329.44761,90.32374l-0.75043,0.62184l0.58382,-0.78905l-0.61846,-0.81034l0.81293,0.61328l0.7783,-0.64792l-0.6099,0.81512l0.64453,0.78208z" fill="#ffffff" opacity="0.93"/><path d="M337.85998,175.52868l-0.75003,0.62144l0.58203,-0.78905l-0.61667,-0.81034l0.81273,0.61328l0.7767,-0.64792l-0.60831,0.81711l0.64294,0.78049z" fill="#ffffff" opacity="0.93"/><path d="M313.92647,142.26179l-0.75023,0.62164l0.58203,-0.78905l-0.61667,-0.81014l0.81134,0.61288l0.7781,-0.64812l-0.6099,0.81731l0.64632,0.78228z" fill="#ffffff" opacity="0.93"/><path d="M323.4191,135.828l-0.75023,0.62184l0.58382,-0.79064l-0.61846,-0.80875l0.81293,0.61328l0.7783,-0.64792l-0.6101,0.81671l0.64453,0.78248z" fill="#ffffff" opacity="0.93"/><path d="M267.55812,174.71157l-0.75043,0.62164l0.58382,-0.78905l-0.61846,-0.81014l0.81293,0.61288l0.7785,-0.64812l-0.6101,0.81731l0.64453,0.78208z" fill="#ffffff" opacity="0.93"/><path d="M228.99225,194.1417l-0.75023,0.61965l0.58203,-0.78905l-0.61667,-0.80815l0.81273,0.61288l0.7767,-0.64971l-0.6101,0.81731l0.64632,0.78188z" fill="#ffffff" opacity="0.93"/><path d="M164.37215,181.2612l-0.75023,0.62144l0.58203,-0.78905l-0.61667,-0.81014l0.81313,0.61328l0.7765,-0.64812l-0.6101,0.81731l0.64632,0.78029z" fill="#ffffff" opacity="0.93"/><path d="M195.5048,86.67113l-0.75023,0.61985l0.58223,-0.78885l-0.61686,-0.80875l0.81293,0.61308l0.7783,-0.64792l-0.6101,0.81572l0.64473,0.78188z" fill="#ffffff" opacity="0.93"/><path d="M208.3449,92.75517l-0.75023,0.61985l0.58183,-0.78905l-0.61647,-0.81034l0.81273,0.61487l0.7767,-0.64951l-0.6101,0.81711l0.64632,0.78049z" fill="#ffffff" opacity="0.93"/><path d="M161.96819,110.41175l-0.74864,0.62025l0.58203,-0.78905l-0.61826,-0.81054l0.81432,0.61507l0.7769,-0.64991l-0.6101,0.81711l0.64453,0.78068z" fill="#ffffff" opacity="0.93"/><path d="M108.04779,36.98716l-0.75023,0.62005l0.58382,-0.78885l-0.61846,-0.80895l0.81293,0.61328l0.7783,-0.64971l-0.6101,0.81711l0.64473,0.78208z" fill="#ffffff" opacity="0.93"/><path d="M187.66272,16.44352l-0.75023,0.62144l0.58203,-0.78885l-0.61826,-0.81034l0.81452,0.61487l0.7767,-0.64971l-0.6101,0.81691l0.64473,0.78228z" fill="#ffffff" opacity="0.93"/><path d="M92.77088,113.69174l0.92341,1.12684l-1.17401,-0.87484l-1.20526,0.92798l0.91345,-1.22139l-0.9664,-1.16983l1.21522,0.91783l1.16426,-0.97098z" fill="#ffffff" opacity="0.93"/><path d="M150.05489,15.459l0.61826,0.75421l-0.78487,-0.58502l-0.80616,0.61965l0.6101,-0.81691l-0.64473,-0.78068l0.81114,0.61328l0.7783,-0.64971z" fill="#ffffff" opacity="0.93"/><path d="M82.2806,45.28527l0.35949,0.75899l-0.45344,-0.59318l-0.45344,0.61328l0.33958,-0.81054l-0.37601,-0.78885l0.47016,0.62144l0.43851,-0.64135z" fill="#ffffff" opacity="0.93"/><path d="M131.20479,-5.6814l0.61667,0.75262l-0.78307,-0.58502l-0.80636,0.61965l0.6099,-0.81711l-0.64473,-0.78049l0.81134,0.61328l0.7783,-0.64812z" fill="#ffffff" opacity="0.93"/><path d="M27.73218,147.35475l1.18377,1.44492l-1.50524,-1.12186l-1.54525,1.18994l1.17083,-1.56774l-1.23851,-1.49847l1.55998,1.177l1.4923,-1.24488z" fill="#ffffff" opacity="0.93"/><path d="M-24.54106,158.13863l0.61667,0.75421l-0.78487,-0.58502l-0.80457,0.61965l0.6101,-0.81711l-0.64632,-0.78068l0.81293,0.61348l0.7781,-0.64971z" fill="#ffffff" opacity="0.93"/><path d="M32.76105,71.49216l0.61846,0.75242l-0.78487,-0.58522l-0.80457,0.62164l0.6101,-0.8187l-0.64652,-0.78049l0.81293,0.61308l0.7783,-0.64792z" fill="#ffffff" opacity="0.93"/><path d="M125.78816,126.06028l0.9252,1.12843l-1.1758,-0.87683l-1.20367,0.92997l0.91345,-1.22318l-0.9662,-1.16844l1.21522,0.91644l1.16426,-0.96959z" fill="#ffffff" opacity="0.93"/><path d="M187.86556,97.48506l-0.75023,0.62005l0.58203,-0.78905l-0.61667,-0.80875l0.81134,0.61328l0.7781,-0.64991l-0.6099,0.8187l0.64473,0.78049z" fill="#ffffff" opacity="0.93"/><path d="M239.61609,80.71149l-0.75023,0.62005l0.58362,-0.78885l-0.61846,-0.81034l0.81293,0.61288l0.7783,-0.64792l-0.6101,0.81711l0.64473,0.78228z" fill="#ffffff" opacity="0.93"/><path d="M248.02706,165.91642l-0.74864,0.61965l0.58203,-0.78885l-0.61826,-0.81034l0.81452,0.61487l0.7765,-0.64971l-0.6101,0.81691l0.64473,0.78248z" fill="#ffffff" opacity="0.93"/><path d="M224.09316,132.64933l-0.75003,0.61985l0.58362,-0.78845l-0.61846,-0.80895l0.81313,0.61288l0.7783,-0.64951l-0.6101,0.8187l0.64453,0.78068z" fill="#ffffff" opacity="0.93"/><path d="M233.58758,126.21574l-0.75023,0.62005l0.58203,-0.78885l-0.61826,-0.80875l0.81452,0.61328l0.7767,-0.64991l-0.6101,0.81711l0.64453,0.78208z" fill="#ffffff" opacity="0.93"/><path d="M177.72481,165.09931l-0.74844,0.61965l0.58203,-0.78845l-0.61826,-0.80895l0.81452,0.61308l0.7765,-0.64971l-0.6099,0.81711l0.64473,0.78228z" fill="#ffffff" opacity="0.93"/><path d="M139.16073,184.52765l-0.75023,0.62144l0.58203,-0.78865l-0.61686,-0.81054l0.81154,0.61328l0.7781,-0.64812l-0.6101,0.81731l0.64632,0.78049z" fill="#ffffff" opacity="0.93"/><path d="M74.54084,171.64894l-0.75043,0.61985l0.58223,-0.78905l-0.61667,-0.80875l0.81114,0.61328l0.7783,-0.64951l-0.6099,0.81691l0.64613,0.78228z" fill="#ffffff" opacity="0.93"/><path d="M105.67329,77.05747l-0.75023,0.62124l0.58223,-0.78905l-0.61686,-0.81034l0.81313,0.61328l0.7765,-0.64792l-0.6101,0.81711l0.64473,0.78208z" fill="#ffffff" opacity="0.93"/><path d="M118.51338,83.14112l-0.75023,0.62144l0.58203,-0.78865l-0.61667,-0.81054l0.81114,0.61308l0.7783,-0.64792l-0.6101,0.81532l0.64652,0.78248z" fill="#ffffff" opacity="0.93"/><path d="M72.13668,100.7981l-0.74864,0.62164l0.58203,-0.78905l-0.61826,-0.81034l0.81452,0.61308l0.7767,-0.64812l-0.6103,0.81552l0.64493,0.78228z" fill="#ffffff" opacity="0.93"/><path d="M18.21647,27.37331l-0.75023,0.62164l0.58362,-0.78905l-0.61846,-0.81034l0.81293,0.61308l0.7783,-0.64792l-0.6101,0.81711l0.64473,0.78049z" fill="#ffffff" opacity="0.93"/><path d="M97.82961,6.83106l-0.74864,0.62164l0.58223,-0.79064l-0.61846,-0.80875l0.81452,0.61328l0.7767,-0.64812l-0.6101,0.81711l0.64473,0.78068z" fill="#ffffff" opacity="0.93"/><path d="M2.93937,104.07789l0.92341,1.12843l-1.17401,-0.87643l-1.20526,0.92938l0.91166,-1.22298l-0.96461,-1.16824l1.21522,0.91644l1.16426,-0.96959z" fill="#ffffff" opacity="0.93"/><path d="M368.22428,131.46636l-0.61647,-0.75262l0.78487,0.58502l0.80457,-0.62144l-0.6101,0.81691l0.64632,0.78049l-0.81452,-0.61129l-0.7767,0.64792z" fill="#ffffff" opacity="0.93"/><path d="M434.32154,125.91935l-0.35949,-0.75919l0.45543,0.59158l0.45185,-0.61129l-0.33978,0.81014l0.37581,0.78745l-0.46976,-0.62164l-0.43692,0.64314z" fill="#ffffff" opacity="0.93"/><path d="M385.39915,176.88602l-0.61826,-0.75242l0.78487,0.58502l0.80636,-0.62164l-0.6101,0.81711l0.64473,0.78208l-0.81293,-0.61288l-0.7783,0.64812z" fill="#ffffff" opacity="0.93"/><path d="M488.87036,23.84987l-1.18397,-1.44672l1.50544,1.12365l1.54525,-1.18994l-1.17063,1.56615l1.23811,1.49986l-1.55819,-1.1766l-1.4925,1.24448z" fill="#ffffff" opacity="0.93"/><path d="M483.84109,99.71227l-0.61627,-0.75381l0.78287,0.58502l0.80636,-0.61965l-0.6101,0.81671l0.64493,0.78248l-0.81293,-0.61487l-0.7783,0.64971z" fill="#ffffff" opacity="0.93"/><path d="M390.81438,45.14275l-0.9236,-1.12684l1.17401,0.87504l1.20367,-0.92818l-0.91186,1.22139l0.96461,1.17003l-1.21522,-0.91803l-1.16247,0.97118z" fill="#ffffff" opacity="0.93"/><path d="M328.73838,73.71936l0.75023,-0.62124l-0.58362,0.78865l0.61846,0.81074l-0.81293,-0.61348l-0.7785,0.64812l0.6103,-0.81711l-0.64473,-0.78208z" fill="#ffffff" opacity="0.93"/><path d="M276.98805,90.49294l0.74844,-0.61985l-0.58183,0.78905l0.61826,0.80875l-0.81452,-0.61328l-0.7767,0.64792l0.6101,-0.81512l-0.64473,-0.78248z" fill="#ffffff" opacity="0.93"/><path d="M268.57548,5.2884l0.74864,-0.62164l-0.58044,0.78885l0.61647,0.81054l-0.81273,-0.61328l-0.7767,0.64812l0.6103,-0.81711l-0.64672,-0.78049z" fill="#ffffff" opacity="0.93"/><path d="M292.50899,38.5551l0.75023,-0.61985l-0.58203,0.78885l0.61667,0.80875l-0.81273,-0.61328l-0.7783,0.64812l0.6101,-0.81691l-0.64473,-0.78068z" fill="#ffffff" opacity="0.93"/><path d="M283.01636,44.98868l0.74864,-0.61985l-0.58203,0.78905l0.61826,0.80855l-0.81293,-0.61308l-0.7781,0.64792l0.6101,-0.81711l-0.64473,-0.78049z" fill="#ffffff" opacity="0.93"/><path d="M338.87753,6.10531l0.74844,-0.62144l-0.58183,0.79044l0.61826,0.80875l-0.81293,-0.61328l-0.7783,0.64812l0.6101,-0.81691l-0.64473,-0.78228z" fill="#ffffff" opacity="0.93"/><path d="M377.44162,-13.32482l0.75182,-0.61985l-0.58362,0.78885l0.61826,0.80895l-0.81273,-0.61328l-0.7783,0.64971l0.6101,-0.81711l-0.64473,-0.78208z" fill="#ffffff" opacity="0.93"/><path d="M442.0633,-0.44432l0.75023,-0.62164l-0.58362,0.78905l0.61826,0.81054l-0.81293,-0.61328l-0.7779,0.64971l0.6097,-0.8187l-0.64473,-0.78068z" fill="#ffffff" opacity="0.93"/><path d="M410.93085,94.14556l0.74844,-0.61985l-0.58024,0.78885l0.61647,0.80895l-0.81293,-0.61328l-0.7783,0.64812l0.6099,-0.81552l-0.64433,-0.78228z" fill="#ffffff" opacity="0.93"/><path d="M398.08896,88.0635l0.75202,-0.62164l-0.58382,0.78885l0.61846,0.81034l-0.81273,-0.61308l-0.7785,0.64792l0.6103,-0.81691l-0.64493,-0.78049z" fill="#ffffff" opacity="0.93"/><path d="M444.46587,70.40632l0.75023,-0.62124l-0.58203,0.78905l0.61627,0.81034l-0.81253,-0.61487l-0.7765,0.64951l0.6097,-0.81691l-0.64632,-0.78088z" fill="#ffffff" opacity="0.93"/><path d="M498.38767,143.82972l0.74864,-0.61985l-0.58223,0.78885l0.61846,0.80855l-0.81273,-0.61288l-0.7783,0.64951l0.6099,-0.81731l-0.64453,-0.78188z" fill="#ffffff" opacity="0.93"/><path d="M418.77293,164.37336l0.74844,-0.62144l-0.58024,0.78905l0.61647,0.81034l-0.81313,-0.61328l-0.77611,0.64792l0.6097,-0.81711l-0.64613,-0.78208z" fill="#ffffff" opacity="0.93"/><path d="M513.66457,67.12514l-0.9248,-1.12704l1.17541,0.87524l1.20566,-0.92818l-0.91385,1.22159l0.9664,1.16983l-1.21681,-0.91823l-1.16386,0.97138z" fill="#ffffff" opacity="0.93"/></g><g clip-path="url(#clip-9)"><path d="M-4.47415,309.14782" fill="#bd6d4d"/></g><g clip-path="url(#clip-10)"><path d="M374.73092,310.93771l20.83565,-6.2825c0.14869,-0.04499 0.27011,-0.20841 0.27011,-0.36347v-13.43666c0,-0.15506 0.127,-0.28206 0.28206,-0.28206h14.63197c0.15506,0 0.28206,-0.127 0.28206,-0.28206v-12.16411c0,-0.15506 0.09475,-0.36666 0.2104,-0.46996l14.77549,-13.20038c0.11565,-0.10351 0.29997,-0.27788 0.40945,-0.38795l4.87839,-4.90347c0.10948,-0.11008 0.19905,-0.32704 0.19905,-0.48211v-13.64845c0,-0.15506 0.127,-0.28206 0.28206,-0.28206h12.31062c0.15506,0 0.28206,-0.127 0.28206,-0.28206v-20.22496c0,-0.15506 0.08957,-0.37203 0.19905,-0.48211l9.94368,-9.99464c0.10948,-0.11008 0.31729,-0.15387 0.4618,-0.09734l14.87163,5.80597c0.14471,0.05653 0.2528,0.22911 0.24065,0.38397l-3.32239,42.11101c-0.01234,0.15466 0.1047,0.28126 0.25996,0.28126h5.55636c0.15506,0 0.29559,-0.1262 0.31231,-0.28047l0.9451,-8.7199c0.01672,-0.15427 0.11545,-0.37462 0.21975,-0.48947l5.58005,-6.15491c0.1043,-0.11485 0.1883,-0.336 0.18671,-0.49106l-0.41682,-43.93433c-0.00159,-0.15506 0.08699,-0.37203 0.19627,-0.48211l8.04452,-8.08532c0.10948,-0.11008 0.32605,-0.20005 0.48111,-0.20005h7.45592c0.15506,0 0.28206,0.127 0.28206,0.28206v8.34569c0,0.15506 0.127,0.28206 0.28206,0.28206h7.87811c0.15506,0 0.28206,0.127 0.28206,0.28206v82.16779c0,0.15506 0.127,0.28206 0.28206,0.28206h8.72249c0.15506,0 0.28206,-0.127 0.28206,-0.28206v-8.34549c0,-0.15506 0.127,-0.28206 0.28206,-0.28206h6.61174c0.15506,0 0.37163,-0.08997 0.48111,-0.20005l6.56675,-6.60039c0.10948,-0.11008 0.32605,-0.20005 0.48111,-0.20005h6.82293c0.15506,0 0.28206,0.127 0.28206,0.28206v9.40644c0,0.15506 0.127,0.28206 0.28206,0.28206h7.45592c0.15506,0 0.28206,0.127 0.28206,0.28206v31.53772" fill="#c97150"/></g><g clip-path="url(#clip-11)"><g fill="#8d373b"><path d="M150.13232,322.86694c-2.70911,0.1258 -4.94487,-2.59545 -5.19727,0.57685c-0.18154,2.28692 0.26534,2.48736 0.10371,6.16665c-0.16661,3.81325 -6.02174,4.04694 -6.43557,0.24663c-0.63816,-5.82687 -0.20463,-5.09754 -0.44687,-8.9311c-0.17318,-2.75748 -2.42227,-0.20045 -4.7701,-0.09097c-1.39675,0.06449 -2.39102,-1.58625 -2.50468,-4.08058c-0.51953,-11.28948 -0.66145,-7.38147 -1.18078,-18.66896c-0.11366,-2.49592 1.0305,-4.55612 2.42884,-4.62061c1.39496,-0.06469 2.87572,1.87269 2.99117,4.36841c0.41562,9.02883 -0.82945,5.2319 0.65468,14.12518c0.211,1.25304 2.10896,1.23632 2.13524,-0.03503c0.32645,-16.4535 -0.55894,-3.47347 -1.31574,-19.92399c-0.1467,-3.20495 1.35535,-6.03568 3.14941,-6.11848c1.79565,-0.0844 3.62754,2.59187 3.77583,5.79701c0.81791,17.81443 -1.20029,4.95064 1.05538,22.62075c0.21438,1.68359 2.16331,1.53788 2.3745,-0.14093c1.03906,-8.28497 0.25738,4.65047 -0.12859,-3.73722c-0.11525,-2.49254 1.14435,-4.28919 2.53932,-4.35527c1.39675,-0.0629 2.80147,1.61273 2.81142,4.10666c0.01791,4.63892 -0.31988,-2.32334 0.16979,8.3212c0.11366,2.49433 -0.81134,4.3089 -2.20968,4.37379z"/></g><g fill="#8d373b"><path d="M147.87665,287.05117c0.31331,6.79626 0.27051,6.79626 0.58362,13.59132c0.06927,1.50146 -0.58203,2.8373 -1.53987,2.88049c-2.54927,0.11903 -3.3407,2.3534 -5.13477,0.1889c-1.66368,-2.01003 -0.55894,-3.24834 0.73052,-5.56173c0.64473,-1.15709 2.14698,1.2825 2.37928,-0.07644c0.9035,-5.31988 -0.27051,-5.4226 -0.52112,-10.86032c-0.06927,-1.50146 0.70903,-2.84864 1.66547,-2.89184c0.95645,-0.04479 1.76759,1.22816 1.83686,2.72961z"/></g><g fill="#8d373b"><path d="M126.48903,293.43022c0.95645,-0.04479 1.7857,1.09519 1.85497,2.59704c0.25061,5.43573 -1.12783,1.78471 0.26056,6.9985c0.35451,1.33266 1.62925,-1.17799 2.37609,-0.0844c1.49548,2.18241 2.83451,3.24675 1.36212,5.4011c-1.58804,2.32016 -2.61038,0.0414 -5.16124,0.16083c-0.95625,0.04479 -1.81695,-1.11549 -1.88622,-2.61675c-0.31172,-6.79506 -0.15327,-2.9002 -0.46499,-9.69526c-0.06768,-1.50165 0.70226,-2.71826 1.65871,-2.76106z"/></g></g><g clip-path="url(#clip-12)"><g fill="#8d373b"><path d="M273.89138,320.49861c0.6726,-10.63638 0.21438,-3.68088 0.31172,-8.31822c0.05255,-2.49393 1.48533,-4.14627 2.88208,-4.05689c1.39496,0.08937 2.62013,1.90732 2.46348,4.39827c-0.52928,8.37933 -1.08842,-4.56746 -0.19308,3.73562c0.18313,1.68239 2.13046,1.85955 2.37271,0.17895c2.55763,-17.62672 0.31848,-4.80115 1.44472,-22.59727c0.20283,-3.20156 2.07911,-5.84678 3.87317,-5.73073c1.79406,0.11465 3.24496,2.96987 3.04372,6.17342c-1.03886,16.434 -1.7015,3.44063 -1.65711,19.89751c0.00518,1.27135 1.90115,1.31932 2.13385,0.06967c1.63741,-8.86342 0.32804,-5.08938 0.89693,-14.11005c0.15646,-2.49274 1.67184,-4.40504 3.06681,-4.31726c1.39675,0.09117 2.50468,2.17087 2.34823,4.66182c-0.71241,11.27952 -0.78825,7.36854 -1.50046,18.64806c-0.15665,2.49075 -1.17879,4.12477 -2.57554,4.03699c-2.34623,-0.14889 -4.54935,-2.74753 -4.7703,0.00677c-0.30654,3.82978 0.13675,3.10741 -0.59855,8.92274c-0.47972,3.79176 -6.33008,3.45536 -6.43219,-0.35949c-0.09714,-3.68108 0.35292,-3.87317 0.2094,-6.16367c-0.19627,-3.17549 -2.4798,-0.49385 -5.18572,-0.66643c-1.39496,-0.08918 -2.2905,-1.92066 -2.13385,-4.40981z"/></g><g fill="#8d373b"><path d="M280.7804,286.43988c0.95486,0.05952 1.70827,1.42183 1.61273,2.91971c-0.34317,5.43275 -1.52037,5.51416 -0.70564,10.85076c0.20761,1.36212 1.75107,-1.04921 2.37609,0.11764c1.24985,2.33668 2.3331,3.5931 0.63478,5.57328c-1.83029,2.13484 -2.5839,-0.11446 -5.13138,-0.27688c-0.95645,-0.0629 -1.58287,-1.40671 -1.48732,-2.90816c0.42856,-6.7869 0.38576,-6.7885 0.81452,-13.57838c0.09574,-1.50026 0.93017,-2.75947 1.88622,-2.69796z"/></g><g fill="#8d373b"><path d="M301.78047,298.67566c-0.42856,6.7865 -0.20124,2.89662 -0.6298,9.68511c-0.09555,1.50165 -0.97615,2.64501 -1.9326,2.58351c-2.54569,-0.16243 -3.60922,2.09841 -5.15586,-0.25021c-1.43636,-2.17923 -0.07922,-3.21988 1.45249,-5.37622c0.76695,-1.08046 1.99869,1.45189 2.37629,0.12441c1.47737,-5.18732 0.03782,-1.56117 0.38079,-6.99233c0.09415,-1.49946 0.94331,-2.6267 1.89956,-2.5636c0.95326,0.05952 1.70509,1.28926 1.60914,2.78933z"/></g></g><g clip-path="url(#clip-13)"><path d="M543.15524,383.34832h-577.60574v-33.51073c0,0 37.33911,-0.1059 89.47541,-1.93579c7.61437,-0.26832 12.10121,2.41312 20.27472,2.06836c5.16104,-0.21836 24.39193,-3.95757 29.73271,-4.20937c32.6347,-1.54465 63.16561,-0.126 94.65118,-3.14384c10.23131,-0.98093 21.28212,-5.49047 31.59445,-6.70688c7.64761,-0.90032 15.33284,-1.8711 23.07459,-2.9203c29.61905,-4.01071 40.00861,-5.39612 67.46257,-7.12489c2.83133,-0.17875 28.72033,1.06931 31.51861,0.91186c8.58077,-0.48549 12.50509,-3.59987 20.73971,-3.91278c27.14562,-1.03109 33.78582,-8.54354 54.6786,-1.24308c5.46261,1.90892 42.08433,4.63395 54.03088,5.15586c3.91119,0.1688 13.8903,-3.25849 17.43025,-3.07278c27.04829,1.41546 42.94185,3.12393 42.94185,3.12393" fill="#440e1d"/></g><g clip-path="url(#clip-14)"><g fill="#000000"><path d="M65.31374,326.9937c-4.14368,-0.05613 -7.29469,-3.77862 -7.97744,0.32983c-2.07931,12.52082 1.0717,12.05364 -0.61169,25.01854c-0.64314,4.95363 -9.0788,4.73825 -9.83898,-0.20065c-2.1848,-14.23287 0.86389,-13.42213 0.33461,-28.65126c-0.1254,-3.60803 -3.67531,-0.45762 -7.26503,-0.50539c-2.13683,-0.02966 -3.50731,-2.26243 -3.46272,-5.52371c0.19965,-14.75996 -0.295,-14.76673 -0.09555,-29.52968c0.04459,-3.26009 1.97202,-5.85354 4.10905,-5.82389c2.13544,0.02966 4.2229,2.67646 4.18011,5.93794c-0.16004,11.80681 -1.79227,11.84483 -0.31012,23.55869c0.2094,1.65214 3.10662,1.7863 3.25829,0.12899c1.93917,-21.42385 -0.31669,-21.54487 -0.02807,-43.05312c0.05773,-4.19106 2.59366,-7.75947 5.3374,-7.72126c2.74553,0.03802 5.30615,3.67431 5.24842,7.86696c-0.31331,23.29017 -2.49134,23.32819 -0.60512,46.5469c0.18134,2.21247 3.16574,2.18082 3.63411,0.00995c2.3118,-10.71601 0.21438,-10.88659 0.36287,-21.85142c0.0428,-3.26148 2.11872,-5.50242 4.25416,-5.47375c2.13524,0.02986 3.97051,2.32334 3.92751,5.58502c-0.1881,13.91777 -0.51455,13.91279 -0.70246,27.83096c-0.04459,3.26108 -1.61591,5.54979 -3.74936,5.52033z"/></g><g fill="#000000"><path d="M76.33828,285.5957c-0.12043,8.88313 -0.00975,8.88472 -0.12859,17.76944c-0.02647,1.96067 -1.23333,3.6146 -2.69597,3.59469c-3.89964,-0.05295 -5.23529,2.77281 -7.78117,-0.19547c-2.36296,-2.75449 -0.60034,-4.19444 1.56973,-7.10798c1.08484,-1.45508 3.1098,1.81616 3.58295,0.05792c1.84522,-6.85777 0.12859,-7.08508 0.22413,-14.18968c0.02647,-1.96385 1.27812,-3.63271 2.74215,-3.61281c1.46085,0.01991 2.51304,1.72041 2.48677,3.68387z"/></g><g fill="#000000"><path d="M65.24288,263.14812c-0.12043,8.88293 -0.18313,8.88293 -0.30336,17.76586c-0.02627,1.96385 -1.13619,3.65103 -2.59863,3.63112c-3.89964,-0.05295 -5.30117,2.7941 -7.84706,-0.17258c-2.36136,-2.75589 -0.5675,-4.28043 1.60098,-7.19237c1.08484,-1.45527 3.16255,1.84781 3.63411,0.09276c1.84661,-6.86274 0.06429,-7.09165 0.15984,-14.19804c0.02627,-1.96545 1.32908,-3.65759 2.78992,-3.63769c1.46244,0.01991 2.59027,1.74529 2.5642,3.71094z"/></g><g fill="#000000"><path d="M31.90871,281.60191c1.46085,0.01991 2.6267,1.57451 2.60023,3.53836c-0.09555,7.10638 -1.94574,7.32534 -0.28684,14.23446c0.42538,1.76838 2.58709,-1.40034 3.63251,0.08281c2.09065,2.97186 4.03798,4.46336 1.60098,7.15615c-2.62332,2.89383 -3.98364,-0.16083 -7.88169,-0.21378c-1.46264,-0.01991 -2.67467,-1.60078 -2.6482,-3.56464c0.11864,-8.88492 0.09077,-8.88492 0.21119,-17.76785c0.02647,-1.96405 1.30917,-3.48541 2.77181,-3.46551z"/></g></g><g clip-path="url(#clip-15)" opacity="0.5"><g><g><g clip-path="url(#clip-16)"><g fill="#000000"><g><g><path d="M53.59312,350.66048c2.15136,0.32047 4.01708,1.32549 3.82778,2.77937c-1.00741,7.74474 -3.9305,7.0178 -4.46734,14.5633c-0.0635,0.88121 0.37322,1.23393 1.14177,1.34818c1.39078,0.20701 3.86799,-0.36666 6.4312,-0.00179c0.00836,0.00139 0.01632,0.00259 0.02468,0.00398c2.03472,0.30276 3.06701,1.8492 2.45173,3.73622c-1.27732,3.92034 -1.86094,5.94889 -2.42426,7.9213c-0.41323,-0.15466 -0.80397,-0.27987 -1.21362,-0.34098c-0.71141,-0.1057 -1.48016,-0.01772 -2.52359,0.44588c-2.82117,1.24965 -1.42283,2.33907 0.06668,4.33915c0.14352,0.19348 0.3565,0.28942 0.60751,0.32684c0.3782,0.05633 0.84279,-0.0211 1.28548,-0.10172c0.14491,-0.02667 0.28743,-0.05355 0.42398,-0.07624c-0.31809,1.0303 -0.69768,2.228 -1.17362,3.68865c-0.61726,1.89359 -2.83809,2.95474 -4.88933,2.66074c-0.00955,-0.00119 -0.01891,-0.00259 -0.02846,-0.00418c-2.03731,-0.30296 -3.55508,-1.89439 -2.94061,-3.77902c2.07294,-6.36451 4.11761,-6.15949 4.06864,-12.69539c-0.00498,-0.66504 -0.72893,-1.11012 -1.52654,-1.22875c-0.78825,-0.11744 -1.64836,0.0842 -1.95748,0.70743c-4.40404,8.91975 -4.86784,11.94854 -6.08226,17.18462c-0.20403,-0.05892 -0.40746,-0.10629 -0.61567,-0.13715c-0.71778,-0.10689 -1.4915,-0.0207 -2.52956,0.43951c-2.81859,1.25284 -1.4079,2.39361 0.08002,4.39349c0.14252,0.19129 0.35511,0.28684 0.60631,0.32426c0.35392,0.05275 0.78467,-0.01055 1.20467,-0.08599c-0.4003,1.4288 -0.88399,3.03954 -1.49051,4.89968c-0.79104,2.43461 -3.97688,4.16677 -6.61751,3.79076c-0.00955,-0.00139 -0.01871,-0.00279 -0.02827,-0.00418c-2.61894,-0.38975 -4.31268,-2.81341 -3.52323,-5.23768c4.06864,-12.48539 6.25583,-12.22801 8.72488,-24.90508c0.09256,-0.47255 -0.51117,-0.79721 -1.22099,-0.9027c-0.76277,-0.11346 -1.64796,0.02568 -1.92404,0.50579c-3.78817,6.56138 -2.23238,6.81955 -4.46276,13.67393c-0.61905,1.89319 -3.15459,3.12294 -5.20463,2.83053c-0.00736,-0.00119 -0.01453,-0.00219 -0.0219,-0.00338c-2.04049,-0.30356 -3.35284,-2.07612 -2.73777,-3.96274c0.97297,-2.9846 1.66468,-4.92198 2.27059,-6.54107c0.21756,0.09913 0.43971,0.17935 0.66304,0.21259c0.26494,0.03961 0.53107,0.01254 0.79243,-0.12879c2.60341,-1.41546 4.7697,-1.9967 2.98121,-3.9084c-0.62184,-0.66145 -1.24269,-0.94749 -1.92345,-1.04881c-0.2102,-0.03125 -0.42617,-0.04459 -0.64971,-0.04638c0.5257,-1.43696 1.13221,-3.17489 1.92603,-5.6103c0.61388,-1.89399 2.37749,-2.98659 4.43091,-2.69358c0.01592,0.00239 0.03145,0.00458 0.04737,0.00697c1.08683,0.16183 2.10618,0.5046 3.01724,0.83025c0.91027,0.32645 1.71265,0.63677 2.36893,0.73431c0.756,0.11266 1.31833,-0.05713 1.62885,-0.80975c3.58275,-8.73444 0.49883,-8.70736 5.46858,-16.62628c0.87703,-1.39675 3.40977,-1.79884 5.63658,-1.46742"/><path d="M59.36485,380.67027c0.40965,0.06111 0.80039,0.18631 1.21343,0.34098c0.26593,0.09973 0.54122,0.21179 0.83702,0.32665c0.75521,0.29161 1.64258,0.60452 2.84805,0.78387c0.02309,0.00338 0.04598,0.00677 0.06927,0.01015c0.00577,0.001 0.01174,0.00179 0.01752,0.00259c1.39556,0.20761 2.20829,1.33445 1.83885,2.46746c-1.6812,5.15746 -1.7865,5.14332 -3.4669,10.29939c-0.37183,1.14057 -1.7226,1.97122 -3.12712,1.77077c-0.00557,-0.001 -0.01155,-0.00179 -0.01732,-0.00259c-1.39417,-0.20761 -2.24969,-1.35017 -1.87747,-2.48597c1.345,-4.12318 3.03416,-4.00653 2.65178,-8.24098c-0.02229,-0.24265 -0.16979,-0.35133 -0.39373,-0.38457c-0.19666,-0.02926 -0.45205,-0.0006 -0.73331,0.04618c-0.13655,0.02269 -0.27907,0.04956 -0.42398,0.07624c-0.44269,0.08082 -0.90728,0.15805 -1.28548,0.10172c-0.25081,-0.03742 -0.46399,-0.13337 -0.60751,-0.32684c-1.48931,-2.00008 -2.88786,-3.0897 -0.06668,-4.33915c1.04343,-0.46359 1.81218,-0.55158 2.52359,-0.44588"/><path d="M44.07959,392.00095c0.20841,0.03085 0.41184,0.07823 0.61547,0.13715c0.46638,0.13516 0.93515,0.33182 1.46722,0.53804c0.76416,0.29719 1.66129,0.61308 2.87054,0.79283c0.02289,0.00358 0.04578,0.00697 0.06887,0.01015c0.00677,0.00119 0.01354,0.00219 0.0201,0.00318c1.39178,0.20682 2.10618,1.33963 1.73594,2.47462c-1.6804,5.15626 -1.6187,5.16542 -3.2995,10.32268c-0.37203,1.14077 -1.80183,1.9752 -3.20634,1.77475c-0.00557,-0.0008 -0.01135,-0.00159 -0.01712,-0.00259c-1.39317,-0.20721 -2.2899,-1.37028 -1.92066,-2.50787c1.3456,-4.12477 3.09985,-3.99837 2.71548,-8.2374c-0.0215,-0.23946 -0.1686,-0.34715 -0.39253,-0.38059c-0.29719,-0.04399 -0.72993,0.0426 -1.18436,0.126c-0.03702,0.00717 -0.07445,0.01373 -0.11167,0.0203c-0.42,0.07544 -0.85075,0.13894 -1.20467,0.08599c-0.2512,-0.03742 -0.46379,-0.13297 -0.60631,-0.32426c-1.48792,-1.99988 -2.89881,-3.14065 -0.08002,-4.39349c1.03806,-0.46021 1.81178,-0.5464 2.52956,-0.43951"/><path d="M29.71813,376.34286c0.68076,0.10132 1.30161,0.38736 1.92325,1.04901c1.78849,1.9117 -0.378,2.49314 -2.98121,3.9084c-0.26136,0.14113 -0.52749,0.1682 -0.79243,0.12879c-0.22334,-0.03324 -0.44548,-0.11346 -0.66304,-0.21259c-0.14929,-0.06788 -0.29639,-0.14451 -0.44011,-0.22095c-0.35312,-0.18771 -0.68574,-0.37243 -0.97874,-0.41622c-0.23588,-0.03503 -0.44648,0.0215 -0.62124,0.24185c-2.98539,3.75752 -1.25881,4.15065 -2.60281,8.27681c-0.37203,1.14057 -1.80262,1.8701 -3.20574,1.67125c-0.00537,-0.0008 -0.01055,-0.00159 -0.01592,-0.00239c-1.39655,-0.20801 -2.30881,-1.26956 -1.93877,-2.40436c1.67981,-5.15905 1.70668,-5.15368 3.38828,-10.31272c0.36984,-1.13958 1.85079,-1.87846 3.2569,-1.67762c2.16609,0.30913 3.72149,-0.08599 5.0219,-0.07564c0.22354,0.00159 0.43951,0.01513 0.64971,0.04638"/></g></g></g></g></g></g></g><g clip-path="url(#clip-17)"><g fill="#000000"><path d="M336.91507,298.50646c0,-15.3615 0.75521,-15.3615 0.75521,-30.7232c0,-3.59947 1.49708,-6.50305 3.85505,-6.50305c2.35639,0 4.36642,2.90358 4.36642,6.50305c0,12.1034 -2.185,12.28235 0.20423,24.14351c0.48489,2.40316 4.71257,2.53912 4.94507,0.09973c2.42904,-25.5954 -0.27011,-25.74787 -0.27011,-51.45753c0,-4.62718 2.35599,-7.93484 5.38677,-7.93484c3.02899,0 5.47435,3.30766 5.47435,7.93484c0,31.37788 -1.4493,31.41073 0.37581,62.73506c0.10709,1.83487 2.73717,1.8281 2.85263,-0.00637c1.82372,-29.10052 0.51455,-29.13018 0.51455,-58.28683c0,-3.59987 1.83666,-6.94276 4.19464,-6.94276c2.35798,0 4.53601,3.34289 4.53601,6.94276c0,32.41654 -0.23409,32.41654 -0.23409,64.83308c0,3.59947 -1.94395,6.81159 -4.30193,6.81159c-3.96414,0 -7.63109,-4.26092 -7.91653,-0.29002c-0.63319,8.84849 2.70433,11.26798 -1.8482,18.05966c-3.06362,4.57563 -9.24839,3.88133 -9.26013,-1.63422c-0.03961,-19.03243 1.15769,-14.12359 -0.18791,-27.66356c-0.45503,-4.57264 -4.26072,0.2305 -8.83137,0.2305c-2.35778,0 -4.61026,-3.25193 -4.61046,-6.8514z"/></g><g fill="#000000"><path d="M332.77338,254.99572c1.61273,0 2.95494,1.64059 2.95494,3.80848c0,7.84427 -1.96565,8.08771 -0.02966,15.68814c0.49465,1.94415 3.20216,-1.8498 4.11223,-0.0629c1.77754,3.49358 2.50946,5.01155 -0.07902,7.94818c-2.29209,2.60202 -3.49895,-0.01652 -6.95829,-0.01652c-1.61432,0 -2.86576,-1.77834 -2.86576,-3.94423c0,-9.80633 0.00338,-9.80633 0.00338,-19.61247c-0.0004,-2.16808 1.24766,-3.80868 2.86218,-3.80868z"/></g><g fill="#000000"><path d="M345.43692,221.66612c1.61253,0 2.90518,1.87766 2.90518,4.04495c0,12.08688 -1.807,12.22423 0.16501,24.14848c0.32665,1.98058 2.7537,-1.65891 3.92751,-0.03483c2.35121,3.24516 4.29695,4.94049 1.64875,7.94499c-2.85243,3.2368 -4.34293,-0.19547 -8.64645,-0.19547c-1.61432,0 -2.83292,-1.59919 -2.83292,-3.76548c0,-14.04855 -0.02627,-14.04855 -0.02627,-28.09769c0,-2.16729 1.24468,-4.04495 2.85919,-4.04495z"/></g><g fill="#000000"><path d="M381.8375,266.56705c0,17.44439 -0.02966,17.44439 -0.02966,34.88758c0,2.16609 -1.12783,3.87655 -2.74374,3.87655c-3.45595,0 -4.73228,2.74434 -7.02417,0.14232c-2.58868,-2.93643 -1.54664,-4.38672 0.23249,-7.87851c0.91007,-1.78829 3.67531,1.93579 3.93269,-0.05613c1.98197,-15.35334 0.02289,-15.48949 0.02289,-30.97162c0,-2.16808 1.22338,-3.85844 2.8361,-3.85844c1.61591,0 2.7736,1.69036 2.7734,3.85824z"/></g></g><g clip-path="url(#clip-18)" opacity="0.5"><g><g><g clip-path="url(#clip-19)"><g fill="#000000"><g><g><path d="M352.82536,332.93642c1.51081,-0.23329 3.53558,0.02369 5.40169,0.89673c6.262,2.93304 4.26391,4.63056 7.90618,9.14886c0.51913,0.64433 1.03786,0.81134 1.61332,0.72236c1.23453,-0.19089 2.72742,-1.56077 5.03225,-1.91708c2.01003,-0.31092 4.79478,1.10375 6.05638,2.97544c0.39373,0.58462 0.77432,1.14893 1.14216,1.69414c-0.47514,0.10092 -0.86747,0.3356 -1.17262,0.82089c-1.17819,1.86791 0.21896,2.48438 2.96051,4.06744c0.28743,0.16621 0.56013,0.20164 0.8199,0.16163c0.22513,-0.03503 0.4403,-0.1264 0.64732,-0.23847c7.26941,10.71581 8.85188,12.82636 18.52624,27.18085c1.2614,1.87169 0.57506,3.89845 -1.43497,4.20917c-2.00824,0.31052 -4.74761,-1.18675 -6.009,-3.05825c-10.21917,-15.16284 -9.11343,-15.35115 -20.86929,-30.24448c-0.37044,-0.47056 -1.11808,-0.61905 -1.7029,-0.52868c-0.58303,0.09017 -1.00462,0.41761 -0.72953,0.90051c9.42276,16.53113 10.66823,16.35716 21.6659,32.67531c1.62188,2.40655 0.69788,4.44903 -1.88642,4.84853c-2.58271,0.3993 -5.75044,-1.01039 -7.37232,-3.41714c-1.1969,-1.77575 -2.19535,-3.32378 -3.05247,-4.70302c0.25538,0.02448 0.49664,0.03065 0.69907,-0.0006c0.2522,-0.03901 0.44409,-0.13615 0.52809,-0.32923c0.86628,-1.99789 1.9328,-3.13548 -1.37963,-4.3491c-1.14197,-0.41881 -1.92564,-0.50002 -2.58351,-0.3983c-0.07823,0.01214 -0.15486,0.02687 -0.2301,0.04399c-2.9219,-5.21279 -4.29755,-8.24795 -11.78532,-17.05842c-0.51435,-0.60472 -1.62507,-0.76476 -2.57753,-0.61746c-0.99924,0.15446 -1.82392,0.64692 -1.60377,1.31972c2.11971,6.48315 4.04555,6.28768 8.28776,12.58232c1.2616,1.87189 0.56611,3.64764 -1.44393,3.95856c-2.00984,0.31072 -4.30511,-1.00283 -5.56671,-2.87452c-0.92739,-1.37605 -1.71424,-2.51224 -2.40874,-3.49099c0.00776,0.00119 0.01533,0.00239 0.02289,0.00358c0.52291,0.08121 1.05936,0.16004 1.42562,0.10351c0.2526,-0.03921 0.42438,-0.14272 0.45444,-0.35411c0.29261,-2.05104 0.38557,-2.93623 -2.85024,-4.12179c-0.95207,-0.34914 -1.60019,-0.41483 -2.14957,-0.32983c-0.11585,0.01791 -0.22712,0.0426 -0.3362,0.07265c-1.46224,-1.91449 -2.95832,-3.88631 -5.5689,-7.76007c-1.2616,-1.87169 -0.48151,-3.86003 1.52853,-4.17075c2.64063,-0.40826 5.75282,0.37641 7.10817,0.16681c0.64533,-0.09973 0.89255,-0.42498 0.50022,-1.21163c-3.59609,-7.21726 -2.89602,-4.50735 -9.53363,-14.41122c-1.0721,-1.60019 0.01652,-2.67348 1.92066,-2.96788"/><path d="M357.20651,363.21872c0.54919,-0.085 1.1973,-0.01911 2.14957,0.33023c3.2358,1.18556 3.14284,2.07075 2.85024,4.12179c-0.03006,0.21139 -0.20164,0.3149 -0.45444,0.35411c-0.36626,0.05653 -0.9027,-0.02249 -1.42562,-0.10351c-0.00756,-0.00119 -0.01513,-0.00239 -0.02289,-0.00358c-0.51535,-0.07942 -1.01557,-0.15865 -1.3247,-0.11087c-0.2311,0.03583 -0.35531,0.14252 -0.29938,0.37302c1.01298,4.20798 2.77579,4.0762 5.52491,8.15519c0.75998,1.12743 0.19029,2.15654 -1.18416,2.36913c-1.37625,0.21259 -3.01525,-0.47514 -3.77504,-1.60257c-3.43784,-5.10093 -3.44083,-5.10033 -6.87707,-10.19867c-0.75919,-1.12644 -0.3153,-2.21725 1.06075,-2.43004c1.76221,-0.2725 2.51165,-0.9252 3.44162,-1.18158c0.10888,-0.03006 0.22035,-0.05474 0.3362,-0.07265"/><path d="M377.63151,374.05475c0.65787,-0.10172 1.44154,-0.0205 2.58351,0.3987c3.31244,1.21362 2.24611,2.35141 1.37963,4.3491c-0.084,0.19288 -0.27569,0.29022 -0.52809,0.32923c-0.20244,0.03125 -0.44369,0.02508 -0.69907,0.0006c-0.22433,-0.0215 -0.45981,-0.05673 -0.68932,-0.09336c-0.49067,-0.07763 -0.95506,-0.15944 -1.22895,-0.11704c-0.21219,0.03264 -0.31012,0.13993 -0.21697,0.38178c2.5003,6.46026 4.08775,6.29305 8.32439,12.57914c0.75998,1.12743 0.31649,2.27398 -1.05797,2.48657c-1.37625,0.21259 -3.09706,-0.59935 -3.85705,-1.72678c-4.92417,-7.30683 -4.90148,-7.31041 -9.82485,-14.61585c-0.75919,-1.12644 -0.27967,-2.11931 1.09638,-2.3319c2.3526,-0.36387 3.22406,-1.30997 4.48824,-1.5962c0.07524,-0.01712 0.15168,-0.03185 0.2301,-0.04399"/><path d="M380.11848,346.4316c1.13878,-0.17616 2.72463,0.30495 4.72472,-0.00438c1.37764,-0.21299 2.93941,0.52809 3.6978,1.65313c6.11351,9.07143 6.13938,9.06765 12.25409,18.14028c0.75899,1.12644 0.36407,2.15932 -1.01358,2.37211c-1.37466,0.21279 -3.01087,-0.50619 -3.77006,-1.63263c-5.42658,-8.05188 -3.8027,-8.37992 -10.87326,-16.10357c-0.20542,-0.22354 -0.41761,-0.28285 -0.63816,-0.24882c-0.28325,0.04379 -0.58084,0.24085 -0.89833,0.4413c-0.12023,0.07564 -0.24324,0.15168 -0.36964,0.22015c-0.20701,0.11207 -0.42219,0.20343 -0.64732,0.23847c-0.25976,0.04001 -0.53247,0.00458 -0.8199,-0.16163c-2.74155,-1.58327 -4.13871,-2.19953 -2.96051,-4.06744c0.30535,-0.48509 0.69748,-0.71997 1.17262,-0.82089c0.04638,-0.01015 0.09375,-0.01851 0.14153,-0.02608"/></g></g></g></g></g></g></g><g clip-path="url(#clip-20)"><path d="M295.75235,126.54717c24.9642,-3.9508 26.63286,1.64915 26.63286,1.64915c0,0 -5.30296,-19.58102 11.49769,-24.50658c16.80403,-4.92536 35.72659,2.71807 33.09332,27.23281c0,0 17.01483,-14.50796 28.93968,-3.72249c0,0 10.29063,-15.63639 24.12301,-11.70371c13.83078,3.93786 14.54319,10.80896 14.54319,10.80896c0,0 28.97452,-8.47885 34.64653,1.50006c5.67081,9.97852 -13.74519,15.72915 -36.24592,14.54916c-22.50073,-1.18337 -93.34201,-1.53788 -111.78465,0.96123c-18.44463,2.49931 -82.3752,-1.55102 -54.87347,-10.36965z" fill="#fff8db" opacity="0.7"/></g><g clip-path="url(#clip-21)"><path d="M223.60687,63.9381c26.19753,8.111 -34.46837,12.56262 -52.00592,10.36309c-17.53754,-2.19734 -84.80066,-1.18795 -106.15544,0.14431c-21.35319,1.33584 -39.84399,-3.94085 -34.55098,-13.4705c5.28963,-9.53104 32.88212,-1.75186 32.88212,-1.75186c0,0 0.61348,-6.53112 13.70896,-10.39931c13.09887,-3.86819 23.01528,10.88162 23.01528,10.88162c11.22419,-10.35293 27.51327,3.26148 27.51327,3.26148c-2.72881,-23.25155 15.16981,-30.68796 31.16908,-26.17186c16.00066,4.5177 11.14795,23.16238 11.14795,23.16238c0,0 1.53191,-5.33163 25.27433,-1.81815z" fill="#fff8db" opacity="0.7"/></g><g clip-path="url(#clip-22)"><path d="M34.68709,118.18974c0,0 7.47941,-13.08274 22.37214,-12.35839c12.24135,0.59656 12.66354,6.62587 13.92971,10.0878c1.26637,3.46193 11.39716,-4.65206 21.95015,0c10.55278,4.65365 3.82858,10.01335 -16.23514,10.01335c-20.06691,0 -82.40984,0.84199 -65.65537,-5.80697c10.13079,-4.01888 15.61828,-5.80577 23.63851,-1.93579z" fill="#fff8db" opacity="0.7"/></g><g clip-path="url(#clip-23)"><path d="M450.87835,94.04623c0,0 7.47762,-13.08274 22.37214,-12.35819c12.24175,0.59656 12.66354,6.62587 13.92971,10.0878c1.26657,3.46212 11.39736,-4.65186 21.94995,0c10.55298,4.65385 3.82878,10.01335 -16.23654,10.01335c-20.06531,0 -82.40804,0.84199 -65.65377,-5.80697c10.13059,-4.01907 15.61848,-5.80577 23.63851,-1.93599z" fill="#fff8db" opacity="0.7"/></g><g clip-path="url(#clip-24)"><path d="M368.25752,161.0239c27.85962,2.53553 5.48749,3.4044 -7.17605,4.47132c-12.66334,1.06732 -16.04047,0.20562 -30.43835,-0.01155c-14.39828,-0.21697 -44.69829,4.88396 -57.36163,4.45978c-12.66354,-0.42418 -29.54819,0 -33.34711,-4.66679c-3.79912,-4.66699 24.90488,-4.24281 24.90488,-4.24281c12.32017,-0.27171 75.55864,-2.54549 103.41826,-0.00995z" fill="#fff8db" opacity="0.2"/></g><g clip-path="url(#clip-25)"><path d="M413.85235,173.63091c21.518,1.32569 4.23783,1.78013 -5.54024,2.33688c-9.78105,0.55834 -12.38944,0.10769 -23.50952,-0.00677c-11.12008,-0.11266 -34.52132,2.55225 -44.29939,2.3321c-9.78125,-0.22234 -22.8206,0 -25.75564,-2.43979c-2.93483,-2.4378 19.23606,-2.21566 19.23606,-2.21566c9.51233,-0.14252 58.35411,-1.33067 79.86873,-0.00677z" fill="#fff8db" opacity="0.2"/></g><g clip-path="url(#clip-26)"><path d="M219.67459,108.33364c21.51621,1.32589 4.23744,1.77993 -5.54203,2.33668c-9.77966,0.55854 -12.38805,0.10789 -23.50813,-0.00657c-11.12008,-0.11266 -34.52132,2.55245 -44.30079,2.3317c-9.78125,-0.22194 -22.8206,0 -25.75564,-2.43939c-2.93344,-2.4378 19.23586,-2.21586 19.23586,-2.21586c9.51393,-0.14252 58.35411,-1.33067 79.87072,-0.00657z" fill="#fff8db" opacity="0.2"/></g><g clip-path="url(#clip-27)"><path d="M221.54926,5.63794c46.75749,2.53553 9.21057,3.404 -12.04349,4.47132c-21.25406,1.06732 -26.92149,0.20542 -51.0859,-0.01155c-24.16441,-0.21717 -75.01781,4.88396 -96.27207,4.45978c-21.25266,-0.42438 -49.59041,-0.0002 -55.96667,-4.66699c-6.37626,-4.66679 41.79929,-4.24261 41.79929,-4.24261c20.67541,-0.27171 126.81134,-2.54549 173.56884,-0.00995z" fill="#fff8db" opacity="0.2"/></g><g clip-path="url(#clip-28)"><path d="M461.65069,45.71144c46.7557,2.53553 9.20878,3.404 -12.04369,4.47132c-21.25406,1.06712 -26.92308,0.20542 -51.0861,-0.01174c-24.166,-0.21717 -75.01761,4.88416 -96.27187,4.45978c-21.25426,-0.42438 -49.59221,0 -55.96667,-4.66699c-6.37785,-4.66679 41.7977,-4.24261 41.7977,-4.24261c20.67541,-0.27171 126.81134,-2.54569 173.57063,-0.00975z" fill="#fff8db" opacity="0.2"/></g><g clip-path="url(#clip-29)"><path d="M298.0743,18.24495c36.11056,1.32569 7.11136,1.77993 -9.30154,2.33668c-16.41469,0.55834 -20.79086,0.10769 -39.45465,-0.00657c-18.66359,-0.11286 -57.93709,2.55225 -74.34999,2.3317c-16.41648,-0.22194 -38.30034,0 -43.22729,-2.43939c-4.92357,-2.438 32.28516,-2.21586 32.28516,-2.21586c15.96463,-0.14252 97.93555,-1.33067 134.0483,-0.00657z" fill="#fff8db" opacity="0.2"/></g><g clip-path="url(#clip-30)"><path d="M378.10785,95.68364c36.11056,1.32589 7.11335,1.77993 -9.29975,2.33668c-16.41469,0.55854 -20.79245,0.10769 -39.45465,-0.00657c-18.66359,-0.11266 -57.93869,2.55225 -74.35158,2.3317c-16.41648,-0.22194 -38.30054,0 -43.22729,-2.43939c-4.92198,-2.4378 32.28516,-2.21586 32.28516,-2.21586c15.96622,-0.14252 97.93754,-1.33087 134.0481,-0.00657z" fill="#fff8db" opacity="0.2"/></g><g clip-path="url(#clip-31)"><path d="M326.4435,332.4989h-23.92694c0.15168,-0.3147 0.28206,-0.63816 0.3991,-0.96461c0.00159,0.0215 0.00318,0.04837 0.00657,0.06628c0.93993,-0.96461 2.4587,-2.95613 4.62997,-7.06478c4.02186,-7.61198 3.68705,-20.10473 3.68705,-20.10473c0,0 2.45671,5.34138 1.78729,14.77469c-0.06589,0.91982 -0.1481,1.79008 -0.24065,2.60879c1.6818,-3.90303 5.15786,-6.9987 5.15786,-6.9987c0,0 -2.7949,4.99682 -1.67702,10.11108c0.49465,2.26562 1.16585,4.00912 1.75943,5.25181c-0.22433,-0.71759 -0.45185,-1.58764 -0.63339,-2.59863c-0.55914,-3.12234 1.56475,-8.66755 1.56475,-8.66755c0,0 0.55914,4.09989 2.34643,7.57714c0.26534,0.51515 0.56551,1.01099 0.88539,1.47976c-0.01811,-2.39122 0.93316,-5.72257 0.93316,-5.72257c0,0 0.3149,3.09268 1.3239,5.7162c0.19627,0.50858 0.42697,0.98591 0.66941,1.43199c0.25558,1.09021 0.70067,2.13106 1.32768,3.10383z" fill="#440e1d"/></g><g clip-path="url(#clip-32)"><path d="M96.28635,348.37256c0.31331,-0.44588 0.6101,-0.92321 0.86409,-1.43179c1.29922,-2.62352 1.70489,-5.716 1.70489,-5.716c0,0 1.22517,3.33095 1.20228,5.72237c0.41045,-0.46877 0.798,-0.96461 1.14097,-1.47976c2.30344,-3.47725 3.02242,-7.57694 3.02242,-7.57694c0,0 2.73379,5.54501 2.01322,8.66755c-0.23229,1.01079 -0.5259,1.88065 -0.81452,2.59843c0.76496,-1.24269 1.62905,-2.98639 2.26721,-5.25201c1.43955,-5.11426 -2.16012,-10.11108 -2.16012,-10.11108c0,0 4.47849,3.09587 6.64179,6.99889c-0.11883,-0.8187 -0.22433,-1.68896 -0.30993,-2.60879c-0.8625,-9.43291 2.30523,-14.77489 2.30523,-14.77489c0,0 -0.43214,12.49315 4.7486,20.10493c2.79649,4.10845 4.75219,6.10017 5.96243,7.06478c0.00338,-0.01791 0.00677,-0.04479 0.00995,-0.06609c0.14849,0.32665 0.31649,0.64971 0.51435,0.96441h-30.82113c0.80616,-0.97277 1.38023,-2.01362 1.70827,-3.10403z" fill="#440e1d"/></g><g clip-path="url(#clip-33)"><path d="M185.89314,325.83322h-28.29336c0.17994,-0.23369 0.33481,-0.47235 0.47176,-0.714c0.00338,0.01632 0.00498,0.03623 0.00836,0.04956c1.11131,-0.7142 2.90856,-2.18918 5.47415,-5.23031c4.75557,-5.63498 4.35965,-14.88258 4.35965,-14.88258c0,0 2.90717,3.95418 2.11553,10.93815c-0.07743,0.67937 -0.17636,1.3239 -0.28524,1.93041c1.98714,-2.88845 6.09778,-5.18035 6.09778,-5.18035c0,0 -3.30447,3.69741 -1.98197,7.48418c0.58541,1.67702 1.37844,2.96827 2.0809,3.88651c-0.26554,-0.53048 -0.53426,-1.17342 -0.74864,-1.92265c-0.66285,-2.3118 1.8484,-6.41686 1.8484,-6.41686c0,0 0.66125,3.03635 2.77519,5.60971c0.3151,0.38158 0.66941,0.74784 1.04702,1.09559c-0.0215,-1.76978 1.10474,-4.23584 1.10474,-4.23584c0,0 0.37084,2.28871 1.56475,4.23107c0.23249,0.37601 0.5046,0.72933 0.79143,1.05876c0.30196,0.80875 0.82945,1.57789 1.56953,2.29866z" fill="#a9373b"/></g><g clip-path="url(#clip-34)"><path d="M436.36621,326.37385c0.31351,-0.44568 0.6103,-0.92301 0.86409,-1.43199c1.29942,-2.62352 1.70349,-5.7162 1.70349,-5.7162c0,0 1.22497,3.33135 1.20188,5.72297c0.41204,-0.46917 0.7982,-0.96461 1.14097,-1.48016c2.30324,-3.47685 3.02262,-7.57714 3.02262,-7.57714c0,0 2.73518,5.54521 2.01322,8.66755c-0.23249,1.01119 -0.5245,1.88125 -0.81452,2.59903c0.76496,-1.24289 1.62905,-2.98659 2.26721,-5.25221c1.43935,-5.11426 -2.15833,-10.11108 -2.15833,-10.11108c0,0 4.4765,3.09587 6.64159,6.9987c-0.11883,-0.8185 -0.22592,-1.68876 -0.31012,-2.60839c-0.86389,-9.43351 2.30344,-14.77489 2.30344,-14.77489c0,0 -0.43194,12.49255 4.7488,20.10453c2.79649,4.10865 4.75358,6.10057 5.96382,7.06518c0.00358,-0.01831 0.00677,-0.04499 0.01015,-0.06628c0.14849,0.32645 0.31689,0.64951 0.51276,0.96461h-30.82113c0.80636,-0.97297 1.38063,-2.01382 1.71006,-3.10423z" fill="#440e1d"/></g><g clip-path="url(#clip-35)"><path d="M483.64045,330.14052h-30.82093c0.19587,-0.26175 0.36447,-0.53187 0.51455,-0.80218c0.00338,0.01811 0.00637,0.03961 0.00975,0.05454c1.20885,-0.80198 3.16574,-2.4591 5.96243,-5.87843c5.18075,-6.33247 4.7488,-16.72521 4.7488,-16.72521c0,0 3.16574,4.44326 2.30324,12.2923c-0.084,0.76536 -0.1897,1.48792 -0.30993,2.16928c2.1651,-3.24675 6.64319,-5.82229 6.64319,-5.82229c0,0 -3.60126,4.15662 -2.16012,8.41257c0.63657,1.88443 1.50046,3.33433 2.26562,4.36841c-0.28843,-0.59636 -0.58024,-1.32072 -0.81432,-2.16092c-0.72057,-2.59843 2.01481,-7.21228 2.01481,-7.21228c0,0 0.71918,3.41256 3.02063,6.3044c0.34277,0.42936 0.73072,0.84199 1.14097,1.23114c-0.02289,-1.98874 1.20387,-4.76114 1.20387,-4.76114c0,0 0.40567,2.57395 1.70469,4.75637c0.25399,0.42259 0.55098,0.8205 0.86269,1.19173c0.32784,0.90649 0.90171,1.77137 1.71006,2.58171z" fill="#440e1d"/></g><g clip-path="url(#clip-36)"><path d="M216.08129,331.92225c1.49708,2.3321 3.03894,3.95259 4.33656,5.05335c-0.3989,-2.19913 -0.94311,-5.76258 -1.2829,-10.23888c-0.58362,-7.69797 2.53434,-14.4582 2.53434,-14.4582c0,0 0.19945,4.67217 3.05884,11.8944c0.97118,2.45293 0.98929,2.81441 2.32155,4.42494c0.64971,-2.76444 0.3364,-1.60576 0.91345,-5.18911c1.87329,-11.63384 6.74729,-14.1216 6.74729,-14.1216c0,0 0,0 -0.86727,10.53566c-0.56392,6.86294 1.5136,12.06001 3.03078,14.85053c-0.13695,-1.61073 -0.24404,-3.9076 -0.11207,-6.56576c0.25718,-5.20583 4.16657,-10.27351 4.16657,-10.27351c0,0 -1.4921,5.61647 -0.72714,9.31885c0.44528,2.1645 2.17644,4.80275 3.54015,6.62587c0.06429,-0.16422 0.12859,-0.34794 0.19288,-0.5255c0.3776,0.98929 0.8609,1.94057 1.44771,2.83551l-29.23826,4.13353l-1.53669,-10.98294c0.41562,0.8832 0.89713,1.78112 1.47418,2.68283z" fill="#440e1d"/></g><g clip-path="url(#clip-37)"><path d="M-7.90364,325.27309c0.84418,1.43019 1.73116,2.43621 2.48478,3.12553c-0.1881,-1.32569 -0.43374,-3.47526 -0.53923,-6.16526c-0.17815,-4.62698 1.84522,-8.60943 1.84522,-8.60943c0,0 -0.42378,2.97803 1.12604,7.37172c0.54083,1.53131 1.38839,2.18241 2.07433,3.07755c0.51117,-1.92225 0.49783,-1.94554 1.21024,-5.60314c1.35376,-6.93579 5.81393,-10.01494 5.81393,-10.01494c0,0 -2.34146,3.67073 -3.09646,9.96657c-0.49146,4.10049 0.63478,7.26224 1.48215,8.96932c-0.04618,-0.9658 -0.05773,-2.34643 0.07922,-3.93567c0.27211,-3.11438 2.72901,-6.06414 2.72901,-6.06414c0,0 -1.02074,3.33095 -0.64652,5.5687c0.21956,1.30917 1.1973,2.92986 1.9754,4.05192c0.043,-0.09614 0.0842,-0.20721 0.1254,-0.31152c0.20602,0.60154 0.47315,1.18496 0.80477,1.73534l-17.61677,1.81297l-0.67598,-6.61771c0.2309,0.53685 0.49783,1.08703 0.82448,1.64219z" fill="#a9373b"/></g></g></g></svg>