<svg version="1.1" xmlns="http://www.w3.org/2000/svg" xmlns:xlink="http://www.w3.org/1999/xlink" width="101.80465" height="60.7423" viewBox="0,0,101.80465,60.7423"><g transform="translate(-367.9684,-208.21728)"><g data-paper-data="{&quot;isPaintingLayer&quot;:true}" fill-rule="nonzero" stroke-linecap="butt" stroke-linejoin="miter" stroke-miterlimit="10" stroke-dasharray="" stroke-dashoffset="0" style="mix-blend-mode: normal"><path d="M367.9684,268.95958v-52.0707l8.7305,-8.6716h93.07415v52.00494l-8.03473,8.73736z" id="svg_1" fill="#669dff" stroke="none" stroke-width="0" opacity="0.7"/><text transform="translate(433.0561,226.87363) scale(0.39783,0.39783)" font-size="40" xml:space="preserve" fill="#ffffff" fill-rule="nonzero" stroke="#ffffff" stroke-width="2" stroke-linecap="butt" stroke-linejoin="miter" stroke-miterlimit="10" stroke-dasharray="" stroke-dashoffset="0" font-family="Serif" font-weight="normal" text-anchor="start" style="mix-blend-mode: normal"><tspan x="0" dy="0">补给</tspan></text><text transform="translate(427.2075,253.26328) scale(0.32847,0.32847)" font-size="40" xml:space="preserve" fill="#679dff" fill-rule="nonzero" stroke="#679dff" stroke-width="3" stroke-linecap="butt" stroke-linejoin="miter" stroke-miterlimit="10" stroke-dasharray="" stroke-dashoffset="0" font-family="Malgun Gothic" font-weight="normal" text-anchor="start" style="mix-blend-mode: normal"><tspan x="0" dy="0">supply</tspan></text><path d="M404,252.02431v9.20833c0,0.42205 -0.34531,0.76736 -0.76736,0.76736h-10.74306c-0.42205,0 -0.76736,-0.34531 -0.76736,-0.76736v-9.20833c0,-0.42205 0.34531,-0.76736 0.76736,-0.76736h3.83681v4.60417l1.53472,-1.02155l1.53472,1.02155v-4.60417h3.83681c0.42205,0 0.76736,0.34531 0.76736,0.76736zM384.04861,247.42014v-9.20833c0,-0.42205 0.34531,-0.76736 0.76736,-0.76736h3.83681v4.60417l1.53472,-1.02155l1.53472,1.02155v-4.60417h3.83681c0.42205,0 0.76736,0.34531 0.76736,0.76736v9.20833c0,0.42205 -0.34531,0.76736 -0.76736,0.76736h-10.74306c-0.42205,0 -0.76736,-0.34531 -0.76736,-0.76736zM388.65278,252.02431v9.20833c0,0.42205 -0.34531,0.76736 -0.76736,0.76736h-10.74306c-0.42205,0 -0.76736,-0.34531 -0.76736,-0.76736v-9.20833c0,-0.42205 0.34531,-0.76736 0.76736,-0.76736h3.83681v4.60417l1.53472,-1.02155l1.53472,1.02155v-4.60417h3.83681c0.42205,0 0.76736,0.34531 0.76736,0.76736z" fill="#679dff" stroke="none" stroke-width="1"/></g></g></svg>