<svg version="1.1" xmlns="http://www.w3.org/2000/svg" xmlns:xlink="http://www.w3.org/1999/xlink" width="575.10209" height="363.22251" viewBox="0,0,575.10209,363.22251"><defs><linearGradient x1="77.84852" y1="35.44259" x2="415.92638" y2="357.08609" gradientUnits="userSpaceOnUse" id="color-1"><stop offset="0" stop-color="#130c41"/><stop offset="0.9964" stop-color="#634da0"/></linearGradient><linearGradient x1="36.50126" y1="74.55018" x2="36.50126" y2="126.64561" gradientUnits="userSpaceOnUse" id="color-2"><stop offset="0.0077" stop-color="#ffffff" stop-opacity="0.5"/><stop offset="1" stop-color="#ffffff" stop-opacity="0.1"/></linearGradient><linearGradient x1="332.45775" y1="103.2934" x2="332.45775" y2="129.07787" gradientUnits="userSpaceOnUse" id="color-3"><stop offset="0.0077" stop-color="#ffffff" stop-opacity="0.5"/><stop offset="1" stop-color="#ffffff" stop-opacity="0.1"/></linearGradient><linearGradient x1="170.97862" y1="162.32232" x2="170.97862" y2="184.43609" gradientUnits="userSpaceOnUse" id="color-4"><stop offset="0.0077" stop-color="#ffffff" stop-opacity="0.5"/><stop offset="1" stop-color="#ffffff" stop-opacity="0.1"/></linearGradient><linearGradient x1="330.71603" y1="151.58068" x2="330.71603" y2="300.66842" gradientUnits="userSpaceOnUse" id="color-5"><stop offset="0.0015" stop-color="#6c54a3"/><stop offset="0.2053" stop-color="#68509f"/><stop offset="0.4206" stop-color="#5c4692"/><stop offset="0.6413" stop-color="#48347d"/><stop offset="0.8642" stop-color="#2c1b60"/><stop offset="0.999" stop-color="#17094a"/></linearGradient><linearGradient x1="157.84722" y1="245.0305" x2="157.84722" y2="302.77762" gradientUnits="userSpaceOnUse" id="color-6"><stop offset="0.0036" stop-color="#6c54a3"/><stop offset="0.1308" stop-color="#59438f"/><stop offset="0.3582" stop-color="#3c2a71"/><stop offset="0.5819" stop-color="#28185b"/><stop offset="0.7983" stop-color="#1b0d4e"/><stop offset="0.999" stop-color="#17094a"/></linearGradient><linearGradient x1="331.94368" y1="266.04662" x2="331.94368" y2="336.90122" gradientUnits="userSpaceOnUse" id="color-7"><stop offset="0.0036" stop-color="#6c54a3"/><stop offset="0.1308" stop-color="#59438f"/><stop offset="0.3582" stop-color="#3c2a71"/><stop offset="0.5819" stop-color="#28185b"/><stop offset="0.7983" stop-color="#1b0d4e"/><stop offset="0.999" stop-color="#17094a"/></linearGradient><linearGradient x1="365.48888" y1="284.07706" x2="365.48888" y2="385.25104" gradientUnits="userSpaceOnUse" id="color-8"><stop offset="0.0015" stop-color="#6c54a3"/><stop offset="0.2053" stop-color="#68509f"/><stop offset="0.4206" stop-color="#5c4692"/><stop offset="0.6413" stop-color="#48347d"/><stop offset="0.8642" stop-color="#2c1b60"/><stop offset="0.999" stop-color="#17094a"/></linearGradient><linearGradient x1="133.58288" y1="258.93126" x2="133.58288" y2="352.84376" gradientUnits="userSpaceOnUse" id="color-9"><stop offset="0.0015" stop-color="#6c54a3"/><stop offset="0.999" stop-color="#17094a"/></linearGradient></defs><g transform="translate(58.87387,2.67195)"><g data-paper-data="{&quot;isPaintingLayer&quot;:true}" fill-rule="nonzero" stroke="none" stroke-width="1" stroke-linecap="butt" stroke-linejoin="miter" stroke-miterlimit="10" stroke-dasharray="" stroke-dashoffset="0" style="mix-blend-mode: normal"><path d="M-58.87386,360.55016v-363.22211h575.10169v363.22212z" fill="url(#color-1)"/><g><path d="M364.59553,147.16955c-34.16624,-28.81603 -38.30814,-80.10481 -9.2512,-114.55669c29.05694,-34.45188 80.30946,-39.02064 114.4757,-10.2046c34.16624,28.81604 38.30814,80.10481 9.2512,114.55669c-29.05694,34.45188 -80.30946,39.02064 -114.4757,10.2046z" fill="#e5edd4" opacity="0.04"/><path d="M372.84167,134.48822c-27.12294,-24.19692 -29.25083,-66.07353 -4.75277,-93.53402c24.49806,-27.46049 66.34514,-30.10614 93.46808,-5.90922c27.12294,24.19692 29.25083,66.07353 4.75278,93.53402c-24.49806,27.46049 -66.34514,30.10614 -93.46808,5.90922z" fill="#e5edd4" opacity="0.04"/><path d="M365.90396,84.78084c0,-28.38006 22.97424,-51.38664 51.31441,-51.38664c28.34017,0 51.31441,23.00658 51.31441,51.38664c0,28.38006 -22.97424,51.38665 -51.31441,51.38665c-28.34017,0 -51.31441,-23.00659 -51.31441,-51.38665z" fill="#e5edd4" opacity="0.04"/><path d="M382.38435,84.78084c0,-19.26526 15.59572,-34.88284 34.83401,-34.88284c19.23829,0 34.834,15.61758 34.834,34.88284c0,19.26526 -15.59571,34.88285 -34.834,34.88285c-19.23829,0 -34.83401,-15.61759 -34.83401,-34.88285z" fill="#e5edd4" opacity="0.04"/><path d="M392.15966,84.42872c0,-13.99299 11.32766,-25.33656 25.30104,-25.33656c13.97338,0 25.30104,11.34356 25.30104,25.33656c0,13.99299 -11.32766,25.33656 -25.30104,25.33656c-13.97338,0 -25.30104,-11.34357 -25.30104,-25.33656z" fill="#ffffff" opacity="0.15"/><path d="M432.26645,84.80505c1.56226,-10.4168 -3.46735,-20.29887 -11.95384,-25.4096c0.32125,0.03592 0.6425,0.07164 0.96496,0.12027c14.0799,2.11759 23.6837,15.50574 21.04852,29.64235c-2.42108,12.98741 -14.59911,21.96727 -27.70315,20.43569c-3.69962,-0.43243 -7.10503,-1.64237 -10.08627,-3.4377c13.40814,1.49869 25.70886,-7.87607 27.72978,-21.351z" fill="#ffffff"/></g><g><path d="M122.83224,128.83423l-172.66752,-3.07225c1.50232,-4.33828 5.04717,-7.91723 9.3669,-9.45709c4.31972,-1.53986 9.32553,-1.00895 13.22734,1.40284c6.83261,-11.49376 15.27087,-22.1963 25.9052,-30.2905c10.63414,-8.0942 23.59693,-13.46808 36.9522,-13.71184c8.88623,-0.16224 18.5318,2.42531 23.77834,9.60944c4.99269,6.83665 4.85749,16.02637 4.51404,24.48904c4.06385,-2.8858 9.13705,-4.62744 14.0579,-3.84934c4.92105,0.7781 9.51178,4.43817 10.51912,9.32391c6.7521,-3.42942 14.91652,-4.56065 21.97453,-1.81752c7.05801,2.74313 12.58524,9.79489 12.37195,17.37332z" fill="url(#color-2)"/><path d="M390.04471,130.1612l-115.25603,-2.1872c1.28258,-3.08617 4.16958,-5.45035 7.44484,-6.09628c3.27526,-0.64572 6.8419,0.44555 9.19719,2.81437c4.33889,-3.87135 9.07853,-7.62948 14.72583,-9.00246c5.64729,-1.37298 12.41554,0.2813 15.4097,5.26874c7.20229,-8.59081 17.22702,-14.76801 28.13115,-17.33457c4.24082,-0.99826 9.06925,-1.35401 12.60683,1.19178c1.92266,1.38367 3.21693,3.46412 4.33525,5.55406c2.62327,4.90229 4.55965,10.17265 5.73427,15.60867c2.796,-2.9203 6.84089,-4.93397 10.83249,-4.30842c3.99161,0.62575 7.50639,4.50113 6.83846,8.49132z" fill="url(#color-3)"/><path d="M207.42242,184.99482l-73.14042,-1.46802c0.55937,-3.49844 3.76298,-10.99696 7.29572,-11.18765c3.53274,-0.19069 7.02794,2.33572 7.95961,5.75364c5.62207,-6.55555 12.79308,-11.77041 20.75814,-15.09531c5.99317,-2.50179 13.48886,-3.72242 18.51444,0.3947c4.8367,3.96255 5.31031,11.06758 5.39708,17.32509c2.77926,-0.19554 5.20255,-2.0403 7.958,-2.45336c2.75564,-0.41306 6.52549,4.24687 5.25744,6.73091z" fill="url(#color-4)"/></g><g fill="#ffffff"><g><g><path d="M-27.06791,20.01793c-0.39046,0 -0.38966,-0.60578 0,-0.60578c0.39046,0 0.38986,0.60578 0,0.60578z"/></g></g><g><g><path d="M-32.64459,51.66325c-0.39026,0 -0.38965,-0.60578 0,-0.60578c0.39046,0 0.38986,0.60578 0,0.60578z"/></g></g><path d="M15.38347,31.81478c0,-0.39066 0.60537,-0.39006 0.60537,0c0,0.31015 0,0.6205 0,0.93065c0,0.39066 -0.60537,0.39006 -0.60537,0c0,-0.31015 0,-0.6205 0,-0.93065z"/><path d="M-1.67041,69.04443c0,0.39066 -0.60537,0.39006 -0.60537,0c0,-0.31015 0,-0.6205 0,-0.93065c0,-0.39066 0.60537,-0.39006 0.60537,0c0,0.31015 0,0.6205 0,0.93065z"/><path d="M-6.92301,41.12214c0,-0.39066 0.60537,-0.39006 0.60537,0c0,0.31015 0,0.62051 0,0.93066c0,0.39066 -0.60537,0.39006 -0.60537,0c0,-0.31015 0,-0.62051 0,-0.93066z"/><g><g><path d="M86.32357,15.36424c-0.39047,0 -0.38986,-0.60577 0,-0.60577c0.39047,0 0.38986,0.60577 0,0.60577z"/></g></g><g><g><path d="M90.9706,74.001c-0.39026,0 -0.38966,-0.60578 0,-0.60578c0.39047,0 0.38986,0.60578 0,0.60578z"/></g></g><path d="M80.12014,85.79786c0,0.39066 -0.60537,0.39006 -0.60537,0c0,-0.31015 0,-0.62051 0,-0.93066c0,-0.39066 0.60537,-0.39006 0.60537,0c0,0.31015 0,0.62051 0,0.93066z"/><g><g><path d="M51.9343,107.50784c-0.39046,0 -0.38986,-0.60578 0,-0.60578c0.39046,0 0.38986,0.60578 0,0.60578z"/></g></g><path d="M61.22876,62.83233c-0.39026,0 -0.38965,-0.60618 0,-0.60618c0.30974,0 0.6197,0 0.92944,0c0.39006,0 0.38945,0.60618 0,0.60618c-0.30974,0 -0.6197,0 -0.92944,0z"/><path d="M151.59821,74.41468c0.27585,0.27625 -0.15235,0.70485 -0.428,0.4286c-0.30974,-0.31015 -0.6197,-0.6203 -0.92944,-0.93066c-0.27605,-0.27625 0.15215,-0.70486 0.42799,-0.42861c0.30974,0.31015 0.6197,0.62031 0.92945,0.93066z"/><path d="M144.25124,136.05811c0,0.39067 -0.60538,0.39006 -0.60538,0c0,-0.31015 0,-0.62051 0,-0.93066c0,-0.39067 0.60538,-0.39006 0.60538,0c0,0.31015 0,0.62051 0,0.93066z"/><g><g><path d="M98.40616,161.49092c-0.39047,0 -0.38966,-0.60577 0,-0.60577c0.39047,0 0.38986,0.60577 0,0.60577z"/></g></g><path d="M53.16644,196.55639c0,0.39067 -0.60537,0.39006 -0.60537,0c0,-0.31015 0,-0.62051 0,-0.93066c0,-0.39067 0.60537,-0.39006 0.60537,0c0,0.31015 0,0.62051 0,0.93066z"/><g><g><path d="M80.74689,136.361c-0.39047,0 -0.38986,-0.60577 0,-0.60577c0.39047,0 0.38986,0.60577 0,0.60577z"/></g></g><path d="M-8.69311,160.47168c-0.27605,-0.27625 0.15216,-0.70486 0.428,-0.42861c0.30975,0.31015 0.6197,0.62051 0.92944,0.93066c0.27605,0.27625 -0.15215,0.70486 -0.428,0.42861c-0.30975,-0.31015 -0.6197,-0.6203 -0.92945,-0.93066z"/><path d="M-33.70196,181.61282c0.0222,-0.16325 0.23104,-0.25063 0.3723,-0.21168c0.17253,0.04742 0.23347,0.21087 0.21148,0.37291c0.00888,-0.06477 0.02502,0.02946 0.00323,-0.0456c0.0111,0.03854 -0.00323,0.00142 -0.00666,-0.01533c-0.02623,-0.03068 -0.03168,-0.03753 -0.01654,-0.02098c0.00444,0.00525 0.00928,0.01009 0.01453,0.01452c0.00908,0.03188 -0.01675,-0.04843 -0.00121,-0.00464c0.00646,0.00323 0.01291,0.00666 0.01937,0.00989c-0.03471,-0.01413 -0.04136,-0.01756 -0.01997,-0.01029c0.01857,0.00565 0.03712,0.00989 0.05609,0.01433c-0.0678,-0.01574 0.02139,-0.00262 0.05085,-0.00101c0.03592,0.00181 0.044,-0.00625 0.00344,0.00202c0.01917,-0.00403 0.03833,-0.00989 0.0575,-0.01373c0.02361,-0.00484 0.05993,-0.0012 0.00242,0.00182c0.00686,-0.00041 0.03431,-0.01594 0.03834,-0.02159c-0.04076,0.05711 -0.02361,0.00807 -0.00444,0.00061c0.02684,-0.01049 -0.03148,0.04621 -0.00605,0.00343c-0.02967,0.04984 -0.00626,0.001 -0.01412,0.03229c-0.01029,0.04056 -0.01635,-0.04198 -0.00182,0.02704c-0.07991,-0.38138 0.50367,-0.54282 0.58378,-0.16123c0.19392,0.924 -1.47508,0.99966 -1.34251,0.02724z"/><g><g><path d="M-16.84403,113.09238c-0.39046,0 -0.38986,-0.60577 0,-0.60577c0.39046,0 0.38986,0.60577 0,0.60577z"/></g></g><path d="M27.05359,155.3894c0.27585,0.27625 -0.15235,0.70485 -0.42799,0.4286c-0.30974,-0.31015 -0.6197,-0.62051 -0.92945,-0.93066c-0.27605,-0.27625 0.15215,-0.70485 0.42799,-0.4286c0.30974,0.31015 0.6197,0.62051 0.92945,0.93066z"/><g><g><path d="M150.45466,21.87944c-0.39047,0 -0.38986,-0.60577 0,-0.60577c0.39047,0 0.38986,0.60577 0,0.60577z"/></g></g><g><g><path d="M197.85598,47.94022c-0.39047,0 -0.38966,-0.60577 0,-0.60577c0.39047,0 0.38986,0.60577 0,0.60577z"/></g></g><g><g><path d="M186.70284,109.36936c-0.39047,0 -0.38986,-0.60577 0,-0.60577c0.39047,0 0.38986,0.60577 0,0.60577z"/></g></g><path d="M169.19552,192.57002c0,0.39086 -0.60537,0.39006 -0.60537,0c0,-0.3614 0,-0.72261 0,-1.08401c0,-0.39067 0.60537,-0.39006 0.60537,0c0,0.3614 0,0.72261 0,1.08401z"/><g><g><path d="M123.42712,250.32698c-0.39026,0 -0.38966,-0.60577 0,-0.60577c0.39047,0 0.38986,0.60577 0,0.60577z"/></g></g><path d="M10.84561,258.99951c-0.39026,0 -0.38945,-0.60618 0,-0.60618c0.361,0 0.72181,0 1.08261,0c0.39006,0 0.38945,0.60618 0,0.60618c-0.361,0 -0.72181,0 -1.08261,0z"/><path d="M-3.01312,294.25527c0.27605,0.27625 -0.15216,0.70485 -0.428,0.4286c-0.361,-0.3614 -0.7218,-0.72261 -1.0826,-1.08402c-0.27605,-0.27625 0.15215,-0.70486 0.428,-0.42861c0.361,0.3614 0.7218,0.72262 1.08261,1.08402z"/><path d="M-11.40456,223.89309c0.02219,0.16285 -0.03653,0.32468 -0.21148,0.3725c-0.14246,0.03935 -0.35011,-0.04924 -0.3723,-0.21168c-0.14287,-1.0479 1.67708,-0.96677 1.46742,0.03169c-0.08031,0.38219 -0.66369,0.21934 -0.58378,-0.16123c-0.01231,0.05852 -0.00766,-0.04682 0.00586,0.02663c-0.00605,-0.0333 0.00262,-0.01998 0.00746,0.00423c-0.00827,-0.04217 0.0115,0.00141 -0.00061,-0.00605c-0.023,-0.01413 -0.03612,-0.03592 -0.00504,-0.00727c-0.03189,-0.02946 -0.10736,-0.04338 -0.14367,-0.04338c-0.02341,0 -0.04681,-0.00041 -0.07022,0.0008c-0.05872,0.00323 0.01916,-0.00404 -0.01534,0.00262c-0.02179,0.00423 -0.04398,0.0105 -0.06477,0.01796c0.02562,-0.00908 0.02845,-0.0119 0.00141,0.00061c-0.04984,0.0232 0.01332,0.00484 -0.00868,0.00242c-0.05892,-0.00666 0.01473,0.03854 -0.00545,0.00242c0.00343,-0.00968 0.00666,-0.01958 0.01009,-0.02926c-0.00706,0.02865 -0.00908,0.03128 -0.00605,0.00827c0.00302,-0.05267 0.00525,0.06276 -0.00484,-0.0113z"/><path d="M-36.48243,299.88983c0,0.39067 -0.60538,0.39006 -0.60538,0c0,-0.3614 0,-0.72261 0,-1.08401c0,-0.39067 0.60538,-0.39006 0.60538,0c0,0.3614 0,0.72261 0,1.08401z"/><path d="M87.40154,234.84746c0,-0.39067 0.60537,-0.38986 0.60537,0c0,0.3614 0,0.72261 0,1.08401c0,0.39067 -0.60537,0.39006 -0.60537,0c0,-0.3614 0,-0.72261 0,-1.08401z"/><path d="M72.85165,305.30993c0,0.39067 -0.60537,0.39006 -0.60537,0c0,-0.3614 0,-0.72261 0,-1.08402c0,-0.39067 0.60537,-0.39006 0.60537,0c0,0.3614 0,0.72261 0,1.08402z"/><g><g><path d="M230.13471,144.41545c-0.39047,0 -0.38986,-0.60577 0,-0.60577c0.39047,0 0.38986,0.60577 0,0.60577z"/></g></g><g><g><path d="M331.94365,57.79444c-0.39047,0 -0.38966,-0.60578 0,-0.60578c0.39047,0 0.38986,0.60578 0,0.60578z"/></g></g><path d="M410.23683,117.49726c-0.27585,0.27645 -0.70384,-0.15235 -0.42799,-0.4286c0.25507,-0.25547 0.51012,-0.51114 0.76539,-0.7666c0.27585,-0.27645 0.70384,0.15235 0.428,0.4286c-0.25507,0.25547 -0.51033,0.51113 -0.76539,0.7666z"/><g><g><path d="M354.90822,180.44365c-0.39047,0 -0.38986,-0.60577 0,-0.60577c0.39047,0 0.38986,0.60577 0,0.60577z"/></g></g><path d="M497.33845,12.32811c0.27605,-0.27625 0.70385,0.15255 0.428,0.4286c-0.15477,0.15498 -0.30955,0.30995 -0.46432,0.46492c-0.27585,0.27646 -0.70384,-0.15235 -0.428,-0.4286c0.15477,-0.15498 0.30955,-0.30995 0.46431,-0.46492c0.27605,-0.27625 0.70385,0.15255 0.428,0.4286c-0.15477,0.15498 -0.30955,0.30995 -0.46432,0.46492c-0.27585,0.27646 -0.70384,-0.15235 -0.428,-0.4286c0.15477,-0.15498 0.30955,-0.30995 0.46431,-0.46492z"/><path d="M442.63584,43.69355c0,-0.39066 0.60537,-0.39006 0.60537,0c0,0.25547 0,0.51113 0,0.7666c0,0.39066 -0.60537,0.39006 -0.60537,0c0,-0.25547 0,-0.51113 0,-0.7666z"/><g><g><path d="M255.39561,35.56423c-0.39047,0 -0.38986,-0.60577 0,-0.60577c0.39047,0 0.38986,0.60577 0,0.60577z"/></g></g><path d="M275.00273,112.95839c0.27605,0.27625 -0.15215,0.70486 -0.428,0.42861c-0.25507,-0.25547 -0.51033,-0.51113 -0.7654,-0.7666c-0.27605,-0.27625 0.15215,-0.70486 0.428,-0.42861c0.25507,0.25567 0.51013,0.51113 0.76539,0.7666z"/><path d="M284.03585,173.27809c0,0.39067 -0.60537,0.39006 -0.60537,0c0,-0.53454 0,-1.06909 0,-1.60363c0,-0.39067 0.60537,-0.39006 0.60537,0c0,0.53454 0,1.06909 0,1.60363z"/><g><g><path d="M234.08879,250.55783c-0.39047,0 -0.38986,-0.60577 0,-0.60577c0.39047,0 0.38986,0.60577 0,0.60577z"/></g></g></g><g><path d="M70.77424,281.3647v-30.65857l43.90669,-21.93942l19.29234,12.21717l45.56985,-31.16647l64.52944,68.42943z" fill="#48337a"/><path d="M114.68093,228.76672l5.09338,14.25869l-6.7418,7.34213l11.90259,20.97345l-49.01057,2.79681z" fill="#251258"/><path d="M179.54312,209.81742l9.68532,14.80957l-6.93169,8.22496l14.84832,10.08749l-3.88043,5.06493l21.76225,22.77463l-88.10194,-4.2507z" fill="#251258"/><path d="M114.68093,228.76672v7.49569l-4.42627,3.0206l1.51605,1.05072l-6.6058,3.15196l1.05576,4.51869l-13.10444,8.2857l2.31251,5.03224l-9.62175,19.51169l-15.03275,0.53071v-30.65857z" fill="#080b4a"/><path d="M178.92987,222.33971l-17.26173,13.02514l5.19387,15.36289l-7.14195,3.32752l12.74648,16.41481l-44.22976,3.66774l-25.32708,-7.66782l15.48134,-8.07201l-3.71012,-4.34272l64.86219,-44.23783z" fill="#170b36"/></g><g><g><path d="M139.94586,267.17322l105.37962,-78.74171l102.87358,103.80969z" fill="#48337a"/><path d="M245.32548,188.43151l3.4391,23.695l-14.90562,7.12198l16.50966,12.34148l-7.81452,21.11269l12.64376,16.19143l-105.03698,-9.35378z" fill="#170b36"/></g><g><path d="M516.22782,314.63868l-149.62209,-16.28506l125.6468,-131.76649l23.97528,32.81267z" fill="#251258"/><path d="M494.31324,198.4177l9.06219,35.93598l-20.70346,2.54357l9.58059,26.74021l-34.04783,11.11822l3.18404,33.91426l-94.78301,-10.31632l125.6468,-131.76649z" fill="#3a2d66"/><path d="M492.25254,166.58713l-11.23466,32.10237l-13.99636,5.24433l-11.38237,19.96854l6.44537,11.69858l-31.97464,6.18466l-43.82497,35.93033z" fill="#6c54a3"/><path d="M516.22782,206.40798l-10.85227,-10.43739l-13.12301,-29.38345l23.97528,32.81267z" fill="#170b36"/></g><g><path d="M206.77549,293.92756l148.13268,-149.81499l99.74846,180.48245z" fill="url(#color-5)"/><path d="M354.90822,144.11256l15.41938,48.45746l-3.85923,10.65613l17.43466,12.79692l-23.04483,18.33061l30.54456,65.09848l-156.40465,-34.06781z" fill="#251258"/><path d="M354.90822,144.11256l-2.75504,52.38188l-49.49184,30.44084l13.79296,16.22957l-21.90632,43.87077l-87.77243,6.89193z" fill="#170b36"/></g><g><path d="M338.95989,291.91126l88.4357,-100.65147l81.26066,120.69629z" fill="#170b36"/><path d="M428.84608,215.57409l-10.11352,7.43616l1.92003,21.95677l-27.2808,17.90504l10.05964,11.0135l2.24088,25.90581l-66.7124,-7.88011l88.4357,-100.65147z" fill="#251258"/><path d="M427.39565,191.2598l-8.77968,19.09499l4.2842,4.05256l-17.65663,8.80995l2.11153,11.13639l-23.69822,14.34727l-30.84583,27.44607z" fill="#6c54a3"/><path d="M508.65626,311.95607l-63.578,-81.86421l3.2022,-4.22892l-11.64833,-12.15825l-9.23654,-22.44491z" fill="#6c54a3"/></g></g><g><g><g><g><path d="M275.4951,269.75492v3.09022h-0.78476l-0.04541,-3.09022z" fill="#080b4a"/><path d="M275.4951,272.84514v-3.09022h0.26515v3.09022z" fill="#6c54a3"/><g fill="#6c54a3"><path d="M277.8189,261.70188l-0.1015,-0.46735l0.44212,0.26838l0.31278,1.30558l-0.92158,0.31984l-0.63887,0.22156l-0.28755,-0.24739z"/><path d="M278.28504,264.53219l-1.27935,-1.10137l0.69638,0.17576l0.77024,0.19432l0.93892,1.93234h-0.76196z"/><path d="M277.19921,259.04814l-1.16312,-4.08019l0.55875,0.31964l1.09512,3.76055z"/><path d="M280.35015,269.75472h-1.25957l0.62232,-0.55412l-0.78677,-1.51726l-0.09645,-1.00431l0.43062,0.37453c0.18746,0.30935 0.38804,0.61364 0.60234,0.91229z"/><path d="M275.76025,252.3356l-0.6653,-3.17335l1.0826,3.98394h-0.56865h-0.44837z"/><path d="M276.04155,253.96949l-0.88101,-0.82331l0.5408,0.25002l0.47622,0.21995l0.4173,1.04467h-0.64613z"/><path d="M277.38183,259.68863l-0.0908,-0.31883l0.39893,0.14831l0.46957,1.25352l-0.56481,-0.10291z"/></g><g><path d="M275.03968,251.94493h-0.27322l0.01008,-0.15376l0.23832,0.09545l0.1457,0.05831z" fill="none"/><path d="M274.9783,248.73304l-0.20179,3.05813l-0.39813,-0.15941l0.28251,-1.36592z" fill="#170b36"/><path d="M279.7129,269.2008l-0.62232,0.55412h-2.40413h-1.74327l1.09289,-2.58836l-1.87039,-2.17146l1.33383,-4.22347l-1.1617,-3.08295l1.29832,-0.68064l-0.97122,-3.52427l0.10151,-1.53885h0.27322h0.12088l-0.1457,-0.05831l-0.23832,-0.09545l0.20179,-3.05813l0.11664,0.42921l0.6653,3.17335l-0.59972,0.81059l0.88101,0.82331l-0.09283,0.69133h-0.44918l0.49237,0.2817l0.04419,0.02543l1.16312,4.08019h-0.57409h-0.19997l0.2139,0.07931l0.65199,0.24235l0.0908,0.31883l0.21289,0.9801l-0.68993,-0.12552l-0.46653,-0.08495l0.51416,0.31197l0.76499,0.46432l0.1015,0.46735l-1.19459,1.40062l0.28755,0.24739l-0.09544,0.03309l0.18928,0.04782l1.27935,1.10137l0.36423,1.20105h-0.10009h-0.80696l1.08745,0.94579l0.09645,1.00451z" fill="#251258"/><path d="M276.0361,267.16656l-1.09289,2.58836h-4.86778l0.31278,-2.08913l3.23368,-0.5745l-2.86845,-0.62676l0.88666,-3.65604l1.72107,-0.9922l-1.30397,-0.41791l0.46956,-2.08913l1.77313,-0.46997l-1.61674,-0.52244l0.73027,-2.45477l1.19944,-0.26111l-0.99099,-0.36565l0.55936,-2.71508l0.11865,-0.57531h0.46654l-0.10151,1.53885l0.97122,3.52427l-1.29832,0.68064l1.1617,3.08295l-1.33383,4.22347z" fill="#170b36"/></g></g><path d="M274.59914,274.65357l-1.98541,-0.36423l1.07312,0.609l-3.00606,0.8786l-1.81793,0.01937l0.45262,0.35354l-2.1307,0.63483l-1.66114,-0.14024l0.60295,0.48087l-3.16407,0.87112l-1.25594,-0.10533l0.34769,0.34647l-4.10199,1.23818l-0.97283,0.29361l-0.44272,-0.08899l-0.25022,0.08455l0.13237,0.16688l-2.54155,0.76619l-3.19192,0.96234l0.70506,-0.32125l5.65335,-2.57626l0.52203,0.11038l0.40782,0.08617l-0.12652,-0.23166l-0.11098,-0.2028l1.1042,-0.58398l0.55593,0.12471l0.38259,0.08576l-0.04339,-0.22419l-0.00383,-0.02017l-0.04863,-0.25183l3.64272,-1.70735l0.35656,0.09181l0.41367,0.10655l0.14307,0.03692l-0.06941,-0.0678l-0.21087,-0.20623l-0.12874,-0.12592l0.96072,-0.50548l0.28453,0.13742l0.34627,0.16728l0.23327,0.1128l-0.04439,-0.19554l-0.06518,-0.28775l-0.03713,-0.16466l1.0142,-0.44677l0.86608,0.07345l0.5854,0.04964l0.08637,0.00727l-0.07547,-0.04681l-0.27786,-0.17192l-0.30793,-0.19049l1.04164,-0.66914l0.44354,0.13339l0.05791,0.01735l0.46411,0.13944l0.10433,-0.41811l0.04036,-0.16204c0.12652,-0.10352 0.24054,-0.20704 0.34184,-0.31036l1.00128,-0.46189l0.65118,0.21006l1.21477,0.39167l0.45847,0.14792l1.77393,-0.61829l0.11946,0.04036l0.35131,0.11865l-1.70936,0.632l2.16722,0.6988z" fill="#170b36" opacity="0.66"/></g><g><g><path d="M264.47011,270.2259v2.12162h-0.53878l-0.03128,-2.12162z" fill="#080b4a"/><path d="M264.47011,272.34751v-2.12162h0.18202v2.12162z" fill="#6c54a3"/><g fill="#6c54a3"><path d="M266.06564,264.69684l-0.06982,-0.32084l0.30349,0.18424l0.21491,0.89635l-0.63282,0.21955l-0.43869,0.15235l-0.19736,-0.1699z"/><path d="M266.38568,266.64009l-0.87839,-0.7561l0.47804,0.12067l0.5289,0.13338l0.64451,1.32677h-0.52304z"/><path d="M265.64007,262.87488l-0.79848,-2.80145l0.3834,0.21954l0.75207,2.58191z"/><path d="M267.80325,270.22569h-0.86467l0.42739,-0.38038l-0.54019,-1.04164l-0.06619,-0.68951l0.29562,0.25707c0.12854,0.21249 0.26637,0.42134 0.41347,0.62636z"/><path d="M264.65211,258.26621l-0.45686,-2.17873l0.7434,2.73526h-0.39047h-0.30793z"/><path d="M264.84522,259.38816l-0.60496,-0.56542l0.37129,0.17172l0.3271,0.15114l0.28634,0.71717h-0.44353z"/><path d="M265.76538,263.31458l-0.06236,-0.21895l0.27403,0.1019l0.32226,0.86064l-0.38784,-0.07063z"/></g><g><path d="M264.15734,257.99803h-0.18746l0.00686,-0.10554l0.16365,0.06538l0.09989,0.04015z" fill="none"/><path d="M264.11517,255.79266l-0.13842,2.09983l-0.27343,-0.10957l0.19412,-0.93772z" fill="#170b36"/><path d="M267.36598,269.84552l-0.42739,0.38038h-1.65064h-1.19682l0.75046,-1.77717l-1.28419,-1.49082l0.91572,-2.89973l-0.79768,-2.11677l0.89151,-0.46715l-0.66692,-2.41967l0.06982,-1.05657h0.18746h0.08294l-0.09989,-0.04015l-0.16365,-0.06538l0.13842,-2.09983l0.08011,0.29481l0.45686,2.17873l-0.41186,0.55654l0.60496,0.56542l-0.06376,0.47461h-0.30834l0.338,0.19331l0.03047,0.01736l0.79848,2.80145h-0.3943h-0.13722l0.1469,0.05448l0.44757,0.16627l0.06236,0.21895l0.1461,0.67297l-0.4736,-0.08616l-0.32024,-0.05831l0.35313,0.21409l0.52506,0.31883l0.06982,0.32084l-0.82028,0.96174l0.19736,0.1699l-0.06558,0.0226l0.13016,0.03289l0.87839,0.7561l0.25002,0.82472h-0.06881h-0.55412l0.74683,0.64936l0.06619,0.68951z" fill="#251258"/><path d="M264.84162,268.44873l-0.75046,1.77717h-3.34205l0.2147,-1.43433l2.2203,-0.3945l-1.96947,-0.43021l0.6086,-2.51027l1.18168,-0.68124l-0.89514,-0.28674l0.32226,-1.43453l1.2176,-0.32266l-1.11025,-0.35858l0.50145,-1.68535l0.82351,-0.17939l-0.68023,-0.25083l0.38401,-1.86414l0.08152,-0.3951h0.32024l-0.06982,1.05657l0.66692,2.41967l-0.89151,0.46715l0.79768,2.11677l-0.91572,2.89973z" fill="#170b36"/></g></g><path d="M263.85463,273.58813l-1.36309,-0.25002l0.73674,0.41811l-2.06391,0.60316l-1.24807,0.01331l0.31075,0.24275l-1.46277,0.43587l-1.14052,-0.09625l0.41408,0.33013l-2.17247,0.5981l-0.86225,-0.07224l0.23871,0.23771l-2.81638,0.85014l-0.66792,0.20159l-0.30389,-0.06094l-0.17172,0.05812l0.091,0.11461l-1.74508,0.52607l-2.19144,0.66066l0.48409,-0.22056l3.88143,-1.76869l0.35838,0.07587l0.27989,0.05912l-0.08697,-0.15902l-0.07628,-0.13923l0.75813,-0.40096l0.38179,0.08556l0.26273,0.05892l-0.02987,-0.15397l-0.00262,-0.01372l-0.0333,-0.17293l2.50098,-1.17219l0.24477,0.06315l0.28392,0.07326l0.09827,0.02522l-0.04762,-0.04641l-0.14488,-0.14166l-0.08839,-0.08657l0.65965,-0.34708l0.19534,0.09444l0.23771,0.11482l0.16022,0.07749l-0.03047,-0.13419l-0.0446,-0.19755l-0.02563,-0.113l0.69638,-0.30672l0.59467,0.05044l0.40197,0.03411l0.05933,0.00504l-0.05186,-0.03208l-0.19069,-0.11805l-0.21128,-0.13076l0.71514,-0.45927l0.3045,0.09161l0.03976,0.01191l0.31862,0.09585l0.07164,-0.28695l0.02784,-0.11139c0.08697,-0.07123 0.16527,-0.14206 0.23469,-0.21309l0.6873,-0.31721l0.44717,0.14428l0.83399,0.26898l0.3148,0.1015l1.2178,-0.42457l0.08193,0.02765l0.24134,0.08152l-1.17361,0.43385l1.488,0.47986z" fill="#170b36" opacity="0.66"/></g><g><g><path d="M305.51338,266.53516v2.60874h-0.66228l-0.03834,-2.60874z" fill="#080b4a"/><path d="M305.51338,269.14369v-2.60854h0.22379v2.60854z" fill="#6c54a3"/><g fill="#6c54a3"><path d="M307.4752,259.73745l-0.08576,-0.3945l0.37311,0.2264l0.26414,1.10218l-0.7779,0.26999l-0.53938,0.18706l-0.24275,-0.20886z"/><path d="M307.86868,262.12664l-1.07998,-0.92964l0.58761,0.14812l0.65037,0.16406l0.79243,1.63127h-0.6431z"/><path d="M306.95214,257.49718l-0.98191,-3.44415l0.47158,0.26979l0.92461,3.17436z"/><path d="M309.61154,266.53516h-1.06323l0.52546,-0.46775l-0.66409,-1.28076l-0.08132,-0.84793l0.36342,0.31621c0.15821,0.26112 0.3275,0.5178 0.50851,0.77004z"/><path d="M305.73738,251.83092l-0.56178,-2.67876l0.9139,3.36303h-0.47986h-0.37856z"/><path d="M305.97468,253.21036l-0.7436,-0.69517l0.45645,0.21108l0.40197,0.18564l0.35232,0.88182h-0.54543z"/><path d="M307.10612,258.03797l-0.07668,-0.26918l0.33699,0.12511l0.39612,1.05819l-0.47663,-0.08677z"/></g><g><path d="M305.12897,251.5012h-0.23064l0.00867,-0.12975l0.20119,0.08051l0.12289,0.04924z" fill="none"/><path d="M305.07712,248.78995l-0.17011,2.5815l-0.33618,-0.13479l0.23852,-1.15283z" fill="#170b36"/><path d="M309.07397,266.06761l-0.52546,0.46755h-2.0294h-1.47145l0.92259,-2.18499l-1.57901,-1.83285l1.12599,-3.56523l-0.9807,-2.60249l1.09612,-0.57449l-0.81987,-2.97479l0.08556,-1.29913h0.23064h0.10211l-0.12289,-0.04924l-0.20119,-0.08051l0.17011,-2.5815l0.09848,0.36221l0.56178,2.67876l-0.50629,0.68427l0.7436,0.69517l-0.0783,0.58338h-0.37917l0.41569,0.23791l0.03733,0.02139l0.98191,3.44415h-0.4849h-0.1687l0.18061,0.06699l0.55028,0.20462l0.07668,0.26918l0.1798,0.82734l-0.58237,-0.10594l-0.39389,-0.07184l0.43405,0.26333l0.64573,0.39208l0.08576,0.3945l-1.00855,1.18228l0.24275,0.20886l-0.08051,0.02805l0.15981,0.04035l1.07998,0.92964l0.30732,1.0138h-0.08434h-0.68124l0.91794,0.79849l0.08152,0.84772z" fill="#251258"/><path d="M305.97024,264.35016l-0.92259,2.18499h-4.10925l0.26414,-1.76345l2.72981,-0.4849l-2.42148,-0.52909l0.74844,-3.08618l1.45289,-0.83763l-1.10077,-0.35273l0.39632,-1.76344l1.49688,-0.39692l-1.36491,-0.44091l0.61647,-2.07198l1.01258,-0.22056l-0.83642,-0.30854l0.47219,-2.29193l0.10009,-0.4857h0.39369l-0.08556,1.29913l0.81987,2.97479l-1.09612,0.57449l0.9807,2.60249l-1.12599,3.56523z" fill="#170b36"/></g></g><path d="M304.75708,270.66984l-1.67606,-0.30733l0.90583,0.51396l-2.53751,0.74158l-1.53441,0.01635l0.38219,0.29845l-1.79855,0.53596l-1.40224,-0.11845l0.50892,0.406l-2.6709,0.73532l-1.0602,-0.08879l0.29361,0.29239l-3.46272,1.04528l-0.82129,0.24779l-0.37372,-0.07506l-0.21107,0.07144l0.11179,0.14085l-2.14543,0.64673l-2.6943,0.81221l0.59507,-0.2712l4.77214,-2.17469l0.44071,0.09322l0.34426,0.07285l-0.10695,-0.19574l-0.09363,-0.17132l0.93206,-0.49297l0.46936,0.10533l0.32307,0.07245l-0.03652,-0.18928l-0.00323,-0.01695l-0.04096,-0.21249l3.07488,-1.44138l0.30087,0.07748l0.34909,0.09l0.12067,0.03107l-0.05852,-0.0571l-0.17798,-0.17415l-0.10877,-0.10635l0.81099,-0.42658l0.24013,0.11603l0.29219,0.14126l0.19694,0.09524l-0.03753,-0.16506l-0.05489,-0.24296l-0.03148,-0.13903l0.8562,-0.37714l0.73109,0.06195l0.49418,0.04197l0.07285,0.00626l-0.06376,-0.03955l-0.23448,-0.14509l-0.25991,-0.16083l0.8792,-0.56481l0.37453,0.1126l0.04883,0.01473l0.39188,0.11784l0.08799,-0.35294l0.0341,-0.13681c0.10674,-0.08738 0.20321,-0.17455 0.28856,-0.26193l0.8451,-0.38986l0.54968,0.17738l1.0255,0.33073l0.38703,0.12491l1.49749,-0.52203l0.10089,0.03411l0.29663,0.10008l-1.443,0.53353l1.82943,0.58983z" fill="#170b36" opacity="0.66"/></g><g><g><path d="M284.13534,271.65618v4.9828h-1.26522l-0.07325,-4.9828z" fill="#080b4a"/><path d="M284.13534,276.63898v-4.9828h0.42759v4.9828z" fill="#6c54a3"/><g fill="#6c54a3"><path d="M287.88239,258.67139l-0.16366,-0.75349l0.71272,0.43244l0.50468,2.10528l-1.48619,0.51558l-1.03033,0.35757l-0.46352,-0.39914z"/><path d="M288.63406,263.23509l-2.0629,-1.77596l1.12256,0.28331l1.24242,0.31338l1.51362,3.11584h-1.2285z"/><path d="M286.88334,254.39224l-1.87543,-6.57896l0.90059,0.51558l1.76607,6.06338z"/><path d="M291.96358,271.65618h-2.03081l1.0035,-0.89333l-1.26846,-2.44651l-0.15558,-1.61956l0.69436,0.60375c0.30228,0.49883 0.62555,0.98917 0.97121,1.47084z"/><path d="M284.56296,243.56883l-1.07292,-5.11679l1.74569,6.42379h-0.91674h-0.72321z"/><path d="M285.01658,246.2036l-1.4208,-1.32778l0.87193,0.40318l0.76802,0.35495l0.67277,1.68434h-1.04184z"/><path d="M287.17774,255.425l-0.1465,-0.51396l0.6433,0.23912l0.75691,2.02113l-0.91068,-0.16567z"/></g><g><path d="M283.40103,242.93904h-0.44051l0.01635,-0.248l0.38421,0.15377l0.23468,0.09423z" fill="none"/><path d="M283.30195,237.7599l-0.32509,4.93114l-0.64229,-0.25728l0.45585,-2.20213z" fill="#170b36"/><path d="M290.93627,270.76266l-1.0035,0.89353h-3.87639h-2.81094l1.76244,-4.17362l-3.01616,-3.50106l2.15068,-6.81021l-1.87322,-4.9711l2.09357,-1.09734l-1.56589,-5.6824l0.16365,-2.48141h0.44051h0.19473l-0.23468,-0.09423l-0.38421,-0.15377l0.32509,-4.93114l0.18807,0.69214l1.07292,5.11679l-0.96718,1.307l1.4208,1.32778l-0.14993,1.11469h-0.72422l0.79404,0.45423l0.07144,0.04076l1.87543,6.57896h-0.92602h-0.32226l0.34466,0.12794l1.05153,0.39087l0.1465,0.51396l0.34304,1.58062l-1.11226,-0.2026l-0.75227,-0.13701l0.82916,0.50306l1.23334,0.74884l0.16366,0.75349l-1.92629,2.25824l0.46352,0.39914l-0.15377,0.05327l0.30531,0.07709l2.0629,1.77596l0.58721,1.93658h-0.16123h-1.30135l1.75356,1.52513l0.15558,1.61937z" fill="#251258"/><path d="M285.00789,267.48257l-1.76244,4.17362h-7.84903l0.50468,-3.36868l5.21405,-0.92622l-4.62523,-1.01077l1.42948,-5.89489l2.77522,-1.59999l-2.10245,-0.67378l0.75692,-3.36848l2.85916,-0.75793l-2.60693,-0.84227l1.17745,-3.95811l1.93416,-0.42093l-1.59778,-0.58963l0.9018,-4.37784l0.1913,-0.92763h0.75227l-0.16365,2.48141l1.56589,5.6824l-2.09357,1.09734l1.87322,4.9711l-2.15068,6.81021z" fill="#170b36"/></g></g><path d="M282.69154,279.55485l-3.2014,-0.58721l1.73035,0.98191l-4.847,1.41677l-2.9312,0.03128l0.72987,0.57006l-3.43547,1.02368l-2.67836,-0.226l0.97222,0.77528l-5.10186,1.40466l-2.02496,-0.1697l0.56057,0.55855l-6.61407,1.99671l-1.56871,0.4734l-0.71394,-0.14347l-0.40338,0.13641l0.2135,0.26899l-4.09816,1.23556l-5.14665,1.55157l1.13669,-0.518l9.11546,-4.15385l0.84187,0.17798l0.65743,0.13903l-0.20421,-0.37372l-0.17899,-0.3271l1.7804,-0.94155l0.89655,0.20098l0.61687,0.13843l-0.07002,-0.36161l-0.00626,-0.03249l-0.07829,-0.406l5.8735,-2.75322l0.5749,0.14811l0.66692,0.17193l0.23064,0.05953l-0.11199,-0.10917l-0.34001,-0.33275l-0.20764,-0.2032l1.54914,-0.81483l0.45867,0.22156l0.55815,0.26959l0.37613,0.18181l-0.07143,-0.3154l-0.10493,-0.46411l-0.05993,-0.26535l1.63531,-0.72039l1.39639,0.11845l0.94397,0.08011l0.13943,0.0119l-0.12188,-0.07547l-0.44797,-0.27725l-0.49641,-0.30733l1.6795,-1.07877l0.71535,0.2149l0.09323,0.02805l0.74843,0.22499l0.16809,-0.67397l0.06518,-0.26152c0.20401,-0.16708 0.38783,-0.33376 0.55109,-0.50044l1.61433,-0.74481l1.05012,0.33861l1.95878,0.6316l0.73915,0.23832l2.86018,-0.99705l0.1925,0.06498l0.56663,0.1913l-2.75626,1.01904l3.4944,1.1268z" fill="#170b36" opacity="0.66"/></g></g><g fill="url(#color-6)"><path d="M-2.67028,307.80324l-1.09794,-28.88443c76.33819,-42.98713 196.14176,-58.07922 323.23116,28.88443z"/></g><g><g><g><path d="M196.56471,258.53378v1.88613h-0.47884l-0.02765,-1.88613z" fill="#080b4a"/><path d="M196.56471,260.4199v-1.88613h0.16184v1.88613z" fill="#6c54a3"/><g fill="#6c54a3"><path d="M197.9831,253.61878l-0.06195,-0.28533l0.2698,0.16385l0.19109,0.79687l-0.56259,0.19513l-0.39006,0.13541l-0.17535,-0.15115z"/><path d="M198.26761,255.34611l-0.78073,-0.67217l0.42477,0.10715l0.47037,0.11865l0.57288,1.17946h-0.46492z"/><path d="M197.60495,251.99901l-0.7099,-2.49029l0.34103,0.19513l0.66833,2.29516z"/><path d="M199.5282,258.53378h-0.76882l0.37997,-0.3382l-0.48026,-0.92602l-0.05892,-0.61304l0.26273,0.22863c0.11442,0.18887 0.2369,0.37452 0.36766,0.55674z"/><path d="M196.72655,247.90207l-0.406,-1.93698l0.66066,2.43177h-0.34688h-0.27383z"/><path d="M196.89826,248.89932l-0.53777,-0.50246l0.33013,0.15256l0.29058,0.13439l0.25486,0.63746h-0.3945z"/><path d="M197.71633,252.38988l-0.0555,-0.19453l0.24356,0.09041l0.28655,0.76519l-0.34466,-0.06276z"/></g><g><path d="M196.28685,247.66355h-0.16688l0.00625,-0.09383l0.1455,0.05832l0.08879,0.03551z" fill="none"/><path d="M196.24933,245.70316l-0.1231,1.86656l-0.24295,-0.09726l0.17253,-0.8336z" fill="#170b36"/><path d="M199.13915,258.19557l-0.37997,0.3382h-1.46722h-1.06404l0.66711,-1.57981l-1.14172,-1.32516l0.81422,-2.57787l-0.70909,-1.88169l0.79243,-0.41549l-0.59266,-2.15088l0.06175,-0.93933h0.16688h0.07366l-0.08879,-0.03551l-0.1455,-0.05832l0.1231,-1.86656l0.07123,0.26192l0.406,1.93698l-0.36605,0.49479l0.53777,0.50246l-0.0567,0.42194h-0.27403l0.30047,0.17192l0.02704,0.01554l0.7099,2.49029h-0.35051h-0.12188l0.13035,0.04843l0.39793,0.14791l0.0555,0.19453l0.12995,0.5983l-0.42113,-0.07668l-0.28473,-0.05186l0.31399,0.19049l0.46674,0.28331l0.06195,0.28533l-0.72907,0.85478l0.17535,0.15115l-0.05812,0.02017l0.11563,0.02906l0.78073,0.67217l0.22237,0.7331h-0.06114h-0.49257l0.66389,0.57732l0.05872,0.61304z" fill="#251258"/><path d="M196.89505,256.95397l-0.66711,1.57981h-2.97096l0.19089,-1.27511l1.97371,-0.35071l-1.75073,-0.3824l0.541,-2.23139l1.05052,-0.60577l-0.79586,-0.25486l0.28654,-1.27511l1.0824,-0.28695l-0.98695,-0.31883l0.44575,-1.49829l0.7321,-0.15921l-0.60477,-0.22318l0.34143,-1.65709l0.07244,-0.35132h0.28453l-0.06175,0.93933l0.59266,2.15088l-0.79243,0.41549l0.70909,1.88169l-0.81422,2.57787z" fill="#170b36"/></g></g><path d="M196.01786,261.52329l-1.21175,-0.22217l0.65501,0.37169l-1.83468,0.53616l-1.10944,0.01171l0.27625,0.21571l-1.30034,0.38744l-1.01379,-0.08557l0.36807,0.29341l-1.93113,0.53172l-0.7664,-0.06417l0.21228,0.21148l-2.50361,0.7557l-0.59387,0.17919l-0.2702,-0.05428l-0.15275,0.05166l0.08092,0.10191l-1.55137,0.46775l-1.94808,0.58741l0.43022,-0.19615l3.45041,-1.57235l0.31862,0.0674l0.24881,0.05266l-0.07728,-0.14146l-0.0678,-0.1239l0.67398,-0.35636l0.33941,0.07608l0.23347,0.05246l-0.02644,-0.13682l-0.00242,-0.0123l-0.02966,-0.15377l2.22332,-1.04204l0.21753,0.0561l0.25244,0.06517l0.08738,0.0226l-0.04238,-0.04136l-0.12874,-0.12592l-0.0787,-0.07688l0.5864,-0.30854l0.17354,0.08395l0.21128,0.10211l0.14247,0.06881l-0.02704,-0.11946l-0.03976,-0.17576l-0.0228,-0.10049l0.61909,-0.27262l0.52849,0.0448l0.35737,0.03026l0.05267,0.00444l-0.04621,-0.02845l-0.16951,-0.10493l-0.18786,-0.11623l0.63584,-0.40842l0.2708,0.08132l0.03531,0.01069l0.28331,0.08515l0.06357,-0.25507l0.02462,-0.09888c0.07728,-0.06336 0.1469,-0.12632 0.20865,-0.18948l0.61102,-0.2819l0.39753,0.12813l0.74138,0.23912l0.27988,0.0902l1.08261,-0.37734l0.07285,0.02462l0.2145,0.07244l-1.04325,0.38562l1.32273,0.42659z" fill="#170b36" opacity="0.66"/></g><g><g><path d="M189.83583,258.82133v1.29489h-0.32892l-0.01897,-1.29489z" fill="#080b4a"/><path d="M189.83583,260.11622v-1.29489h0.11118v1.29489z" fill="#6c54a3"/><g fill="#6c54a3"><path d="M190.80947,255.44679l-0.04238,-0.19594l0.18525,0.1124l0.13096,0.54725l-0.38622,0.13399l-0.26757,0.09282l-0.12047,-0.10372z"/><path d="M191.00498,256.63272l-0.53615,-0.46149l0.29158,0.07365l0.32286,0.08132l0.39349,0.80978h-0.31923z"/><path d="M190.54997,254.33473l-0.48753,-1.70977l0.23407,0.13378l0.45908,1.57598z"/><path d="M191.87028,258.82154h-0.52788l0.26091,-0.23226l-0.32972,-0.63584l-0.04036,-0.42093l0.1804,0.15699c0.0785,0.12955 0.16264,0.25708 0.25244,0.38219z"/><path d="M189.94681,251.52178l-0.27887,-1.3298l0.45382,1.66941h-0.23832h-0.18787z"/><path d="M190.06465,252.20645l-0.36908,-0.34506l0.22661,0.10473l0.19957,0.09242l0.17475,0.43768h-0.2708z"/><path d="M190.62645,254.60311l-0.03814,-0.13358l0.16728,0.06215l0.19674,0.52526l-0.2367,-0.04318z"/></g><g><path d="M189.64493,251.35813h-0.11461l0.00423,-0.06457l0.09989,0.04016l0.06114,0.02442z" fill="none"/><path d="M189.61911,250.01219l-0.08455,1.28137l-0.16688,-0.06679l0.11845,-0.57228z" fill="#170b36"/><path d="M191.6033,258.58907l-0.26091,0.23226h-1.00734h-0.73068l0.45807,-1.08462l-0.78375,-0.90987l0.55895,-1.7699l-0.48692,-1.29206l0.54423,-0.28513l-0.40701,-1.4767l0.04238,-0.64492h0.11461h0.05065l-0.06114,-0.02442l-0.09989,-0.04016l0.08455,-1.28137l0.04883,0.1798l0.27887,1.3298l-0.25123,0.33961l0.36908,0.34506l-0.03894,0.28977h-0.18807l0.20623,0.11805l0.01856,0.01069l0.48753,1.70977h-0.24074h-0.08374l0.08959,0.0331l0.27323,0.1017l0.03814,0.13358l0.08919,0.41065l-0.28917,-0.05267l-0.19553,-0.03552l0.21551,0.13076l0.32064,0.19452l0.04238,0.19594l-0.50044,0.5868l0.12047,0.10372l-0.04015,0.01393l0.07951,0.01998l0.53615,0.46149l0.15256,0.50326h-0.04197h-0.33821l0.45585,0.39632l0.04036,0.42093z" fill="#251258"/><path d="M190.06244,257.73671l-0.45807,1.08462h-2.03969l0.13116,-0.87556l1.35502,-0.24074l-1.20206,-0.26253l0.3715,-1.53199l0.72119,-0.41589l-0.54624,-0.17515l0.19655,-0.87537l0.74319,-0.19694l-0.67761,-0.21894l0.30612,-1.02873l0.50266,-0.10937l-0.41528,-0.15316l0.23428,-1.13769l0.04984,-0.24114h0.19534l-0.04238,0.64492l0.40701,1.4767l-0.54423,0.28513l0.48692,1.29206l-0.55895,1.7699z" fill="#170b36"/></g></g><path d="M189.46009,260.87474l-0.83198,-0.15256l0.44959,0.25527l-1.25958,0.36807l-0.76175,0.00807l0.18968,0.14812l-0.89272,0.26596l-0.69618,-0.05872l0.25264,0.20159l-1.32596,0.36504l-0.52627,-0.0442l0.1457,0.14509l-1.71885,0.5188l-0.40761,0.1231l-0.18545,-0.03734l-0.10473,0.03552l0.05549,0.06982l-1.06505,0.32105l-1.33747,0.40317l0.29542,-0.13459l2.36901,-1.07957l0.21874,0.04621l0.17092,0.03612l-0.05307,-0.09706l-0.04662,-0.08495l0.4627,-0.24477l0.23307,0.05227l0.16022,0.03591l-0.01817,-0.09404l-0.00161,-0.00847l-0.02038,-0.10554l1.52634,-0.71554l0.14933,0.03854l0.17334,0.0446l0.05993,0.01554l-0.02905,-0.02845l-0.08838,-0.08637l-0.05388,-0.05287l0.40257,-0.21188l0.11926,0.05751l0.14508,0.07002l0.09767,0.04722l-0.01856,-0.08193l-0.02724,-0.12067l-0.01553,-0.06902l0.42497,-0.18726l0.36281,0.03087l0.24538,0.02079l0.03612,0.00302l-0.03168,-0.01958l-0.11643,-0.07203l-0.12894,-0.07991l0.43648,-0.28029l0.18585,0.0559l0.02422,0.00727l0.19452,0.05852l0.04379,-0.17516l0.01695,-0.068c0.05307,-0.04339 0.1009,-0.08657 0.14327,-0.12995l0.41952,-0.19351l0.27282,0.08798l0.50911,0.16426l0.1921,0.06195l0.7434,-0.2591l0.05004,0.01695l0.14731,0.04964l-0.71636,0.26475l0.90826,0.2928z" fill="#170b36" opacity="0.66"/></g><g><g><path d="M214.88644,256.56875v1.59212h-0.40438l-0.0234,-1.59212z" fill="#080b4a"/><path d="M214.88644,258.16086v-1.59212h0.13662v1.59212z" fill="#6c54a3"/><g fill="#6c54a3"><path d="M216.08367,252.41975l-0.05226,-0.24074l0.22762,0.13823l0.16123,0.67256l-0.47482,0.16486l-0.32912,0.11422l-0.14811,-0.12753z"/><path d="M216.32379,253.87788l-0.65904,-0.56744l0.35858,0.0906l0.39693,0.10009l0.48369,0.99563h-0.39248z"/><path d="M215.76444,251.05242l-0.59931,-2.10205l0.28775,0.16466l0.56441,1.93739z"/><path d="M217.38784,256.56875h-0.64896l0.32064,-0.28553l-0.40539,-0.78174l-0.04964,-0.51739l0.22177,0.19291c0.09665,0.15941 0.19997,0.31601 0.31035,0.46997z"/><path d="M215.02306,247.59394l-0.34284,-1.6349l0.55775,2.05261h-0.293h-0.23105z"/><path d="M215.16794,248.4358l-0.45403,-0.42416l0.27867,0.12894l0.24538,0.11321l0.2149,0.53838h-0.33275z"/><path d="M215.85848,251.38234l-0.04681,-0.16425l0.20562,0.07647l0.24174,0.64593l-0.29098,-0.05307z"/></g><g><path d="M214.65175,247.39275h-0.14085l0.00525,-0.07931l0.12289,0.04924l0.07486,0.03007z" fill="none"/><path d="M214.62008,245.73787l-0.10393,1.57558l-0.20522,-0.08213l0.14569,-0.70364z" fill="#170b36"/><path d="M217.05951,256.28322l-0.32064,0.28553h-1.23859h-0.89837l0.5632,-1.33363l-0.96375,-1.11872l0.6873,-2.17591l-0.59851,-1.58849l0.66894,-0.35071l-0.50044,-1.81571l0.05226,-0.79283h0.14085h0.06215l-0.07486,-0.03007l-0.12289,-0.04924l0.10393,-1.57558l0.06014,0.22116l0.34284,1.6349l-0.30915,0.41771l0.45403,0.42416l-0.04783,0.35637h-0.23145l0.25365,0.14508l0.0228,0.01311l0.59931,2.10205h-0.29583h-0.10312l0.11018,0.04096l0.33598,0.12471l0.04681,0.16425l0.10957,0.50508l-0.35535,-0.06477l-0.24033,-0.04379l0.26495,0.16083l0.3941,0.23932l0.05226,0.24074l-0.61545,0.7216l0.14811,0.12753l-0.04924,0.01695l0.09767,0.02462l0.65904,0.56744l0.18767,0.61889h-0.05146h-0.41589l0.56037,0.48732l0.04964,0.51739z" fill="#251258"/><path d="M215.16513,255.23511l-0.5632,1.33363h-2.50785l0.16123,-1.07635l1.66598,-0.29603l-1.47791,-0.32286l0.45685,-1.88371l0.88667,-0.51113l-0.67176,-0.21531l0.24195,-1.07635l0.9135,-0.24215l-0.83299,-0.26919l0.37634,-1.26462l0.61789,-0.13459l-0.51053,-0.18847l0.28816,-1.39881l0.06114,-0.29643h0.24033l-0.05226,0.79283l0.50044,1.81571l-0.66894,0.35071l0.59851,1.58849l-0.6873,2.17591z" fill="#170b36"/></g></g><path d="M214.42434,259.09254l-1.02287,-0.18766l0.55291,0.31378l-1.54874,0.45261l-0.93651,0.01009l0.23327,0.18222l-1.09774,0.3271l-0.8558,-0.07225l0.31076,0.2478l-1.63006,0.44878l-0.64714,-0.05428l0.17919,0.17838l-2.11335,0.63806l-0.50124,0.15134l-0.22803,-0.04581l-0.12895,0.04359l0.06821,0.08597l-1.30942,0.3947l-1.64438,0.49579l0.36322,-0.16547l2.91264,-1.32737l0.26899,0.0569l0.21006,0.0444l-0.06518,-0.11946l-0.0573,-0.10453l0.56884,-0.30086l0.28634,0.06417l0.19715,0.0442l-0.02239,-0.11562l-0.00202,-0.0103l-0.02502,-0.12975l1.87685,-0.8796l0.18363,0.04721l0.21309,0.05489l0.07366,0.01896l-0.03572,-0.03491l-0.10856,-0.10634l-0.06639,-0.06498l0.49499,-0.2603l0.1465,0.07083l0.17838,0.08616l0.12026,0.05811l-0.0228,-0.10069l-0.0335,-0.14832l-0.01916,-0.08475l0.52243,-0.23024l0.44616,0.03794l0.30168,0.02562l0.04459,0.00384l-0.03894,-0.02402l-0.14307,-0.08859l-0.15861,-0.09807l0.53656,-0.34466l0.22863,0.06861l0.02987,0.00887l0.23912,0.07184l0.05367,-0.21552l0.02079,-0.08354c0.06518,-0.05327 0.1241,-0.10654 0.17616,-0.15981l0.51578,-0.23812l0.33558,0.10816l0.62595,0.20179l0.2361,0.07628l0.91391,-0.31862l0.06155,0.02078l0.181,0.06115l-0.88061,0.32569l1.11651,0.35999z" fill="#170b36" opacity="0.66"/></g><g><g><path d="M201.83831,259.69427v3.04118h-0.77205l-0.0448,-3.04118z" fill="#080b4a"/><path d="M201.83831,262.73546v-3.04118h0.26091v3.04118z" fill="#6c54a3"/><g fill="#6c54a3"><path d="M204.12539,251.76897l-0.09989,-0.45988l0.43486,0.26415l0.30813,1.2848l-0.90704,0.31479l-0.62878,0.21814l-0.28291,-0.24357z"/><path d="M204.58405,254.55448l-1.25897,-1.08402l0.68508,0.17294l0.75832,0.19129l0.9238,1.90187h-0.74985z"/><path d="M203.51556,249.15741l-1.14476,-4.01543l0.54988,0.31459l1.07776,3.70083z"/><path d="M206.61627,259.69427h-1.2396l0.61244,-0.54523l-0.77427,-1.49325l-0.09484,-0.98836l0.42376,0.36847c0.18463,0.3045 0.38178,0.60375 0.59285,0.89776z"/><path d="M202.09921,242.5514l-0.65481,-3.12311l1.06545,3.92078h-0.55936h-0.44152z"/><path d="M202.37607,244.15947l-0.8671,-0.81039l0.53232,0.24598l0.46856,0.21652l0.41084,1.02812h-0.63604z"/><path d="M203.69516,249.7876l-0.08939,-0.31359l0.39269,0.14589l0.4619,1.23355l-0.55573,-0.1011z"/></g><g><path d="M201.39011,242.16699h-0.26879l0.00989,-0.15154l0.23448,0.09403l0.14327,0.05751z" fill="none"/><path d="M201.32978,239.00595l-0.19856,3.00949l-0.39187,-0.15699l0.27806,-1.34392z" fill="#170b36"/><path d="M205.98931,259.14904l-0.61264,0.54523h-2.36578h-1.71582l1.07574,-2.5474l-1.84072,-2.13675l1.31264,-4.15667l-1.14334,-3.03412l1.27774,-0.66974l-0.95568,-3.46816l0.09989,-1.51443h0.26879h0.11885l-0.14327,-0.05751l-0.23448,-0.09403l0.19856,-3.00949l0.11462,0.42234l0.65481,3.12311l-0.59024,0.79768l0.8671,0.81039l-0.09141,0.68023h-0.44192l0.4845,0.27726l0.04358,0.02502l1.14476,4.01543h-0.56521h-0.19674l0.21046,0.07809l0.64169,0.23852l0.08939,0.31359l0.20946,0.96475l-0.67902,-0.12369l-0.45908,-0.08354l0.50609,0.30712l0.75288,0.45685l0.09989,0.45988l-1.17563,1.37842l0.28291,0.24357l-0.09403,0.03248l0.18645,0.04702l1.25897,1.08402l0.35838,1.18209h-0.09827h-0.79445l1.07029,0.93065l0.09504,0.98857z" fill="#251258"/><path d="M202.37082,257.14688l-1.07574,2.5474h-4.79049l0.30793,-2.05604l3.18243,-0.56542l-2.82304,-0.61687l0.87254,-3.59792l1.69383,-0.97646l-1.28319,-0.41125l0.4621,-2.05604l1.74508,-0.4625l-1.59112,-0.51417l0.71858,-2.41563l1.18047,-0.25708l-0.97525,-0.35979l0.55048,-2.6719l0.11684,-0.56623h0.45907l-0.09989,1.51443l0.95568,3.46816l-1.27774,0.66974l1.14334,3.03412l-1.31264,4.15667z" fill="#170b36"/></g></g><path d="M200.95626,264.51545l-1.95393,-0.35838l1.05617,0.59931l-2.95825,0.86467l-1.78907,0.01897l0.44555,0.34789l-2.0968,0.62474l-1.6347,-0.13802l0.59347,0.4732l-3.11382,0.85741l-1.23596,-0.10352l0.34223,0.34082l-4.03681,1.21861l-0.95749,0.28896l-0.43567,-0.08757l-0.24618,0.08333l0.13036,0.16406l-2.50118,0.75409l-3.14127,0.94701l0.69375,-0.31621l5.56356,-2.53528l0.51376,0.10856l0.40136,0.08496l-0.1245,-0.22803l-0.10937,-0.19957l1.08664,-0.5747l0.54706,0.12268l0.37654,0.08435l-0.04278,-0.22076l-0.00384,-0.01977l-0.04782,-0.2478l3.585,-1.68031l0.35091,0.09041l0.40702,0.10493l0.14084,0.03632l-0.0684,-0.06659l-0.20764,-0.203l-0.12672,-0.1239l0.94559,-0.49741l0.27988,0.1352l0.34062,0.16466l0.22964,0.11099l-0.04359,-0.19251l-0.06417,-0.28332l-0.03673,-0.16204l0.99805,-0.4397l0.85216,0.07224l0.57611,0.04883l0.08516,0.00727l-0.07426,-0.04601l-0.27342,-0.1693l-0.30289,-0.18746l1.0251,-0.65844l0.43647,0.13116l0.05691,0.01716l0.45685,0.13721l0.10271,-0.41145l0.03975,-0.15961c0.1245,-0.1019 0.2367,-0.20381 0.33639,-0.30551l0.98534,-0.45463l0.64088,0.20664l1.19561,0.38562l0.4512,0.14549l1.74569,-0.6086l0.11765,0.03975l0.34587,0.11683l-1.68212,0.62192l2.13272,0.6877z" fill="#170b36" opacity="0.66"/></g></g><g fill="url(#color-7)"><path d="M180.43706,343.06747v-61.06693c53.79481,-14.89513 109.11415,-21.86355 163.48184,-12.08298c54.36789,9.78057 96.42881,24.86276 139.53137,73.14991z"/></g><g fill="url(#color-8)"><path d="M516.22782,360.55016h-301.47799v-39.89571c36.27863,-20.47402 77.92829,-29.46901 119.31705,-34.07144c51.49763,-5.7266 104.52181,-4.92489 153.95029,10.63837c9.58805,3.01898 18.9836,6.57613 28.21065,10.54514z"/></g><g><g><g><path d="M327.15961,287.12522v7.50941h-1.90672l-0.11058,-7.50941z" fill="#080b4a"/><path d="M327.15961,294.63463v-7.50941h0.64432v7.50941z" fill="#6c54a3"/><g fill="#6c54a3"><path d="M332.80652,267.55661l-0.24658,-1.13567l1.07392,0.65198l0.76055,3.17255l-2.23967,0.77709l-1.55258,0.53878l-0.69859,-0.60134z"/><path d="M333.93935,274.43422l-3.10898,-2.67634l1.69181,0.42679l1.87221,0.47239l2.28124,4.69585h-1.85143z"/><path d="M331.30073,261.10781l-2.82627,-9.91476l1.35724,0.77689l2.66161,9.13786z"/><path d="M338.95685,287.12501h-3.06055l1.51241,-1.34634l-1.91175,-3.68691l-0.23428,-2.44065l1.04649,0.91008c0.45565,0.75167 0.94276,1.49062 1.46378,2.21666z"/><path d="M327.80373,244.79632l-1.61674,-7.7114l2.63074,9.68108h-1.38145h-1.08987z"/><path d="M328.48738,248.76694l-2.14099,-2.00095l1.31405,0.60759l1.15727,0.53494l1.014,2.53832h-1.56993z"/><path d="M331.74447,262.66422l-0.22096,-0.77467l0.96981,0.3604l1.14051,3.04602l-1.37237,-0.24982z"/></g><g><path d="M326.05278,243.8473h-0.66389l0.02462,-0.37392l0.57914,0.23206l0.35374,0.14185z" fill="none"/><path d="M325.90349,236.04206l-0.48995,7.43132l-0.96778,-0.38743l0.68689,-3.31885z" fill="#170b36"/><path d="M337.40876,285.77887l-1.51241,1.34635h-5.84182h-4.23618l2.65616,-6.2898l-4.54552,-5.27621l3.24135,-10.26324l-2.82305,-7.49186l3.15519,-1.65366l-2.36013,-8.56377l0.24658,-3.73937h0.66389h0.29361l-0.35374,-0.14185l-0.57914,-0.23206l0.48995,-7.43132l0.28351,1.04285l1.61674,7.7114l-1.45733,1.96967l2.14099,2.00095l-0.2256,1.6799h-1.09148l1.19641,0.68447l0.10775,0.06175l2.82627,9.91476h-1.39538h-0.48571l0.51941,0.19291l1.58445,0.58882l0.22096,0.77467l0.51699,2.38193l-1.67627,-0.30531l-1.13366,-0.20643l1.24948,0.75833l1.85889,1.12821l0.24658,1.13567l-2.90295,3.40339l0.69859,0.60134l-0.23185,0.08051l0.46008,0.11603l3.10898,2.67634l0.88485,2.91869h-0.24295h-1.9614l2.64284,2.29819l0.23448,2.44085z" fill="#251258"/><path d="M328.4745,280.83542l-2.65616,6.2898h-11.82873l0.76034,-5.07664l7.85791,-1.39598l-6.97044,-1.52311l2.15431,-8.88401l4.1823,-2.41119l-3.16831,-1.01541l1.14072,-5.07643l4.30883,-1.14213l-3.92865,-1.26946l1.77434,-5.96491l2.91485,-0.63463l-2.40796,-0.88848l1.35926,-6.59753l0.28816,-1.398h1.13365l-0.24658,3.73937l2.36013,8.56377l-3.15519,1.65366l2.82305,7.49186l-3.24135,10.26324z" fill="#170b36"/></g></g><path d="M324.98229,299.02901l-4.8248,-0.88485l2.60753,1.47993l-7.3046,2.13493l-4.41739,0.04702l1.09996,0.85922l-5.17733,1.54269l-4.03641,-0.34082l1.46519,1.16857l-7.6886,2.11698l-3.05167,-0.25587l0.8449,0.84167l-9.96783,3.0091l-2.36417,0.71353l-1.07594,-0.21612l-0.6078,0.20562l0.32185,0.40539l-6.17598,1.86192l-7.75621,2.33835l1.713,-0.78073l13.73746,-6.26013l1.26865,0.26817l0.99099,0.20946l-0.30752,-0.5632l-0.26979,-0.49298l2.6832,-1.41899l1.35098,0.30289l0.92964,0.20845l-0.10533,-0.54484l-0.00948,-0.04883l-0.11805,-0.61203l8.85173,-4.149l0.86629,0.22338l1.00511,0.2591l0.34749,0.0896l-0.1687,-0.16466l-0.51254,-0.50145l-0.31278,-0.30612l2.33471,-1.22809l0.69113,0.33396l0.84126,0.40641l0.56703,0.27383l-0.10775,-0.47522l-0.15821,-0.6994l-0.0904,-0.39995l2.46466,-1.08563l2.10426,0.17858l1.42262,0.12067l0.21007,0.01776l-0.18363,-0.11361l-0.67519,-0.41791l-0.74823,-0.46311l2.53105,-1.62582l1.07797,0.32387l0.14065,0.04217l1.128,0.33901l0.25345,-1.01581l0.09827,-0.3939c0.30753,-0.25163 0.58459,-0.50286 0.83057,-0.75409l2.43278,-1.12256l1.58264,0.51033l2.95198,0.95184l1.11388,0.35918l4.31044,-1.50252l0.29037,0.09807l0.85377,0.28836l-4.15364,1.53562l5.26631,1.69826z" fill="#170b36" opacity="0.66"/></g><g><g><path d="M300.36875,288.26977v5.15573h-1.30901l-0.07608,-5.15573z" fill="#080b4a"/><path d="M300.36875,293.42549v-5.15573h0.44232v5.15573z" fill="#6c54a3"/><g fill="#6c54a3"><path d="M304.24573,274.83438l-0.1691,-0.77972l0.73714,0.44777l0.52224,2.17813l-1.53764,0.53353l-1.06606,0.36988l-0.47965,-0.41286z"/><path d="M305.02365,279.55647l-2.13454,-1.8375l1.1615,0.293l1.28541,0.32428l1.56629,3.2242h-1.27128z"/><path d="M303.21196,270.4069l-1.94041,-6.80719l0.93187,0.53333l1.82741,6.27385z"/><path d="M308.4686,288.26996h-2.10124l1.03841,-0.9244l-1.31264,-2.53145l-0.16082,-1.67567l0.71837,0.62475c0.31277,0.51618 0.64714,1.02348 1.00491,1.5219z"/><path d="M300.81107,259.20795l-1.11005,-5.29457l1.80622,6.64677h-0.94861h-0.74804z"/><path d="M301.28042,261.93394l-1.46984,-1.37378l0.9022,0.4171l0.79444,0.36726l0.69618,1.74286h-1.07797z"/><path d="M303.51667,271.47538l-0.15175,-0.53172l0.66591,0.24739l0.78294,2.09136l-0.94216,-0.17153z"/></g><g><path d="M299.6088,258.55638h-0.45584l0.01695,-0.25687l0.39773,0.15921l0.24295,0.09767z" fill="none"/><path d="M299.50649,253.19744l-0.33658,5.10207l-0.6643,-0.26596l0.47159,-2.27862z" fill="#170b36"/><path d="M307.40556,287.34537l-1.03841,0.9244h-4.01078h-2.9086l1.82378,-4.31851l-3.12089,-3.62254l2.22555,-7.0463l-1.9384,-5.14363l2.16621,-1.13547l-1.62037,-5.87975l0.16931,-2.56718h0.45584h0.20179l-0.24295,-0.09767l-0.39773,-0.15921l0.33658,-5.10207l0.19452,0.71595l1.11005,5.29457l-1.00048,1.35219l1.46984,1.37378l-0.15497,1.15344h-0.74924l0.82128,0.46997l0.07406,0.04237l1.94041,6.80719h-0.9581h-0.33335l0.35656,0.13238l1.08785,0.40438l0.15175,0.53172l0.35494,1.6355l-1.15101,-0.20966l-0.7783,-0.14166l0.85801,0.52042l1.27632,0.77467l0.1691,0.77972l-1.99308,2.33673l0.47965,0.41286l-0.15921,0.0553l0.316,0.0797l2.13454,1.8375l0.60739,2.00398h-0.16668h-1.34654l1.8143,1.57779l0.16103,1.67567z" fill="#251258"/><path d="M301.27155,283.95125l-1.82378,4.31851h-8.12124l0.52224,-3.48552l5.39485,-0.95851l-4.78565,-1.04567l1.47913,-6.09951l2.87147,-1.65548l-2.1753,-0.69699l0.78315,-3.48552l2.95844,-0.78415l-2.69753,-0.87153l1.21841,-4.09533l2.00115,-0.43567l-1.65327,-0.61001l0.93328,-4.52978l0.19795,-0.95972h0.77811l-0.16931,2.56718l1.62037,5.87975l-2.16621,1.13547l1.9384,5.14363l-2.22555,7.0463z" fill="#170b36"/></g></g><path d="M298.8753,296.44186l-3.31259,-0.60759l1.79028,1.01601l-5.01508,1.4658l-3.0329,0.03229l0.7553,0.58983l-3.55473,1.0592l-2.77139,-0.23388l1.00592,0.80232l-5.27883,1.45349l-2.09519,-0.17556l0.58015,0.57792l-6.84371,2.06593l-1.6232,0.48994l-0.73875,-0.14831l-0.4173,0.14125l0.22096,0.27827l-4.24041,1.27834l-5.32524,1.60544l1.17604,-0.53596l9.43167,-4.29813l0.87092,0.18423l0.68023,0.14388l-0.21128,-0.38663l-0.18524,-0.3384l1.84214,-0.97424l0.92763,0.20804l0.63826,0.14307l-0.07244,-0.37412l-0.00646,-0.0335l-0.08112,-0.42012l6.07731,-2.84868l0.59488,0.15337l0.69012,0.17777l0.23872,0.06155l-0.11583,-0.113l-0.35192,-0.34426l-0.2147,-0.21006l1.60281,-0.84328l0.47462,0.22924l0.57752,0.27907l0.38925,0.18806l-0.07406,-0.32629l-0.10856,-0.48026l-0.06215,-0.27464l1.69201,-0.74541l1.44481,0.12248l0.97667,0.08294l0.14407,0.01231l-0.12591,-0.07789l-0.46351,-0.28695l-0.51376,-0.31782l1.73782,-1.11631l0.73996,0.22237l0.09645,0.02906l0.77447,0.23266l0.17395,-0.69738l0.0674,-0.2704c0.21107,-0.17273 0.40135,-0.34526 0.57025,-0.51779l1.67042,-0.77064l1.08664,0.35031l2.02678,0.65359l0.76479,0.24659l2.95945,-1.03155l0.19937,0.0672l0.5862,0.19795l-2.8519,1.05435l3.61568,1.16595z" fill="#170b36" opacity="0.66"/></g><g><g><path d="M400.10414,279.3014v6.33903h-1.60948l-0.09322,-6.33903z" fill="#080b4a"/><path d="M400.10414,285.64044v-6.33903h0.54383v6.33903z" fill="#6c54a3"/><g fill="#6c54a3"><path d="M404.87098,262.78288l-0.20805,-0.95871l0.90644,0.55048l0.64209,2.67796l-1.89077,0.65602l-1.31043,0.45484l-0.58983,-0.5077z"/><path d="M405.82728,268.58858l-2.62428,-2.25924l1.42807,0.36019l1.58042,0.39873l1.92568,3.96397h-1.56307z"/><path d="M403.59993,257.33919l-2.38576,-8.36944l1.14576,0.65581l2.24673,7.71363z"/><path d="M410.06287,279.3014h-2.58351l1.27672,-1.13648l-1.61372,-3.11241l-0.19775,-2.06028l0.88324,0.76821c0.38441,0.63463 0.79586,1.25837 1.23556,1.8712z"/><path d="M400.64811,243.57024l-1.36491,-6.50955l2.2207,8.17209h-1.16614h-0.91996z"/><path d="M401.22509,246.92198l-1.80723,-1.68919l1.10924,0.51295l0.97686,0.4514l0.856,2.14281h-1.32536z"/><path d="M403.97448,258.65303l-0.18645,-0.654l0.81866,0.3043l0.96274,2.57121l-1.15848,-0.21087z"/></g><g><path d="M399.17004,242.76893h-0.56057l0.02098,-0.3156l0.48874,0.19574l0.29865,0.11987z" fill="none"/><path d="M399.04394,236.18029l-0.41347,6.27304l-0.81705,-0.3271l0.57994,-2.80145z" fill="#170b36"/><path d="M408.75609,278.16493l-1.27672,1.13648h-4.93135h-3.57592l2.24209,-5.3095l-3.83684,-4.45371l2.73587,-8.66366l-2.38294,-6.3241l2.66343,-1.39598l-1.99228,-7.22893l0.20804,-3.1566h0.56057h0.2478l-0.29865,-0.11987l-0.48874,-0.19574l0.41347,-6.27304l0.23933,0.88041l1.36491,6.50955l-1.23031,1.66255l1.80723,1.68919l-0.19049,1.41797h-0.92138l1.00996,0.57773l0.091,0.05206l2.38576,8.36944h-1.17785h-0.41004l0.43849,0.16284l1.33747,0.49701l0.18645,0.654l0.43647,2.01064l-1.41496,-0.25769l-0.95688,-0.17414l1.05476,0.63987l1.56912,0.95245l0.20805,0.95871l-2.45054,2.87288l0.58983,0.5077l-0.19574,0.06801l0.38844,0.09787l2.62428,2.25924l0.74682,2.46366h-0.20502h-1.65548l2.23079,1.94021l0.19775,2.06028z" fill="#251258"/><path d="M401.21419,273.9919l-2.24209,5.3095h-9.98517l0.64189,-4.28521l6.63324,-1.17845l-5.88419,-1.2856l1.81873,-7.49953l3.53052,-2.03525l-2.67473,-0.85721l0.96294,-4.28521l3.63747,-0.96416l-3.31662,-1.07151l1.49789,-5.03526l2.46062,-0.53555l-2.03263,-0.75006l1.14738,-5.56921l0.24336,-1.18027h0.95669l-0.20804,3.1566l1.99228,7.22893l-2.66343,1.39598l2.38294,6.3241l-2.73587,8.66366z" fill="#170b36"/></g></g><path d="M398.26725,289.34975l-4.07273,-0.74703l2.20112,1.24928l-6.1661,1.80219l-3.72888,0.03975l0.92863,0.72523l-4.37057,1.30215l-3.40722,-0.28755l1.23677,0.98635l-6.49037,1.78705l-2.57605,-0.21591l0.71312,0.71051l-8.41424,2.54013l-1.9957,0.60234l-0.90805,-0.18241l-0.51316,0.17354l0.27161,0.34223l-5.21344,1.57174l-6.54728,1.97391l1.44603,-0.65904l11.59627,-5.28448l1.0709,0.22641l0.83642,0.17697l-0.2597,-0.47541l-0.22782,-0.41609l2.26489,-1.19783l1.14052,0.25567l0.78476,0.17596l-0.08899,-0.45988l-0.00787,-0.04116l-0.09969,-0.51658l7.47208,-3.50247l0.73129,0.18847l0.84832,0.21874l0.2934,0.07567l-0.14246,-0.13903l-0.43264,-0.42316l-0.26414,-0.25849l1.97069,-1.0366l0.58357,0.2819l0.7101,0.34305l0.47864,0.23125l-0.091,-0.40115l-0.13358,-0.59044l-0.07628,-0.3376l2.08045,-0.91653l1.77636,0.15073l1.20085,0.10191l0.17718,0.01493l-0.15498,-0.09585l-0.56986,-0.35273l-0.6316,-0.39087l2.13655,-1.37237l0.90987,0.27342l0.11865,0.03572l0.95225,0.28614l0.2139,-0.85761l0.08293,-0.33255c0.2597,-0.21249 0.49358,-0.42457 0.70122,-0.63665l2.05361,-0.94761l1.33585,0.43083l2.49191,0.80352l0.94034,0.30329l3.63867,-1.26845l0.24498,0.08273l0.7208,0.24336l-3.5063,1.2963l4.44563,1.43352z" fill="#170b36" opacity="0.66"/></g><g><g><path d="M348.15545,291.74519v12.10841h-3.07447l-0.17818,-12.10841z" fill="#080b4a"/><path d="M348.15545,303.85361v-12.10841h1.03881v12.10841z" fill="#6c54a3"/><g fill="#6c54a3"><path d="M357.26066,260.19228l-0.39732,-1.83104l1.73156,1.05113l1.22608,5.11578l-3.61124,1.25291l-2.50341,0.8687l-1.12639,-0.9698z"/><path d="M359.08749,271.28207l-5.01287,-4.31528l2.72779,0.68811l3.01858,0.76155l3.67843,7.57177h-2.98528z"/><path d="M354.83295,249.79426l-4.55743,-15.98682l2.18882,1.25251l4.29147,14.73431z"/><path d="M367.17801,291.7454h-4.93498l2.43863,-2.17086l-3.08254,-5.94493l-0.37795,-3.93552l1.68737,1.46722c0.73451,1.21215 1.52008,2.40372 2.36014,3.57431z"/><path d="M349.19431,223.49334l-2.60712,-12.4341l4.24203,15.61008h-2.22776h-1.75698z"/><path d="M350.29648,229.89574l-3.45202,-3.22642l2.11879,0.97969l1.86595,0.86225l1.63511,4.09311h-2.53166z"/><path d="M355.54829,252.30372l-0.35616,-1.24908l1.56367,0.58115l1.83911,4.91137l-2.21283,-0.40277z"/></g><g><path d="M346.37088,221.96296h-1.07049l0.03975,-0.60295l0.93368,0.37412l0.57066,0.22883z" fill="none"/><path d="M346.13035,209.37752l-0.79021,11.9825l-1.56044,-0.62494l1.10763,-5.35127z" fill="#170b36"/><path d="M364.68151,289.57434l-2.43863,2.17086h-9.41936h-6.8308l4.28279,-10.14177l-7.32902,-8.50747l5.22636,-16.5488l-4.55218,-12.07976l5.08753,-2.66666l-3.80536,-13.80829l0.39753,-6.02949h1.07049h0.4736l-0.57066,-0.22883l-0.93368,-0.37412l0.79021,-11.98249l0.45685,1.68171l2.60712,12.4341l-2.34984,3.17598l3.45202,3.22642l-0.36383,2.70863h-1.75981l1.92912,1.10359l0.17354,0.09948l4.55743,15.98682h-2.25016h-0.78315l0.83783,0.31096l2.55466,0.94942l0.35616,1.24908l0.8338,3.84067l-2.70318,-0.49216l-1.82781,-0.33295l2.01487,1.22265l2.99739,1.81934l0.39732,1.83104l-4.68072,5.48768l1.12639,0.9698l-0.37392,0.12975l0.74219,0.18727l5.01287,4.31528l1.42666,4.70615h-0.39188h-3.16226l4.2612,3.70567l0.37795,3.93551z" fill="#251258"/><path d="M350.27552,281.60343l-4.28279,10.14177h-19.07279l1.22607,-8.18562l12.6702,-2.25097l-11.23931,-2.45578l3.47361,-14.32467l6.74383,-3.88789l-5.10872,-1.63732l1.83911,-8.18562l6.94783,-1.84153l-6.33479,-2.04676l2.86118,-9.61812l4.69989,-1.02308l-3.88264,-1.43251l2.19164,-10.63817l0.46472,-2.2542h1.82781l-0.39753,6.02949l3.80536,13.80829l-5.08753,2.66666l4.55218,12.07976l-5.22636,16.5488z" fill="#170b36"/></g></g><path d="M344.64517,310.93786l-7.77941,-1.42686l4.2045,2.38617l-11.77808,3.44254l-7.12259,0.07587l1.77373,1.38529l-8.34825,2.48746l-6.50833,-0.54947l2.36256,1.88412l-12.39738,3.41348l-4.92065,-0.41246l1.36248,1.35724l-16.07238,4.85184l-3.81201,1.15061l-1.73479,-0.34829l-0.9801,0.33154l0.51881,0.65359l-9.95834,3.00224l-12.50614,3.77044l2.7621,-1.25877l22.1505,-10.09394l2.04555,0.43264l1.59778,0.33779l-0.496,-0.90805l-0.43506,-0.79485l4.32638,-2.28809l2.17833,0.48854l1.4991,0.33618l-0.16991,-0.8786l-0.01513,-0.0787l-0.19049,-0.98675l14.27281,-6.68995l1.39679,0.35999l1.62058,0.4177l0.56037,0.14449l-0.27201,-0.26535l-0.82633,-0.80837l-0.50448,-0.49358l3.76439,-1.98016l1.11449,0.53838l1.35643,0.65521l0.91431,0.44172l-0.17374,-0.76619l-0.25507,-1.12781l-0.14569,-0.64493l3.97386,-1.75052l3.3931,0.28776l2.29375,0.19452l0.3386,0.02866l-0.29582,-0.18323l-1.08886,-0.67377l-1.2063,-0.74662l4.08121,-2.62166l1.73802,0.52244l0.22681,0.0682l1.81894,0.54665l0.40862,-1.63793l0.15841,-0.63524c0.496,-0.4056 0.94276,-0.81079 1.33928,-1.21599l3.9228,-1.80986l2.55184,0.8229l4.75982,1.53482l1.79613,0.57914l6.95026,-2.42269l0.46795,0.1582l1.37661,0.46492l-6.69741,2.47617l8.49152,2.73829z" fill="#170b36" opacity="0.66"/></g></g><g fill="url(#color-9)"><path d="M-58.87386,360.55016l0.00585,-75.93804h-0.00585v-12.95674c68.39533,-18.916 138.72643,-16.1202 207.84841,-3.68529c68.97972,12.40908 122.38487,31.52929 177.06514,92.58007z"/></g><g><g><g><g><path d="M47.0637,252.72828v17.5525h-4.45674l-0.25829,-17.5525z" fill="#080b4a"/><path d="M47.0637,270.28077v-17.5525h1.50596v17.5525z" fill="#6c54a3"/><g fill="#6c54a3"><path d="M60.26279,206.98873l-0.57611,-2.65435l2.51027,1.52372l1.77736,7.41579l-5.23503,1.81631l-3.6288,1.25937l-1.63309,-1.40567z"/><path d="M62.91088,223.06454l-7.26687,-6.25549l3.95448,0.99744l4.37582,1.10399l5.33231,10.97617h-4.32759z"/><path d="M56.74337,191.91542l-6.60641,-23.17478l3.17275,1.81591l6.22098,21.35887z"/><path d="M74.63912,252.72808h-7.15386l3.53516,-3.14672l-4.46844,-8.61805l-0.54786,-5.70481l2.4459,2.12707c1.06485,1.75719 2.20354,3.48451 3.42135,5.18136z"/><path d="M48.56966,153.7892l-3.77932,-18.02469l6.14934,22.62854h-3.22924h-2.5472z"/><path d="M50.16744,163.07013l-5.0042,-4.67709l3.07145,1.4202l2.70499,1.25008l2.37003,5.93323h-3.66976z"/><path d="M57.78037,195.55329l-0.51618,-1.81066l2.26651,0.84247l2.66625,7.11956l-3.20786,-0.58399z"/></g><g><path d="M44.47674,151.57092h-1.55176l0.05751,-0.87395l1.35361,0.54201l0.82713,0.33194z" fill="none"/><path d="M44.12806,133.32688l-1.14557,17.37009l-2.26187,-0.90604l1.60565,-7.75742z" fill="#170b36"/><path d="M71.02022,249.58157l-3.53516,3.14672h-13.65452h-9.90184l6.20827,-14.70162l-10.62425,-12.3328l7.57621,-23.9892l-6.59874,-17.51114l7.37482,-3.86549l-5.51633,-20.01677l0.57631,-8.74033h1.55176h0.68649l-0.82713,-0.33194l-1.35361,-0.54201l1.14557,-17.37009l0.66228,2.43763l3.77933,18.02469l-3.40642,4.60384l5.0042,4.67709l-0.52748,3.92643h-2.55103l2.79641,1.6l0.25163,0.14408l6.60641,23.17478h-3.26173h-1.13507l1.21417,0.4508l3.70345,1.37641l0.51618,1.81066l1.20873,5.56739l-3.91836,-0.71332l-2.64971,-0.48248l2.92071,1.77212l4.34494,2.63739l0.57611,2.65435l-6.78539,7.95516l1.63309,1.40567l-0.542,0.18807l1.07554,0.27141l7.26687,6.25549l2.06815,6.82212h-0.56804h-4.58426l6.1774,5.37185l0.54766,5.70501z" fill="#251258"/><path d="M50.13696,238.02666l-6.20827,14.70162h-27.64847l1.77757,-11.86586l18.36673,-3.26315l-16.29273,-3.55978l5.03567,-20.7656l9.77572,-5.6358l-7.4057,-2.37346l2.66625,-11.86606l10.07175,-2.66948l-9.18326,-2.96692l4.14759,-13.94269l6.81304,-1.48315l-5.62833,-2.07662l3.17719,-15.42121l0.67377,-3.26758h2.64951l-0.57631,8.74033l5.51633,20.01677l-7.37482,3.86549l6.59874,17.51114l-7.57621,23.98921z" fill="#170b36"/></g></g><path d="M41.97495,280.5527l-11.27744,-2.06835l6.09507,3.45909l-17.07366,4.99027l-10.32499,0.10998l2.57121,2.00821l-12.10175,3.60579l-9.43469,-0.79647l3.42499,2.73123l-17.97142,4.94809l-7.13308,-0.5979l1.97491,1.96745l-23.29868,7.03319l-5.52582,1.6678l-0.76761,-0.15417v-5.04556l1.13306,-0.51638l2.9653,0.62716l2.31615,0.48975l-0.71898,-1.31628l-0.6308,-1.15222l6.27143,-3.31682l3.15781,0.70808l2.17328,0.48732l-0.24639,-1.2735l-0.02199,-0.11422l-0.27605,-1.43049l20.69014,-9.69803l2.02496,0.52183l2.34924,0.60537l0.81241,0.20946l-0.3943,-0.38482l-1.19803,-1.17199l-0.73129,-0.71555l5.45701,-2.87066l1.61573,0.78052l1.96645,0.94983l1.32516,0.64028l-0.25204,-1.11086l-0.36968,-1.6349l-0.21128,-0.93489l5.76071,-2.53771l4.91863,0.4173l3.3251,0.2819l0.49075,0.04157l-0.42901,-0.26556l-1.5784,-0.97687l-1.74871,-1.0824l5.91629,-3.80031l2.51955,0.75712l0.32872,0.09868l2.63659,0.79243l0.59225,-2.37446l0.22964,-0.92077c0.71878,-0.58801 1.36653,-1.17523 1.94143,-1.76264l5.68665,-2.62367l3.69901,1.19278l6.89981,2.22494l2.6037,0.83965l10.07538,-3.51216l0.67842,0.22903l1.99571,0.67418l-9.70873,3.58944l12.3094,3.96941z" fill="#170b36" opacity="0.66"/></g><g><g><path d="M-15.557,255.40361v12.05091h-3.05974l-0.17737,-12.05091z" fill="#080b4a"/><path d="M-15.557,267.45471v-12.05111h1.03397v12.05111z" fill="#6c54a3"/><g fill="#6c54a3"><path d="M-6.49461,224.00004l-0.39571,-1.82257l1.72348,1.04628l1.22023,5.09136l-3.59408,1.24706l-2.4915,0.86467l-1.12115,-0.96516z"/><path d="M-4.67668,235.03715l-4.98926,-4.2949l2.71509,0.68488l3.00425,0.75792l3.66108,7.53606h-2.97136z"/><path d="M-8.91105,213.65103l-4.53583,-15.91115l2.17832,1.24666l4.27129,14.66449z"/><path d="M3.37555,255.40361h-4.91157l2.42713,-2.16056l-3.06801,-5.91689l-0.37614,-3.91674l1.6793,1.46035c0.73109,1.2065 1.51282,2.39242 2.34904,3.55736z"/><path d="M-14.52303,187.47462l-2.59462,-12.37538l4.22186,15.53622h-2.21707h-1.74891z"/><path d="M-13.4259,193.84655l-3.43588,-3.21108l2.10871,0.97505l1.85728,0.85822l1.62723,4.07373h-2.51955z"/><path d="M-8.19913,216.14879l-0.35435,-1.24322l1.55621,0.57833l1.83043,4.88816l-2.20253,-0.40096z"/></g><g><path d="M-17.33297,185.95151h-1.06545l0.03955,-0.60013l0.92924,0.3723l0.56784,0.22783z" fill="none"/><path d="M-17.57248,173.42559l-0.78637,11.92579l-1.55297,-0.62192l1.10218,-5.32605z" fill="#170b36"/><path d="M0.89111,253.24305l-2.42733,2.16056h-9.37476h-6.79831l4.26241,-10.09394l-7.29431,-8.46732l5.20155,-16.4703l-4.53059,-12.02265l5.06352,-2.65394l-3.7874,-13.74312l0.39571,-6.00083h1.06545h0.47118l-0.56784,-0.22783l-0.92924,-0.3723l0.78637,-11.92579l0.45483,1.67365l2.59462,12.37538l-2.33875,3.16084l3.43588,3.21108l-0.36221,2.69592h-1.75154l1.92003,1.09855l0.17274,0.09887l4.53583,15.91115h-2.23946h-0.77932l0.8336,0.30935l2.54276,0.94519l0.35435,1.24322l0.82976,3.82231l-2.69007,-0.48974l-1.81934,-0.33134l2.00539,1.21679l2.98307,1.81066l0.39571,1.82257l-4.65873,5.46165l1.12115,0.96516l-0.3721,0.12915l0.73835,0.18625l4.98926,4.2949l1.41979,4.68395h-0.38986h-3.14732l4.24103,3.68812l0.37614,3.91695z" fill="#251258"/><path d="M-13.44688,245.30967l-4.26241,10.09394h-18.9828l1.22043,-8.14686l12.61026,-2.24048l-11.18623,-2.44408l3.45726,-14.25707l6.71174,-3.86932l-5.0845,-1.62966l1.83044,-8.14687l6.91514,-1.83286l-6.30493,-2.03687l2.84767,-9.57272l4.6777,-1.01823l-3.86428,-1.42585l2.18135,-10.58773l0.46251,-2.2435h1.81913l-0.39571,6.00083l3.7874,13.74312l-5.06352,2.65394l4.53059,12.02265l-5.20155,16.4703z" fill="#170b36"/></g></g><path d="M-19.0506,274.50586l-7.74268,-1.42l4.18472,2.37487l-11.72239,3.42619l-7.08888,0.07547l1.76526,1.37883l-8.3087,2.47557l-6.47767,-0.54685l2.35146,1.87523l-6.77854,1.86636v-1.39961h-0.00585v-6.84251l1.57397,-0.82794l1.10924,0.53575l1.35018,0.65219l0.90987,0.4395l-0.17294,-0.76277l-0.25386,-1.12256l-0.14509,-0.64189l3.95509,-1.74225l3.37696,0.28654l2.28285,0.19352l0.33699,0.02866l-0.29461,-0.18221l-1.08362,-0.67055l-1.20065,-0.74299l4.06203,-2.60915l1.72974,0.51981l0.22561,0.0678l1.81026,0.54403l0.4066,-1.63026l0.1578,-0.63221c0.49358,-0.40379 0.93832,-0.80676 1.33302,-1.21014l3.90424,-1.80138l2.53973,0.81907l4.73722,1.52756l1.78766,0.57651l6.91737,-2.41139l0.46593,0.1574l1.37016,0.4627l-6.66573,2.46447l8.45137,2.72537z" fill="#170b36" opacity="0.66"/></g><g><g><path d="M173.86172,265.62245v9.77471h-2.48182l-0.14388,-9.77471z" fill="#080b4a"/><path d="M173.86172,275.39717v-9.77471h0.83864v9.77471z" fill="#6c54a3"/><g fill="#6c54a3"><path d="M181.21212,240.15091l-0.32084,-1.47832l1.398,0.84852l0.98978,4.12984l-2.91526,1.01137l-2.02093,0.70143l-0.90946,-0.78295z"/><path d="M182.68681,249.10333l-4.04669,-3.48371l2.20213,0.55552l2.43681,0.61466l2.96934,6.11262h-2.40998z"/><path d="M179.25212,231.75664l-3.67883,-12.90569l1.76687,1.01117l3.46434,11.89452z"/><path d="M189.21815,265.62245h-3.98394l1.96866,-1.75235l-2.48847,-4.79917l-0.30511,-3.17699l1.36209,1.18451c0.59306,0.97848 1.22709,1.94041 1.9053,2.88539z"/><path d="M174.70036,210.5247l-2.10467,-10.03764l3.42458,12.60159h-1.79835h-1.41859z"/><path d="M175.59025,215.69315l-2.78692,-2.6045l1.71058,0.79082l1.50636,0.69617l1.31991,3.30411h-2.04372z"/><path d="M179.82966,233.78262l-0.28735,-1.00834l1.2622,0.46916l1.48477,3.96477l-1.78645,-0.32529z"/></g><g><path d="M172.42114,209.28934h-0.86426l0.03208,-0.48672l0.75388,0.30187l0.46049,0.18484z" fill="none"/><path d="M172.22682,199.12941l-0.63786,9.67321l-1.25957,-0.50447l0.89413,-4.31993z" fill="#170b36"/><path d="M187.20286,263.87011l-1.96866,1.75235h-7.60406h-5.51432l3.45747,-8.18703l-5.91669,-6.86793l4.21903,-13.35931l-3.6746,-9.75171l4.10703,-2.15269l-3.07206,-11.14709l0.32085,-4.86738h0.86426h0.38219l-0.46049,-0.18484l-0.75388,-0.30187l0.63786,-9.67321l0.36888,1.35764l2.10467,10.03764l-1.89703,2.56394l2.78692,2.6045l-0.2938,2.1866h-1.42081l1.55741,0.89111l0.14024,0.08011l3.67883,12.90569h-1.81631h-0.63221l0.6762,0.25103l2.06249,0.7666l0.28735,1.00834l0.67317,3.1003l-2.18215,-0.39712l-1.47549,-0.26879l1.62643,0.98696l2.41967,1.46863l0.32084,1.47832l-3.77872,4.42989l0.90946,0.78295l-0.30187,0.10473l0.59912,0.15114l4.0467,3.48371l1.15162,3.7991h-0.31621h-2.55284l3.43991,2.99153l0.30511,3.17699z" fill="#251258"/><path d="M175.57329,257.43544l-3.45747,8.18703h-15.39698l0.98978,-6.60802l10.22834,-1.81712l-9.07329,-1.98238l2.80427,-11.56399l5.4441,-3.13864l-4.12419,-1.32172l1.48477,-6.60782l5.60876,-1.48679l-5.11396,-1.65225l2.30969,-7.76448l3.79425,-0.82593l-3.1344,-1.15646l1.76929,-8.58778l0.37513,-1.81975h1.47549l-0.32085,4.86738l3.07206,11.14709l-4.10703,2.15269l3.6746,9.75171l-4.21903,13.35931z" fill="#170b36"/></g></g><path d="M171.02879,281.11691l-6.28011,-1.15182l3.39411,1.92629l-9.50815,2.77905l-5.75,0.06115l1.4319,1.11832l-6.73918,2.00801l-5.25401,-0.44353l1.90732,1.52089l-10.00798,2.75565l-3.97223,-0.33296l1.09975,1.09552l-12.9747,3.91674l-3.07729,0.92884l-1.40043,-0.2813l-0.79122,0.26778l0.41891,0.52768l-8.03911,2.4237l-10.09597,3.0438l2.22979,-1.01622l17.88142,-8.14848l1.65125,0.3493l1.28984,0.27282l-0.40035,-0.7331l-0.35131,-0.64149l3.49238,-1.84718l1.7586,0.3943l1.21014,0.27141l-0.13721,-0.70929l-0.01231,-0.06356l-0.15377,-0.79667l11.52201,-5.40071l1.1276,0.29057l1.30821,0.3372l0.45241,0.11663l-0.21954,-0.2143l-0.66712,-0.65259l-0.40721,-0.39854l3.03896,-1.59858l0.89978,0.43465l1.09511,0.5291l0.73794,0.35656l-0.14024,-0.61869l-0.20583,-0.91048l-0.11765,-0.52062l3.20806,-1.41314l2.7391,0.23226l1.85162,0.15699l0.27322,0.02321l-0.23892,-0.14792l-0.879,-0.54403l-0.97384,-0.60274l3.29463,-2.11638l1.40304,0.42174l0.18302,0.05509l1.46823,0.44131l0.32972,-1.32233l0.12793,-0.51275c0.40035,-0.3277 0.76095,-0.65461 1.0812,-0.98171l3.16669,-1.46116l2.05988,0.66429l3.84249,1.23919l1.45006,0.46755l5.61078,-1.95575l0.37775,0.12753l1.11146,0.37533l-5.40676,1.99893l6.85501,2.21061z" fill="#170b36" opacity="0.66"/></g><g><g><path d="M96.13926,263.52707v28.30186h-7.18595l-0.4167,-28.30186z" fill="#080b4a"/><path d="M96.13926,291.82894v-28.30186h2.42814v28.30186z" fill="#6c54a3"/><g fill="#6c54a3"><path d="M117.42205,189.77564l-0.92904,-4.27997l4.04751,2.457l2.86602,11.95727l-8.44108,2.92858l-5.85151,2.03061l-2.63295,-2.2665z"/><path d="M121.69171,215.69658l-11.71715,-10.08668l6.37617,1.60847l7.05579,1.77999l8.59767,17.6984h-6.9779z"/><path d="M111.7471,165.47123l-10.65229,-37.36768l5.11578,2.92777l10.03099,34.43991z"/><path d="M140.60249,263.52707h-11.53492l5.70016,-5.07401l-7.20512,-13.89587l-0.88323,-9.1986l3.94379,3.42962c1.71683,2.83334 3.55292,5.61844 5.51654,8.35451z"/><path d="M98.56759,103.99549l-6.09365,-29.06322l9.91516,36.48667h-5.207h-4.10703z"/><path d="M101.14404,118.96024l-8.06897,-7.5413l4.95233,2.28991l4.3617,2.01548l3.82149,9.56707h-5.91729z"/><path d="M113.41913,171.33687l-0.83218,-2.9195l3.65462,1.35825l4.29894,11.47984l-5.17249,-0.94176z"/></g><g><path d="M91.96825,100.41855h-2.5022l0.09282,-1.4093l2.18257,0.87416l1.33363,0.53515z" fill="none"/><path d="M91.40566,71.0014l-1.84679,28.00785l-3.64715,-1.46055l2.58877,-12.50816z" fill="#170b36"/><path d="M134.76752,258.45305l-5.70037,5.07401h-22.01691h-15.96583l10.0104,-23.70529l-17.13077,-19.8856l12.21577,-38.68073l-10.63979,-28.23527l11.89149,-6.23269l-8.89491,-32.27572l0.92945,-14.09322h2.5022h1.10682l-1.33363,-0.53514l-2.18257,-0.87416l1.84679,-28.00785l1.06827,3.93087l6.09365,29.06322l-5.49252,7.42345l8.06897,7.5413l-0.85075,6.33116h-4.11349l4.5092,2.57988l0.4058,0.23226l10.65229,37.36768h-5.25946h-1.83024l1.95797,0.72665l5.97157,2.21949l0.83218,2.9195l1.94889,8.97683l-6.31804,-1.1502l-4.2723,-0.7779l4.70938,2.85735l7.00595,4.25272l0.92904,4.27997l-10.94106,12.82699l2.63295,2.2665l-0.87375,0.30329l1.73439,0.43748l11.71715,10.08668l3.33458,11.00018h-0.91573h-7.39177l9.96036,8.66184l0.88324,9.1986z" fill="#251258"/><path d="M101.09481,239.82179l-10.0104,23.70529h-44.58087l2.86603,-19.13293l29.61511,-5.26147l-26.27084,-5.73992l8.11943,-33.48282l15.76283,-9.08741l-11.94133,-3.82695l4.29913,-19.13292l16.23987,-4.30438l-14.80696,-4.78404l6.68752,-22.48143l10.98546,-2.39141l-9.07511,-3.3485l5.12285,-24.86558l1.08624,-5.26874h4.2723l-0.92945,14.09322l8.89491,32.27572l-11.89149,6.23269l10.63979,28.23528l-12.21577,38.68074z" fill="#170b36"/></g></g><path d="M87.93426,308.38904l-18.18391,-3.33498l9.82778,5.57747l-27.53001,8.04658l-16.64829,0.17737l4.14578,3.23813l-19.51309,5.81398l-15.21275,-1.28419l5.52239,4.40386l-28.97766,7.97857l-11.50142,-0.96395l3.18445,3.17214l-31.91592,9.63447v-11.03751l2.4794,-1.31124l5.09177,1.14193l3.50408,0.78578l-0.39733,-2.05342l-0.03551,-0.18403l-0.44515,-2.30646l33.36114,-15.63732l3.26517,0.84147l3.788,0.97626l1.31002,0.3376l-0.63563,-0.6205l-1.93153,-1.88977l-1.17927,-1.15363l8.79906,-4.62846l2.60511,1.25836l3.17073,1.53159l2.13696,1.03236l-0.4062,-1.79109l-0.59609,-2.63619l-0.34082,-1.50737l9.2886,-4.0917l7.93095,0.67277l5.36136,0.45463l0.79142,0.06719l-0.69173,-0.428l-2.54498,-1.57497l-2.81961,-1.74529l9.53942,-6.12755l4.06264,1.22083l0.5299,0.15921l4.25151,1.27774l0.95487,-3.82856l0.37029,-1.48477c1.15908,-0.94821 2.20334,-1.89521 3.13037,-2.84221l9.16914,-4.23053l5.96451,1.92347l11.12549,3.58763l4.19825,1.35381l16.24572,-5.66304l1.0941,0.36948l3.21795,1.08684l-15.65467,5.78775l19.84807,6.40037z" fill="#170b36" opacity="0.66"/></g></g></g></g><g><g fill="#9a81e6"><path d="M505.99466,280.01695c-2.63034,-0.97747 -4.81188,-3.31622 -5.91406,-5.68039c-3.07448,-7.36231 -6.9327,-13.78811 -12.91961,-18.81107c-7.8125,-6.40946 -20.41893,-11.96554 -20.13482,-22.92658c0.31358,-0.46028 0.6542,-0.90322 1.0255,-1.32395c3.62657,-4.10905 10.09051,-5.66526 14.91349,-3.06781c3.52971,1.90106 5.73084,5.52622 7.76347,8.98511c3.58379,6.0981 7.16779,12.19639 10.75158,18.29449c1.83346,3.11988 3.68267,6.27466 4.75942,9.73031c1.49284,4.7911 1.37661,10.05581 -0.24498,14.79989z"/></g><g fill="#6e51c9"><path d="M505.99444,280.01756c-0.43667,1.27733 -0.98131,2.51754 -1.6345,3.70002c-0.0565,1.02489 -2.23725,0.74198 -3.21109,0.42133c-0.97384,-0.32065 -1.63673,-1.21094 -2.17025,-2.08731c-2.83555,-4.65731 -3.93147,-10.38855 -7.62827,-14.3947c-4.0693,-4.41012 -10.37665,-5.78169 -15.59656,-8.7363c-4.76729,-2.69833 -8.78089,-6.96398 -10.48481,-12.17561c-1.52936,-4.6779 -0.9914,-10.11049 1.75719,-14.14568c-0.28392,10.96104 12.32252,16.51711 20.13482,22.92657c5.98711,5.02296 9.84514,11.44857 12.91961,18.81108c1.10218,2.36397 3.28373,4.70272 5.91386,5.68059z"/></g><g fill="#9a81e6"><path d="M427.50966,258.13121c0.09343,-1.10036 0.24034,-2.19144 0.43869,-3.25851c0.66409,-3.5727 1.93577,-7.28421 4.80704,-9.50653c3.27868,-2.53771 8.01167,-2.50966 11.81844,-0.87011c3.80677,1.63954 6.84956,4.64561 9.57816,7.76851c2.72881,3.12311 5.26955,6.45789 8.49315,9.06542c4.88533,3.95186 11.47802,6.43609 14.09706,12.152c1.46177,3.1901 1.37762,6.90868 0.542,10.31752c-0.25728,1.04971 -0.56077,2.00903 -0.99361,2.87732c-0.69718,0.24477 -1.45612,0.3376 -2.30646,0.2028c-1.76466,-0.36464 -2.93281,-1.82297 -4.0705,-2.93685c-8.16624,-8.12689 -19.44732,-8.34463 -29.23172,-13.20555c-5.58857,-2.65354 -10.6295,-7.0788 -13.17225,-12.60602z"/></g><g fill="#6e51c9"><path d="M476.29054,286.67703c-0.51355,1.03014 -1.20973,1.93194 -2.23583,2.69874c-1.97512,0.97647 -4.04206,-0.96416 -5.72236,-2.3904c-9.42097,-7.99653 -25.48447,-2.58029 -34.8437,-10.64907c-5.03708,-4.34252 -6.55131,-11.45764 -5.97863,-18.20489c2.54235,5.52703 7.58327,9.95228 13.17185,12.60582c9.7844,4.86092 21.06547,5.07845 29.23172,13.20555c1.13769,1.11388 2.30585,2.57222 4.0705,2.93685c0.85035,0.13479 1.60928,0.04197 2.30646,-0.2026z"/></g><g fill="#6e51c9"><g><path d="M516.22764,303.6504v2.52056c-1.30236,-4.05295 -2.75968,-8.05688 -4.36977,-11.99925c-4.57236,-11.27017 -10.43981,-22.00117 -17.23449,-32.09411c-0.82108,-1.28157 -1.72611,-2.50502 -2.60289,-3.74845l-1.32233,-1.8603l-0.66126,-0.93025l-0.68972,-0.90906l-2.76735,-3.63081l-0.69214,-0.90765l-0.7214,-0.88424l-1.443,-1.76869l-1.4432,-1.76889l-0.7216,-0.88465c-0.24336,-0.29239 -0.49822,-0.5751 -0.74683,-0.86305l-3.00103,-3.44153l-0.75045,-0.86043l-0.37654,-0.42901l-0.38885,-0.41771l-1.5556,-1.67122l-3.11181,-3.34286l3.14328,3.31339l1.57194,1.6569l0.39289,0.41428l0.38077,0.42558l0.75874,0.85357l3.03492,3.41469c0.25143,0.28593 0.50912,0.56622 0.75551,0.85659l0.73028,0.87819l1.46096,1.75659l1.46096,1.75658l0.73048,0.8784l0.70142,0.9018l2.80468,3.60861l0.6994,0.90382l0.67075,0.925l1.34191,1.85021c0.88969,1.23697 1.80804,2.45437 2.64264,3.73009c6.90182,10.04612 12.88894,20.75169 17.58701,32.02429c1.34513,3.20685 2.58836,6.45728 3.73191,9.74303z"/></g></g><g fill="#6e51c9"><g><path d="M516.22764,336.65338v2.77985c-1.39437,-3.26254 -2.88358,-6.48371 -4.48741,-9.64838c-2.80307,-5.49959 -5.95664,-10.82039 -9.44257,-15.91599c-3.48593,-5.0958 -7.30984,-9.96116 -11.42475,-14.56884c-8.22859,-9.22584 -17.60921,-17.38462 -27.58632,-24.68841c-5.00056,-3.64191 -10.17345,-7.04247 -15.43674,-10.29472l-3.97506,-2.39505l-0.49701,-0.29945l-0.50387,-0.28755l-1.00754,-0.57511l-2.01548,-1.1504l-2.01548,-1.15061c-0.6764,-0.37513 -1.35966,-0.73835 -2.03909,-1.10803l-4.08242,-2.2092l4.103,2.17127c0.68306,0.36343 1.36975,0.72039 2.04978,1.08926l2.02658,1.13205l2.02678,1.13204l1.01339,0.56602l0.50669,0.28311l0.49984,0.29482l3.99948,2.35933c5.29658,3.20524 10.5066,6.561 15.54893,10.16195c10.06085,7.22227 19.54478,15.31486 27.89727,24.50558c4.17665,4.59012 8.06696,9.44599 11.6217,14.54019c3.55473,5.09399 6.77974,10.42125 9.65343,15.93254c1.25311,2.41643 2.43783,4.86738 3.56705,7.34374z"/></g></g><g fill="#9a81e6"><path d="M431.68913,288.75265c-0.135,-0.46573 -0.2254,-0.94499 -0.26334,-1.43312c-0.22399,-2.87612 1.55419,-5.89207 4.29934,-6.76703c2.00902,-0.64048 4.18291,-0.14691 6.23208,0.3495c3.61305,0.87516 7.2261,1.75013 10.83915,2.62529c1.84839,0.44757 3.71576,0.9022 5.41403,1.75921c2.98851,1.50818 5.31737,4.27593 6.29464,7.48117c0.2145,0.23226 -0.00788,0.57571 -0.32428,0.87133c-0.81705,0.21188 -1.65589,0.25809 -2.41805,0.04621c-3.91877,-1.21518 -7.30157,-4.21277 -11.42777,-3.84814c-5.81034,0.22863 -14.08918,2.89448 -18.6458,-1.08442z"/></g><g fill="#6e51c9"><path d="M464.18072,293.63919c-0.22379,0.20905 -0.49398,0.39409 -0.69173,0.49822c-0.47724,0.25123 -1.05577,0.17637 -1.58183,0.05752c-2.79539,-0.6312 -5.35954,-2.31353 -8.22436,-2.38032c-3.15337,-0.07365 -5.97924,1.81167 -9.00448,2.70621c-2.76311,0.81685 -5.84182,0.77507 -8.4322,-0.48712c-2.15068,-1.04789 -3.89758,-3.00182 -4.55703,-5.28084c4.55662,3.9787 12.83547,1.31285 18.6458,1.08422c4.12621,-0.36464 7.50901,2.63296 11.42777,3.84814c0.76196,0.21188 1.6008,0.16567 2.41805,-0.04601z"/></g><g fill="#9a81e6"><path d="M424.68157,311.37937c-1.0707,-1.53441 -1.95777,-3.33075 -1.75094,-5.18561c0.24194,-2.16965 1.98461,-3.95064 3.99625,-4.7915c2.01164,-0.84086 4.25958,-0.89252 6.4369,-0.78254c2.17712,0.11018 4.36553,0.36888 6.52933,0.10292c3.27909,-0.40298 6.62921,-1.98905 9.74484,-0.88869c1.73903,0.61425 3.1116,2.0068 4.0925,3.57047c0.65359,1.04204 1.07191,2.01024 0.92642,3.22562c-0.02321,0.00263 -0.046,0.00605 -0.06921,0.00807c-5.17289,0.28352 -10.31026,-0.99745 -14.77507,3.38765c-3.78437,3.71677 -9.92626,3.27868 -15.13103,1.35361z"/></g><g fill="#6e51c9"><path d="M454.65685,306.63004c-0.00162,0.01251 -0.00221,0.02462 -0.00383,0.03713c-0.35435,1.1048 -1.84295,1.17704 -2.99618,1.29105c-6.46555,0.63947 -10.29937,8.70139 -16.76956,9.29102c-4.05013,0.36908 -7.77316,-2.43702 -10.12805,-5.75727c-0.02623,-0.03692 -0.05186,-0.07506 -0.07789,-0.11239c5.20517,1.92487 11.34686,2.36296 15.13123,-1.35381c4.46481,-4.3851 9.60218,-3.10413 14.77507,-3.38765c0.02301,-0.00202 0.046,-0.00565 0.06921,-0.00807z"/></g><g fill="#6e51c9"><g><path d="M516.22804,339.85719v2.40352c-1.57961,-2.97701 -3.28071,-5.89005 -5.10812,-8.72399c-5.70824,-8.85838 -12.59372,-16.9655 -20.43205,-24.02553c-3.91775,-3.53052 -8.06696,-6.8092 -12.43208,-9.77209c-2.18256,-1.48073 -4.41799,-2.88519 -6.71214,-4.18533c-1.14758,-0.65178 -2.30828,-1.26886 -3.48935,-1.86252c-1.17805,-0.60577 -2.34864,-1.20247 -3.55857,-1.71704c-1.20489,-0.52627 -2.45337,-0.94619 -3.70628,-1.34916c-0.6312,-0.18726 -1.26542,-0.36585 -1.89965,-0.54443l-1.91942,-0.47763c-2.57182,-0.59125 -5.17612,-1.03922 -7.78587,-1.44845c-5.22818,-0.77145 -10.49247,-1.29408 -15.76202,-1.7243c5.27499,0.3612 10.54656,0.81462 15.79148,1.51847c2.61883,0.37553 5.23423,0.79001 7.82481,1.34998l1.93537,0.45463c0.64048,0.17132 1.28136,0.34284 1.91983,0.52304c1.26845,0.38966 2.53509,0.79747 3.76198,1.31406c1.23072,0.50428 2.42592,1.09411 3.6072,1.68212c1.18894,0.57974 2.36922,1.1942 3.5283,1.8367c2.32079,1.28479 4.58205,2.67412 6.79145,4.14093c4.41839,2.93504 8.62349,6.18991 12.60118,9.70307c7.95799,7.02492 14.97787,15.12215 20.82615,24.00152c1.48416,2.25178 2.88883,4.55541 4.21762,6.90243z"/></g></g><g fill="#6e51c9"><g><path d="M516.22804,345.66229v2.13777c-2.5593,-3.93168 -5.24251,-7.78769 -8.19167,-11.43464c-3.19615,-3.99 -6.62174,-7.79999 -10.34093,-11.30569c-3.71697,-3.50489 -7.73199,-6.70125 -12.04707,-9.43691c-8.61401,-5.48304 -18.4755,-9.04403 -28.66388,-10.12946c-5.08571,-0.57671 -10.22974,-0.6653 -15.3429,-0.30511c-5.11558,0.34425 -10.20372,1.0588 -15.24666,2.00035c5.03204,-0.99806 10.11433,-1.77031 15.23435,-2.17268c5.11759,-0.41831 10.27697,-0.38824 15.39274,0.13378c10.24649,0.97465 20.2345,4.44826 28.9928,9.88731c4.38691,2.71287 8.47679,5.8947 12.26763,9.3895c3.79305,3.49581 7.29148,7.30036 10.55907,11.28713c2.63518,3.18566 5.06473,6.53175 7.38632,9.94865z"/></g></g><g><g fill="#9a81e6"><path d="M465.1007,305.7252c-0.16365,-1.79856 0.03814,-3.61285 0.68447,-5.31071c0.58075,-1.52533 1.51302,-2.93947 2.80044,-3.94096c1.81954,-1.41535 4.22609,-1.91075 6.52609,-1.77757c6.70004,0.38784 12.24463,5.69795 15.24565,11.70947c1.6125,3.22985 2.6828,6.73232 4.57236,9.80781c1.76102,2.86602 4.17342,5.26369 6.57876,7.61334c1.15989,1.13305 2.36538,2.32704 2.86057,3.87194c0.64553,2.01387 -0.17677,4.40205 -1.91217,5.6025c-2.89004,-2.40816 -4.7231,-6.42439 -7.25173,-9.38465c-4.68476,-5.5004 -11.25706,-8.4316 -18.12276,-10.64745c-4.49831,-1.48174 -9.18124,-3.80193 -11.98169,-7.54372z"/></g><g fill="#6e51c9"><path d="M502.45706,333.30103c-0.03148,0.02179 -0.06255,0.04399 -0.09464,0.06498c-1.99893,0.33074 -4.29349,-1.88573 -5.30466,-3.64393c-1.39558,-2.42673 -3.49258,-4.44362 -5.97016,-5.74214c-3.38967,-1.77656 -7.30561,-2.17106 -10.99473,-3.18586c-4.5092,-1.24061 -8.85818,-3.53899 -11.77788,-7.19684c-1.78685,-2.23845 -2.95623,-5.03567 -3.21431,-7.87203c2.80045,3.74179 7.48338,6.06178 11.98169,7.54372c6.8657,2.21585 13.438,5.14726 18.12276,10.64745c2.52883,2.96006 4.36169,6.97649 7.25194,9.38465z"/></g><g fill="#6e51c9"><g><path d="M516.22822,349.61898v1.62441c-0.44737,-0.70848 -0.89776,-1.41495 -1.35542,-2.11698c-2.03062,-3.10797 -4.12601,-6.17498 -6.30796,-9.18084c-2.1866,-3.00243 -4.44059,-5.95623 -6.76279,-8.85636c-4.65449,-5.79158 -9.57796,-11.37148 -14.77951,-16.68179c-2.6041,-2.65152 -5.27479,-5.23968 -8.04618,-7.71685c-1.38711,-1.23677 -2.80045,-2.44429 -4.25091,-3.6064c-0.36625,-0.28553 -0.72827,-0.57732 -1.09834,-0.85801c-0.37392,-0.27544 -0.74117,-0.56057 -1.12074,-0.82835c-0.38279,-0.26273 -0.7555,-0.5414 -1.15182,-0.78416c-0.19715,-0.12269 -0.38804,-0.25607 -0.59044,-0.36988l-0.60799,-0.34082l0.61243,0.33316c0.20401,0.11139 0.39652,0.24214 0.59549,0.36241c0.39974,0.23811 0.77609,0.51195 1.16291,0.77004c0.3834,0.26313 0.75449,0.54362 1.13244,0.81463c0.37412,0.27625 0.73977,0.5634 1.11025,0.8447c1.46661,1.14435 2.8969,2.33491 4.30136,3.55513c2.8061,2.44388 5.5131,5.00056 8.15474,7.62202c5.27681,5.25038 10.2808,10.77619 15.02105,16.52156c2.36498,2.87712 4.66336,5.80974 6.89537,8.79321c2.22736,2.9869 4.36977,6.03776 6.44881,9.13201c0.2147,0.32065 0.42417,0.64492 0.63685,0.96718z"/></g></g></g><g fill="#9a81e6"><path d="M446.24159,339.02884c-3.78053,-1.77596 -7.86618,-4.11813 -10.72393,-7.31812c-0.19049,-2.1757 0.06558,-4.40124 0.92561,-6.4032c1.37237,-3.19394 4.18795,-5.60189 7.31993,-7.10281c9.12354,-4.37239 20.30008,-1.40648 28.62998,4.33869c4.4755,3.08678 8.43382,6.92846 13.16297,9.60944c4.4069,2.49856 9.33319,3.90403 14.21531,5.25118c2.35429,0.64956 4.81289,1.34655 6.58945,3.02423c2.15169,2.03202 2.86622,5.41443 1.82014,8.16886c-1.31789,-0.12369 -2.58029,-0.54161 -3.70507,-1.42766c-5.62974,-4.72028 -12.77896,-6.10496 -19.91809,-5.68503c-6.09708,0.54645 -11.82389,2.28285 -17.70668,2.71246c-7.25617,0.20522 -13.89869,-2.29133 -20.60962,-5.16805z"/></g><g fill="#6e51c9"><path d="M508.18104,348.59672c-0.10029,0.26394 -0.21551,0.52243 -0.34849,0.77306c-2.39747,1.8936 -7.03662,0.64128 -9.649,-0.94176c-3.60559,-2.18498 -7.83874,-3.31783 -12.05212,-3.22541c-5.76454,0.12652 -11.21852,2.46043 -16.82465,3.8104c-6.85199,1.64983 -14.26171,1.78705 -20.77348,-0.91169c-6.51177,-2.69874 -11.9385,-8.56356 -12.92082,-15.55196c-0.03915,-0.27827 -0.07022,-0.55815 -0.09484,-0.83884c2.85775,3.19999 6.9436,5.54216 10.72393,7.31812c6.71093,2.87692 13.35366,5.37327 20.60962,5.16805c5.88279,-0.42941 11.60959,-2.16602 17.70668,-2.71247c7.13913,-0.41992 14.28815,0.96476 19.91809,5.68504c1.12498,0.88606 2.38718,1.30397 3.70507,1.42746z"/></g><g fill="#6e51c9"><g><path d="M516.22701,352.78124v1.36047c-0.90422,-0.87355 -1.82943,-1.7251 -2.78329,-2.54417c-0.43345,-0.36584 -0.87961,-0.71312 -1.3187,-1.0709c-0.43243,-0.36645 -0.89958,-0.6873 -1.36026,-1.01682l-0.69133,-0.49398l-0.34647,-0.24619l-0.36,-0.22641l-1.43998,-0.90644c-0.2367,-0.15659 -0.48551,-0.2936 -0.73492,-0.42941l-0.74561,-0.41226l-0.74561,-0.41246c-0.2484,-0.13803 -0.4954,-0.27847 -0.75409,-0.39732l-1.53481,-0.74642l-0.76761,-0.37332c-0.25768,-0.12067 -0.52244,-0.22681 -0.78335,-0.34082c-2.08247,-0.9248 -4.2156,-1.73863 -6.36688,-2.50301c-8.63742,-2.99295 -17.58338,-5.05787 -26.5473,-6.90788c-8.97441,-1.83064 -18.00855,-3.3701 -27.05843,-4.8018c9.06703,1.31789 18.12115,2.74374 27.12563,4.46279c8.9958,1.73963 17.97667,3.69195 26.70449,6.59309c2.17489,0.74219 4.33546,1.53522 6.45304,2.44388c0.26535,0.11199 0.53393,0.21572 0.79647,0.33457l0.78254,0.36826l1.56528,0.73694c0.26374,0.11724 0.51658,0.25668 0.77084,0.39369l0.76337,0.40964l0.76337,0.41003c0.25547,0.135 0.51013,0.27141 0.75389,0.4278l1.48053,0.90604l0.37029,0.22661l0.35737,0.24699l0.71353,0.4962c0.47541,0.33114 0.95709,0.654 1.40486,1.02308c0.45383,0.36 0.91673,0.71152 1.36329,1.07918c0.73936,0.61889 1.46015,1.25896 2.17066,1.91035z"/></g></g></g><g><g><g fill="#6e51c9"><path d="M-51.66451,348.46132l-3.99463,7.19119c-0.98272,-5.12405 -2.16844,-12.12496 -3.20907,-19.51452v-29.95714l10.08527,3.16568c-2.96934,-2.35852 -7.60829,-6.73233 -10.08526,-8.9724v-7.76326c0.50508,-1.63349 1.06021,-3.25205 1.66961,-4.85043c0,0 5.34643,1.06847 7.52031,1.73075c0,0 -3.72726,-5.73285 -5.0502,-7.73945c1.36834,-4.99047 3.12653,-9.87803 5.25239,-14.60153l-0.01231,0.33517c2.728,9.0069 17.24962,21.52636 -2.1761,80.97593z"/></g><g fill="#554686"><g><path d="M-57.65041,360.55036h-0.26778c2.25662,-6.40805 4.40931,-12.84454 6.35033,-19.34097c0.29986,-0.96677 0.56844,-1.94263 0.84308,-2.91647c0.27282,-0.97424 0.56723,-1.94243 0.82734,-2.9199l0.78133,-2.9318l0.19452,-0.73311l0.1804,-0.73654l0.36101,-1.47287c0.96637,-3.92563 1.84678,-7.87324 2.52822,-11.85416c0.71312,-3.97466 1.25897,-7.97777 1.59959,-11.99662c0.35152,-4.01784 0.46816,-8.05485 0.31197,-12.08218c-0.18444,-4.0245 -0.63302,-8.04395 -1.49204,-11.98895c-0.42073,-1.97391 -0.94115,-3.92765 -1.5441,-5.85858l-0.46937,-1.4434l-0.50346,-1.43311l-0.52929,-1.42525l-0.55876,-1.41495c1.79169,3.6415 3.21089,7.47794 4.23477,11.42596c0.52022,1.9727 0.89837,3.98031 1.22547,5.99498l0.22217,1.51524c0.06578,0.50609 0.11503,1.014 0.17334,1.5213c0.12713,1.0138 0.18302,2.03324 0.26999,3.05086c0.03915,0.50912 0.05328,1.01945 0.08112,1.52917c0.02018,0.50993 0.05912,1.01985 0.06376,1.53017l0.0222,1.53098l0.00928,0.76559l-0.01251,0.76519c-0.01736,1.02025 -0.02422,2.04151 -0.08233,3.06015l-0.06902,1.52916c-0.02603,0.50952 -0.07103,1.01743 -0.10573,1.52634c-0.30107,4.0695 -0.84873,8.11478 -1.54289,12.1294c-0.70889,4.0132 -1.60585,7.98786 -2.6154,11.92963c-1.01521,3.94096 -2.15895,7.8456 -3.41671,11.71109c-2.09438,6.44336 -4.45956,12.79188 -7.07052,19.03345z"/></g></g></g><g fill="#6e51c9"><path d="M-1.96887,273.60709c15.19116,-14.99966 38.45393,-27.40874 59.34485,-30.6281l0.26273,0.12612c-1.97129,2.83515 -3.94237,5.6701 -5.91366,8.50525c-0.69295,0.99685 -1.42524,2.02961 -2.48524,2.60874c-2.17974,1.19097 -4.89382,0.07789 -7.28805,0.69678l-2.03747,-0.12955c2.01931,1.23455 3.96033,2.59744 5.80812,4.07818l0.2817,0.98312c-5.8733,5.47134 -12.54509,10.06609 -19.72336,13.58269l0.94014,-0.46513c-2.37447,-0.63584 -4.74873,-1.27168 -7.12319,-1.90752l-1.18754,0.78839c1.09048,1.11852 2.06553,2.35186 2.90497,3.67419l-0.58075,1.06889c-1.85728,4.42748 -5.32403,7.96344 -8.86262,11.19834c-6.21352,5.68019 -21.47107,15.75011 -28.55591,20.26194z"/></g><g fill="#6e51c9"><path d="M-17.42114,309.33503c13.91161,-9.78863 30.03646,-21.08061 46.80158,-23.91535c-4.43373,6.96841 -16.95339,22.96633 -16.95339,22.96633l-5.98529,-1.36147l1.63288,6.24641l-30.8987,26.01094l-4.21297,2.78995l-4.76285,-0.6764l-0.85801,3.73514c0,0 -12.10054,1.09168 -15.93213,4.79917c7.47854,-13.21119 16.66887,-25.44936 27.26749,-36.31071z"/></g><g fill="#554686"><g><path d="M-50.10911,360.55056h-0.4843c1.19682,-1.78422 2.45276,-3.53052 3.74926,-5.24351c2.8075,-3.68872 5.80792,-7.22247 8.84668,-10.70961c3.02725,-3.49601 6.11646,-6.93997 9.21777,-10.37363c1.56044,-1.70835 3.12896,-3.40904 4.71765,-5.09197c1.57558,-1.69484 3.18646,-3.35718 4.78746,-5.02881c6.47625,-6.61468 13.16115,-13.04412 20.26114,-18.99632c7.06306,-5.99014 14.53675,-11.50183 22.38175,-16.39383c-7.5413,5.34965 -14.80029,11.06113 -21.70978,17.17577c-1.74225,1.5108 -3.43083,3.08274 -5.14363,4.62644c-0.85156,0.77729 -1.68393,1.57598 -2.52681,2.36276l-1.26058,1.18431c-0.41952,0.39551 -0.82916,0.80151 -1.24423,1.20186l-2.48929,2.40251l-2.4582,2.4352l-1.22729,1.21942l-1.21256,1.23456l-2.42168,2.47213c-6.43831,6.61428 -12.67988,13.42267 -18.89966,20.2579c-1.556,1.70694 -3.09546,3.4266 -4.62301,5.15573c-1.52836,1.72873 -3.02847,3.48088 -4.48519,5.26894c-1.29792,1.58143 -2.55769,3.19434 -3.77549,4.83974z"/></g></g><g fill="#9a81e6"><path d="M-46.9965,346.44826c-3.87275,-21.38107 -0.58822,-44.12826 9.20042,-63.71501c3.74301,1.79149 7.0786,4.42203 9.70025,7.65026c0.52022,-5.63135 -4.2729,-10.84863 -3.1114,-16.39181c0.4173,-1.99106 1.56932,-3.74482 2.71529,-5.42997c2.71771,-3.99685 5.53712,-7.9241 8.4544,-11.77667c2.5585,2.99961 5.11699,5.99902 7.67528,8.99863c-2.60248,-3.1911 -3.00748,-7.79515 -1.97613,-11.84447c1.03135,-4.04952 3.32046,-7.66258 5.69916,-11.10451c3.85439,-5.57687 8.04154,-10.92209 12.53096,-15.9961l-0.21268,0.40318c3.42902,20.40703 -1.68838,41.50418 -9.34611,60.88713c-9.22766,23.357 -23.18447,43.49928 -41.83411,60.26622z"/></g><g fill="#6e51c9"><g><path d="M-54.82192,360.55016c4.48418,-8.34745 9.03253,-16.65858 13.61215,-24.95255c2.77865,-5.06735 5.62268,-10.09677 8.35896,-15.17784c1.37036,-2.53953 2.73768,-5.07885 4.04529,-7.64925l0.9912,-1.92225c0.32992,-0.64089 0.64431,-1.28984 0.96738,-1.93436l0.96294,-1.93658l0.48107,-0.96859l0.46795,-0.97485c0.62495,-1.29933 1.26059,-2.59361 1.87726,-3.89697l1.82579,-3.92179l1.77192,-3.94641c0.29825,-0.65643 0.58539,-1.31788 0.8683,-1.98097l0.86043,-1.98461c2.28931,-5.29477 4.42829,-10.65411 6.47968,-16.04775l1.50495,-4.0582l1.45329,-4.07758c0.2476,-0.67802 0.47906,-1.36127 0.71192,-2.04433l0.70021,-2.04857c0.47642,-1.36269 0.91189,-2.7389 1.3641,-4.10986l0.68023,-2.05624l0.65097,-2.06552c0.43042,-1.37822 0.87678,-2.75241 1.28056,-4.13891c0.83642,-2.76513 1.63187,-5.54237 2.43379,-8.32001l-1.01117,4.21701c-0.34405,1.40426 -0.72563,2.79843 -1.08684,4.19864c-0.35677,1.40163 -0.7561,2.79116 -1.13971,4.18553l-0.58095,2.09035l-0.61042,2.08186c-1.64661,5.5458 -3.42317,11.05628 -5.38396,16.50239c-3.90786,10.89626 -8.39568,21.58932 -13.4596,32.0031l-0.47179,0.97767l-0.48631,0.97061l-0.97364,1.94062c-0.3265,0.64573 -0.64452,1.29589 -0.97808,1.93819l-1.00189,1.92609c-1.32536,2.57343 -2.69552,5.12346 -4.09392,7.65552c-1.40083,2.53085 -2.82325,5.04818 -4.25152,7.56087c-1.42565,2.5143 -2.86542,5.01852 -4.30741,7.52233c-4.69344,8.17129 -9.41795,16.32522 -14.20582,24.44324z"/></g></g><g fill="#9a81e6"><path d="M34.11321,318.19907l-10.47391,1.10823l3.48915,3.97506l-19.90215,14.92197l-12.41049,-2.37911l4.51727,8.36037c0,0 -22.78815,10.52235 -35.13528,11.51596l-0.42336,-0.35334c6.0763,-12.13928 14.07103,-23.32088 23.58382,-32.9842c-1.25473,3.26193 -2.14685,10.2015 -2.14685,10.2015l21.56551,-22.17713l4.09331,3.70406l0.25567,-6.51883c0,0 27.37948,-6.85057 35.10966,-7.48803z"/></g><g fill="#6e51c9"><g><path d="M-42.42434,360.55016c3.64332,-3.60498 7.40064,-7.09756 11.25241,-10.48138c1.83589,-1.58002 3.67319,-3.15942 5.52199,-4.72552l5.64004,-4.58488l5.75767,-4.43635l5.85595,-4.3054l5.9629,-4.15485l6.05007,-4.02531l6.1431,-3.87982c2.07057,-1.25614 4.1484,-2.49998 6.22644,-3.74199c8.35532,-4.89704 16.9205,-9.43066 25.68303,-13.53043c-8.51575,4.59032 -16.9205,9.36427 -25.15373,14.41548c-2.04453,1.2854 -4.08968,2.56818 -6.14148,3.84006l-6.07267,3.9454l-6.00507,4.04589l-5.92274,4.16454l-5.8507,4.26484l-5.7597,4.38732l-5.67736,4.49447l-2.78773,2.3105l-2.7964,2.30142c-3.73635,3.15196 -7.40368,6.38706 -11.00644,9.69601z"/></g></g></g></g></g></svg>