<svg version="1.1" xmlns="http://www.w3.org/2000/svg" xmlns:xlink="http://www.w3.org/1999/xlink" width="20.33333" height="20.33333" viewBox="0,0,20.33333,20.33333"><g transform="translate(-46,-13)"><g data-paper-data="{&quot;isPaintingLayer&quot;:true}" fill="#ffffff" fill-rule="nonzero" stroke="none" stroke-width="1" stroke-linecap="butt" stroke-linejoin="miter" stroke-miterlimit="10" stroke-dasharray="" stroke-dashoffset="0" style="mix-blend-mode: normal"><path d="M64.15476,33.33333h-15.97619c-1.20321,0 -2.17857,-0.97536 -2.17857,-2.17857v-15.97619c0,-1.2032 0.97537,-2.17857 2.17857,-2.17857h15.97619c1.20321,0 2.17857,0.97537 2.17857,2.17857v15.97619c0,1.20321 -0.97536,2.17857 -2.17857,2.17857zM54.86469,28.88274l8.35119,-8.35119c0.28358,-0.28358 0.28358,-0.74339 0,-1.02697l-1.02697,-1.02697c-0.28358,-0.28358 -0.74339,-0.28362 -1.02701,0l-6.81072,6.81066l-3.17976,-3.17976c-0.28358,-0.28358 -0.74339,-0.28358 -1.02701,0l-1.02697,1.02697c-0.28358,0.28358 -0.28358,0.74339 0,1.02697l4.72024,4.72024c0.28362,0.28367 0.74339,0.28367 1.02701,0.00004z"/></g></g></svg>