<svg version="1.1" xmlns="http://www.w3.org/2000/svg" xmlns:xlink="http://www.w3.org/1999/xlink" width="95.61906" height="83.33315" viewBox="0,0,95.61906,83.33315"><g transform="translate(-199.7161,-140.05556)"><g data-paper-data="{&quot;isPaintingLayer&quot;:true}" fill-rule="nonzero" stroke-linejoin="miter" stroke-miterlimit="10" stroke-dasharray="" stroke-dashoffset="0" style="mix-blend-mode: normal"><path d="M200.04351,152.02931v-11.87289h11.87289v11.87289z" fill="#cacaca" stroke="none" stroke-width="0" stroke-linecap="butt"/><path d="M201.11663,151.01913v-9.20149h9.20149v9.20149z" fill="none" stroke="#86beff" stroke-width="0.5" stroke-linecap="butt"/><path d="M205.71556,149.67221l-3.25201,-3.15671l3.15671,-3.252l3.252,3.1567z" fill="none" stroke="#86beff" stroke-width="0.5" stroke-linecap="butt"/><text transform="translate(203.88697,148.91161) scale(0.17521,0.17521)" font-size="40" xml:space="preserve" fill="#ffffff" fill-rule="nonzero" stroke="none" stroke-width="1" stroke-linecap="butt" stroke-linejoin="miter" stroke-miterlimit="10" stroke-dasharray="" stroke-dashoffset="0" font-family="Sans Serif" font-weight="normal" text-anchor="start" style="mix-blend-mode: normal"><tspan x="0" dy="0">F</tspan></text><g stroke-linecap="butt"><path d="M211.86822,152.01091v-11.87289h11.87289v11.87289z" fill="#cacaca" stroke="none" stroke-width="0"/><path d="M212.9754,150.98615v-9.20149h9.20149v9.20149z" fill="none" stroke="#ff9c9c" stroke-width="0.5"/><path d="M214.85527,146.63276c0,-1.58466 1.28462,-2.86928 2.86928,-2.86928c1.58466,0 2.86928,1.28462 2.86928,2.86928c0,1.58466 -1.28462,2.86928 -2.86928,2.86928c-1.58466,0 -2.86928,-1.28462 -2.86928,-2.86928z" fill="none" stroke="#ff9c9c" stroke-width="0.5"/><text transform="translate(216.83408,148.97758) scale(0.17521,0.17521)" font-size="40" xml:space="preserve" fill="#ffffff" fill-rule="nonzero" stroke="none" stroke-width="1" stroke-linecap="butt" stroke-linejoin="miter" stroke-miterlimit="10" stroke-dasharray="" stroke-dashoffset="0" font-family="Sans Serif" font-weight="normal" text-anchor="start" style="mix-blend-mode: normal"><tspan x="0" dy="0">!</tspan></text></g><g><path d="M223.85997,151.94686v-11.87289h11.87289v11.87289z" fill="#13768e" stroke="none" stroke-width="0" stroke-linecap="butt"/><path d="M226.84281,143.8904c0,0 0.42764,-0.6978 0.70996,-0.68937c0.25289,0.00755 0.70066,0.61112 1.14582,0.8094c0.40662,0.18111 0.86352,-0.55354 0.86352,-0.55354" fill="none" stroke="#1db9e0" stroke-width="0.5" stroke-linecap="round"/><path d="M230.90231,142.55426c0,0 0.42764,-0.69779 0.70996,-0.68936c0.25289,0.00755 0.70066,0.61111 1.14582,0.80939c0.40662,0.18111 0.86352,-0.55354 0.86352,-0.55354" fill="none" stroke="#1db9e0" stroke-width="0.5" stroke-linecap="round"/><path d="M229.58271,146.17363c0,0 0.42764,-0.6978 0.70996,-0.68937c0.25289,0.00755 0.70066,0.61112 1.14582,0.8094c0.40662,0.18111 0.86352,-0.55354 0.86352,-0.55354" fill="none" stroke="#1db9e0" stroke-width="0.5" stroke-linecap="round"/><path d="M232.3538,149.51817c0,0 0.42764,-0.6978 0.70996,-0.68937c0.25289,0.00755 0.70066,0.61112 1.14582,0.8094c0.40662,0.18111 0.86352,-0.55354 0.86352,-0.55354" fill="none" stroke="#1db9e0" stroke-width="0.5" stroke-linecap="round"/><path d="M226.59818,147.65776c0,0 0.42764,-0.6978 0.70996,-0.68937c0.25289,0.00755 0.70066,0.61112 1.14582,0.8094c0.40662,0.18111 0.86352,-0.55354 0.86352,-0.55354" fill="none" stroke="#1db9e0" stroke-width="0.5" stroke-linecap="round"/><path d="M227.44482,150.43147c0,0 0.42764,-0.6978 0.70996,-0.68937c0.25289,0.00755 0.70066,0.61112 1.14582,0.8094c0.40662,0.18111 0.86352,-0.55354 0.86352,-0.55354" fill="none" stroke="#1db9e0" stroke-width="0.5" stroke-linecap="round"/></g><g><path d="M235.68468,151.92846v-11.87289h11.87289v11.87289z" fill="#1ba9cc" stroke="none" stroke-width="0" stroke-linecap="butt"/><g fill="none" stroke="#2fc4e9" stroke-width="0.5" stroke-linecap="round"><path d="M238.11214,142.4243v7.25566"/><path d="M241.57507,144.89782v3.13313"/><path d="M244.54329,142.4243v6.92585"/></g></g><g><path d="M223.80975,175.61453v-11.87289h11.87289v11.87289z" fill="#13768e" stroke="#168eac" stroke-width="0.5" stroke-linecap="butt"/><path d="M226.79259,167.55807c0,0 0.42764,-0.6978 0.70996,-0.68937c0.25289,0.00755 0.70066,0.61112 1.14582,0.8094c0.40662,0.18111 0.86352,-0.55354 0.86352,-0.55354" fill="none" stroke="#1db9e0" stroke-width="0.5" stroke-linecap="round"/><path d="M230.8521,166.22193c0,0 0.42764,-0.69779 0.70996,-0.68936c0.25289,0.00755 0.70066,0.61111 1.14582,0.80939c0.40662,0.18111 0.86352,-0.55354 0.86352,-0.55354" fill="none" stroke="#1db9e0" stroke-width="0.5" stroke-linecap="round"/><path d="M229.53249,169.84132c0,0 0.42764,-0.6978 0.70996,-0.68937c0.25289,0.00755 0.70066,0.61112 1.14582,0.8094c0.40662,0.18111 0.86352,-0.55354 0.86352,-0.55354" fill="none" stroke="#1db9e0" stroke-width="0.5" stroke-linecap="round"/><path d="M232.30359,173.18585c0,0 0.42764,-0.6978 0.70996,-0.68937c0.25289,0.00755 0.70066,0.61112 1.14582,0.8094c0.40662,0.18111 0.86352,-0.55354 0.86352,-0.55354" fill="none" stroke="#1db9e0" stroke-width="0.5" stroke-linecap="round"/><path d="M226.54797,171.32543c0,0 0.42764,-0.6978 0.70996,-0.68937c0.25289,0.00755 0.70066,0.61112 1.14582,0.8094c0.40662,0.18111 0.86352,-0.55354 0.86352,-0.55354" fill="none" stroke="#1db9e0" stroke-width="0.5" stroke-linecap="round"/><path d="M227.39461,174.09915c0,0 0.42764,-0.6978 0.70996,-0.68937c0.25289,0.00755 0.70066,0.61112 1.14582,0.8094c0.40662,0.18111 0.86352,-0.55354 0.86352,-0.55354" fill="none" stroke="#1db9e0" stroke-width="0.5" stroke-linecap="round"/><path d="M235.65475,175.61453v-11.87289h11.87289v11.87289z" fill="#13768e" stroke="#168eac" stroke-width="0.5" stroke-linecap="butt"/><path d="M238.63759,167.55807c0,0 0.42764,-0.6978 0.70996,-0.68937c0.25289,0.00755 0.70066,0.61112 1.14582,0.8094c0.40662,0.18111 0.86352,-0.55354 0.86352,-0.55354" fill="none" stroke="#1db9e0" stroke-width="0.5" stroke-linecap="round"/><path d="M242.6971,166.22193c0,0 0.42764,-0.69779 0.70996,-0.68936c0.25289,0.00755 0.70066,0.61111 1.14582,0.80939c0.40662,0.18111 0.86352,-0.55354 0.86352,-0.55354" fill="none" stroke="#1db9e0" stroke-width="0.5" stroke-linecap="round"/><path d="M241.37749,169.84132c0,0 0.42764,-0.6978 0.70996,-0.68937c0.25289,0.00755 0.70066,0.61112 1.14582,0.8094c0.40662,0.18111 0.86352,-0.55354 0.86352,-0.55354" fill="none" stroke="#1db9e0" stroke-width="0.5" stroke-linecap="round"/><path d="M244.14859,173.18585c0,0 0.42764,-0.6978 0.70996,-0.68937c0.25289,0.00755 0.70066,0.61112 1.14582,0.8094c0.40662,0.18111 0.86352,-0.55354 0.86352,-0.55354" fill="none" stroke="#1db9e0" stroke-width="0.5" stroke-linecap="round"/><path d="M238.39296,171.32543c0,0 0.42764,-0.6978 0.70996,-0.68937c0.25289,0.00755 0.70066,0.61112 1.14582,0.8094c0.40662,0.18111 0.86352,-0.55354 0.86352,-0.55354" fill="none" stroke="#1db9e0" stroke-width="0.5" stroke-linecap="round"/><path d="M239.23961,174.09915c0,0 0.42764,-0.6978 0.70996,-0.68937c0.25289,0.00755 0.70066,0.61112 1.14582,0.8094c0.40662,0.18111 0.86352,-0.55354 0.86352,-0.55354" fill="none" stroke="#1db9e0" stroke-width="0.5" stroke-linecap="round"/><path d="M223.80975,187.48743v-11.87289h11.87289v11.87289z" fill="#13768e" stroke="#168eac" stroke-width="0.5" stroke-linecap="butt"/><path d="M226.79259,179.43096c0,0 0.42764,-0.6978 0.70996,-0.68937c0.25289,0.00755 0.70066,0.61112 1.14582,0.8094c0.40662,0.18111 0.86352,-0.55354 0.86352,-0.55354" fill="none" stroke="#1db9e0" stroke-width="0.5" stroke-linecap="round"/><path d="M230.8521,178.09483c0,0 0.42764,-0.69779 0.70996,-0.68936c0.25289,0.00755 0.70066,0.61111 1.14582,0.80939c0.40662,0.18111 0.86352,-0.55354 0.86352,-0.55354" fill="none" stroke="#1db9e0" stroke-width="0.5" stroke-linecap="round"/><path d="M229.53249,181.71421c0,0 0.42764,-0.6978 0.70996,-0.68937c0.25289,0.00755 0.70066,0.61112 1.14582,0.8094c0.40662,0.18111 0.86352,-0.55354 0.86352,-0.55354" fill="none" stroke="#1db9e0" stroke-width="0.5" stroke-linecap="round"/><path d="M232.30359,185.05874c0,0 0.42764,-0.6978 0.70996,-0.68937c0.25289,0.00755 0.70066,0.61112 1.14582,0.8094c0.40662,0.18111 0.86352,-0.55354 0.86352,-0.55354" fill="none" stroke="#1db9e0" stroke-width="0.5" stroke-linecap="round"/><path d="M226.54797,183.19832c0,0 0.42764,-0.6978 0.70996,-0.68937c0.25289,0.00755 0.70066,0.61112 1.14582,0.8094c0.40662,0.18111 0.86352,-0.55354 0.86352,-0.55354" fill="none" stroke="#1db9e0" stroke-width="0.5" stroke-linecap="round"/><path d="M227.39461,185.97204c0,0 0.42764,-0.6978 0.70996,-0.68937c0.25289,0.00755 0.70066,0.61112 1.14582,0.8094c0.40662,0.18111 0.86352,-0.55354 0.86352,-0.55354" fill="none" stroke="#1db9e0" stroke-width="0.5" stroke-linecap="round"/><path d="M235.65475,187.48743v-11.87289h11.87289v11.87289z" fill="#13768e" stroke="#168eac" stroke-width="0.5" stroke-linecap="butt"/><path d="M238.63759,179.43096c0,0 0.42764,-0.6978 0.70996,-0.68937c0.25289,0.00755 0.70066,0.61112 1.14582,0.8094c0.40662,0.18111 0.86352,-0.55354 0.86352,-0.55354" fill="none" stroke="#1db9e0" stroke-width="0.5" stroke-linecap="round"/><path d="M242.6971,178.09483c0,0 0.42764,-0.69779 0.70996,-0.68936c0.25289,0.00755 0.70066,0.61111 1.14582,0.80939c0.40662,0.18111 0.86352,-0.55354 0.86352,-0.55354" fill="none" stroke="#1db9e0" stroke-width="0.5" stroke-linecap="round"/><path d="M241.37749,181.71421c0,0 0.42764,-0.6978 0.70996,-0.68937c0.25289,0.00755 0.70066,0.61112 1.14582,0.8094c0.40662,0.18111 0.86352,-0.55354 0.86352,-0.55354" fill="none" stroke="#1db9e0" stroke-width="0.5" stroke-linecap="round"/><path d="M244.14859,185.05874c0,0 0.42764,-0.6978 0.70996,-0.68937c0.25289,0.00755 0.70066,0.61112 1.14582,0.8094c0.40662,0.18111 0.86352,-0.55354 0.86352,-0.55354" fill="none" stroke="#1db9e0" stroke-width="0.5" stroke-linecap="round"/><path d="M238.39296,183.19832c0,0 0.42764,-0.6978 0.70996,-0.68937c0.25289,0.00755 0.70066,0.61112 1.14582,0.8094c0.40662,0.18111 0.86352,-0.55354 0.86352,-0.55354" fill="none" stroke="#1db9e0" stroke-width="0.5" stroke-linecap="round"/><path d="M239.23961,185.97204c0,0 0.42764,-0.6978 0.70996,-0.68937c0.25289,0.00755 0.70066,0.61112 1.14582,0.8094c0.40662,0.18111 0.86352,-0.55354 0.86352,-0.55354" fill="none" stroke="#1db9e0" stroke-width="0.5" stroke-linecap="round"/><path d="M211.81111,175.64715v-11.87289h11.87289v11.87289z" fill="#13768e" stroke="#168eac" stroke-width="0.5" stroke-linecap="butt"/><path d="M214.79395,167.59069c0,0 0.42764,-0.6978 0.70996,-0.68937c0.25289,0.00755 0.70066,0.61112 1.14582,0.8094c0.40662,0.18111 0.86352,-0.55354 0.86352,-0.55354" fill="none" stroke="#1db9e0" stroke-width="0.5" stroke-linecap="round"/><path d="M218.85346,166.25455c0,0 0.42764,-0.69779 0.70996,-0.68936c0.25289,0.00755 0.70066,0.61111 1.14582,0.80939c0.40662,0.18111 0.86352,-0.55354 0.86352,-0.55354" fill="none" stroke="#1db9e0" stroke-width="0.5" stroke-linecap="round"/><path d="M217.53385,169.87394c0,0 0.42764,-0.6978 0.70996,-0.68937c0.25289,0.00755 0.70066,0.61112 1.14582,0.8094c0.40662,0.18111 0.86352,-0.55354 0.86352,-0.55354" fill="none" stroke="#1db9e0" stroke-width="0.5" stroke-linecap="round"/><path d="M220.30495,173.21847c0,0 0.42764,-0.6978 0.70996,-0.68937c0.25289,0.00755 0.70066,0.61112 1.14582,0.8094c0.40662,0.18111 0.86352,-0.55354 0.86352,-0.55354" fill="none" stroke="#1db9e0" stroke-width="0.5" stroke-linecap="round"/><path d="M214.54933,171.35805c0,0 0.42764,-0.6978 0.70996,-0.68937c0.25289,0.00755 0.70066,0.61112 1.14582,0.8094c0.40662,0.18111 0.86352,-0.55354 0.86352,-0.55354" fill="none" stroke="#1db9e0" stroke-width="0.5" stroke-linecap="round"/><path d="M215.39597,174.13177c0,0 0.42764,-0.6978 0.70996,-0.68937c0.25289,0.00755 0.70066,0.61112 1.14582,0.8094c0.40662,0.18111 0.86352,-0.55354 0.86352,-0.55354" fill="none" stroke="#1db9e0" stroke-width="0.5" stroke-linecap="round"/><path d="M199.96611,187.52005v-11.87289h11.87289v11.87289z" fill="#1ba9cc" stroke="none" stroke-width="0" stroke-linecap="butt"/><path d="M211.81111,187.52005v-11.87289h11.87289v11.87289z" fill="#13768e" stroke="#168eac" stroke-width="0.5" stroke-linecap="butt"/><path d="M214.79395,179.46358c0,0 0.42764,-0.6978 0.70996,-0.68937c0.25289,0.00755 0.70066,0.61112 1.14582,0.8094c0.40662,0.18111 0.86352,-0.55354 0.86352,-0.55354" fill="none" stroke="#1db9e0" stroke-width="0.5" stroke-linecap="round"/><path d="M218.85346,178.12745c0,0 0.42764,-0.69779 0.70996,-0.68936c0.25289,0.00755 0.70066,0.61111 1.14582,0.80939c0.40662,0.18111 0.86352,-0.55354 0.86352,-0.55354" fill="none" stroke="#1db9e0" stroke-width="0.5" stroke-linecap="round"/><path d="M217.53385,181.74683c0,0 0.42764,-0.6978 0.70996,-0.68937c0.25289,0.00755 0.70066,0.61112 1.14582,0.8094c0.40662,0.18111 0.86352,-0.55354 0.86352,-0.55354" fill="none" stroke="#1db9e0" stroke-width="0.5" stroke-linecap="round"/><path d="M220.30495,185.09136c0,0 0.42764,-0.6978 0.70996,-0.68937c0.25289,0.00755 0.70066,0.61112 1.14582,0.8094c0.40662,0.18111 0.86352,-0.55354 0.86352,-0.55354" fill="none" stroke="#1db9e0" stroke-width="0.5" stroke-linecap="round"/><path d="M214.54933,183.23094c0,0 0.42764,-0.6978 0.70996,-0.68937c0.25289,0.00755 0.70066,0.61112 1.14582,0.8094c0.40662,0.18111 0.86352,-0.55354 0.86352,-0.55354" fill="none" stroke="#1db9e0" stroke-width="0.5" stroke-linecap="round"/><path d="M215.39597,186.00466c0,0 0.42764,-0.6978 0.70996,-0.68937c0.25289,0.00755 0.70066,0.61112 1.14582,0.8094c0.40662,0.18111 0.86352,-0.55354 0.86352,-0.55354" fill="none" stroke="#1db9e0" stroke-width="0.5" stroke-linecap="round"/><path d="M223.80975,199.36032v-11.87289h11.87289v11.87289z" fill="#13768e" stroke="#168eac" stroke-width="0.5" stroke-linecap="butt"/><path d="M226.79259,191.30386c0,0 0.42764,-0.6978 0.70996,-0.68937c0.25289,0.00755 0.70066,0.61112 1.14582,0.8094c0.40662,0.18111 0.86352,-0.55354 0.86352,-0.55354" fill="none" stroke="#1db9e0" stroke-width="0.5" stroke-linecap="round"/><path d="M230.8521,189.96772c0,0 0.42764,-0.69779 0.70996,-0.68936c0.25289,0.00755 0.70066,0.61111 1.14582,0.80939c0.40662,0.18111 0.86352,-0.55354 0.86352,-0.55354" fill="none" stroke="#1db9e0" stroke-width="0.5" stroke-linecap="round"/><path d="M229.53249,193.5871c0,0 0.42764,-0.6978 0.70996,-0.68937c0.25289,0.00755 0.70066,0.61112 1.14582,0.8094c0.40662,0.18111 0.86352,-0.55354 0.86352,-0.55354" fill="none" stroke="#1db9e0" stroke-width="0.5" stroke-linecap="round"/><path d="M232.30359,196.93163c0,0 0.42764,-0.6978 0.70996,-0.68937c0.25289,0.00755 0.70066,0.61112 1.14582,0.8094c0.40662,0.18111 0.86352,-0.55354 0.86352,-0.55354" fill="none" stroke="#1db9e0" stroke-width="0.5" stroke-linecap="round"/><path d="M226.54797,195.07121c0,0 0.42764,-0.6978 0.70996,-0.68937c0.25289,0.00755 0.70066,0.61112 1.14582,0.8094c0.40662,0.18111 0.86352,-0.55354 0.86352,-0.55354" fill="none" stroke="#1db9e0" stroke-width="0.5" stroke-linecap="round"/><path d="M227.39461,197.84493c0,0 0.42764,-0.6978 0.70996,-0.68937c0.25289,0.00755 0.70066,0.61112 1.14582,0.8094c0.40662,0.18111 0.86352,-0.55354 0.86352,-0.55354" fill="none" stroke="#1db9e0" stroke-width="0.5" stroke-linecap="round"/><path d="M235.65475,199.36032v-11.87289h11.87289v11.87289z" fill="#13768e" stroke="#168eac" stroke-width="0.5" stroke-linecap="butt"/><path d="M238.63759,191.30386c0,0 0.42764,-0.6978 0.70996,-0.68937c0.25289,0.00755 0.70066,0.61112 1.14582,0.8094c0.40662,0.18111 0.86352,-0.55354 0.86352,-0.55354" fill="none" stroke="#1db9e0" stroke-width="0.5" stroke-linecap="round"/><path d="M242.6971,189.96772c0,0 0.42764,-0.69779 0.70996,-0.68936c0.25289,0.00755 0.70066,0.61111 1.14582,0.80939c0.40662,0.18111 0.86352,-0.55354 0.86352,-0.55354" fill="none" stroke="#1db9e0" stroke-width="0.5" stroke-linecap="round"/><path d="M241.37749,193.5871c0,0 0.42764,-0.6978 0.70996,-0.68937c0.25289,0.00755 0.70066,0.61112 1.14582,0.8094c0.40662,0.18111 0.86352,-0.55354 0.86352,-0.55354" fill="none" stroke="#1db9e0" stroke-width="0.5" stroke-linecap="round"/><path d="M244.14859,196.93163c0,0 0.42764,-0.6978 0.70996,-0.68937c0.25289,0.00755 0.70066,0.61112 1.14582,0.8094c0.40662,0.18111 0.86352,-0.55354 0.86352,-0.55354" fill="none" stroke="#1db9e0" stroke-width="0.5" stroke-linecap="round"/><path d="M238.39296,195.07121c0,0 0.42764,-0.6978 0.70996,-0.68937c0.25289,0.00755 0.70066,0.61112 1.14582,0.8094c0.40662,0.18111 0.86352,-0.55354 0.86352,-0.55354" fill="none" stroke="#1db9e0" stroke-width="0.5" stroke-linecap="round"/><path d="M239.23961,197.84493c0,0 0.42764,-0.6978 0.70996,-0.68937c0.25289,0.00755 0.70066,0.61112 1.14582,0.8094c0.40662,0.18111 0.86352,-0.55354 0.86352,-0.55354" fill="none" stroke="#1db9e0" stroke-width="0.5" stroke-linecap="round"/><path d="M223.80975,211.23321v-11.87289h11.87289v11.87289z" fill="#1ba9cc" stroke="none" stroke-width="0" stroke-linecap="butt"/><path d="M235.65475,211.0477v-11.87289h11.87289v11.87289z" fill="#1ba9cc" stroke="none" stroke-width="0" stroke-linecap="butt"/><path d="M199.96611,199.39294v-11.87289h11.87289v11.87289z" fill="#1ba9cc" stroke="none" stroke-width="0" stroke-linecap="butt"/><path d="M211.81111,199.39294v-11.87289h11.87289v11.87289z" fill="#13768e" stroke="#168eac" stroke-width="0.5" stroke-linecap="butt"/><path d="M214.79395,191.33648c0,0 0.42764,-0.6978 0.70996,-0.68937c0.25289,0.00755 0.70066,0.61112 1.14582,0.8094c0.40662,0.18111 0.86352,-0.55354 0.86352,-0.55354" fill="none" stroke="#1db9e0" stroke-width="0.5" stroke-linecap="round"/><path d="M218.85346,190.00034c0,0 0.42764,-0.69779 0.70996,-0.68936c0.25289,0.00755 0.70066,0.61111 1.14582,0.80939c0.40662,0.18111 0.86352,-0.55354 0.86352,-0.55354" fill="none" stroke="#1db9e0" stroke-width="0.5" stroke-linecap="round"/><path d="M217.53385,193.61972c0,0 0.42764,-0.6978 0.70996,-0.68937c0.25289,0.00755 0.70066,0.61112 1.14582,0.8094c0.40662,0.18111 0.86352,-0.55354 0.86352,-0.55354" fill="none" stroke="#1db9e0" stroke-width="0.5" stroke-linecap="round"/><path d="M220.30495,196.96425c0,0 0.42764,-0.6978 0.70996,-0.68937c0.25289,0.00755 0.70066,0.61112 1.14582,0.8094c0.40662,0.18111 0.86352,-0.55354 0.86352,-0.55354" fill="none" stroke="#1db9e0" stroke-width="0.5" stroke-linecap="round"/><path d="M214.54933,195.10383c0,0 0.42764,-0.6978 0.70996,-0.68937c0.25289,0.00755 0.70066,0.61112 1.14582,0.8094c0.40662,0.18111 0.86352,-0.55354 0.86352,-0.55354" fill="none" stroke="#1db9e0" stroke-width="0.5" stroke-linecap="round"/><path d="M215.39597,197.87755c0,0 0.42764,-0.6978 0.70996,-0.68937c0.25289,0.00755 0.70066,0.61112 1.14582,0.8094c0.40662,0.18111 0.86352,-0.55354 0.86352,-0.55354" fill="none" stroke="#1db9e0" stroke-width="0.5" stroke-linecap="round"/><path d="M199.96611,211.26583v-11.87289h11.87289v11.87289z" fill="#1ba9cc" stroke="none" stroke-width="0" stroke-linecap="butt"/><path d="M211.81111,211.08032v-11.87289h11.87289v11.87289z" fill="#1ba9cc" stroke="none" stroke-width="0" stroke-linecap="butt"/><path d="M271.36728,175.58156v-11.87289h11.87289v11.87289z" fill="#13768e" stroke="#168eac" stroke-width="0.5" stroke-linecap="butt"/><path d="M274.35012,167.5251c0,0 0.42764,-0.6978 0.70996,-0.68937c0.25289,0.00755 0.70066,0.61112 1.14582,0.8094c0.40662,0.18111 0.86352,-0.55354 0.86352,-0.55354" fill="none" stroke="#1db9e0" stroke-width="0.5" stroke-linecap="round"/><path d="M278.40963,166.18896c0,0 0.42764,-0.69779 0.70996,-0.68936c0.25289,0.00755 0.70066,0.61111 1.14582,0.80939c0.40662,0.18111 0.86352,-0.55354 0.86352,-0.55354" fill="none" stroke="#1db9e0" stroke-width="0.5" stroke-linecap="round"/><path d="M277.09002,169.80834c0,0 0.42764,-0.6978 0.70996,-0.68937c0.25289,0.00755 0.70066,0.61112 1.14582,0.8094c0.40662,0.18111 0.86352,-0.55354 0.86352,-0.55354" fill="none" stroke="#1db9e0" stroke-width="0.5" stroke-linecap="round"/><path d="M279.86112,173.15287c0,0 0.42764,-0.6978 0.70996,-0.68937c0.25289,0.00755 0.70066,0.61112 1.14582,0.8094c0.40662,0.18111 0.86352,-0.55354 0.86352,-0.55354" fill="none" stroke="#1db9e0" stroke-width="0.5" stroke-linecap="round"/><path d="M274.10549,171.29245c0,0 0.42764,-0.6978 0.70996,-0.68937c0.25289,0.00755 0.70066,0.61112 1.14582,0.8094c0.40662,0.18111 0.86352,-0.55354 0.86352,-0.55354" fill="none" stroke="#1db9e0" stroke-width="0.5" stroke-linecap="round"/><path d="M274.95214,174.06617c0,0 0.42764,-0.6978 0.70996,-0.68937c0.25289,0.00755 0.70066,0.61112 1.14582,0.8094c0.40662,0.18111 0.86352,-0.55354 0.86352,-0.55354" fill="none" stroke="#1db9e0" stroke-width="0.5" stroke-linecap="round"/><path d="M283.21227,175.58156v-11.87289h11.87289v11.87289z" fill="#13768e" stroke="#168eac" stroke-width="0.5" stroke-linecap="butt"/><path d="M286.19512,167.5251c0,0 0.42764,-0.6978 0.70996,-0.68937c0.25289,0.00755 0.70066,0.61112 1.14582,0.8094c0.40662,0.18111 0.86352,-0.55354 0.86352,-0.55354" fill="none" stroke="#1db9e0" stroke-width="0.5" stroke-linecap="round"/><path d="M290.25462,166.18896c0,0 0.42764,-0.69779 0.70996,-0.68936c0.25289,0.00755 0.70066,0.61111 1.14582,0.80939c0.40662,0.18111 0.86352,-0.55354 0.86352,-0.55354" fill="none" stroke="#1db9e0" stroke-width="0.5" stroke-linecap="round"/><path d="M288.93502,169.80834c0,0 0.42764,-0.6978 0.70996,-0.68937c0.25289,0.00755 0.70066,0.61112 1.14582,0.8094c0.40662,0.18111 0.86352,-0.55354 0.86352,-0.55354" fill="none" stroke="#1db9e0" stroke-width="0.5" stroke-linecap="round"/><path d="M291.7061,173.15287c0,0 0.42764,-0.6978 0.70996,-0.68937c0.25289,0.00755 0.70066,0.61112 1.14582,0.8094c0.40662,0.18111 0.86352,-0.55354 0.86352,-0.55354" fill="none" stroke="#1db9e0" stroke-width="0.5" stroke-linecap="round"/><path d="M285.95049,171.29245c0,0 0.42764,-0.6978 0.70996,-0.68937c0.25289,0.00755 0.70066,0.61112 1.14582,0.8094c0.40662,0.18111 0.86352,-0.55354 0.86352,-0.55354" fill="none" stroke="#1db9e0" stroke-width="0.5" stroke-linecap="round"/><path d="M286.79713,174.06617c0,0 0.42764,-0.6978 0.70996,-0.68937c0.25289,0.00755 0.70066,0.61112 1.14582,0.8094c0.40662,0.18111 0.86352,-0.55354 0.86352,-0.55354" fill="none" stroke="#1db9e0" stroke-width="0.5" stroke-linecap="round"/><path d="M271.36728,187.45445v-11.87289h11.87289v11.87289z" fill="#1ba9cc" stroke="none" stroke-width="0" stroke-linecap="butt"/><path d="M247.52364,175.61418v-11.87289h11.87289v11.87289z" fill="#13768e" stroke="#168eac" stroke-width="0.5" stroke-linecap="butt"/><path d="M250.50648,167.55772c0,0 0.42764,-0.6978 0.70996,-0.68937c0.25289,0.00755 0.70066,0.61112 1.14582,0.8094c0.40662,0.18111 0.86352,-0.55354 0.86352,-0.55354" fill="none" stroke="#1db9e0" stroke-width="0.5" stroke-linecap="round"/><path d="M254.56599,166.22158c0,0 0.42764,-0.69779 0.70996,-0.68936c0.25289,0.00755 0.70066,0.61111 1.14582,0.80939c0.40662,0.18111 0.86352,-0.55354 0.86352,-0.55354" fill="none" stroke="#1db9e0" stroke-width="0.5" stroke-linecap="round"/><path d="M253.24638,169.84096c0,0 0.42764,-0.6978 0.70996,-0.68937c0.25289,0.00755 0.70066,0.61112 1.14582,0.8094c0.40662,0.18111 0.86352,-0.55354 0.86352,-0.55354" fill="none" stroke="#1db9e0" stroke-width="0.5" stroke-linecap="round"/><path d="M256.01748,173.18549c0,0 0.42764,-0.6978 0.70996,-0.68937c0.25289,0.00755 0.70066,0.61112 1.14582,0.8094c0.40662,0.18111 0.86352,-0.55354 0.86352,-0.55354" fill="none" stroke="#1db9e0" stroke-width="0.5" stroke-linecap="round"/><path d="M250.26186,171.32507c0,0 0.42764,-0.6978 0.70996,-0.68937c0.25289,0.00755 0.70066,0.61112 1.14582,0.8094c0.40662,0.18111 0.86352,-0.55354 0.86352,-0.55354" fill="none" stroke="#1db9e0" stroke-width="0.5" stroke-linecap="round"/><path d="M251.1085,174.09879c0,0 0.42764,-0.6978 0.70996,-0.68937c0.25289,0.00755 0.70066,0.61112 1.14582,0.8094c0.40662,0.18111 0.86352,-0.55354 0.86352,-0.55354" fill="none" stroke="#1db9e0" stroke-width="0.5" stroke-linecap="round"/><path d="M259.36864,175.61418v-11.87289h11.87289v11.87289z" fill="#13768e" stroke="#168eac" stroke-width="0.5" stroke-linecap="butt"/><path d="M262.35148,167.55772c0,0 0.42764,-0.6978 0.70996,-0.68937c0.25289,0.00755 0.70066,0.61112 1.14582,0.8094c0.40662,0.18111 0.86352,-0.55354 0.86352,-0.55354" fill="none" stroke="#1db9e0" stroke-width="0.5" stroke-linecap="round"/><path d="M266.41099,166.22158c0,0 0.42764,-0.69779 0.70996,-0.68936c0.25289,0.00755 0.70066,0.61111 1.14582,0.80939c0.40662,0.18111 0.86352,-0.55354 0.86352,-0.55354" fill="none" stroke="#1db9e0" stroke-width="0.5" stroke-linecap="round"/><path d="M265.09138,169.84096c0,0 0.42764,-0.6978 0.70996,-0.68937c0.25289,0.00755 0.70066,0.61112 1.14582,0.8094c0.40662,0.18111 0.86352,-0.55354 0.86352,-0.55354" fill="none" stroke="#1db9e0" stroke-width="0.5" stroke-linecap="round"/><path d="M267.86248,173.18549c0,0 0.42764,-0.6978 0.70996,-0.68937c0.25289,0.00755 0.70066,0.61112 1.14582,0.8094c0.40662,0.18111 0.86352,-0.55354 0.86352,-0.55354" fill="none" stroke="#1db9e0" stroke-width="0.5" stroke-linecap="round"/><path d="M262.10685,171.32507c0,0 0.42764,-0.6978 0.70996,-0.68937c0.25289,0.00755 0.70066,0.61112 1.14582,0.8094c0.40662,0.18111 0.86352,-0.55354 0.86352,-0.55354" fill="none" stroke="#1db9e0" stroke-width="0.5" stroke-linecap="round"/><path d="M262.95349,174.09879c0,0 0.42764,-0.6978 0.70996,-0.68937c0.25289,0.00755 0.70066,0.61112 1.14582,0.8094c0.40662,0.18111 0.86352,-0.55354 0.86352,-0.55354" fill="none" stroke="#1db9e0" stroke-width="0.5" stroke-linecap="round"/><path d="M247.52364,187.48707v-11.87289h11.87289v11.87289z" fill="#13768e" stroke="#168eac" stroke-width="0.5" stroke-linecap="butt"/><path d="M250.50648,179.43061c0,0 0.42764,-0.6978 0.70996,-0.68937c0.25289,0.00755 0.70066,0.61112 1.14582,0.8094c0.40662,0.18111 0.86352,-0.55354 0.86352,-0.55354" fill="none" stroke="#1db9e0" stroke-width="0.5" stroke-linecap="round"/><path d="M254.56599,178.09447c0,0 0.42764,-0.69779 0.70996,-0.68936c0.25289,0.00755 0.70066,0.61111 1.14582,0.80939c0.40662,0.18111 0.86352,-0.55354 0.86352,-0.55354" fill="none" stroke="#1db9e0" stroke-width="0.5" stroke-linecap="round"/><path d="M253.24638,181.71385c0,0 0.42764,-0.6978 0.70996,-0.68937c0.25289,0.00755 0.70066,0.61112 1.14582,0.8094c0.40662,0.18111 0.86352,-0.55354 0.86352,-0.55354" fill="none" stroke="#1db9e0" stroke-width="0.5" stroke-linecap="round"/><path d="M256.01748,185.05838c0,0 0.42764,-0.6978 0.70996,-0.68937c0.25289,0.00755 0.70066,0.61112 1.14582,0.8094c0.40662,0.18111 0.86352,-0.55354 0.86352,-0.55354" fill="none" stroke="#1db9e0" stroke-width="0.5" stroke-linecap="round"/><path d="M250.26186,183.19797c0,0 0.42764,-0.6978 0.70996,-0.68937c0.25289,0.00755 0.70066,0.61112 1.14582,0.8094c0.40662,0.18111 0.86352,-0.55354 0.86352,-0.55354" fill="none" stroke="#1db9e0" stroke-width="0.5" stroke-linecap="round"/><path d="M251.1085,185.97168c0,0 0.42764,-0.6978 0.70996,-0.68937c0.25289,0.00755 0.70066,0.61112 1.14582,0.8094c0.40662,0.18111 0.86352,-0.55354 0.86352,-0.55354" fill="none" stroke="#1db9e0" stroke-width="0.5" stroke-linecap="round"/><path d="M259.36864,187.48707v-11.87289h11.87289v11.87289z" fill="#1ba9cc" stroke="none" stroke-width="0" stroke-linecap="butt"/><path d="M271.36728,199.32734v-11.87289h11.87289v11.87289z" fill="#13768e" stroke="#168eac" stroke-width="0.5" stroke-linecap="butt"/><path d="M274.35012,191.27088c0,0 0.42764,-0.6978 0.70996,-0.68937c0.25289,0.00755 0.70066,0.61112 1.14582,0.8094c0.40662,0.18111 0.86352,-0.55354 0.86352,-0.55354" fill="none" stroke="#1db9e0" stroke-width="0.5" stroke-linecap="round"/><path d="M278.40963,189.93474c0,0 0.42764,-0.69779 0.70996,-0.68936c0.25289,0.00755 0.70066,0.61111 1.14582,0.80939c0.40662,0.18111 0.86352,-0.55354 0.86352,-0.55354" fill="none" stroke="#1db9e0" stroke-width="0.5" stroke-linecap="round"/><path d="M277.09002,193.55412c0,0 0.42764,-0.6978 0.70996,-0.68937c0.25289,0.00755 0.70066,0.61112 1.14582,0.8094c0.40662,0.18111 0.86352,-0.55354 0.86352,-0.55354" fill="none" stroke="#1db9e0" stroke-width="0.5" stroke-linecap="round"/><path d="M279.86112,196.89865c0,0 0.42764,-0.6978 0.70996,-0.68937c0.25289,0.00755 0.70066,0.61112 1.14582,0.8094c0.40662,0.18111 0.86352,-0.55354 0.86352,-0.55354" fill="none" stroke="#1db9e0" stroke-width="0.5" stroke-linecap="round"/><path d="M274.10549,195.03824c0,0 0.42764,-0.6978 0.70996,-0.68937c0.25289,0.00755 0.70066,0.61112 1.14582,0.8094c0.40662,0.18111 0.86352,-0.55354 0.86352,-0.55354" fill="none" stroke="#1db9e0" stroke-width="0.5" stroke-linecap="round"/><path d="M274.95214,197.81195c0,0 0.42764,-0.6978 0.70996,-0.68937c0.25289,0.00755 0.70066,0.61112 1.14582,0.8094c0.40662,0.18111 0.86352,-0.55354 0.86352,-0.55354" fill="none" stroke="#1db9e0" stroke-width="0.5" stroke-linecap="round"/><path d="M283.21227,199.32734v-11.87289h11.87289v11.87289z" fill="#13768e" stroke="#168eac" stroke-width="0.5" stroke-linecap="butt"/><path d="M286.19512,191.27088c0,0 0.42764,-0.6978 0.70996,-0.68937c0.25289,0.00755 0.70066,0.61112 1.14582,0.8094c0.40662,0.18111 0.86352,-0.55354 0.86352,-0.55354" fill="none" stroke="#1db9e0" stroke-width="0.5" stroke-linecap="round"/><path d="M290.25462,189.93474c0,0 0.42764,-0.69779 0.70996,-0.68936c0.25289,0.00755 0.70066,0.61111 1.14582,0.80939c0.40662,0.18111 0.86352,-0.55354 0.86352,-0.55354" fill="none" stroke="#1db9e0" stroke-width="0.5" stroke-linecap="round"/><path d="M288.93502,193.55412c0,0 0.42764,-0.6978 0.70996,-0.68937c0.25289,0.00755 0.70066,0.61112 1.14582,0.8094c0.40662,0.18111 0.86352,-0.55354 0.86352,-0.55354" fill="none" stroke="#1db9e0" stroke-width="0.5" stroke-linecap="round"/><path d="M291.7061,196.89865c0,0 0.42764,-0.6978 0.70996,-0.68937c0.25289,0.00755 0.70066,0.61112 1.14582,0.8094c0.40662,0.18111 0.86352,-0.55354 0.86352,-0.55354" fill="none" stroke="#1db9e0" stroke-width="0.5" stroke-linecap="round"/><path d="M285.95049,195.03824c0,0 0.42764,-0.6978 0.70996,-0.68937c0.25289,0.00755 0.70066,0.61112 1.14582,0.8094c0.40662,0.18111 0.86352,-0.55354 0.86352,-0.55354" fill="none" stroke="#1db9e0" stroke-width="0.5" stroke-linecap="round"/><path d="M286.79713,197.81195c0,0 0.42764,-0.6978 0.70996,-0.68937c0.25289,0.00755 0.70066,0.61112 1.14582,0.8094c0.40662,0.18111 0.86352,-0.55354 0.86352,-0.55354" fill="none" stroke="#1db9e0" stroke-width="0.5" stroke-linecap="round"/><path d="M271.36728,211.20023v-11.87289h11.87289v11.87289z" fill="#13768e" stroke="#168eac" stroke-width="0.5" stroke-linecap="butt"/><path d="M274.35012,203.14377c0,0 0.42764,-0.6978 0.70996,-0.68937c0.25289,0.00755 0.70066,0.61112 1.14582,0.8094c0.40662,0.18111 0.86352,-0.55354 0.86352,-0.55354" fill="none" stroke="#1db9e0" stroke-width="0.5" stroke-linecap="round"/><path d="M278.40963,201.80763c0,0 0.42764,-0.69779 0.70996,-0.68936c0.25289,0.00755 0.70066,0.61111 1.14582,0.80939c0.40662,0.18111 0.86352,-0.55354 0.86352,-0.55354" fill="none" stroke="#1db9e0" stroke-width="0.5" stroke-linecap="round"/><path d="M277.09002,205.42702c0,0 0.42764,-0.6978 0.70996,-0.68937c0.25289,0.00755 0.70066,0.61112 1.14582,0.8094c0.40662,0.18111 0.86352,-0.55354 0.86352,-0.55354" fill="none" stroke="#1db9e0" stroke-width="0.5" stroke-linecap="round"/><path d="M279.86112,208.77154c0,0 0.42764,-0.6978 0.70996,-0.68937c0.25289,0.00755 0.70066,0.61112 1.14582,0.8094c0.40662,0.18111 0.86352,-0.55354 0.86352,-0.55354" fill="none" stroke="#1db9e0" stroke-width="0.5" stroke-linecap="round"/><path d="M274.10549,206.91113c0,0 0.42764,-0.6978 0.70996,-0.68937c0.25289,0.00755 0.70066,0.61112 1.14582,0.8094c0.40662,0.18111 0.86352,-0.55354 0.86352,-0.55354" fill="none" stroke="#1db9e0" stroke-width="0.5" stroke-linecap="round"/><path d="M274.95214,209.68484c0,0 0.42764,-0.6978 0.70996,-0.68937c0.25289,0.00755 0.70066,0.61112 1.14582,0.8094c0.40662,0.18111 0.86352,-0.55354 0.86352,-0.55354" fill="none" stroke="#1db9e0" stroke-width="0.5" stroke-linecap="round"/><path d="M283.21227,211.20023v-11.87289h11.87289v11.87289z" fill="#13768e" stroke="#168eac" stroke-width="0.5" stroke-linecap="butt"/><path d="M286.19512,203.14377c0,0 0.42764,-0.6978 0.70996,-0.68937c0.25289,0.00755 0.70066,0.61112 1.14582,0.8094c0.40662,0.18111 0.86352,-0.55354 0.86352,-0.55354" fill="none" stroke="#1db9e0" stroke-width="0.5" stroke-linecap="round"/><path d="M290.25462,201.80763c0,0 0.42764,-0.69779 0.70996,-0.68936c0.25289,0.00755 0.70066,0.61111 1.14582,0.80939c0.40662,0.18111 0.86352,-0.55354 0.86352,-0.55354" fill="none" stroke="#1db9e0" stroke-width="0.5" stroke-linecap="round"/><path d="M288.93502,205.42702c0,0 0.42764,-0.6978 0.70996,-0.68937c0.25289,0.00755 0.70066,0.61112 1.14582,0.8094c0.40662,0.18111 0.86352,-0.55354 0.86352,-0.55354" fill="none" stroke="#1db9e0" stroke-width="0.5" stroke-linecap="round"/><path d="M291.7061,208.77154c0,0 0.42764,-0.6978 0.70996,-0.68937c0.25289,0.00755 0.70066,0.61112 1.14582,0.8094c0.40662,0.18111 0.86352,-0.55354 0.86352,-0.55354" fill="none" stroke="#1db9e0" stroke-width="0.5" stroke-linecap="round"/><path d="M285.95049,206.91113c0,0 0.42764,-0.6978 0.70996,-0.68937c0.25289,0.00755 0.70066,0.61112 1.14582,0.8094c0.40662,0.18111 0.86352,-0.55354 0.86352,-0.55354" fill="none" stroke="#1db9e0" stroke-width="0.5" stroke-linecap="round"/><path d="M286.79713,209.68484c0,0 0.42764,-0.6978 0.70996,-0.68937c0.25289,0.00755 0.70066,0.61112 1.14582,0.8094c0.40662,0.18111 0.86352,-0.55354 0.86352,-0.55354" fill="none" stroke="#1db9e0" stroke-width="0.5" stroke-linecap="round"/><path d="M247.52364,199.35996v-11.87289h11.87289v11.87289z" fill="#13768e" stroke="#168eac" stroke-width="0.5" stroke-linecap="butt"/><path d="M250.50648,191.3035c0,0 0.42764,-0.6978 0.70996,-0.68937c0.25289,0.00755 0.70066,0.61112 1.14582,0.8094c0.40662,0.18111 0.86352,-0.55354 0.86352,-0.55354" fill="none" stroke="#1db9e0" stroke-width="0.5" stroke-linecap="round"/><path d="M254.56599,189.96736c0,0 0.42764,-0.69779 0.70996,-0.68936c0.25289,0.00755 0.70066,0.61111 1.14582,0.80939c0.40662,0.18111 0.86352,-0.55354 0.86352,-0.55354" fill="none" stroke="#1db9e0" stroke-width="0.5" stroke-linecap="round"/><path d="M253.24638,193.58675c0,0 0.42764,-0.6978 0.70996,-0.68937c0.25289,0.00755 0.70066,0.61112 1.14582,0.8094c0.40662,0.18111 0.86352,-0.55354 0.86352,-0.55354" fill="none" stroke="#1db9e0" stroke-width="0.5" stroke-linecap="round"/><path d="M256.01748,196.93127c0,0 0.42764,-0.6978 0.70996,-0.68937c0.25289,0.00755 0.70066,0.61112 1.14582,0.8094c0.40662,0.18111 0.86352,-0.55354 0.86352,-0.55354" fill="none" stroke="#1db9e0" stroke-width="0.5" stroke-linecap="round"/><path d="M250.26186,195.07086c0,0 0.42764,-0.6978 0.70996,-0.68937c0.25289,0.00755 0.70066,0.61112 1.14582,0.8094c0.40662,0.18111 0.86352,-0.55354 0.86352,-0.55354" fill="none" stroke="#1db9e0" stroke-width="0.5" stroke-linecap="round"/><path d="M251.1085,197.84457c0,0 0.42764,-0.6978 0.70996,-0.68937c0.25289,0.00755 0.70066,0.61112 1.14582,0.8094c0.40662,0.18111 0.86352,-0.55354 0.86352,-0.55354" fill="none" stroke="#1db9e0" stroke-width="0.5" stroke-linecap="round"/><path d="M259.73967,199.35996v-11.87289h11.87289v11.87289z" fill="#1ba9cc" stroke="none" stroke-width="0" stroke-linecap="butt"/><path d="M247.52364,211.23285v-11.87289h11.87289v11.87289z" fill="#13768e" stroke="#168eac" stroke-width="0.5" stroke-linecap="butt"/><path d="M250.50648,203.17639c0,0 0.42764,-0.6978 0.70996,-0.68937c0.25289,0.00755 0.70066,0.61112 1.14582,0.8094c0.40662,0.18111 0.86352,-0.55354 0.86352,-0.55354" fill="none" stroke="#1db9e0" stroke-width="0.5" stroke-linecap="round"/><path d="M254.56599,201.84025c0,0 0.42764,-0.69779 0.70996,-0.68936c0.25289,0.00755 0.70066,0.61111 1.14582,0.80939c0.40662,0.18111 0.86352,-0.55354 0.86352,-0.55354" fill="none" stroke="#1db9e0" stroke-width="0.5" stroke-linecap="round"/><path d="M253.24638,205.45964c0,0 0.42764,-0.6978 0.70996,-0.68937c0.25289,0.00755 0.70066,0.61112 1.14582,0.8094c0.40662,0.18111 0.86352,-0.55354 0.86352,-0.55354" fill="none" stroke="#1db9e0" stroke-width="0.5" stroke-linecap="round"/><path d="M256.01748,208.80416c0,0 0.42764,-0.6978 0.70996,-0.68937c0.25289,0.00755 0.70066,0.61112 1.14582,0.8094c0.40662,0.18111 0.86352,-0.55354 0.86352,-0.55354" fill="none" stroke="#1db9e0" stroke-width="0.5" stroke-linecap="round"/><path d="M250.26186,206.94375c0,0 0.42764,-0.6978 0.70996,-0.68937c0.25289,0.00755 0.70066,0.61112 1.14582,0.8094c0.40662,0.18111 0.86352,-0.55354 0.86352,-0.55354" fill="none" stroke="#1db9e0" stroke-width="0.5" stroke-linecap="round"/><path d="M251.1085,209.71746c0,0 0.42764,-0.6978 0.70996,-0.68937c0.25289,0.00755 0.70066,0.61112 1.14582,0.8094c0.40662,0.18111 0.86352,-0.55354 0.86352,-0.55354" fill="none" stroke="#1db9e0" stroke-width="0.5" stroke-linecap="round"/><path d="M259.73967,211.23285v-11.87289h11.87289v11.87289z" fill="#1ba9cc" stroke="none" stroke-width="0" stroke-linecap="butt"/><path d="M223.80975,223.1061v-11.87289h11.87289v11.87289z" fill="#13768e" stroke="#168eac" stroke-width="0.5" stroke-linecap="butt"/><path d="M226.79259,215.21454c0,0 0.42764,-0.6978 0.70996,-0.68937c0.25289,0.00755 0.70066,0.61112 1.14582,0.8094c0.40662,0.18111 0.86352,-0.55354 0.86352,-0.55354" fill="none" stroke="#1db9e0" stroke-width="0.5" stroke-linecap="round"/><path d="M229.53249,217.33289c0,0 0.42764,-0.6978 0.70996,-0.68937c0.25289,0.00755 0.70066,0.61112 1.14582,0.8094c0.40662,0.18111 0.86352,-0.55354 0.86352,-0.55354" fill="none" stroke="#1db9e0" stroke-width="0.5" stroke-linecap="round"/><path d="M232.30359,220.67741c0,0 0.42764,-0.6978 0.70996,-0.68937c0.25289,0.00755 0.70066,0.61112 1.14582,0.8094c0.40662,0.18111 0.86352,-0.55354 0.86352,-0.55354" fill="none" stroke="#1db9e0" stroke-width="0.5" stroke-linecap="round"/><path d="M226.54797,218.817c0,0 0.42764,-0.6978 0.70996,-0.68937c0.25289,0.00755 0.70066,0.61112 1.14582,0.8094c0.40662,0.18111 0.86352,-0.55354 0.86352,-0.55354" fill="none" stroke="#1db9e0" stroke-width="0.5" stroke-linecap="round"/><path d="M227.39461,221.59071c0,0 0.42764,-0.6978 0.70996,-0.68937c0.25289,0.00755 0.70066,0.61112 1.14582,0.8094c0.40662,0.18111 0.86352,-0.55354 0.86352,-0.55354" fill="none" stroke="#1db9e0" stroke-width="0.5" stroke-linecap="round"/><path d="M235.65475,222.92059v-11.87289h11.87289v11.87289z" fill="#1ba9cc" stroke="none" stroke-width="0" stroke-linecap="butt"/><path d="M199.96611,223.13872v-11.87289h11.87289v11.87289z" fill="#13768e" stroke="#168eac" stroke-width="0.5" stroke-linecap="butt"/><path d="M202.94895,215.24716c0,0 0.42764,-0.6978 0.70996,-0.68937c0.25289,0.00755 0.70066,0.61112 1.14582,0.8094c0.40662,0.18111 0.86352,-0.55354 0.86352,-0.55354" fill="none" stroke="#1db9e0" stroke-width="0.5" stroke-linecap="round"/><path d="M205.68885,217.36551c0,0 0.42764,-0.6978 0.70996,-0.68937c0.25289,0.00755 0.70066,0.61112 1.14582,0.8094c0.40662,0.18111 0.86352,-0.55354 0.86352,-0.55354" fill="none" stroke="#1db9e0" stroke-width="0.5" stroke-linecap="round"/><path d="M208.45995,220.71003c0,0 0.42764,-0.6978 0.70996,-0.68937c0.25289,0.00755 0.70066,0.61112 1.14582,0.8094c0.40662,0.18111 0.86352,-0.55354 0.86352,-0.55354" fill="none" stroke="#1db9e0" stroke-width="0.5" stroke-linecap="round"/><path d="M202.70433,218.84962c0,0 0.42764,-0.6978 0.70996,-0.68937c0.25289,0.00755 0.70066,0.61112 1.14582,0.8094c0.40662,0.18111 0.86352,-0.55354 0.86352,-0.55354" fill="none" stroke="#1db9e0" stroke-width="0.5" stroke-linecap="round"/><path d="M203.55097,221.62333c0,0 0.42764,-0.6978 0.70996,-0.68937c0.25289,0.00755 0.70066,0.61112 1.14582,0.8094c0.40662,0.18111 0.86352,-0.55354 0.86352,-0.55354" fill="none" stroke="#1db9e0" stroke-width="0.5" stroke-linecap="round"/><path d="M211.81111,223.13872v-11.87289h11.87289v11.87289z" fill="#13768e" stroke="#168eac" stroke-width="0.5" stroke-linecap="butt"/><path d="M214.79395,215.24716c0,0 0.42764,-0.6978 0.70996,-0.68937c0.25289,0.00755 0.70066,0.61112 1.14582,0.8094c0.40662,0.18111 0.86352,-0.55354 0.86352,-0.55354" fill="none" stroke="#1db9e0" stroke-width="0.5" stroke-linecap="round"/><path d="M217.53385,217.36551c0,0 0.42764,-0.6978 0.70996,-0.68937c0.25289,0.00755 0.70066,0.61112 1.14582,0.8094c0.40662,0.18111 0.86352,-0.55354 0.86352,-0.55354" fill="none" stroke="#1db9e0" stroke-width="0.5" stroke-linecap="round"/><path d="M220.30495,220.71003c0,0 0.42764,-0.6978 0.70996,-0.68937c0.25289,0.00755 0.70066,0.61112 1.14582,0.8094c0.40662,0.18111 0.86352,-0.55354 0.86352,-0.55354" fill="none" stroke="#1db9e0" stroke-width="0.5" stroke-linecap="round"/><path d="M214.54933,218.84962c0,0 0.42764,-0.6978 0.70996,-0.68937c0.25289,0.00755 0.70066,0.61112 1.14582,0.8094c0.40662,0.18111 0.86352,-0.55354 0.86352,-0.55354" fill="none" stroke="#1db9e0" stroke-width="0.5" stroke-linecap="round"/><path d="M215.39597,221.62333c0,0 0.42764,-0.6978 0.70996,-0.68937c0.25289,0.00755 0.70066,0.61112 1.14582,0.8094c0.40662,0.18111 0.86352,-0.55354 0.86352,-0.55354" fill="none" stroke="#1db9e0" stroke-width="0.5" stroke-linecap="round"/><path d="M271.36728,223.07312v-11.87289h11.87289v11.87289z" fill="#13768e" stroke="#168eac" stroke-width="0.5" stroke-linecap="butt"/><path d="M274.35012,215.18156c0,0 0.42764,-0.6978 0.70996,-0.68937c0.25289,0.00755 0.70066,0.61112 1.14582,0.8094c0.40662,0.18111 0.86352,-0.55354 0.86352,-0.55354" fill="none" stroke="#1db9e0" stroke-width="0.5" stroke-linecap="round"/><path d="M277.09002,217.29991c0,0 0.42764,-0.6978 0.70996,-0.68937c0.25289,0.00755 0.70066,0.61112 1.14582,0.8094c0.40662,0.18111 0.86352,-0.55354 0.86352,-0.55354" fill="none" stroke="#1db9e0" stroke-width="0.5" stroke-linecap="round"/><path d="M279.86112,220.64443c0,0 0.42764,-0.6978 0.70996,-0.68937c0.25289,0.00755 0.70066,0.61112 1.14582,0.8094c0.40662,0.18111 0.86352,-0.55354 0.86352,-0.55354" fill="none" stroke="#1db9e0" stroke-width="0.5" stroke-linecap="round"/><path d="M274.10549,218.78402c0,0 0.42764,-0.6978 0.70996,-0.68937c0.25289,0.00755 0.70066,0.61112 1.14582,0.8094c0.40662,0.18111 0.86352,-0.55354 0.86352,-0.55354" fill="none" stroke="#1db9e0" stroke-width="0.5" stroke-linecap="round"/><path d="M274.95214,221.55773c0,0 0.42764,-0.6978 0.70996,-0.68937c0.25289,0.00755 0.70066,0.61112 1.14582,0.8094c0.40662,0.18111 0.86352,-0.55354 0.86352,-0.55354" fill="none" stroke="#1db9e0" stroke-width="0.5" stroke-linecap="round"/><path d="M283.21227,223.07312v-11.87289h11.87289v11.87289z" fill="#13768e" stroke="#168eac" stroke-width="0.5" stroke-linecap="butt"/><path d="M286.19512,215.18156c0,0 0.42764,-0.6978 0.70996,-0.68937c0.25289,0.00755 0.70066,0.61112 1.14582,0.8094c0.40662,0.18111 0.86352,-0.55354 0.86352,-0.55354" fill="none" stroke="#1db9e0" stroke-width="0.5" stroke-linecap="round"/><path d="M288.93502,217.29991c0,0 0.42764,-0.6978 0.70996,-0.68937c0.25289,0.00755 0.70066,0.61112 1.14582,0.8094c0.40662,0.18111 0.86352,-0.55354 0.86352,-0.55354" fill="none" stroke="#1db9e0" stroke-width="0.5" stroke-linecap="round"/><path d="M291.7061,220.64443c0,0 0.42764,-0.6978 0.70996,-0.68937c0.25289,0.00755 0.70066,0.61112 1.14582,0.8094c0.40662,0.18111 0.86352,-0.55354 0.86352,-0.55354" fill="none" stroke="#1db9e0" stroke-width="0.5" stroke-linecap="round"/><path d="M285.95049,218.78402c0,0 0.42764,-0.6978 0.70996,-0.68937c0.25289,0.00755 0.70066,0.61112 1.14582,0.8094c0.40662,0.18111 0.86352,-0.55354 0.86352,-0.55354" fill="none" stroke="#1db9e0" stroke-width="0.5" stroke-linecap="round"/><path d="M286.79713,221.55773c0,0 0.42764,-0.6978 0.70996,-0.68937c0.25289,0.00755 0.70066,0.61112 1.14582,0.8094c0.40662,0.18111 0.86352,-0.55354 0.86352,-0.55354" fill="none" stroke="#1db9e0" stroke-width="0.5" stroke-linecap="round"/><path d="M247.70915,222.92023v-11.87289h11.87289v11.87289z" fill="#1ba9cc" stroke="none" stroke-width="0" stroke-linecap="butt"/><path d="M259.73967,222.92023v-11.87289h11.87289v11.87289z" fill="#1ba9cc" stroke="none" stroke-width="0" stroke-linecap="butt"/><g stroke-linecap="butt"><path d="M199.858,175.58958v-11.87289h11.87289v11.87289z" fill="#1ba9cc" stroke="none" stroke-width="0"/><path d="M200.93112,174.5794v-9.20149h9.20149v9.20149z" fill="none" stroke="#86beff" stroke-width="0.5"/><path d="M205.53005,173.23248l-3.25201,-3.15671l3.15671,-3.252l3.252,3.1567z" fill="none" stroke="#86beff" stroke-width="0.5"/><text transform="translate(203.70146,172.47188) scale(0.17521,0.17521)" font-size="40" xml:space="preserve" fill="#ffffff" fill-rule="nonzero" stroke="none" stroke-width="1" stroke-linecap="butt" stroke-linejoin="miter" stroke-miterlimit="10" stroke-dasharray="" stroke-dashoffset="0" font-family="Sans Serif" font-weight="normal" text-anchor="start" style="mix-blend-mode: normal"><tspan x="0" dy="0">F</tspan></text></g><g stroke-linecap="butt"><path d="M283.29107,187.44407v-11.87289h11.87289v11.87289z" fill="#1ba9cc" stroke="none" stroke-width="0"/><path d="M284.39826,186.41931v-9.20149h9.20149v9.20149z" fill="#1ba9cc" stroke="#ff9c9c" stroke-width="0.5"/><path d="M286.27813,182.06592c0,-1.58466 1.28462,-2.86928 2.86928,-2.86928c1.58466,0 2.86928,1.28462 2.86928,2.86928c0,1.58466 -1.28462,2.86928 -2.86928,2.86928c-1.58466,0 -2.86928,-1.28462 -2.86928,-2.86928z" fill="#1ba9cc" stroke="#ff9c9c" stroke-width="0.5"/><text transform="translate(288.25694,184.41074) scale(0.17521,0.17521)" font-size="40" xml:space="preserve" fill="#ffffff" fill-rule="nonzero" stroke="none" stroke-width="1" stroke-linecap="butt" stroke-linejoin="miter" stroke-miterlimit="10" stroke-dasharray="" stroke-dashoffset="0" font-family="Sans Serif" font-weight="normal" text-anchor="start" style="mix-blend-mode: normal"><tspan x="0" dy="0">!</tspan></text></g></g></g></g></svg>