<svg version="1.1" xmlns="http://www.w3.org/2000/svg" xmlns:xlink="http://www.w3.org/1999/xlink" width="319.34979" height="36.11308" viewBox="0,0,319.34979,36.11308"><g transform="translate(-80.3251,-161.94346)"><g data-paper-data="{&quot;isPaintingLayer&quot;:true}" fill-rule="nonzero" stroke-linecap="butt" stroke-linejoin="miter" stroke-miterlimit="10" stroke-dasharray="" stroke-dashoffset="0" style="mix-blend-mode: normal"><path d="M80.48773,192.35254c-0.36591,-3.23949 0,-10.15428 0,-24.56141c0,-3.48181 2.1958,-5.84767 5.67761,-5.84767c6.49872,0 295.92394,0 307.73455,0c3.56479,0 5.775,2.08969 5.775,5.65448c0,11.74343 0,18.22541 0,24.7546c0,3.54334 -2.29605,5.704 -5.83939,5.704c-11.84172,0 -301.18322,0 -307.67015,0c-2.83416,0 -5.3117,-2.46452 -5.67761,-5.704z" fill="#ffffff" stroke="none" stroke-width="0"/><text transform="translate(111.23316,184.86683) scale(0.45232,0.45232)" font-size="40" xml:space="preserve" fill="#252525" fill-rule="nonzero" stroke-opacity="0" stroke="#000000" stroke-width="0" stroke-linecap="butt" stroke-linejoin="miter" stroke-miterlimit="10" stroke-dasharray="" stroke-dashoffset="0" font-family="&quot;ヒラギノ角ゴ Pro W3&quot;, &quot;Hiragino Kaku Gothic Pro&quot;, Osaka, &quot;メイリオ&quot;, Meiryo, &quot;ＭＳ Ｐゴシック&quot;, &quot;MS PGothic&quot;" font-weight="normal" text-anchor="start" style="mix-blend-mode: normal"><tspan x="0" dy="0">我的成就</tspan></text><g fill="#dadada"><path d="M389.18457,171.17077v-6.94223h6.94223v6.94223z" stroke="none" stroke-width="0"/><path d="M389.09478,179.37545v-6.94223h6.94223v6.94223z" stroke="none" stroke-width="0"/><path d="M389.1935,187.76865v-6.94223h6.94223v6.94223z" stroke="none" stroke-width="0"/><path d="M389.29221,195.78482v-6.94223h6.94223v6.94223z" stroke="none" stroke-width="0"/><path d="M382.61123,169.48621v-5.15896h5.15896v5.15896z" stroke="none" stroke-width="0"/><path d="M382.5445,175.58334v-5.15896h5.15896v5.15896z" stroke="none" stroke-width="0"/><path d="M382.61786,181.82054v-5.15896h5.15896v5.15896z" stroke="none" stroke-width="0"/><path d="M382.69122,187.77758v-5.15896h5.15896v5.15896z" stroke="none" stroke-width="0"/><path d="M376.26248,168.69141v-4.45394h4.45394v4.45394z" stroke="#ffffff" stroke-width="0.5"/><path d="M376.20487,173.9553v-4.45394h4.45394v4.45394z" stroke="#ffffff" stroke-width="0.5"/><path d="M376.2682,179.34014v-4.45394h4.45394v4.45394z" stroke="#ffffff" stroke-width="0.5"/><path d="M376.33154,184.4831v-4.45394h4.45394v4.45394z" stroke="#ffffff" stroke-width="0.5"/><path d="M370.90041,167.48188v-3.33421h3.33421v3.33421z" stroke="#ffffff" stroke-width="0.5"/><path d="M370.85728,171.42243v-3.33421h3.33421v3.33421z" stroke="#ffffff" stroke-width="0.5"/><path d="M370.90469,175.45351v-3.33421h3.33421v3.33421z" stroke="#ffffff" stroke-width="0.5"/><path d="M370.95211,179.30351v-3.33421h3.33421v3.33421z" stroke="#ffffff" stroke-width="0.5"/><path d="M366.20614,167.29408v-2.67067h2.67067v2.67067z" stroke="#ffffff" stroke-width="1"/><path d="M366.1716,170.45041v-2.67067h2.67067v2.67067z" stroke="#ffffff" stroke-width="1"/><path d="M366.20958,173.67927v-2.67067h2.67067v2.67067z" stroke="#ffffff" stroke-width="1"/><path d="M366.24755,176.76308v-2.67067h2.67067v2.67067z" stroke="#ffffff" stroke-width="1"/><path d="M362.76644,166.48077v-1.79069h1.79069v1.79069z" stroke="#ffffff" stroke-width="1"/><path d="M362.74327,168.59709v-1.79069h1.79069v1.79069z" stroke="#ffffff" stroke-width="1"/><path d="M362.76874,170.76204v-1.79069h1.79069v1.79069z" stroke="#ffffff" stroke-width="1"/><path d="M362.7942,172.82975v-1.79069h1.79069v1.79069z" stroke="#ffffff" stroke-width="1"/></g></g></g></svg>